%TF.GenerationSoftware,KiCad,Pcbnew,9.0.0*%
%TF.CreationDate,2025-03-11T15:52:01-04:00*%
%TF.ProjectId,BidenCard,42696465-6e43-4617-9264-2e6b69636164,rev?*%
%TF.SameCoordinates,Original*%
%TF.FileFunction,Drillmap*%
%TF.FilePolarity,Positive*%
%FSLAX45Y45*%
G04 Gerber Fmt 4.5, Leading zero omitted, Abs format (unit mm)*
G04 Created by KiCad (PCBNEW 9.0.0) date 2025-03-11 15:52:01*
%MOMM*%
%LPD*%
G01*
G04 APERTURE LIST*
%ADD10C,0.050000*%
%ADD11C,0.200000*%
%ADD12C,0.100000*%
%ADD13C,0.110000*%
%ADD14C,0.120000*%
G04 APERTURE END LIST*
D10*
X7262648Y-4243207D02*
X18977648Y-4243207D01*
X18977648Y-14243207D01*
X7262648Y-14243207D01*
X7262648Y-4243207D01*
D11*
D12*
X17041100Y-5992100D02*
X17071100Y-6022100D01*
X17071100Y-5992100D02*
X17041100Y-6022100D01*
X17839599Y-5740401D02*
X17869599Y-5770401D01*
X17869599Y-5740401D02*
X17839599Y-5770401D01*
X17904700Y-5242800D02*
X17934700Y-5272800D01*
X17934700Y-5242800D02*
X17904700Y-5272800D01*
X17930100Y-5738100D02*
X17960100Y-5768100D01*
X17960100Y-5738100D02*
X17930100Y-5768100D01*
X7970200Y-4610100D02*
G75*
G02*
X7930200Y-4610100I-20000J0D01*
G01*
X7930200Y-4610100D02*
G75*
G02*
X7970200Y-4610100I20000J0D01*
G01*
X7970200Y-4864100D02*
G75*
G02*
X7930200Y-4864100I-20000J0D01*
G01*
X7930200Y-4864100D02*
G75*
G02*
X7970200Y-4864100I20000J0D01*
G01*
X7970200Y-5118100D02*
G75*
G02*
X7930200Y-5118100I-20000J0D01*
G01*
X7930200Y-5118100D02*
G75*
G02*
X7970200Y-5118100I20000J0D01*
G01*
X7970200Y-5372100D02*
G75*
G02*
X7930200Y-5372100I-20000J0D01*
G01*
X7930200Y-5372100D02*
G75*
G02*
X7970200Y-5372100I20000J0D01*
G01*
X7970200Y-5626100D02*
G75*
G02*
X7930200Y-5626100I-20000J0D01*
G01*
X7930200Y-5626100D02*
G75*
G02*
X7970200Y-5626100I20000J0D01*
G01*
X7970200Y-5880100D02*
G75*
G02*
X7930200Y-5880100I-20000J0D01*
G01*
X7930200Y-5880100D02*
G75*
G02*
X7970200Y-5880100I20000J0D01*
G01*
X7970200Y-6146800D02*
G75*
G02*
X7930200Y-6146800I-20000J0D01*
G01*
X7930200Y-6146800D02*
G75*
G02*
X7970200Y-6146800I20000J0D01*
G01*
X8224200Y-4610100D02*
G75*
G02*
X8184200Y-4610100I-20000J0D01*
G01*
X8184200Y-4610100D02*
G75*
G02*
X8224200Y-4610100I20000J0D01*
G01*
X8224200Y-4864100D02*
G75*
G02*
X8184200Y-4864100I-20000J0D01*
G01*
X8184200Y-4864100D02*
G75*
G02*
X8224200Y-4864100I20000J0D01*
G01*
X8224200Y-5118100D02*
G75*
G02*
X8184200Y-5118100I-20000J0D01*
G01*
X8184200Y-5118100D02*
G75*
G02*
X8224200Y-5118100I20000J0D01*
G01*
X8224200Y-5372100D02*
G75*
G02*
X8184200Y-5372100I-20000J0D01*
G01*
X8184200Y-5372100D02*
G75*
G02*
X8224200Y-5372100I20000J0D01*
G01*
X8224200Y-5626100D02*
G75*
G02*
X8184200Y-5626100I-20000J0D01*
G01*
X8184200Y-5626100D02*
G75*
G02*
X8224200Y-5626100I20000J0D01*
G01*
X8224200Y-5880100D02*
G75*
G02*
X8184200Y-5880100I-20000J0D01*
G01*
X8184200Y-5880100D02*
G75*
G02*
X8224200Y-5880100I20000J0D01*
G01*
X8224200Y-6146800D02*
G75*
G02*
X8184200Y-6146800I-20000J0D01*
G01*
X8184200Y-6146800D02*
G75*
G02*
X8224200Y-6146800I20000J0D01*
G01*
X8478200Y-4610100D02*
G75*
G02*
X8438200Y-4610100I-20000J0D01*
G01*
X8438200Y-4610100D02*
G75*
G02*
X8478200Y-4610100I20000J0D01*
G01*
X8478200Y-4864100D02*
G75*
G02*
X8438200Y-4864100I-20000J0D01*
G01*
X8438200Y-4864100D02*
G75*
G02*
X8478200Y-4864100I20000J0D01*
G01*
X8478200Y-5118100D02*
G75*
G02*
X8438200Y-5118100I-20000J0D01*
G01*
X8438200Y-5118100D02*
G75*
G02*
X8478200Y-5118100I20000J0D01*
G01*
X8478200Y-5372100D02*
G75*
G02*
X8438200Y-5372100I-20000J0D01*
G01*
X8438200Y-5372100D02*
G75*
G02*
X8478200Y-5372100I20000J0D01*
G01*
X8478200Y-5626100D02*
G75*
G02*
X8438200Y-5626100I-20000J0D01*
G01*
X8438200Y-5626100D02*
G75*
G02*
X8478200Y-5626100I20000J0D01*
G01*
X8478200Y-5880100D02*
G75*
G02*
X8438200Y-5880100I-20000J0D01*
G01*
X8438200Y-5880100D02*
G75*
G02*
X8478200Y-5880100I20000J0D01*
G01*
X8478200Y-6146800D02*
G75*
G02*
X8438200Y-6146800I-20000J0D01*
G01*
X8438200Y-6146800D02*
G75*
G02*
X8478200Y-6146800I20000J0D01*
G01*
X8732200Y-4610100D02*
G75*
G02*
X8692200Y-4610100I-20000J0D01*
G01*
X8692200Y-4610100D02*
G75*
G02*
X8732200Y-4610100I20000J0D01*
G01*
X8732200Y-4864100D02*
G75*
G02*
X8692200Y-4864100I-20000J0D01*
G01*
X8692200Y-4864100D02*
G75*
G02*
X8732200Y-4864100I20000J0D01*
G01*
X8732200Y-5118100D02*
G75*
G02*
X8692200Y-5118100I-20000J0D01*
G01*
X8692200Y-5118100D02*
G75*
G02*
X8732200Y-5118100I20000J0D01*
G01*
X8732200Y-5372100D02*
G75*
G02*
X8692200Y-5372100I-20000J0D01*
G01*
X8692200Y-5372100D02*
G75*
G02*
X8732200Y-5372100I20000J0D01*
G01*
X8732200Y-5626100D02*
G75*
G02*
X8692200Y-5626100I-20000J0D01*
G01*
X8692200Y-5626100D02*
G75*
G02*
X8732200Y-5626100I20000J0D01*
G01*
X8732200Y-5880100D02*
G75*
G02*
X8692200Y-5880100I-20000J0D01*
G01*
X8692200Y-5880100D02*
G75*
G02*
X8732200Y-5880100I20000J0D01*
G01*
X8732200Y-6146800D02*
G75*
G02*
X8692200Y-6146800I-20000J0D01*
G01*
X8692200Y-6146800D02*
G75*
G02*
X8732200Y-6146800I20000J0D01*
G01*
X9722335Y-13017965D02*
G75*
G02*
X9682335Y-13017965I-20000J0D01*
G01*
X9682335Y-13017965D02*
G75*
G02*
X9722335Y-13017965I20000J0D01*
G01*
X9849800Y-13093700D02*
G75*
G02*
X9809800Y-13093700I-20000J0D01*
G01*
X9809800Y-13093700D02*
G75*
G02*
X9849800Y-13093700I20000J0D01*
G01*
X10129200Y-13157200D02*
G75*
G02*
X10089200Y-13157200I-20000J0D01*
G01*
X10089200Y-13157200D02*
G75*
G02*
X10129200Y-13157200I20000J0D01*
G01*
X10220640Y-8991600D02*
G75*
G02*
X10180640Y-8991600I-20000J0D01*
G01*
X10180640Y-8991600D02*
G75*
G02*
X10220640Y-8991600I20000J0D01*
G01*
X10312080Y-8752840D02*
G75*
G02*
X10272080Y-8752840I-20000J0D01*
G01*
X10272080Y-8752840D02*
G75*
G02*
X10312080Y-8752840I20000J0D01*
G01*
X10911520Y-8503920D02*
G75*
G02*
X10871520Y-8503920I-20000J0D01*
G01*
X10871520Y-8503920D02*
G75*
G02*
X10911520Y-8503920I20000J0D01*
G01*
X11063920Y-8874760D02*
G75*
G02*
X11023920Y-8874760I-20000J0D01*
G01*
X11023920Y-8874760D02*
G75*
G02*
X11063920Y-8874760I20000J0D01*
G01*
X11410000Y-9241399D02*
G75*
G02*
X11370000Y-9241399I-20000J0D01*
G01*
X11370000Y-9241399D02*
G75*
G02*
X11410000Y-9241399I20000J0D01*
G01*
X12606430Y-10744930D02*
G75*
G02*
X12566430Y-10744930I-20000J0D01*
G01*
X12566430Y-10744930D02*
G75*
G02*
X12606430Y-10744930I20000J0D01*
G01*
X12793660Y-10756900D02*
G75*
G02*
X12753660Y-10756900I-20000J0D01*
G01*
X12753660Y-10756900D02*
G75*
G02*
X12793660Y-10756900I20000J0D01*
G01*
X12885100Y-10883900D02*
G75*
G02*
X12845100Y-10883900I-20000J0D01*
G01*
X12845100Y-10883900D02*
G75*
G02*
X12885100Y-10883900I20000J0D01*
G01*
X13283880Y-7884160D02*
G75*
G02*
X13243880Y-7884160I-20000J0D01*
G01*
X13243880Y-7884160D02*
G75*
G02*
X13283880Y-7884160I20000J0D01*
G01*
X13283880Y-10251440D02*
G75*
G02*
X13243880Y-10251440I-20000J0D01*
G01*
X13243880Y-10251440D02*
G75*
G02*
X13283880Y-10251440I20000J0D01*
G01*
X13537880Y-8138160D02*
G75*
G02*
X13497880Y-8138160I-20000J0D01*
G01*
X13497880Y-8138160D02*
G75*
G02*
X13537880Y-8138160I20000J0D01*
G01*
X13537880Y-10469880D02*
G75*
G02*
X13497880Y-10469880I-20000J0D01*
G01*
X13497880Y-10469880D02*
G75*
G02*
X13537880Y-10469880I20000J0D01*
G01*
X13791880Y-8376920D02*
G75*
G02*
X13751880Y-8376920I-20000J0D01*
G01*
X13751880Y-8376920D02*
G75*
G02*
X13791880Y-8376920I20000J0D01*
G01*
X13791880Y-10358120D02*
G75*
G02*
X13751880Y-10358120I-20000J0D01*
G01*
X13751880Y-10358120D02*
G75*
G02*
X13791880Y-10358120I20000J0D01*
G01*
X14045880Y-10627360D02*
G75*
G02*
X14005880Y-10627360I-20000J0D01*
G01*
X14005880Y-10627360D02*
G75*
G02*
X14045880Y-10627360I20000J0D01*
G01*
X15060880Y-8504920D02*
G75*
G02*
X15020880Y-8504920I-20000J0D01*
G01*
X15020880Y-8504920D02*
G75*
G02*
X15060880Y-8504920I20000J0D01*
G01*
X15183800Y-8747760D02*
G75*
G02*
X15143800Y-8747760I-20000J0D01*
G01*
X15143800Y-8747760D02*
G75*
G02*
X15183800Y-8747760I20000J0D01*
G01*
X15185590Y-9216910D02*
G75*
G02*
X15145590Y-9216910I-20000J0D01*
G01*
X15145590Y-9216910D02*
G75*
G02*
X15185590Y-9216910I20000J0D01*
G01*
X15315880Y-8006080D02*
G75*
G02*
X15275880Y-8006080I-20000J0D01*
G01*
X15275880Y-8006080D02*
G75*
G02*
X15315880Y-8006080I20000J0D01*
G01*
X15564800Y-8255000D02*
G75*
G02*
X15524800Y-8255000I-20000J0D01*
G01*
X15524800Y-8255000D02*
G75*
G02*
X15564800Y-8255000I20000J0D01*
G01*
X15696880Y-9362440D02*
G75*
G02*
X15656880Y-9362440I-20000J0D01*
G01*
X15656880Y-9362440D02*
G75*
G02*
X15696880Y-9362440I20000J0D01*
G01*
X15818800Y-10083800D02*
G75*
G02*
X15778800Y-10083800I-20000J0D01*
G01*
X15778800Y-10083800D02*
G75*
G02*
X15818800Y-10083800I20000J0D01*
G01*
X16662080Y-8458200D02*
G75*
G02*
X16622080Y-8458200I-20000J0D01*
G01*
X16622080Y-8458200D02*
G75*
G02*
X16662080Y-8458200I20000J0D01*
G01*
X16667160Y-8943565D02*
G75*
G02*
X16627160Y-8943565I-20000J0D01*
G01*
X16627160Y-8943565D02*
G75*
G02*
X16667160Y-8943565I20000J0D01*
G01*
X17139600Y-8458200D02*
G75*
G02*
X17099600Y-8458200I-20000J0D01*
G01*
X17099600Y-8458200D02*
G75*
G02*
X17139600Y-8458200I20000J0D01*
G01*
X17139600Y-8945880D02*
G75*
G02*
X17099600Y-8945880I-20000J0D01*
G01*
X17099600Y-8945880D02*
G75*
G02*
X17139600Y-8945880I20000J0D01*
G01*
X17363120Y-8458200D02*
G75*
G02*
X17323120Y-8458200I-20000J0D01*
G01*
X17323120Y-8458200D02*
G75*
G02*
X17363120Y-8458200I20000J0D01*
G01*
X17363120Y-8945880D02*
G75*
G02*
X17323120Y-8945880I-20000J0D01*
G01*
X17323120Y-8945880D02*
G75*
G02*
X17363120Y-8945880I20000J0D01*
G01*
X17403760Y-11442707D02*
G75*
G02*
X17363760Y-11442707I-20000J0D01*
G01*
X17363760Y-11442707D02*
G75*
G02*
X17403760Y-11442707I20000J0D01*
G01*
X17962560Y-6314440D02*
G75*
G02*
X17922560Y-6314440I-20000J0D01*
G01*
X17922560Y-6314440D02*
G75*
G02*
X17962560Y-6314440I20000J0D01*
G01*
X18597560Y-6746240D02*
G75*
G02*
X18557560Y-6746240I-20000J0D01*
G01*
X18557560Y-6746240D02*
G75*
G02*
X18597560Y-6746240I20000J0D01*
G01*
X18699160Y-10017760D02*
G75*
G02*
X18659160Y-10017760I-20000J0D01*
G01*
X18659160Y-10017760D02*
G75*
G02*
X18699160Y-10017760I20000J0D01*
G01*
X9817808Y-5504572D02*
X9817808Y-5584572D01*
X9777808Y-5544572D02*
X9857808Y-5544572D01*
X9879257Y-5751027D02*
X9879257Y-5831027D01*
X9839257Y-5791027D02*
X9919257Y-5791027D01*
X9940705Y-5997482D02*
X9940705Y-6077482D01*
X9900705Y-6037482D02*
X9980705Y-6037482D01*
X9944100Y-8625400D02*
X9944100Y-8705400D01*
X9904100Y-8665400D02*
X9984100Y-8665400D01*
X9944100Y-9125400D02*
X9944100Y-9205400D01*
X9904100Y-9165400D02*
X9984100Y-9165400D01*
X9991360Y-9559700D02*
X9991360Y-9639700D01*
X9951360Y-9599700D02*
X10031360Y-9599700D01*
X9991360Y-9813700D02*
X9991360Y-9893700D01*
X9951360Y-9853700D02*
X10031360Y-9853700D01*
X9991360Y-10067700D02*
X9991360Y-10147700D01*
X9951360Y-10107700D02*
X10031360Y-10107700D01*
X9991360Y-10321700D02*
X9991360Y-10401700D01*
X9951360Y-10361700D02*
X10031360Y-10361700D01*
X9991360Y-10575700D02*
X9991360Y-10655700D01*
X9951360Y-10615700D02*
X10031360Y-10615700D01*
X9991360Y-10829700D02*
X9991360Y-10909700D01*
X9951360Y-10869700D02*
X10031360Y-10869700D01*
X9991360Y-11083700D02*
X9991360Y-11163700D01*
X9951360Y-11123700D02*
X10031360Y-11123700D01*
X9991360Y-11337700D02*
X9991360Y-11417700D01*
X9951360Y-11377700D02*
X10031360Y-11377700D01*
X10002153Y-6243937D02*
X10002153Y-6323937D01*
X9962153Y-6283937D02*
X10042153Y-6283937D01*
X10063601Y-6490393D02*
X10063601Y-6570393D01*
X10023601Y-6530393D02*
X10103601Y-6530393D01*
X10125049Y-6736848D02*
X10125049Y-6816848D01*
X10085049Y-6776848D02*
X10165049Y-6776848D01*
X10186497Y-6983303D02*
X10186497Y-7063303D01*
X10146497Y-7023303D02*
X10226497Y-7023303D01*
X10247945Y-7229758D02*
X10247945Y-7309758D01*
X10207945Y-7269758D02*
X10287945Y-7269758D01*
X10271260Y-12496440D02*
X10271260Y-12576440D01*
X10231260Y-12536440D02*
X10311260Y-12536440D01*
X10271260Y-13258440D02*
X10271260Y-13338440D01*
X10231260Y-13298440D02*
X10311260Y-13298440D01*
X10281920Y-13507280D02*
X10281920Y-13587280D01*
X10241920Y-13547280D02*
X10321920Y-13547280D01*
X10281920Y-14007280D02*
X10281920Y-14087280D01*
X10241920Y-14047280D02*
X10321920Y-14047280D01*
X10309394Y-7476213D02*
X10309394Y-7556213D01*
X10269394Y-7516213D02*
X10349394Y-7516213D01*
X10370842Y-7722668D02*
X10370842Y-7802668D01*
X10330842Y-7762668D02*
X10410842Y-7762668D01*
X10432290Y-7969123D02*
X10432290Y-8049123D01*
X10392290Y-8009123D02*
X10472290Y-8009123D01*
X10493738Y-8215578D02*
X10493738Y-8295578D01*
X10453738Y-8255578D02*
X10533738Y-8255578D01*
X10525260Y-12496440D02*
X10525260Y-12576440D01*
X10485260Y-12536440D02*
X10565260Y-12536440D01*
X10525260Y-13258440D02*
X10525260Y-13338440D01*
X10485260Y-13298440D02*
X10565260Y-13298440D01*
X10555186Y-8462034D02*
X10555186Y-8542034D01*
X10515186Y-8502034D02*
X10595186Y-8502034D01*
X10616634Y-8708489D02*
X10616634Y-8788489D01*
X10576634Y-8748489D02*
X10656634Y-8748489D01*
X10678083Y-8954944D02*
X10678083Y-9034944D01*
X10638083Y-8994944D02*
X10718083Y-8994944D01*
X10739531Y-9201399D02*
X10739531Y-9281399D01*
X10699531Y-9241399D02*
X10779531Y-9241399D01*
X10753360Y-9559700D02*
X10753360Y-9639700D01*
X10713360Y-9599700D02*
X10793360Y-9599700D01*
X10753360Y-9813700D02*
X10753360Y-9893700D01*
X10713360Y-9853700D02*
X10793360Y-9853700D01*
X10753360Y-10067700D02*
X10753360Y-10147700D01*
X10713360Y-10107700D02*
X10793360Y-10107700D01*
X10753360Y-10321700D02*
X10753360Y-10401700D01*
X10713360Y-10361700D02*
X10793360Y-10361700D01*
X10753360Y-10575700D02*
X10753360Y-10655700D01*
X10713360Y-10615700D02*
X10793360Y-10615700D01*
X10753360Y-10829700D02*
X10753360Y-10909700D01*
X10713360Y-10869700D02*
X10793360Y-10869700D01*
X10753360Y-11083700D02*
X10753360Y-11163700D01*
X10713360Y-11123700D02*
X10793360Y-11123700D01*
X10753360Y-11337700D02*
X10753360Y-11417700D01*
X10713360Y-11377700D02*
X10793360Y-11377700D01*
X10779260Y-12496440D02*
X10779260Y-12576440D01*
X10739260Y-12536440D02*
X10819260Y-12536440D01*
X10779260Y-13258440D02*
X10779260Y-13338440D01*
X10739260Y-13298440D02*
X10819260Y-13298440D01*
X10799000Y-4694560D02*
X10799000Y-4774560D01*
X10759000Y-4734560D02*
X10839000Y-4734560D01*
X11033260Y-12496440D02*
X11033260Y-12576440D01*
X10993260Y-12536440D02*
X11073260Y-12536440D01*
X11033260Y-13258440D02*
X11033260Y-13338440D01*
X10993260Y-13298440D02*
X11073260Y-13298440D01*
X11195320Y-9559700D02*
X11195320Y-9639700D01*
X11155320Y-9599700D02*
X11235320Y-9599700D01*
X11195320Y-9813700D02*
X11195320Y-9893700D01*
X11155320Y-9853700D02*
X11235320Y-9853700D01*
X11195320Y-10067700D02*
X11195320Y-10147700D01*
X11155320Y-10107700D02*
X11235320Y-10107700D01*
X11195320Y-10321700D02*
X11195320Y-10401700D01*
X11155320Y-10361700D02*
X11235320Y-10361700D01*
X11195320Y-10575700D02*
X11195320Y-10655700D01*
X11155320Y-10615700D02*
X11235320Y-10615700D01*
X11195320Y-10829700D02*
X11195320Y-10909700D01*
X11155320Y-10869700D02*
X11235320Y-10869700D01*
X11195320Y-11083700D02*
X11195320Y-11163700D01*
X11155320Y-11123700D02*
X11235320Y-11123700D01*
X11195320Y-11337700D02*
X11195320Y-11417700D01*
X11155320Y-11377700D02*
X11235320Y-11377700D01*
X11287260Y-12496440D02*
X11287260Y-12576440D01*
X11247260Y-12536440D02*
X11327260Y-12536440D01*
X11287260Y-13258440D02*
X11287260Y-13338440D01*
X11247260Y-13298440D02*
X11327260Y-13298440D01*
X11296539Y-5135883D02*
X11296539Y-5215883D01*
X11256539Y-5175883D02*
X11336539Y-5175883D01*
X11299000Y-4694560D02*
X11299000Y-4774560D01*
X11259000Y-4734560D02*
X11339000Y-4734560D01*
X11357987Y-5382338D02*
X11357987Y-5462338D01*
X11317987Y-5422338D02*
X11397987Y-5422338D01*
X11419435Y-5628793D02*
X11419435Y-5708793D01*
X11379435Y-5668793D02*
X11459435Y-5668793D01*
X11480883Y-5875248D02*
X11480883Y-5955248D01*
X11440883Y-5915248D02*
X11520883Y-5915248D01*
X11541260Y-12496440D02*
X11541260Y-12576440D01*
X11501260Y-12536440D02*
X11581260Y-12536440D01*
X11541260Y-13258440D02*
X11541260Y-13338440D01*
X11501260Y-13298440D02*
X11581260Y-13298440D01*
X11542332Y-6121704D02*
X11542332Y-6201704D01*
X11502332Y-6161704D02*
X11582332Y-6161704D01*
X11603780Y-6368159D02*
X11603780Y-6448159D01*
X11563780Y-6408159D02*
X11643780Y-6408159D01*
X11665228Y-6614614D02*
X11665228Y-6694614D01*
X11625228Y-6654614D02*
X11705228Y-6654614D01*
X11726676Y-6861069D02*
X11726676Y-6941069D01*
X11686676Y-6901069D02*
X11766676Y-6901069D01*
X11788124Y-7107524D02*
X11788124Y-7187524D01*
X11748124Y-7147524D02*
X11828124Y-7147524D01*
X11795260Y-12496440D02*
X11795260Y-12576440D01*
X11755260Y-12536440D02*
X11835260Y-12536440D01*
X11795260Y-13258440D02*
X11795260Y-13338440D01*
X11755260Y-13298440D02*
X11835260Y-13298440D01*
X11849572Y-7353979D02*
X11849572Y-7433979D01*
X11809572Y-7393979D02*
X11889572Y-7393979D01*
X11885856Y-5751027D02*
X11885856Y-5831027D01*
X11845856Y-5791027D02*
X11925856Y-5791027D01*
X11911021Y-7600434D02*
X11911021Y-7680434D01*
X11871021Y-7640434D02*
X11951021Y-7640434D01*
X11947305Y-5997482D02*
X11947305Y-6077482D01*
X11907305Y-6037482D02*
X11987305Y-6037482D01*
X11957320Y-9559700D02*
X11957320Y-9639700D01*
X11917320Y-9599700D02*
X11997320Y-9599700D01*
X11957320Y-9813700D02*
X11957320Y-9893700D01*
X11917320Y-9853700D02*
X11997320Y-9853700D01*
X11957320Y-10067700D02*
X11957320Y-10147700D01*
X11917320Y-10107700D02*
X11997320Y-10107700D01*
X11957320Y-10321700D02*
X11957320Y-10401700D01*
X11917320Y-10361700D02*
X11997320Y-10361700D01*
X11957320Y-10575700D02*
X11957320Y-10655700D01*
X11917320Y-10615700D02*
X11997320Y-10615700D01*
X11957320Y-10829700D02*
X11957320Y-10909700D01*
X11917320Y-10869700D02*
X11997320Y-10869700D01*
X11957320Y-11083700D02*
X11957320Y-11163700D01*
X11917320Y-11123700D02*
X11997320Y-11123700D01*
X11957320Y-11337700D02*
X11957320Y-11417700D01*
X11917320Y-11377700D02*
X11997320Y-11377700D01*
X11972469Y-7846889D02*
X11972469Y-7926889D01*
X11932469Y-7886889D02*
X12012469Y-7886889D01*
X11980100Y-9246240D02*
X11980100Y-9326240D01*
X11940100Y-9286240D02*
X12020100Y-9286240D01*
X12008753Y-6243937D02*
X12008753Y-6323937D01*
X11968753Y-6283937D02*
X12048753Y-6283937D01*
X12033917Y-8093344D02*
X12033917Y-8173344D01*
X11993917Y-8133344D02*
X12073917Y-8133344D01*
X12070201Y-6490393D02*
X12070201Y-6570393D01*
X12030201Y-6530393D02*
X12110201Y-6530393D01*
X12095365Y-8339800D02*
X12095365Y-8419800D01*
X12055365Y-8379800D02*
X12135365Y-8379800D01*
X12131649Y-6736848D02*
X12131649Y-6816848D01*
X12091649Y-6776848D02*
X12171649Y-6776848D01*
X12156813Y-8586255D02*
X12156813Y-8666255D01*
X12116813Y-8626255D02*
X12196813Y-8626255D01*
X12193097Y-6983303D02*
X12193097Y-7063303D01*
X12153097Y-7023303D02*
X12233097Y-7023303D01*
X12218261Y-8832710D02*
X12218261Y-8912710D01*
X12178261Y-8872710D02*
X12258261Y-8872710D01*
X12254545Y-7229758D02*
X12254545Y-7309758D01*
X12214545Y-7269758D02*
X12294545Y-7269758D01*
X12315994Y-7476213D02*
X12315994Y-7556213D01*
X12275994Y-7516213D02*
X12355994Y-7516213D01*
X12364720Y-10926640D02*
X12364720Y-11006640D01*
X12324720Y-10966640D02*
X12404720Y-10966640D01*
X12364720Y-11426640D02*
X12364720Y-11506640D01*
X12324720Y-11466640D02*
X12404720Y-11466640D01*
X12377442Y-7722668D02*
X12377442Y-7802668D01*
X12337442Y-7762668D02*
X12417442Y-7762668D01*
X12438890Y-7969123D02*
X12438890Y-8049123D01*
X12398890Y-8009123D02*
X12478890Y-8009123D01*
X12480100Y-9246240D02*
X12480100Y-9326240D01*
X12440100Y-9286240D02*
X12520100Y-9286240D01*
X12500338Y-8215578D02*
X12500338Y-8295578D01*
X12460338Y-8255578D02*
X12540338Y-8255578D01*
X12561786Y-8462034D02*
X12561786Y-8542034D01*
X12521786Y-8502034D02*
X12601786Y-8502034D01*
X12623234Y-8708489D02*
X12623234Y-8788489D01*
X12583234Y-8748489D02*
X12663234Y-8748489D01*
X12684683Y-8954944D02*
X12684683Y-9034944D01*
X12644683Y-8994944D02*
X12724683Y-8994944D01*
X12746131Y-9201399D02*
X12746131Y-9281399D01*
X12706131Y-9241399D02*
X12786131Y-9241399D01*
X12754880Y-9555620D02*
X12754880Y-9635620D01*
X12714880Y-9595620D02*
X12794880Y-9595620D01*
X12754880Y-11079620D02*
X12754880Y-11159620D01*
X12714880Y-11119620D02*
X12794880Y-11119620D01*
X12810680Y-4684400D02*
X12810680Y-4764400D01*
X12770680Y-4724400D02*
X12850680Y-4724400D01*
X13008880Y-9555620D02*
X13008880Y-9635620D01*
X12968880Y-9595620D02*
X13048880Y-9595620D01*
X13008880Y-11079620D02*
X13008880Y-11159620D01*
X12968880Y-11119620D02*
X13048880Y-11119620D01*
X13262880Y-9555620D02*
X13262880Y-9635620D01*
X13222880Y-9595620D02*
X13302880Y-9595620D01*
X13262880Y-11079620D02*
X13262880Y-11159620D01*
X13222880Y-11119620D02*
X13302880Y-11119620D01*
X13303139Y-5135883D02*
X13303139Y-5215883D01*
X13263139Y-5175883D02*
X13343139Y-5175883D01*
X13310680Y-4684400D02*
X13310680Y-4764400D01*
X13270680Y-4724400D02*
X13350680Y-4724400D01*
X13364587Y-5382338D02*
X13364587Y-5462338D01*
X13324587Y-5422338D02*
X13404587Y-5422338D01*
X13426035Y-5628793D02*
X13426035Y-5708793D01*
X13386035Y-5668793D02*
X13466035Y-5668793D01*
X13487483Y-5875248D02*
X13487483Y-5955248D01*
X13447483Y-5915248D02*
X13527483Y-5915248D01*
X13516880Y-9555620D02*
X13516880Y-9635620D01*
X13476880Y-9595620D02*
X13556880Y-9595620D01*
X13516880Y-11079620D02*
X13516880Y-11159620D01*
X13476880Y-11119620D02*
X13556880Y-11119620D01*
X13548932Y-6121704D02*
X13548932Y-6201704D01*
X13508932Y-6161704D02*
X13588932Y-6161704D01*
X13610380Y-6368159D02*
X13610380Y-6448159D01*
X13570380Y-6408159D02*
X13650380Y-6408159D01*
X13671828Y-6614614D02*
X13671828Y-6694614D01*
X13631828Y-6654614D02*
X13711828Y-6654614D01*
X13721080Y-12923000D02*
X13721080Y-13003000D01*
X13681080Y-12963000D02*
X13761080Y-12963000D01*
X13721080Y-13413000D02*
X13721080Y-13493000D01*
X13681080Y-13453000D02*
X13761080Y-13453000D01*
X13733276Y-6861069D02*
X13733276Y-6941069D01*
X13693276Y-6901069D02*
X13773276Y-6901069D01*
X13770880Y-9555620D02*
X13770880Y-9635620D01*
X13730880Y-9595620D02*
X13810880Y-9595620D01*
X13770880Y-11079620D02*
X13770880Y-11159620D01*
X13730880Y-11119620D02*
X13810880Y-11119620D01*
X13771880Y-11359520D02*
X13771880Y-11439520D01*
X13731880Y-11399520D02*
X13811880Y-11399520D01*
X13771880Y-12375520D02*
X13771880Y-12455520D01*
X13731880Y-12415520D02*
X13811880Y-12415520D01*
X13794724Y-7107524D02*
X13794724Y-7187524D01*
X13754724Y-7147524D02*
X13834724Y-7147524D01*
X13856172Y-7353979D02*
X13856172Y-7433979D01*
X13816172Y-7393979D02*
X13896172Y-7393979D01*
X13917621Y-7600434D02*
X13917621Y-7680434D01*
X13877621Y-7640434D02*
X13957621Y-7640434D01*
X13979069Y-7846889D02*
X13979069Y-7926889D01*
X13939069Y-7886889D02*
X14019069Y-7886889D01*
X13989218Y-5995837D02*
X13989218Y-6075837D01*
X13949218Y-6035837D02*
X14029218Y-6035837D01*
X14024880Y-9555620D02*
X14024880Y-9635620D01*
X13984880Y-9595620D02*
X14064880Y-9595620D01*
X14024880Y-11079620D02*
X14024880Y-11159620D01*
X13984880Y-11119620D02*
X14064880Y-11119620D01*
X14040517Y-8093344D02*
X14040517Y-8173344D01*
X14000517Y-8133344D02*
X14080517Y-8133344D01*
X14050667Y-6242293D02*
X14050667Y-6322293D01*
X14010667Y-6282293D02*
X14090667Y-6282293D01*
X14101965Y-8339800D02*
X14101965Y-8419800D01*
X14061965Y-8379800D02*
X14141965Y-8379800D01*
X14112115Y-6488748D02*
X14112115Y-6568748D01*
X14072115Y-6528748D02*
X14152115Y-6528748D01*
X14163413Y-8586255D02*
X14163413Y-8666255D01*
X14123413Y-8626255D02*
X14203413Y-8626255D01*
X14173563Y-6735203D02*
X14173563Y-6815203D01*
X14133563Y-6775203D02*
X14213563Y-6775203D01*
X14224861Y-8832710D02*
X14224861Y-8912710D01*
X14184861Y-8872710D02*
X14264861Y-8872710D01*
X14235011Y-6981658D02*
X14235011Y-7061658D01*
X14195011Y-7021658D02*
X14275011Y-7021658D01*
X14278880Y-9555620D02*
X14278880Y-9635620D01*
X14238880Y-9595620D02*
X14318880Y-9595620D01*
X14278880Y-11079620D02*
X14278880Y-11159620D01*
X14238880Y-11119620D02*
X14318880Y-11119620D01*
X14296459Y-7228113D02*
X14296459Y-7308113D01*
X14256459Y-7268113D02*
X14336459Y-7268113D01*
X14300200Y-12761600D02*
X14300200Y-12841600D01*
X14260200Y-12801600D02*
X14340200Y-12801600D01*
X14300200Y-13411840D02*
X14300200Y-13491840D01*
X14260200Y-13451840D02*
X14340200Y-13451840D01*
X14357907Y-7474568D02*
X14357907Y-7554568D01*
X14317907Y-7514568D02*
X14397907Y-7514568D01*
X14419355Y-7721023D02*
X14419355Y-7801023D01*
X14379355Y-7761023D02*
X14459355Y-7761023D01*
X14480804Y-7967478D02*
X14480804Y-8047478D01*
X14440804Y-8007478D02*
X14520804Y-8007478D01*
X14532880Y-9555620D02*
X14532880Y-9635620D01*
X14492880Y-9595620D02*
X14572880Y-9595620D01*
X14532880Y-11079620D02*
X14532880Y-11159620D01*
X14492880Y-11119620D02*
X14572880Y-11119620D01*
X14542252Y-8213933D02*
X14542252Y-8293933D01*
X14502252Y-8253933D02*
X14582252Y-8253933D01*
X14603700Y-8460389D02*
X14603700Y-8540389D01*
X14563700Y-8500389D02*
X14643700Y-8500389D01*
X14665148Y-8706844D02*
X14665148Y-8786844D01*
X14625148Y-8746844D02*
X14705148Y-8746844D01*
X14726596Y-8953299D02*
X14726596Y-9033299D01*
X14686596Y-8993299D02*
X14766596Y-8993299D01*
X14742160Y-11453500D02*
X14742160Y-11533500D01*
X14702160Y-11493500D02*
X14782160Y-11493500D01*
X14742160Y-12469500D02*
X14742160Y-12549500D01*
X14702160Y-12509500D02*
X14782160Y-12509500D01*
X14786880Y-9555620D02*
X14786880Y-9635620D01*
X14746880Y-9595620D02*
X14826880Y-9595620D01*
X14786880Y-11079620D02*
X14786880Y-11159620D01*
X14746880Y-11119620D02*
X14826880Y-11119620D01*
X14788044Y-9199754D02*
X14788044Y-9279754D01*
X14748044Y-9239754D02*
X14828044Y-9239754D01*
X14974760Y-4684400D02*
X14974760Y-4764400D01*
X14934760Y-4724400D02*
X15014760Y-4724400D01*
X15036800Y-11453500D02*
X15036800Y-11533500D01*
X14996800Y-11493500D02*
X15076800Y-11493500D01*
X15036800Y-12469500D02*
X15036800Y-12549500D01*
X14996800Y-12509500D02*
X15076800Y-12509500D01*
X15040880Y-9555620D02*
X15040880Y-9635620D01*
X15000880Y-9595620D02*
X15080880Y-9595620D01*
X15040880Y-11079620D02*
X15040880Y-11159620D01*
X15000880Y-11119620D02*
X15080880Y-11119620D01*
X15294880Y-9555620D02*
X15294880Y-9635620D01*
X15254880Y-9595620D02*
X15334880Y-9595620D01*
X15294880Y-11079620D02*
X15294880Y-11159620D01*
X15254880Y-11119620D02*
X15334880Y-11119620D01*
X15316200Y-12761600D02*
X15316200Y-12841600D01*
X15276200Y-12801600D02*
X15356200Y-12801600D01*
X15316200Y-13411840D02*
X15316200Y-13491840D01*
X15276200Y-13451840D02*
X15356200Y-13451840D01*
X15336520Y-11453500D02*
X15336520Y-11533500D01*
X15296520Y-11493500D02*
X15376520Y-11493500D01*
X15336520Y-12469500D02*
X15336520Y-12549500D01*
X15296520Y-12509500D02*
X15376520Y-12509500D01*
X15467949Y-5627148D02*
X15467949Y-5707148D01*
X15427949Y-5667148D02*
X15507949Y-5667148D01*
X15474760Y-4684400D02*
X15474760Y-4764400D01*
X15434760Y-4724400D02*
X15514760Y-4724400D01*
X15529397Y-5873603D02*
X15529397Y-5953603D01*
X15489397Y-5913603D02*
X15569397Y-5913603D01*
X15548880Y-9555620D02*
X15548880Y-9635620D01*
X15508880Y-9595620D02*
X15588880Y-9595620D01*
X15548880Y-11079620D02*
X15548880Y-11159620D01*
X15508880Y-11119620D02*
X15588880Y-11119620D01*
X15590845Y-6120059D02*
X15590845Y-6200059D01*
X15550845Y-6160059D02*
X15630845Y-6160059D01*
X15652294Y-6366514D02*
X15652294Y-6446514D01*
X15612294Y-6406514D02*
X15692294Y-6406514D01*
X15713742Y-6612969D02*
X15713742Y-6692969D01*
X15673742Y-6652969D02*
X15753742Y-6652969D01*
X15722600Y-13126280D02*
X15722600Y-13206280D01*
X15682600Y-13166280D02*
X15762600Y-13166280D01*
X15722600Y-13626280D02*
X15722600Y-13706280D01*
X15682600Y-13666280D02*
X15762600Y-13666280D01*
X15775190Y-6859424D02*
X15775190Y-6939424D01*
X15735190Y-6899424D02*
X15815190Y-6899424D01*
X15802880Y-9555620D02*
X15802880Y-9635620D01*
X15762880Y-9595620D02*
X15842880Y-9595620D01*
X15802880Y-11079620D02*
X15802880Y-11159620D01*
X15762880Y-11119620D02*
X15842880Y-11119620D01*
X15836638Y-7105879D02*
X15836638Y-7185879D01*
X15796638Y-7145879D02*
X15876638Y-7145879D01*
X15898086Y-7352334D02*
X15898086Y-7432334D01*
X15858086Y-7392334D02*
X15938086Y-7392334D01*
X15959534Y-7598789D02*
X15959534Y-7678789D01*
X15919534Y-7638789D02*
X15999534Y-7638789D01*
X16020982Y-7845245D02*
X16020982Y-7925245D01*
X15980982Y-7885245D02*
X16060982Y-7885245D01*
X16056880Y-9555620D02*
X16056880Y-9635620D01*
X16016880Y-9595620D02*
X16096880Y-9595620D01*
X16056880Y-11079620D02*
X16056880Y-11159620D01*
X16016880Y-11119620D02*
X16096880Y-11119620D01*
X16082431Y-8091700D02*
X16082431Y-8171700D01*
X16042431Y-8131700D02*
X16122431Y-8131700D01*
X16133580Y-12968880D02*
X16133580Y-13048880D01*
X16093580Y-13008880D02*
X16173580Y-13008880D01*
X16133580Y-13730880D02*
X16133580Y-13810880D01*
X16093580Y-13770880D02*
X16173580Y-13770880D01*
X16143879Y-8338155D02*
X16143879Y-8418155D01*
X16103879Y-8378155D02*
X16183879Y-8378155D01*
X16205327Y-8584610D02*
X16205327Y-8664610D01*
X16165327Y-8624610D02*
X16245327Y-8624610D01*
X16266775Y-8831065D02*
X16266775Y-8911065D01*
X16226775Y-8871065D02*
X16306775Y-8871065D01*
X16327120Y-9432120D02*
X16327120Y-9512120D01*
X16287120Y-9472120D02*
X16367120Y-9472120D01*
X16327120Y-9787120D02*
X16327120Y-9867120D01*
X16287120Y-9827120D02*
X16367120Y-9827120D01*
X16327120Y-10142120D02*
X16327120Y-10222120D01*
X16287120Y-10182120D02*
X16367120Y-10182120D01*
X16327120Y-10497120D02*
X16327120Y-10577120D01*
X16287120Y-10537120D02*
X16367120Y-10537120D01*
X16327120Y-10852120D02*
X16327120Y-10932120D01*
X16287120Y-10892120D02*
X16367120Y-10892120D01*
X16327120Y-11207120D02*
X16327120Y-11287120D01*
X16287120Y-11247120D02*
X16367120Y-11247120D01*
X16387580Y-12968880D02*
X16387580Y-13048880D01*
X16347580Y-13008880D02*
X16427580Y-13008880D01*
X16387580Y-13730880D02*
X16387580Y-13810880D01*
X16347580Y-13770880D02*
X16427580Y-13770880D01*
X16641580Y-12968880D02*
X16641580Y-13048880D01*
X16601580Y-13008880D02*
X16681580Y-13008880D01*
X16641580Y-13730880D02*
X16641580Y-13810880D01*
X16601580Y-13770880D02*
X16681580Y-13770880D01*
X16808720Y-5872620D02*
X16808720Y-5952620D01*
X16768720Y-5912620D02*
X16848720Y-5912620D01*
X16808720Y-6126620D02*
X16808720Y-6206620D01*
X16768720Y-6166620D02*
X16848720Y-6166620D01*
X16808720Y-6380620D02*
X16808720Y-6460620D01*
X16768720Y-6420620D02*
X16848720Y-6420620D01*
X16808720Y-6634620D02*
X16808720Y-6714620D01*
X16768720Y-6674620D02*
X16848720Y-6674620D01*
X16808720Y-6888620D02*
X16808720Y-6968620D01*
X16768720Y-6928620D02*
X16848720Y-6928620D01*
X16808720Y-7142620D02*
X16808720Y-7222620D01*
X16768720Y-7182620D02*
X16848720Y-7182620D01*
X16808720Y-7396620D02*
X16808720Y-7476620D01*
X16768720Y-7436620D02*
X16848720Y-7436620D01*
X16808720Y-7650620D02*
X16808720Y-7730620D01*
X16768720Y-7690620D02*
X16848720Y-7690620D01*
X16808720Y-7904620D02*
X16808720Y-7984620D01*
X16768720Y-7944620D02*
X16848720Y-7944620D01*
X16808720Y-8158620D02*
X16808720Y-8238620D01*
X16768720Y-8198620D02*
X16848720Y-8198620D01*
X16895580Y-12968880D02*
X16895580Y-13048880D01*
X16855580Y-13008880D02*
X16935580Y-13008880D01*
X16895580Y-13730880D02*
X16895580Y-13810880D01*
X16855580Y-13770880D02*
X16935580Y-13770880D01*
X17149580Y-12968880D02*
X17149580Y-13048880D01*
X17109580Y-13008880D02*
X17189580Y-13008880D01*
X17149580Y-13730880D02*
X17149580Y-13810880D01*
X17109580Y-13770880D02*
X17189580Y-13770880D01*
X17343120Y-9432120D02*
X17343120Y-9512120D01*
X17303120Y-9472120D02*
X17383120Y-9472120D01*
X17343120Y-9787120D02*
X17343120Y-9867120D01*
X17303120Y-9827120D02*
X17383120Y-9827120D01*
X17343120Y-10142120D02*
X17343120Y-10222120D01*
X17303120Y-10182120D02*
X17383120Y-10182120D01*
X17343120Y-10497120D02*
X17343120Y-10577120D01*
X17303120Y-10537120D02*
X17383120Y-10537120D01*
X17343120Y-10852120D02*
X17343120Y-10932120D01*
X17303120Y-10892120D02*
X17383120Y-10892120D01*
X17343120Y-11207120D02*
X17343120Y-11287120D01*
X17303120Y-11247120D02*
X17383120Y-11247120D01*
X17403580Y-12968880D02*
X17403580Y-13048880D01*
X17363580Y-13008880D02*
X17443580Y-13008880D01*
X17403580Y-13730880D02*
X17403580Y-13810880D01*
X17363580Y-13770880D02*
X17443580Y-13770880D01*
X17570720Y-5872620D02*
X17570720Y-5952620D01*
X17530720Y-5912620D02*
X17610720Y-5912620D01*
X17570720Y-6126620D02*
X17570720Y-6206620D01*
X17530720Y-6166620D02*
X17610720Y-6166620D01*
X17570720Y-6380620D02*
X17570720Y-6460620D01*
X17530720Y-6420620D02*
X17610720Y-6420620D01*
X17570720Y-6634620D02*
X17570720Y-6714620D01*
X17530720Y-6674620D02*
X17610720Y-6674620D01*
X17570720Y-6888620D02*
X17570720Y-6968620D01*
X17530720Y-6928620D02*
X17610720Y-6928620D01*
X17570720Y-7142620D02*
X17570720Y-7222620D01*
X17530720Y-7182620D02*
X17610720Y-7182620D01*
X17570720Y-7396620D02*
X17570720Y-7476620D01*
X17530720Y-7436620D02*
X17610720Y-7436620D01*
X17570720Y-7650620D02*
X17570720Y-7730620D01*
X17530720Y-7690620D02*
X17610720Y-7690620D01*
X17570720Y-7904620D02*
X17570720Y-7984620D01*
X17530720Y-7944620D02*
X17610720Y-7944620D01*
X17570720Y-8158620D02*
X17570720Y-8238620D01*
X17530720Y-8198620D02*
X17610720Y-8198620D01*
X17657580Y-12968880D02*
X17657580Y-13048880D01*
X17617580Y-13008880D02*
X17697580Y-13008880D01*
X17657580Y-13730880D02*
X17657580Y-13810880D01*
X17617580Y-13770880D02*
X17697580Y-13770880D01*
X17754600Y-4739200D02*
X17754600Y-4819200D01*
X17714600Y-4779200D02*
X17794600Y-4779200D01*
X17754600Y-5239200D02*
X17754600Y-5319200D01*
X17714600Y-5279200D02*
X17794600Y-5279200D01*
X11856228Y-5576392D02*
X11856228Y-5512752D01*
X11792588Y-5512752D01*
X11792588Y-5576392D01*
X11856228Y-5576392D01*
X8445500Y-9740100D02*
X8495500Y-9690100D01*
X8445500Y-9640100D01*
X8395500Y-9690100D01*
X8445500Y-9740100D01*
X8445500Y-9994100D02*
X8495500Y-9944100D01*
X8445500Y-9894100D01*
X8395500Y-9944100D01*
X8445500Y-9994100D01*
X8445500Y-10248100D02*
X8495500Y-10198100D01*
X8445500Y-10148100D01*
X8395500Y-10198100D01*
X8445500Y-10248100D01*
X8445500Y-10502100D02*
X8495500Y-10452100D01*
X8445500Y-10402100D01*
X8395500Y-10452100D01*
X8445500Y-10502100D01*
X8445500Y-10756100D02*
X8495500Y-10706100D01*
X8445500Y-10656100D01*
X8395500Y-10706100D01*
X8445500Y-10756100D01*
X8445500Y-11010100D02*
X8495500Y-10960100D01*
X8445500Y-10910100D01*
X8395500Y-10960100D01*
X8445500Y-11010100D01*
X8445500Y-11264100D02*
X8495500Y-11214100D01*
X8445500Y-11164100D01*
X8395500Y-11214100D01*
X8445500Y-11264100D01*
X8445500Y-11518100D02*
X8495500Y-11468100D01*
X8445500Y-11418100D01*
X8395500Y-11468100D01*
X8445500Y-11518100D01*
X8445500Y-11772100D02*
X8495500Y-11722100D01*
X8445500Y-11672100D01*
X8395500Y-11722100D01*
X8445500Y-11772100D01*
X8445500Y-12026100D02*
X8495500Y-11976100D01*
X8445500Y-11926100D01*
X8395500Y-11976100D01*
X8445500Y-12026100D01*
X8445500Y-12280100D02*
X8495500Y-12230100D01*
X8445500Y-12180100D01*
X8395500Y-12230100D01*
X8445500Y-12280100D01*
X8445500Y-12534100D02*
X8495500Y-12484100D01*
X8445500Y-12434100D01*
X8395500Y-12484100D01*
X8445500Y-12534100D01*
X8445500Y-12788100D02*
X8495500Y-12738100D01*
X8445500Y-12688100D01*
X8395500Y-12738100D01*
X8445500Y-12788100D01*
X8445500Y-13042100D02*
X8495500Y-12992100D01*
X8445500Y-12942100D01*
X8395500Y-12992100D01*
X8445500Y-13042100D01*
X8445500Y-13296100D02*
X8495500Y-13246100D01*
X8445500Y-13196100D01*
X8395500Y-13246100D01*
X8445500Y-13296100D01*
X8445500Y-13550100D02*
X8495500Y-13500100D01*
X8445500Y-13450100D01*
X8395500Y-13500100D01*
X8445500Y-13550100D01*
X8445500Y-13804100D02*
X8495500Y-13754100D01*
X8445500Y-13704100D01*
X8395500Y-13754100D01*
X8445500Y-13804100D01*
X8699500Y-9740100D02*
X8749500Y-9690100D01*
X8699500Y-9640100D01*
X8649500Y-9690100D01*
X8699500Y-9740100D01*
X8699500Y-9994100D02*
X8749500Y-9944100D01*
X8699500Y-9894100D01*
X8649500Y-9944100D01*
X8699500Y-9994100D01*
X8699500Y-10248100D02*
X8749500Y-10198100D01*
X8699500Y-10148100D01*
X8649500Y-10198100D01*
X8699500Y-10248100D01*
X8699500Y-10502100D02*
X8749500Y-10452100D01*
X8699500Y-10402100D01*
X8649500Y-10452100D01*
X8699500Y-10502100D01*
X8699500Y-10756100D02*
X8749500Y-10706100D01*
X8699500Y-10656100D01*
X8649500Y-10706100D01*
X8699500Y-10756100D01*
X8699500Y-11010100D02*
X8749500Y-10960100D01*
X8699500Y-10910100D01*
X8649500Y-10960100D01*
X8699500Y-11010100D01*
X8699500Y-11264100D02*
X8749500Y-11214100D01*
X8699500Y-11164100D01*
X8649500Y-11214100D01*
X8699500Y-11264100D01*
X8699500Y-11518100D02*
X8749500Y-11468100D01*
X8699500Y-11418100D01*
X8649500Y-11468100D01*
X8699500Y-11518100D01*
X8699500Y-11772100D02*
X8749500Y-11722100D01*
X8699500Y-11672100D01*
X8649500Y-11722100D01*
X8699500Y-11772100D01*
X8699500Y-12026100D02*
X8749500Y-11976100D01*
X8699500Y-11926100D01*
X8649500Y-11976100D01*
X8699500Y-12026100D01*
X8699500Y-12280100D02*
X8749500Y-12230100D01*
X8699500Y-12180100D01*
X8649500Y-12230100D01*
X8699500Y-12280100D01*
X8699500Y-12534100D02*
X8749500Y-12484100D01*
X8699500Y-12434100D01*
X8649500Y-12484100D01*
X8699500Y-12534100D01*
X8699500Y-12788100D02*
X8749500Y-12738100D01*
X8699500Y-12688100D01*
X8649500Y-12738100D01*
X8699500Y-12788100D01*
X8699500Y-13042100D02*
X8749500Y-12992100D01*
X8699500Y-12942100D01*
X8649500Y-12992100D01*
X8699500Y-13042100D01*
X8699500Y-13296100D02*
X8749500Y-13246100D01*
X8699500Y-13196100D01*
X8649500Y-13246100D01*
X8699500Y-13296100D01*
X8699500Y-13550100D02*
X8749500Y-13500100D01*
X8699500Y-13450100D01*
X8649500Y-13500100D01*
X8699500Y-13550100D01*
X8699500Y-13804100D02*
X8749500Y-13754100D01*
X8699500Y-13704100D01*
X8649500Y-13754100D01*
X8699500Y-13804100D01*
X18194148Y-5359207D02*
X18244148Y-5309207D01*
X18194148Y-5259207D01*
X18144148Y-5309207D01*
X18194148Y-5359207D01*
X18194148Y-5613207D02*
X18244148Y-5563207D01*
X18194148Y-5513207D01*
X18144148Y-5563207D01*
X18194148Y-5613207D01*
X18194148Y-5867207D02*
X18244148Y-5817207D01*
X18194148Y-5767207D01*
X18144148Y-5817207D01*
X18194148Y-5867207D01*
X18194148Y-6121207D02*
X18244148Y-6071207D01*
X18194148Y-6021207D01*
X18144148Y-6071207D01*
X18194148Y-6121207D01*
X18194148Y-6375207D02*
X18244148Y-6325207D01*
X18194148Y-6275207D01*
X18144148Y-6325207D01*
X18194148Y-6375207D01*
X18194148Y-6629207D02*
X18244148Y-6579207D01*
X18194148Y-6529207D01*
X18144148Y-6579207D01*
X18194148Y-6629207D01*
X18194148Y-6883207D02*
X18244148Y-6833207D01*
X18194148Y-6783207D01*
X18144148Y-6833207D01*
X18194148Y-6883207D01*
X18194148Y-7137207D02*
X18244148Y-7087207D01*
X18194148Y-7037207D01*
X18144148Y-7087207D01*
X18194148Y-7137207D01*
X18194148Y-7391207D02*
X18244148Y-7341207D01*
X18194148Y-7291207D01*
X18144148Y-7341207D01*
X18194148Y-7391207D01*
X18194148Y-7645207D02*
X18244148Y-7595207D01*
X18194148Y-7545207D01*
X18144148Y-7595207D01*
X18194148Y-7645207D01*
X18194148Y-7899207D02*
X18244148Y-7849207D01*
X18194148Y-7799207D01*
X18144148Y-7849207D01*
X18194148Y-7899207D01*
X18194148Y-8153207D02*
X18244148Y-8103207D01*
X18194148Y-8053207D01*
X18144148Y-8103207D01*
X18194148Y-8153207D01*
X18194148Y-8407207D02*
X18244148Y-8357207D01*
X18194148Y-8307207D01*
X18144148Y-8357207D01*
X18194148Y-8407207D01*
X18194148Y-8661207D02*
X18244148Y-8611207D01*
X18194148Y-8561207D01*
X18144148Y-8611207D01*
X18194148Y-8661207D01*
X18194148Y-8915207D02*
X18244148Y-8865207D01*
X18194148Y-8815207D01*
X18144148Y-8865207D01*
X18194148Y-8915207D01*
X18194148Y-9169207D02*
X18244148Y-9119207D01*
X18194148Y-9069207D01*
X18144148Y-9119207D01*
X18194148Y-9169207D01*
X18194148Y-9423207D02*
X18244148Y-9373207D01*
X18194148Y-9323207D01*
X18144148Y-9373207D01*
X18194148Y-9423207D01*
X18194148Y-9677207D02*
X18244148Y-9627207D01*
X18194148Y-9577207D01*
X18144148Y-9627207D01*
X18194148Y-9677207D01*
X18194148Y-9931207D02*
X18244148Y-9881207D01*
X18194148Y-9831207D01*
X18144148Y-9881207D01*
X18194148Y-9931207D01*
X18194148Y-10185207D02*
X18244148Y-10135207D01*
X18194148Y-10085207D01*
X18144148Y-10135207D01*
X18194148Y-10185207D01*
X18194148Y-10439207D02*
X18244148Y-10389207D01*
X18194148Y-10339207D01*
X18144148Y-10389207D01*
X18194148Y-10439207D01*
X18194148Y-10693207D02*
X18244148Y-10643207D01*
X18194148Y-10593207D01*
X18144148Y-10643207D01*
X18194148Y-10693207D01*
X18194148Y-10947207D02*
X18244148Y-10897207D01*
X18194148Y-10847207D01*
X18144148Y-10897207D01*
X18194148Y-10947207D01*
X18194148Y-11201207D02*
X18244148Y-11151207D01*
X18194148Y-11101207D01*
X18144148Y-11151207D01*
X18194148Y-11201207D01*
X18194148Y-11455207D02*
X18244148Y-11405207D01*
X18194148Y-11355207D01*
X18144148Y-11405207D01*
X18194148Y-11455207D01*
X18194148Y-11709207D02*
X18244148Y-11659207D01*
X18194148Y-11609207D01*
X18144148Y-11659207D01*
X18194148Y-11709207D01*
X18194148Y-11963207D02*
X18244148Y-11913207D01*
X18194148Y-11863207D01*
X18144148Y-11913207D01*
X18194148Y-11963207D01*
X18194148Y-12217207D02*
X18244148Y-12167207D01*
X18194148Y-12117207D01*
X18144148Y-12167207D01*
X18194148Y-12217207D01*
X18194148Y-12471207D02*
X18244148Y-12421207D01*
X18194148Y-12371207D01*
X18144148Y-12421207D01*
X18194148Y-12471207D01*
X18194148Y-12725207D02*
X18244148Y-12675207D01*
X18194148Y-12625207D01*
X18144148Y-12675207D01*
X18194148Y-12725207D01*
X18194148Y-12979207D02*
X18244148Y-12929207D01*
X18194148Y-12879207D01*
X18144148Y-12929207D01*
X18194148Y-12979207D01*
X18194148Y-13233207D02*
X18244148Y-13183207D01*
X18194148Y-13133207D01*
X18144148Y-13183207D01*
X18194148Y-13233207D01*
X18448148Y-5359207D02*
X18498148Y-5309207D01*
X18448148Y-5259207D01*
X18398148Y-5309207D01*
X18448148Y-5359207D01*
X18448148Y-5613207D02*
X18498148Y-5563207D01*
X18448148Y-5513207D01*
X18398148Y-5563207D01*
X18448148Y-5613207D01*
X18448148Y-5867207D02*
X18498148Y-5817207D01*
X18448148Y-5767207D01*
X18398148Y-5817207D01*
X18448148Y-5867207D01*
X18448148Y-6121207D02*
X18498148Y-6071207D01*
X18448148Y-6021207D01*
X18398148Y-6071207D01*
X18448148Y-6121207D01*
X18448148Y-6375207D02*
X18498148Y-6325207D01*
X18448148Y-6275207D01*
X18398148Y-6325207D01*
X18448148Y-6375207D01*
X18448148Y-6629207D02*
X18498148Y-6579207D01*
X18448148Y-6529207D01*
X18398148Y-6579207D01*
X18448148Y-6629207D01*
X18448148Y-6883207D02*
X18498148Y-6833207D01*
X18448148Y-6783207D01*
X18398148Y-6833207D01*
X18448148Y-6883207D01*
X18448148Y-7137207D02*
X18498148Y-7087207D01*
X18448148Y-7037207D01*
X18398148Y-7087207D01*
X18448148Y-7137207D01*
X18448148Y-7391207D02*
X18498148Y-7341207D01*
X18448148Y-7291207D01*
X18398148Y-7341207D01*
X18448148Y-7391207D01*
X18448148Y-7645207D02*
X18498148Y-7595207D01*
X18448148Y-7545207D01*
X18398148Y-7595207D01*
X18448148Y-7645207D01*
X18448148Y-7899207D02*
X18498148Y-7849207D01*
X18448148Y-7799207D01*
X18398148Y-7849207D01*
X18448148Y-7899207D01*
X18448148Y-8153207D02*
X18498148Y-8103207D01*
X18448148Y-8053207D01*
X18398148Y-8103207D01*
X18448148Y-8153207D01*
X18448148Y-8407207D02*
X18498148Y-8357207D01*
X18448148Y-8307207D01*
X18398148Y-8357207D01*
X18448148Y-8407207D01*
X18448148Y-8661207D02*
X18498148Y-8611207D01*
X18448148Y-8561207D01*
X18398148Y-8611207D01*
X18448148Y-8661207D01*
X18448148Y-8915207D02*
X18498148Y-8865207D01*
X18448148Y-8815207D01*
X18398148Y-8865207D01*
X18448148Y-8915207D01*
X18448148Y-9169207D02*
X18498148Y-9119207D01*
X18448148Y-9069207D01*
X18398148Y-9119207D01*
X18448148Y-9169207D01*
X18448148Y-9423207D02*
X18498148Y-9373207D01*
X18448148Y-9323207D01*
X18398148Y-9373207D01*
X18448148Y-9423207D01*
X18448148Y-9677207D02*
X18498148Y-9627207D01*
X18448148Y-9577207D01*
X18398148Y-9627207D01*
X18448148Y-9677207D01*
X18448148Y-9931207D02*
X18498148Y-9881207D01*
X18448148Y-9831207D01*
X18398148Y-9881207D01*
X18448148Y-9931207D01*
X18448148Y-10185207D02*
X18498148Y-10135207D01*
X18448148Y-10085207D01*
X18398148Y-10135207D01*
X18448148Y-10185207D01*
X18448148Y-10439207D02*
X18498148Y-10389207D01*
X18448148Y-10339207D01*
X18398148Y-10389207D01*
X18448148Y-10439207D01*
X18448148Y-10693207D02*
X18498148Y-10643207D01*
X18448148Y-10593207D01*
X18398148Y-10643207D01*
X18448148Y-10693207D01*
X18448148Y-10947207D02*
X18498148Y-10897207D01*
X18448148Y-10847207D01*
X18398148Y-10897207D01*
X18448148Y-10947207D01*
X18448148Y-11201207D02*
X18498148Y-11151207D01*
X18448148Y-11101207D01*
X18398148Y-11151207D01*
X18448148Y-11201207D01*
X18448148Y-11455207D02*
X18498148Y-11405207D01*
X18448148Y-11355207D01*
X18398148Y-11405207D01*
X18448148Y-11455207D01*
X18448148Y-11709207D02*
X18498148Y-11659207D01*
X18448148Y-11609207D01*
X18398148Y-11659207D01*
X18448148Y-11709207D01*
X18448148Y-11963207D02*
X18498148Y-11913207D01*
X18448148Y-11863207D01*
X18398148Y-11913207D01*
X18448148Y-11963207D01*
X18448148Y-12217207D02*
X18498148Y-12167207D01*
X18448148Y-12117207D01*
X18398148Y-12167207D01*
X18448148Y-12217207D01*
X18448148Y-12471207D02*
X18498148Y-12421207D01*
X18448148Y-12371207D01*
X18398148Y-12421207D01*
X18448148Y-12471207D01*
X18448148Y-12725207D02*
X18498148Y-12675207D01*
X18448148Y-12625207D01*
X18398148Y-12675207D01*
X18448148Y-12725207D01*
X18448148Y-12979207D02*
X18498148Y-12929207D01*
X18448148Y-12879207D01*
X18398148Y-12929207D01*
X18448148Y-12979207D01*
X18448148Y-13233207D02*
X18498148Y-13183207D01*
X18448148Y-13133207D01*
X18398148Y-13183207D01*
X18448148Y-13233207D01*
D13*
X9270148Y-4679560D02*
X9380148Y-4789560D01*
X9380148Y-4679560D02*
X9270148Y-4789560D01*
X9380148Y-4734560D02*
G75*
G02*
X9270148Y-4734560I-55000J0D01*
G01*
X9270148Y-4734560D02*
G75*
G02*
X9380148Y-4734560I55000J0D01*
G01*
X9270148Y-4933560D02*
X9380148Y-5043560D01*
X9380148Y-4933560D02*
X9270148Y-5043560D01*
X9380148Y-4988560D02*
G75*
G02*
X9270148Y-4988560I-55000J0D01*
G01*
X9270148Y-4988560D02*
G75*
G02*
X9380148Y-4988560I55000J0D01*
G01*
X9270148Y-5187560D02*
X9380148Y-5297560D01*
X9380148Y-5187560D02*
X9270148Y-5297560D01*
X9380148Y-5242560D02*
G75*
G02*
X9270148Y-5242560I-55000J0D01*
G01*
X9270148Y-5242560D02*
G75*
G02*
X9380148Y-5242560I55000J0D01*
G01*
D14*
X7528680Y-6655170D02*
X7648680Y-6775170D01*
X7648680Y-6655170D02*
X7528680Y-6775170D01*
X7588680Y-6655170D02*
X7588680Y-6775170D01*
X7528680Y-6715170D02*
X7648680Y-6715170D01*
X7528680Y-7388670D02*
X7648680Y-7508670D01*
X7648680Y-7388670D02*
X7528680Y-7508670D01*
X7588680Y-7388670D02*
X7588680Y-7508670D01*
X7528680Y-7448670D02*
X7648680Y-7448670D01*
X7528680Y-8122170D02*
X7648680Y-8242170D01*
X7648680Y-8122170D02*
X7528680Y-8242170D01*
X7588680Y-8122170D02*
X7588680Y-8242170D01*
X7528680Y-8182170D02*
X7648680Y-8182170D01*
X7533760Y-5925630D02*
X7653760Y-6045630D01*
X7653760Y-5925630D02*
X7533760Y-6045630D01*
X7593760Y-5925630D02*
X7593760Y-6045630D01*
X7533760Y-5985630D02*
X7653760Y-5985630D01*
X7538840Y-8866950D02*
X7658840Y-8986950D01*
X7658840Y-8866950D02*
X7538840Y-8986950D01*
X7598840Y-8866950D02*
X7598840Y-8986950D01*
X7538840Y-8926950D02*
X7658840Y-8926950D01*
X9328680Y-6655170D02*
X9448680Y-6775170D01*
X9448680Y-6655170D02*
X9328680Y-6775170D01*
X9388680Y-6655170D02*
X9388680Y-6775170D01*
X9328680Y-6715170D02*
X9448680Y-6715170D01*
X9328680Y-7388670D02*
X9448680Y-7508670D01*
X9448680Y-7388670D02*
X9328680Y-7508670D01*
X9388680Y-7388670D02*
X9388680Y-7508670D01*
X9328680Y-7448670D02*
X9448680Y-7448670D01*
X9328680Y-8122170D02*
X9448680Y-8242170D01*
X9448680Y-8122170D02*
X9328680Y-8242170D01*
X9388680Y-8122170D02*
X9388680Y-8242170D01*
X9328680Y-8182170D02*
X9448680Y-8182170D01*
X9333760Y-5925630D02*
X9453760Y-6045630D01*
X9453760Y-5925630D02*
X9333760Y-6045630D01*
X9393760Y-5925630D02*
X9393760Y-6045630D01*
X9333760Y-5985630D02*
X9453760Y-5985630D01*
X9338840Y-8866950D02*
X9458840Y-8986950D01*
X9458840Y-8866950D02*
X9338840Y-8986950D01*
X9398840Y-8866950D02*
X9398840Y-8986950D01*
X9338840Y-8926950D02*
X9458840Y-8926950D01*
D11*
X7520924Y-14557191D02*
X7520924Y-14357191D01*
X7520924Y-14357191D02*
X7568543Y-14357191D01*
X7568543Y-14357191D02*
X7597115Y-14366715D01*
X7597115Y-14366715D02*
X7616162Y-14385763D01*
X7616162Y-14385763D02*
X7625686Y-14404810D01*
X7625686Y-14404810D02*
X7635210Y-14442905D01*
X7635210Y-14442905D02*
X7635210Y-14471477D01*
X7635210Y-14471477D02*
X7625686Y-14509572D01*
X7625686Y-14509572D02*
X7616162Y-14528620D01*
X7616162Y-14528620D02*
X7597115Y-14547667D01*
X7597115Y-14547667D02*
X7568543Y-14557191D01*
X7568543Y-14557191D02*
X7520924Y-14557191D01*
X7720924Y-14557191D02*
X7720924Y-14423858D01*
X7720924Y-14461953D02*
X7730448Y-14442905D01*
X7730448Y-14442905D02*
X7739972Y-14433382D01*
X7739972Y-14433382D02*
X7759020Y-14423858D01*
X7759020Y-14423858D02*
X7778067Y-14423858D01*
X7844734Y-14557191D02*
X7844734Y-14423858D01*
X7844734Y-14357191D02*
X7835210Y-14366715D01*
X7835210Y-14366715D02*
X7844734Y-14376239D01*
X7844734Y-14376239D02*
X7854258Y-14366715D01*
X7854258Y-14366715D02*
X7844734Y-14357191D01*
X7844734Y-14357191D02*
X7844734Y-14376239D01*
X7968543Y-14557191D02*
X7949496Y-14547667D01*
X7949496Y-14547667D02*
X7939972Y-14528620D01*
X7939972Y-14528620D02*
X7939972Y-14357191D01*
X8073305Y-14557191D02*
X8054258Y-14547667D01*
X8054258Y-14547667D02*
X8044734Y-14528620D01*
X8044734Y-14528620D02*
X8044734Y-14357191D01*
X8301877Y-14557191D02*
X8301877Y-14357191D01*
X8301877Y-14357191D02*
X8368543Y-14500048D01*
X8368543Y-14500048D02*
X8435210Y-14357191D01*
X8435210Y-14357191D02*
X8435210Y-14557191D01*
X8616163Y-14557191D02*
X8616163Y-14452429D01*
X8616163Y-14452429D02*
X8606639Y-14433382D01*
X8606639Y-14433382D02*
X8587591Y-14423858D01*
X8587591Y-14423858D02*
X8549496Y-14423858D01*
X8549496Y-14423858D02*
X8530448Y-14433382D01*
X8616163Y-14547667D02*
X8597115Y-14557191D01*
X8597115Y-14557191D02*
X8549496Y-14557191D01*
X8549496Y-14557191D02*
X8530448Y-14547667D01*
X8530448Y-14547667D02*
X8520924Y-14528620D01*
X8520924Y-14528620D02*
X8520924Y-14509572D01*
X8520924Y-14509572D02*
X8530448Y-14490524D01*
X8530448Y-14490524D02*
X8549496Y-14481001D01*
X8549496Y-14481001D02*
X8597115Y-14481001D01*
X8597115Y-14481001D02*
X8616163Y-14471477D01*
X8711401Y-14423858D02*
X8711401Y-14623858D01*
X8711401Y-14433382D02*
X8730448Y-14423858D01*
X8730448Y-14423858D02*
X8768544Y-14423858D01*
X8768544Y-14423858D02*
X8787591Y-14433382D01*
X8787591Y-14433382D02*
X8797115Y-14442905D01*
X8797115Y-14442905D02*
X8806639Y-14461953D01*
X8806639Y-14461953D02*
X8806639Y-14519096D01*
X8806639Y-14519096D02*
X8797115Y-14538143D01*
X8797115Y-14538143D02*
X8787591Y-14547667D01*
X8787591Y-14547667D02*
X8768544Y-14557191D01*
X8768544Y-14557191D02*
X8730448Y-14557191D01*
X8730448Y-14557191D02*
X8711401Y-14547667D01*
X8892353Y-14538143D02*
X8901877Y-14547667D01*
X8901877Y-14547667D02*
X8892353Y-14557191D01*
X8892353Y-14557191D02*
X8882829Y-14547667D01*
X8882829Y-14547667D02*
X8892353Y-14538143D01*
X8892353Y-14538143D02*
X8892353Y-14557191D01*
X8892353Y-14433382D02*
X8901877Y-14442905D01*
X8901877Y-14442905D02*
X8892353Y-14452429D01*
X8892353Y-14452429D02*
X8882829Y-14442905D01*
X8882829Y-14442905D02*
X8892353Y-14433382D01*
X8892353Y-14433382D02*
X8892353Y-14452429D01*
D12*
X7230148Y-14870707D02*
X7260148Y-14900707D01*
X7260148Y-14870707D02*
X7230148Y-14900707D01*
D11*
X7559020Y-14777191D02*
X7578067Y-14777191D01*
X7578067Y-14777191D02*
X7597115Y-14786715D01*
X7597115Y-14786715D02*
X7606639Y-14796239D01*
X7606639Y-14796239D02*
X7616162Y-14815286D01*
X7616162Y-14815286D02*
X7625686Y-14853382D01*
X7625686Y-14853382D02*
X7625686Y-14901001D01*
X7625686Y-14901001D02*
X7616162Y-14939096D01*
X7616162Y-14939096D02*
X7606639Y-14958143D01*
X7606639Y-14958143D02*
X7597115Y-14967667D01*
X7597115Y-14967667D02*
X7578067Y-14977191D01*
X7578067Y-14977191D02*
X7559020Y-14977191D01*
X7559020Y-14977191D02*
X7539972Y-14967667D01*
X7539972Y-14967667D02*
X7530448Y-14958143D01*
X7530448Y-14958143D02*
X7520924Y-14939096D01*
X7520924Y-14939096D02*
X7511401Y-14901001D01*
X7511401Y-14901001D02*
X7511401Y-14853382D01*
X7511401Y-14853382D02*
X7520924Y-14815286D01*
X7520924Y-14815286D02*
X7530448Y-14796239D01*
X7530448Y-14796239D02*
X7539972Y-14786715D01*
X7539972Y-14786715D02*
X7559020Y-14777191D01*
X7711401Y-14958143D02*
X7720924Y-14967667D01*
X7720924Y-14967667D02*
X7711401Y-14977191D01*
X7711401Y-14977191D02*
X7701877Y-14967667D01*
X7701877Y-14967667D02*
X7711401Y-14958143D01*
X7711401Y-14958143D02*
X7711401Y-14977191D01*
X7787591Y-14777191D02*
X7911401Y-14777191D01*
X7911401Y-14777191D02*
X7844734Y-14853382D01*
X7844734Y-14853382D02*
X7873305Y-14853382D01*
X7873305Y-14853382D02*
X7892353Y-14862905D01*
X7892353Y-14862905D02*
X7901877Y-14872429D01*
X7901877Y-14872429D02*
X7911401Y-14891477D01*
X7911401Y-14891477D02*
X7911401Y-14939096D01*
X7911401Y-14939096D02*
X7901877Y-14958143D01*
X7901877Y-14958143D02*
X7892353Y-14967667D01*
X7892353Y-14967667D02*
X7873305Y-14977191D01*
X7873305Y-14977191D02*
X7816162Y-14977191D01*
X7816162Y-14977191D02*
X7797115Y-14967667D01*
X7797115Y-14967667D02*
X7787591Y-14958143D01*
X8035210Y-14777191D02*
X8054258Y-14777191D01*
X8054258Y-14777191D02*
X8073305Y-14786715D01*
X8073305Y-14786715D02*
X8082829Y-14796239D01*
X8082829Y-14796239D02*
X8092353Y-14815286D01*
X8092353Y-14815286D02*
X8101877Y-14853382D01*
X8101877Y-14853382D02*
X8101877Y-14901001D01*
X8101877Y-14901001D02*
X8092353Y-14939096D01*
X8092353Y-14939096D02*
X8082829Y-14958143D01*
X8082829Y-14958143D02*
X8073305Y-14967667D01*
X8073305Y-14967667D02*
X8054258Y-14977191D01*
X8054258Y-14977191D02*
X8035210Y-14977191D01*
X8035210Y-14977191D02*
X8016162Y-14967667D01*
X8016162Y-14967667D02*
X8006639Y-14958143D01*
X8006639Y-14958143D02*
X7997115Y-14939096D01*
X7997115Y-14939096D02*
X7987591Y-14901001D01*
X7987591Y-14901001D02*
X7987591Y-14853382D01*
X7987591Y-14853382D02*
X7997115Y-14815286D01*
X7997115Y-14815286D02*
X8006639Y-14796239D01*
X8006639Y-14796239D02*
X8016162Y-14786715D01*
X8016162Y-14786715D02*
X8035210Y-14777191D01*
X8225686Y-14777191D02*
X8244734Y-14777191D01*
X8244734Y-14777191D02*
X8263782Y-14786715D01*
X8263782Y-14786715D02*
X8273305Y-14796239D01*
X8273305Y-14796239D02*
X8282829Y-14815286D01*
X8282829Y-14815286D02*
X8292353Y-14853382D01*
X8292353Y-14853382D02*
X8292353Y-14901001D01*
X8292353Y-14901001D02*
X8282829Y-14939096D01*
X8282829Y-14939096D02*
X8273305Y-14958143D01*
X8273305Y-14958143D02*
X8263782Y-14967667D01*
X8263782Y-14967667D02*
X8244734Y-14977191D01*
X8244734Y-14977191D02*
X8225686Y-14977191D01*
X8225686Y-14977191D02*
X8206639Y-14967667D01*
X8206639Y-14967667D02*
X8197115Y-14958143D01*
X8197115Y-14958143D02*
X8187591Y-14939096D01*
X8187591Y-14939096D02*
X8178067Y-14901001D01*
X8178067Y-14901001D02*
X8178067Y-14853382D01*
X8178067Y-14853382D02*
X8187591Y-14815286D01*
X8187591Y-14815286D02*
X8197115Y-14796239D01*
X8197115Y-14796239D02*
X8206639Y-14786715D01*
X8206639Y-14786715D02*
X8225686Y-14777191D01*
X8378067Y-14977191D02*
X8378067Y-14843858D01*
X8378067Y-14862905D02*
X8387591Y-14853382D01*
X8387591Y-14853382D02*
X8406639Y-14843858D01*
X8406639Y-14843858D02*
X8435210Y-14843858D01*
X8435210Y-14843858D02*
X8454258Y-14853382D01*
X8454258Y-14853382D02*
X8463782Y-14872429D01*
X8463782Y-14872429D02*
X8463782Y-14977191D01*
X8463782Y-14872429D02*
X8473305Y-14853382D01*
X8473305Y-14853382D02*
X8492353Y-14843858D01*
X8492353Y-14843858D02*
X8520924Y-14843858D01*
X8520924Y-14843858D02*
X8539972Y-14853382D01*
X8539972Y-14853382D02*
X8549496Y-14872429D01*
X8549496Y-14872429D02*
X8549496Y-14977191D01*
X8644734Y-14977191D02*
X8644734Y-14843858D01*
X8644734Y-14862905D02*
X8654258Y-14853382D01*
X8654258Y-14853382D02*
X8673305Y-14843858D01*
X8673305Y-14843858D02*
X8701877Y-14843858D01*
X8701877Y-14843858D02*
X8720925Y-14853382D01*
X8720925Y-14853382D02*
X8730448Y-14872429D01*
X8730448Y-14872429D02*
X8730448Y-14977191D01*
X8730448Y-14872429D02*
X8739972Y-14853382D01*
X8739972Y-14853382D02*
X8759020Y-14843858D01*
X8759020Y-14843858D02*
X8787591Y-14843858D01*
X8787591Y-14843858D02*
X8806639Y-14853382D01*
X8806639Y-14853382D02*
X8816163Y-14872429D01*
X8816163Y-14872429D02*
X8816163Y-14977191D01*
X9206639Y-14767667D02*
X9035210Y-15024810D01*
X9463782Y-14777191D02*
X9482829Y-14777191D01*
X9482829Y-14777191D02*
X9501877Y-14786715D01*
X9501877Y-14786715D02*
X9511401Y-14796239D01*
X9511401Y-14796239D02*
X9520925Y-14815286D01*
X9520925Y-14815286D02*
X9530448Y-14853382D01*
X9530448Y-14853382D02*
X9530448Y-14901001D01*
X9530448Y-14901001D02*
X9520925Y-14939096D01*
X9520925Y-14939096D02*
X9511401Y-14958143D01*
X9511401Y-14958143D02*
X9501877Y-14967667D01*
X9501877Y-14967667D02*
X9482829Y-14977191D01*
X9482829Y-14977191D02*
X9463782Y-14977191D01*
X9463782Y-14977191D02*
X9444734Y-14967667D01*
X9444734Y-14967667D02*
X9435210Y-14958143D01*
X9435210Y-14958143D02*
X9425687Y-14939096D01*
X9425687Y-14939096D02*
X9416163Y-14901001D01*
X9416163Y-14901001D02*
X9416163Y-14853382D01*
X9416163Y-14853382D02*
X9425687Y-14815286D01*
X9425687Y-14815286D02*
X9435210Y-14796239D01*
X9435210Y-14796239D02*
X9444734Y-14786715D01*
X9444734Y-14786715D02*
X9463782Y-14777191D01*
X9616163Y-14958143D02*
X9625687Y-14967667D01*
X9625687Y-14967667D02*
X9616163Y-14977191D01*
X9616163Y-14977191D02*
X9606639Y-14967667D01*
X9606639Y-14967667D02*
X9616163Y-14958143D01*
X9616163Y-14958143D02*
X9616163Y-14977191D01*
X9749496Y-14777191D02*
X9768544Y-14777191D01*
X9768544Y-14777191D02*
X9787591Y-14786715D01*
X9787591Y-14786715D02*
X9797115Y-14796239D01*
X9797115Y-14796239D02*
X9806639Y-14815286D01*
X9806639Y-14815286D02*
X9816163Y-14853382D01*
X9816163Y-14853382D02*
X9816163Y-14901001D01*
X9816163Y-14901001D02*
X9806639Y-14939096D01*
X9806639Y-14939096D02*
X9797115Y-14958143D01*
X9797115Y-14958143D02*
X9787591Y-14967667D01*
X9787591Y-14967667D02*
X9768544Y-14977191D01*
X9768544Y-14977191D02*
X9749496Y-14977191D01*
X9749496Y-14977191D02*
X9730448Y-14967667D01*
X9730448Y-14967667D02*
X9720925Y-14958143D01*
X9720925Y-14958143D02*
X9711401Y-14939096D01*
X9711401Y-14939096D02*
X9701877Y-14901001D01*
X9701877Y-14901001D02*
X9701877Y-14853382D01*
X9701877Y-14853382D02*
X9711401Y-14815286D01*
X9711401Y-14815286D02*
X9720925Y-14796239D01*
X9720925Y-14796239D02*
X9730448Y-14786715D01*
X9730448Y-14786715D02*
X9749496Y-14777191D01*
X10006639Y-14977191D02*
X9892353Y-14977191D01*
X9949496Y-14977191D02*
X9949496Y-14777191D01*
X9949496Y-14777191D02*
X9930448Y-14805763D01*
X9930448Y-14805763D02*
X9911401Y-14824810D01*
X9911401Y-14824810D02*
X9892353Y-14834334D01*
X10197115Y-14977191D02*
X10082829Y-14977191D01*
X10139972Y-14977191D02*
X10139972Y-14777191D01*
X10139972Y-14777191D02*
X10120925Y-14805763D01*
X10120925Y-14805763D02*
X10101877Y-14824810D01*
X10101877Y-14824810D02*
X10082829Y-14834334D01*
X10311401Y-14862905D02*
X10292353Y-14853382D01*
X10292353Y-14853382D02*
X10282829Y-14843858D01*
X10282829Y-14843858D02*
X10273306Y-14824810D01*
X10273306Y-14824810D02*
X10273306Y-14815286D01*
X10273306Y-14815286D02*
X10282829Y-14796239D01*
X10282829Y-14796239D02*
X10292353Y-14786715D01*
X10292353Y-14786715D02*
X10311401Y-14777191D01*
X10311401Y-14777191D02*
X10349496Y-14777191D01*
X10349496Y-14777191D02*
X10368544Y-14786715D01*
X10368544Y-14786715D02*
X10378068Y-14796239D01*
X10378068Y-14796239D02*
X10387591Y-14815286D01*
X10387591Y-14815286D02*
X10387591Y-14824810D01*
X10387591Y-14824810D02*
X10378068Y-14843858D01*
X10378068Y-14843858D02*
X10368544Y-14853382D01*
X10368544Y-14853382D02*
X10349496Y-14862905D01*
X10349496Y-14862905D02*
X10311401Y-14862905D01*
X10311401Y-14862905D02*
X10292353Y-14872429D01*
X10292353Y-14872429D02*
X10282829Y-14881953D01*
X10282829Y-14881953D02*
X10273306Y-14901001D01*
X10273306Y-14901001D02*
X10273306Y-14939096D01*
X10273306Y-14939096D02*
X10282829Y-14958143D01*
X10282829Y-14958143D02*
X10292353Y-14967667D01*
X10292353Y-14967667D02*
X10311401Y-14977191D01*
X10311401Y-14977191D02*
X10349496Y-14977191D01*
X10349496Y-14977191D02*
X10368544Y-14967667D01*
X10368544Y-14967667D02*
X10378068Y-14958143D01*
X10378068Y-14958143D02*
X10387591Y-14939096D01*
X10387591Y-14939096D02*
X10387591Y-14901001D01*
X10387591Y-14901001D02*
X10378068Y-14881953D01*
X10378068Y-14881953D02*
X10368544Y-14872429D01*
X10368544Y-14872429D02*
X10349496Y-14862905D01*
X10463782Y-14777191D02*
X10463782Y-14815286D01*
X10539972Y-14777191D02*
X10539972Y-14815286D01*
X10835211Y-15053382D02*
X10825687Y-15043858D01*
X10825687Y-15043858D02*
X10806639Y-15015286D01*
X10806639Y-15015286D02*
X10797115Y-14996239D01*
X10797115Y-14996239D02*
X10787591Y-14967667D01*
X10787591Y-14967667D02*
X10778068Y-14920048D01*
X10778068Y-14920048D02*
X10778068Y-14881953D01*
X10778068Y-14881953D02*
X10787591Y-14834334D01*
X10787591Y-14834334D02*
X10797115Y-14805763D01*
X10797115Y-14805763D02*
X10806639Y-14786715D01*
X10806639Y-14786715D02*
X10825687Y-14758143D01*
X10825687Y-14758143D02*
X10835211Y-14748620D01*
X10997115Y-14843858D02*
X10997115Y-14977191D01*
X10949496Y-14767667D02*
X10901877Y-14910524D01*
X10901877Y-14910524D02*
X11025687Y-14910524D01*
X11254258Y-14977191D02*
X11254258Y-14777191D01*
X11339972Y-14977191D02*
X11339972Y-14872429D01*
X11339972Y-14872429D02*
X11330449Y-14853382D01*
X11330449Y-14853382D02*
X11311401Y-14843858D01*
X11311401Y-14843858D02*
X11282829Y-14843858D01*
X11282829Y-14843858D02*
X11263782Y-14853382D01*
X11263782Y-14853382D02*
X11254258Y-14862905D01*
X11463782Y-14977191D02*
X11444734Y-14967667D01*
X11444734Y-14967667D02*
X11435210Y-14958143D01*
X11435210Y-14958143D02*
X11425687Y-14939096D01*
X11425687Y-14939096D02*
X11425687Y-14881953D01*
X11425687Y-14881953D02*
X11435210Y-14862905D01*
X11435210Y-14862905D02*
X11444734Y-14853382D01*
X11444734Y-14853382D02*
X11463782Y-14843858D01*
X11463782Y-14843858D02*
X11492353Y-14843858D01*
X11492353Y-14843858D02*
X11511401Y-14853382D01*
X11511401Y-14853382D02*
X11520925Y-14862905D01*
X11520925Y-14862905D02*
X11530449Y-14881953D01*
X11530449Y-14881953D02*
X11530449Y-14939096D01*
X11530449Y-14939096D02*
X11520925Y-14958143D01*
X11520925Y-14958143D02*
X11511401Y-14967667D01*
X11511401Y-14967667D02*
X11492353Y-14977191D01*
X11492353Y-14977191D02*
X11463782Y-14977191D01*
X11644734Y-14977191D02*
X11625687Y-14967667D01*
X11625687Y-14967667D02*
X11616163Y-14948620D01*
X11616163Y-14948620D02*
X11616163Y-14777191D01*
X11797115Y-14967667D02*
X11778068Y-14977191D01*
X11778068Y-14977191D02*
X11739972Y-14977191D01*
X11739972Y-14977191D02*
X11720925Y-14967667D01*
X11720925Y-14967667D02*
X11711401Y-14948620D01*
X11711401Y-14948620D02*
X11711401Y-14872429D01*
X11711401Y-14872429D02*
X11720925Y-14853382D01*
X11720925Y-14853382D02*
X11739972Y-14843858D01*
X11739972Y-14843858D02*
X11778068Y-14843858D01*
X11778068Y-14843858D02*
X11797115Y-14853382D01*
X11797115Y-14853382D02*
X11806639Y-14872429D01*
X11806639Y-14872429D02*
X11806639Y-14891477D01*
X11806639Y-14891477D02*
X11711401Y-14910524D01*
X11882830Y-14967667D02*
X11901877Y-14977191D01*
X11901877Y-14977191D02*
X11939972Y-14977191D01*
X11939972Y-14977191D02*
X11959020Y-14967667D01*
X11959020Y-14967667D02*
X11968544Y-14948620D01*
X11968544Y-14948620D02*
X11968544Y-14939096D01*
X11968544Y-14939096D02*
X11959020Y-14920048D01*
X11959020Y-14920048D02*
X11939972Y-14910524D01*
X11939972Y-14910524D02*
X11911401Y-14910524D01*
X11911401Y-14910524D02*
X11892353Y-14901001D01*
X11892353Y-14901001D02*
X11882830Y-14881953D01*
X11882830Y-14881953D02*
X11882830Y-14872429D01*
X11882830Y-14872429D02*
X11892353Y-14853382D01*
X11892353Y-14853382D02*
X11911401Y-14843858D01*
X11911401Y-14843858D02*
X11939972Y-14843858D01*
X11939972Y-14843858D02*
X11959020Y-14853382D01*
X12035211Y-15053382D02*
X12044734Y-15043858D01*
X12044734Y-15043858D02*
X12063782Y-15015286D01*
X12063782Y-15015286D02*
X12073306Y-14996239D01*
X12073306Y-14996239D02*
X12082830Y-14967667D01*
X12082830Y-14967667D02*
X12092353Y-14920048D01*
X12092353Y-14920048D02*
X12092353Y-14881953D01*
X12092353Y-14881953D02*
X12082830Y-14834334D01*
X12082830Y-14834334D02*
X12073306Y-14805763D01*
X12073306Y-14805763D02*
X12063782Y-14786715D01*
X12063782Y-14786715D02*
X12044734Y-14758143D01*
X12044734Y-14758143D02*
X12035211Y-14748620D01*
D12*
X7260148Y-15149707D02*
G75*
G02*
X7220148Y-15149707I-20000J0D01*
G01*
X7220148Y-15149707D02*
G75*
G02*
X7260148Y-15149707I20000J0D01*
G01*
D11*
X7559020Y-15041191D02*
X7578067Y-15041191D01*
X7578067Y-15041191D02*
X7597115Y-15050715D01*
X7597115Y-15050715D02*
X7606639Y-15060239D01*
X7606639Y-15060239D02*
X7616162Y-15079286D01*
X7616162Y-15079286D02*
X7625686Y-15117382D01*
X7625686Y-15117382D02*
X7625686Y-15165001D01*
X7625686Y-15165001D02*
X7616162Y-15203096D01*
X7616162Y-15203096D02*
X7606639Y-15222143D01*
X7606639Y-15222143D02*
X7597115Y-15231667D01*
X7597115Y-15231667D02*
X7578067Y-15241191D01*
X7578067Y-15241191D02*
X7559020Y-15241191D01*
X7559020Y-15241191D02*
X7539972Y-15231667D01*
X7539972Y-15231667D02*
X7530448Y-15222143D01*
X7530448Y-15222143D02*
X7520924Y-15203096D01*
X7520924Y-15203096D02*
X7511401Y-15165001D01*
X7511401Y-15165001D02*
X7511401Y-15117382D01*
X7511401Y-15117382D02*
X7520924Y-15079286D01*
X7520924Y-15079286D02*
X7530448Y-15060239D01*
X7530448Y-15060239D02*
X7539972Y-15050715D01*
X7539972Y-15050715D02*
X7559020Y-15041191D01*
X7711401Y-15222143D02*
X7720924Y-15231667D01*
X7720924Y-15231667D02*
X7711401Y-15241191D01*
X7711401Y-15241191D02*
X7701877Y-15231667D01*
X7701877Y-15231667D02*
X7711401Y-15222143D01*
X7711401Y-15222143D02*
X7711401Y-15241191D01*
X7892353Y-15107858D02*
X7892353Y-15241191D01*
X7844734Y-15031667D02*
X7797115Y-15174524D01*
X7797115Y-15174524D02*
X7920924Y-15174524D01*
X8035210Y-15041191D02*
X8054258Y-15041191D01*
X8054258Y-15041191D02*
X8073305Y-15050715D01*
X8073305Y-15050715D02*
X8082829Y-15060239D01*
X8082829Y-15060239D02*
X8092353Y-15079286D01*
X8092353Y-15079286D02*
X8101877Y-15117382D01*
X8101877Y-15117382D02*
X8101877Y-15165001D01*
X8101877Y-15165001D02*
X8092353Y-15203096D01*
X8092353Y-15203096D02*
X8082829Y-15222143D01*
X8082829Y-15222143D02*
X8073305Y-15231667D01*
X8073305Y-15231667D02*
X8054258Y-15241191D01*
X8054258Y-15241191D02*
X8035210Y-15241191D01*
X8035210Y-15241191D02*
X8016162Y-15231667D01*
X8016162Y-15231667D02*
X8006639Y-15222143D01*
X8006639Y-15222143D02*
X7997115Y-15203096D01*
X7997115Y-15203096D02*
X7987591Y-15165001D01*
X7987591Y-15165001D02*
X7987591Y-15117382D01*
X7987591Y-15117382D02*
X7997115Y-15079286D01*
X7997115Y-15079286D02*
X8006639Y-15060239D01*
X8006639Y-15060239D02*
X8016162Y-15050715D01*
X8016162Y-15050715D02*
X8035210Y-15041191D01*
X8225686Y-15041191D02*
X8244734Y-15041191D01*
X8244734Y-15041191D02*
X8263782Y-15050715D01*
X8263782Y-15050715D02*
X8273305Y-15060239D01*
X8273305Y-15060239D02*
X8282829Y-15079286D01*
X8282829Y-15079286D02*
X8292353Y-15117382D01*
X8292353Y-15117382D02*
X8292353Y-15165001D01*
X8292353Y-15165001D02*
X8282829Y-15203096D01*
X8282829Y-15203096D02*
X8273305Y-15222143D01*
X8273305Y-15222143D02*
X8263782Y-15231667D01*
X8263782Y-15231667D02*
X8244734Y-15241191D01*
X8244734Y-15241191D02*
X8225686Y-15241191D01*
X8225686Y-15241191D02*
X8206639Y-15231667D01*
X8206639Y-15231667D02*
X8197115Y-15222143D01*
X8197115Y-15222143D02*
X8187591Y-15203096D01*
X8187591Y-15203096D02*
X8178067Y-15165001D01*
X8178067Y-15165001D02*
X8178067Y-15117382D01*
X8178067Y-15117382D02*
X8187591Y-15079286D01*
X8187591Y-15079286D02*
X8197115Y-15060239D01*
X8197115Y-15060239D02*
X8206639Y-15050715D01*
X8206639Y-15050715D02*
X8225686Y-15041191D01*
X8378067Y-15241191D02*
X8378067Y-15107858D01*
X8378067Y-15126905D02*
X8387591Y-15117382D01*
X8387591Y-15117382D02*
X8406639Y-15107858D01*
X8406639Y-15107858D02*
X8435210Y-15107858D01*
X8435210Y-15107858D02*
X8454258Y-15117382D01*
X8454258Y-15117382D02*
X8463782Y-15136429D01*
X8463782Y-15136429D02*
X8463782Y-15241191D01*
X8463782Y-15136429D02*
X8473305Y-15117382D01*
X8473305Y-15117382D02*
X8492353Y-15107858D01*
X8492353Y-15107858D02*
X8520924Y-15107858D01*
X8520924Y-15107858D02*
X8539972Y-15117382D01*
X8539972Y-15117382D02*
X8549496Y-15136429D01*
X8549496Y-15136429D02*
X8549496Y-15241191D01*
X8644734Y-15241191D02*
X8644734Y-15107858D01*
X8644734Y-15126905D02*
X8654258Y-15117382D01*
X8654258Y-15117382D02*
X8673305Y-15107858D01*
X8673305Y-15107858D02*
X8701877Y-15107858D01*
X8701877Y-15107858D02*
X8720925Y-15117382D01*
X8720925Y-15117382D02*
X8730448Y-15136429D01*
X8730448Y-15136429D02*
X8730448Y-15241191D01*
X8730448Y-15136429D02*
X8739972Y-15117382D01*
X8739972Y-15117382D02*
X8759020Y-15107858D01*
X8759020Y-15107858D02*
X8787591Y-15107858D01*
X8787591Y-15107858D02*
X8806639Y-15117382D01*
X8806639Y-15117382D02*
X8816163Y-15136429D01*
X8816163Y-15136429D02*
X8816163Y-15241191D01*
X9206639Y-15031667D02*
X9035210Y-15288810D01*
X9463782Y-15041191D02*
X9482829Y-15041191D01*
X9482829Y-15041191D02*
X9501877Y-15050715D01*
X9501877Y-15050715D02*
X9511401Y-15060239D01*
X9511401Y-15060239D02*
X9520925Y-15079286D01*
X9520925Y-15079286D02*
X9530448Y-15117382D01*
X9530448Y-15117382D02*
X9530448Y-15165001D01*
X9530448Y-15165001D02*
X9520925Y-15203096D01*
X9520925Y-15203096D02*
X9511401Y-15222143D01*
X9511401Y-15222143D02*
X9501877Y-15231667D01*
X9501877Y-15231667D02*
X9482829Y-15241191D01*
X9482829Y-15241191D02*
X9463782Y-15241191D01*
X9463782Y-15241191D02*
X9444734Y-15231667D01*
X9444734Y-15231667D02*
X9435210Y-15222143D01*
X9435210Y-15222143D02*
X9425687Y-15203096D01*
X9425687Y-15203096D02*
X9416163Y-15165001D01*
X9416163Y-15165001D02*
X9416163Y-15117382D01*
X9416163Y-15117382D02*
X9425687Y-15079286D01*
X9425687Y-15079286D02*
X9435210Y-15060239D01*
X9435210Y-15060239D02*
X9444734Y-15050715D01*
X9444734Y-15050715D02*
X9463782Y-15041191D01*
X9616163Y-15222143D02*
X9625687Y-15231667D01*
X9625687Y-15231667D02*
X9616163Y-15241191D01*
X9616163Y-15241191D02*
X9606639Y-15231667D01*
X9606639Y-15231667D02*
X9616163Y-15222143D01*
X9616163Y-15222143D02*
X9616163Y-15241191D01*
X9749496Y-15041191D02*
X9768544Y-15041191D01*
X9768544Y-15041191D02*
X9787591Y-15050715D01*
X9787591Y-15050715D02*
X9797115Y-15060239D01*
X9797115Y-15060239D02*
X9806639Y-15079286D01*
X9806639Y-15079286D02*
X9816163Y-15117382D01*
X9816163Y-15117382D02*
X9816163Y-15165001D01*
X9816163Y-15165001D02*
X9806639Y-15203096D01*
X9806639Y-15203096D02*
X9797115Y-15222143D01*
X9797115Y-15222143D02*
X9787591Y-15231667D01*
X9787591Y-15231667D02*
X9768544Y-15241191D01*
X9768544Y-15241191D02*
X9749496Y-15241191D01*
X9749496Y-15241191D02*
X9730448Y-15231667D01*
X9730448Y-15231667D02*
X9720925Y-15222143D01*
X9720925Y-15222143D02*
X9711401Y-15203096D01*
X9711401Y-15203096D02*
X9701877Y-15165001D01*
X9701877Y-15165001D02*
X9701877Y-15117382D01*
X9701877Y-15117382D02*
X9711401Y-15079286D01*
X9711401Y-15079286D02*
X9720925Y-15060239D01*
X9720925Y-15060239D02*
X9730448Y-15050715D01*
X9730448Y-15050715D02*
X9749496Y-15041191D01*
X10006639Y-15241191D02*
X9892353Y-15241191D01*
X9949496Y-15241191D02*
X9949496Y-15041191D01*
X9949496Y-15041191D02*
X9930448Y-15069763D01*
X9930448Y-15069763D02*
X9911401Y-15088810D01*
X9911401Y-15088810D02*
X9892353Y-15098334D01*
X10187591Y-15041191D02*
X10092353Y-15041191D01*
X10092353Y-15041191D02*
X10082829Y-15136429D01*
X10082829Y-15136429D02*
X10092353Y-15126905D01*
X10092353Y-15126905D02*
X10111401Y-15117382D01*
X10111401Y-15117382D02*
X10159020Y-15117382D01*
X10159020Y-15117382D02*
X10178068Y-15126905D01*
X10178068Y-15126905D02*
X10187591Y-15136429D01*
X10187591Y-15136429D02*
X10197115Y-15155477D01*
X10197115Y-15155477D02*
X10197115Y-15203096D01*
X10197115Y-15203096D02*
X10187591Y-15222143D01*
X10187591Y-15222143D02*
X10178068Y-15231667D01*
X10178068Y-15231667D02*
X10159020Y-15241191D01*
X10159020Y-15241191D02*
X10111401Y-15241191D01*
X10111401Y-15241191D02*
X10092353Y-15231667D01*
X10092353Y-15231667D02*
X10082829Y-15222143D01*
X10263782Y-15041191D02*
X10397115Y-15041191D01*
X10397115Y-15041191D02*
X10311401Y-15241191D01*
X10463782Y-15041191D02*
X10463782Y-15079286D01*
X10539972Y-15041191D02*
X10539972Y-15079286D01*
X10835211Y-15317382D02*
X10825687Y-15307858D01*
X10825687Y-15307858D02*
X10806639Y-15279286D01*
X10806639Y-15279286D02*
X10797115Y-15260239D01*
X10797115Y-15260239D02*
X10787591Y-15231667D01*
X10787591Y-15231667D02*
X10778068Y-15184048D01*
X10778068Y-15184048D02*
X10778068Y-15145953D01*
X10778068Y-15145953D02*
X10787591Y-15098334D01*
X10787591Y-15098334D02*
X10797115Y-15069763D01*
X10797115Y-15069763D02*
X10806639Y-15050715D01*
X10806639Y-15050715D02*
X10825687Y-15022143D01*
X10825687Y-15022143D02*
X10835211Y-15012620D01*
X10997115Y-15041191D02*
X10959020Y-15041191D01*
X10959020Y-15041191D02*
X10939972Y-15050715D01*
X10939972Y-15050715D02*
X10930449Y-15060239D01*
X10930449Y-15060239D02*
X10911401Y-15088810D01*
X10911401Y-15088810D02*
X10901877Y-15126905D01*
X10901877Y-15126905D02*
X10901877Y-15203096D01*
X10901877Y-15203096D02*
X10911401Y-15222143D01*
X10911401Y-15222143D02*
X10920925Y-15231667D01*
X10920925Y-15231667D02*
X10939972Y-15241191D01*
X10939972Y-15241191D02*
X10978068Y-15241191D01*
X10978068Y-15241191D02*
X10997115Y-15231667D01*
X10997115Y-15231667D02*
X11006639Y-15222143D01*
X11006639Y-15222143D02*
X11016163Y-15203096D01*
X11016163Y-15203096D02*
X11016163Y-15155477D01*
X11016163Y-15155477D02*
X11006639Y-15136429D01*
X11006639Y-15136429D02*
X10997115Y-15126905D01*
X10997115Y-15126905D02*
X10978068Y-15117382D01*
X10978068Y-15117382D02*
X10939972Y-15117382D01*
X10939972Y-15117382D02*
X10920925Y-15126905D01*
X10920925Y-15126905D02*
X10911401Y-15136429D01*
X10911401Y-15136429D02*
X10901877Y-15155477D01*
X11082830Y-15041191D02*
X11206639Y-15041191D01*
X11206639Y-15041191D02*
X11139972Y-15117382D01*
X11139972Y-15117382D02*
X11168544Y-15117382D01*
X11168544Y-15117382D02*
X11187591Y-15126905D01*
X11187591Y-15126905D02*
X11197115Y-15136429D01*
X11197115Y-15136429D02*
X11206639Y-15155477D01*
X11206639Y-15155477D02*
X11206639Y-15203096D01*
X11206639Y-15203096D02*
X11197115Y-15222143D01*
X11197115Y-15222143D02*
X11187591Y-15231667D01*
X11187591Y-15231667D02*
X11168544Y-15241191D01*
X11168544Y-15241191D02*
X11111401Y-15241191D01*
X11111401Y-15241191D02*
X11092353Y-15231667D01*
X11092353Y-15231667D02*
X11082830Y-15222143D01*
X11444734Y-15241191D02*
X11444734Y-15041191D01*
X11530449Y-15241191D02*
X11530449Y-15136429D01*
X11530449Y-15136429D02*
X11520925Y-15117382D01*
X11520925Y-15117382D02*
X11501877Y-15107858D01*
X11501877Y-15107858D02*
X11473306Y-15107858D01*
X11473306Y-15107858D02*
X11454258Y-15117382D01*
X11454258Y-15117382D02*
X11444734Y-15126905D01*
X11654258Y-15241191D02*
X11635210Y-15231667D01*
X11635210Y-15231667D02*
X11625687Y-15222143D01*
X11625687Y-15222143D02*
X11616163Y-15203096D01*
X11616163Y-15203096D02*
X11616163Y-15145953D01*
X11616163Y-15145953D02*
X11625687Y-15126905D01*
X11625687Y-15126905D02*
X11635210Y-15117382D01*
X11635210Y-15117382D02*
X11654258Y-15107858D01*
X11654258Y-15107858D02*
X11682830Y-15107858D01*
X11682830Y-15107858D02*
X11701877Y-15117382D01*
X11701877Y-15117382D02*
X11711401Y-15126905D01*
X11711401Y-15126905D02*
X11720925Y-15145953D01*
X11720925Y-15145953D02*
X11720925Y-15203096D01*
X11720925Y-15203096D02*
X11711401Y-15222143D01*
X11711401Y-15222143D02*
X11701877Y-15231667D01*
X11701877Y-15231667D02*
X11682830Y-15241191D01*
X11682830Y-15241191D02*
X11654258Y-15241191D01*
X11835210Y-15241191D02*
X11816163Y-15231667D01*
X11816163Y-15231667D02*
X11806639Y-15212620D01*
X11806639Y-15212620D02*
X11806639Y-15041191D01*
X11987591Y-15231667D02*
X11968544Y-15241191D01*
X11968544Y-15241191D02*
X11930449Y-15241191D01*
X11930449Y-15241191D02*
X11911401Y-15231667D01*
X11911401Y-15231667D02*
X11901877Y-15212620D01*
X11901877Y-15212620D02*
X11901877Y-15136429D01*
X11901877Y-15136429D02*
X11911401Y-15117382D01*
X11911401Y-15117382D02*
X11930449Y-15107858D01*
X11930449Y-15107858D02*
X11968544Y-15107858D01*
X11968544Y-15107858D02*
X11987591Y-15117382D01*
X11987591Y-15117382D02*
X11997115Y-15136429D01*
X11997115Y-15136429D02*
X11997115Y-15155477D01*
X11997115Y-15155477D02*
X11901877Y-15174524D01*
X12073306Y-15231667D02*
X12092353Y-15241191D01*
X12092353Y-15241191D02*
X12130449Y-15241191D01*
X12130449Y-15241191D02*
X12149496Y-15231667D01*
X12149496Y-15231667D02*
X12159020Y-15212620D01*
X12159020Y-15212620D02*
X12159020Y-15203096D01*
X12159020Y-15203096D02*
X12149496Y-15184048D01*
X12149496Y-15184048D02*
X12130449Y-15174524D01*
X12130449Y-15174524D02*
X12101877Y-15174524D01*
X12101877Y-15174524D02*
X12082830Y-15165001D01*
X12082830Y-15165001D02*
X12073306Y-15145953D01*
X12073306Y-15145953D02*
X12073306Y-15136429D01*
X12073306Y-15136429D02*
X12082830Y-15117382D01*
X12082830Y-15117382D02*
X12101877Y-15107858D01*
X12101877Y-15107858D02*
X12130449Y-15107858D01*
X12130449Y-15107858D02*
X12149496Y-15117382D01*
X12225687Y-15317382D02*
X12235211Y-15307858D01*
X12235211Y-15307858D02*
X12254258Y-15279286D01*
X12254258Y-15279286D02*
X12263782Y-15260239D01*
X12263782Y-15260239D02*
X12273306Y-15231667D01*
X12273306Y-15231667D02*
X12282830Y-15184048D01*
X12282830Y-15184048D02*
X12282830Y-15145953D01*
X12282830Y-15145953D02*
X12273306Y-15098334D01*
X12273306Y-15098334D02*
X12263782Y-15069763D01*
X12263782Y-15069763D02*
X12254258Y-15050715D01*
X12254258Y-15050715D02*
X12235211Y-15022143D01*
X12235211Y-15022143D02*
X12225687Y-15012620D01*
D12*
X7220148Y-15373707D02*
X7220148Y-15453707D01*
X7180148Y-15413707D02*
X7260148Y-15413707D01*
D11*
X7559020Y-15305191D02*
X7578067Y-15305191D01*
X7578067Y-15305191D02*
X7597115Y-15314715D01*
X7597115Y-15314715D02*
X7606639Y-15324239D01*
X7606639Y-15324239D02*
X7616162Y-15343286D01*
X7616162Y-15343286D02*
X7625686Y-15381382D01*
X7625686Y-15381382D02*
X7625686Y-15429001D01*
X7625686Y-15429001D02*
X7616162Y-15467096D01*
X7616162Y-15467096D02*
X7606639Y-15486143D01*
X7606639Y-15486143D02*
X7597115Y-15495667D01*
X7597115Y-15495667D02*
X7578067Y-15505191D01*
X7578067Y-15505191D02*
X7559020Y-15505191D01*
X7559020Y-15505191D02*
X7539972Y-15495667D01*
X7539972Y-15495667D02*
X7530448Y-15486143D01*
X7530448Y-15486143D02*
X7520924Y-15467096D01*
X7520924Y-15467096D02*
X7511401Y-15429001D01*
X7511401Y-15429001D02*
X7511401Y-15381382D01*
X7511401Y-15381382D02*
X7520924Y-15343286D01*
X7520924Y-15343286D02*
X7530448Y-15324239D01*
X7530448Y-15324239D02*
X7539972Y-15314715D01*
X7539972Y-15314715D02*
X7559020Y-15305191D01*
X7711401Y-15486143D02*
X7720924Y-15495667D01*
X7720924Y-15495667D02*
X7711401Y-15505191D01*
X7711401Y-15505191D02*
X7701877Y-15495667D01*
X7701877Y-15495667D02*
X7711401Y-15486143D01*
X7711401Y-15486143D02*
X7711401Y-15505191D01*
X7835210Y-15390905D02*
X7816162Y-15381382D01*
X7816162Y-15381382D02*
X7806639Y-15371858D01*
X7806639Y-15371858D02*
X7797115Y-15352810D01*
X7797115Y-15352810D02*
X7797115Y-15343286D01*
X7797115Y-15343286D02*
X7806639Y-15324239D01*
X7806639Y-15324239D02*
X7816162Y-15314715D01*
X7816162Y-15314715D02*
X7835210Y-15305191D01*
X7835210Y-15305191D02*
X7873305Y-15305191D01*
X7873305Y-15305191D02*
X7892353Y-15314715D01*
X7892353Y-15314715D02*
X7901877Y-15324239D01*
X7901877Y-15324239D02*
X7911401Y-15343286D01*
X7911401Y-15343286D02*
X7911401Y-15352810D01*
X7911401Y-15352810D02*
X7901877Y-15371858D01*
X7901877Y-15371858D02*
X7892353Y-15381382D01*
X7892353Y-15381382D02*
X7873305Y-15390905D01*
X7873305Y-15390905D02*
X7835210Y-15390905D01*
X7835210Y-15390905D02*
X7816162Y-15400429D01*
X7816162Y-15400429D02*
X7806639Y-15409953D01*
X7806639Y-15409953D02*
X7797115Y-15429001D01*
X7797115Y-15429001D02*
X7797115Y-15467096D01*
X7797115Y-15467096D02*
X7806639Y-15486143D01*
X7806639Y-15486143D02*
X7816162Y-15495667D01*
X7816162Y-15495667D02*
X7835210Y-15505191D01*
X7835210Y-15505191D02*
X7873305Y-15505191D01*
X7873305Y-15505191D02*
X7892353Y-15495667D01*
X7892353Y-15495667D02*
X7901877Y-15486143D01*
X7901877Y-15486143D02*
X7911401Y-15467096D01*
X7911401Y-15467096D02*
X7911401Y-15429001D01*
X7911401Y-15429001D02*
X7901877Y-15409953D01*
X7901877Y-15409953D02*
X7892353Y-15400429D01*
X7892353Y-15400429D02*
X7873305Y-15390905D01*
X8035210Y-15305191D02*
X8054258Y-15305191D01*
X8054258Y-15305191D02*
X8073305Y-15314715D01*
X8073305Y-15314715D02*
X8082829Y-15324239D01*
X8082829Y-15324239D02*
X8092353Y-15343286D01*
X8092353Y-15343286D02*
X8101877Y-15381382D01*
X8101877Y-15381382D02*
X8101877Y-15429001D01*
X8101877Y-15429001D02*
X8092353Y-15467096D01*
X8092353Y-15467096D02*
X8082829Y-15486143D01*
X8082829Y-15486143D02*
X8073305Y-15495667D01*
X8073305Y-15495667D02*
X8054258Y-15505191D01*
X8054258Y-15505191D02*
X8035210Y-15505191D01*
X8035210Y-15505191D02*
X8016162Y-15495667D01*
X8016162Y-15495667D02*
X8006639Y-15486143D01*
X8006639Y-15486143D02*
X7997115Y-15467096D01*
X7997115Y-15467096D02*
X7987591Y-15429001D01*
X7987591Y-15429001D02*
X7987591Y-15381382D01*
X7987591Y-15381382D02*
X7997115Y-15343286D01*
X7997115Y-15343286D02*
X8006639Y-15324239D01*
X8006639Y-15324239D02*
X8016162Y-15314715D01*
X8016162Y-15314715D02*
X8035210Y-15305191D01*
X8225686Y-15305191D02*
X8244734Y-15305191D01*
X8244734Y-15305191D02*
X8263782Y-15314715D01*
X8263782Y-15314715D02*
X8273305Y-15324239D01*
X8273305Y-15324239D02*
X8282829Y-15343286D01*
X8282829Y-15343286D02*
X8292353Y-15381382D01*
X8292353Y-15381382D02*
X8292353Y-15429001D01*
X8292353Y-15429001D02*
X8282829Y-15467096D01*
X8282829Y-15467096D02*
X8273305Y-15486143D01*
X8273305Y-15486143D02*
X8263782Y-15495667D01*
X8263782Y-15495667D02*
X8244734Y-15505191D01*
X8244734Y-15505191D02*
X8225686Y-15505191D01*
X8225686Y-15505191D02*
X8206639Y-15495667D01*
X8206639Y-15495667D02*
X8197115Y-15486143D01*
X8197115Y-15486143D02*
X8187591Y-15467096D01*
X8187591Y-15467096D02*
X8178067Y-15429001D01*
X8178067Y-15429001D02*
X8178067Y-15381382D01*
X8178067Y-15381382D02*
X8187591Y-15343286D01*
X8187591Y-15343286D02*
X8197115Y-15324239D01*
X8197115Y-15324239D02*
X8206639Y-15314715D01*
X8206639Y-15314715D02*
X8225686Y-15305191D01*
X8378067Y-15505191D02*
X8378067Y-15371858D01*
X8378067Y-15390905D02*
X8387591Y-15381382D01*
X8387591Y-15381382D02*
X8406639Y-15371858D01*
X8406639Y-15371858D02*
X8435210Y-15371858D01*
X8435210Y-15371858D02*
X8454258Y-15381382D01*
X8454258Y-15381382D02*
X8463782Y-15400429D01*
X8463782Y-15400429D02*
X8463782Y-15505191D01*
X8463782Y-15400429D02*
X8473305Y-15381382D01*
X8473305Y-15381382D02*
X8492353Y-15371858D01*
X8492353Y-15371858D02*
X8520924Y-15371858D01*
X8520924Y-15371858D02*
X8539972Y-15381382D01*
X8539972Y-15381382D02*
X8549496Y-15400429D01*
X8549496Y-15400429D02*
X8549496Y-15505191D01*
X8644734Y-15505191D02*
X8644734Y-15371858D01*
X8644734Y-15390905D02*
X8654258Y-15381382D01*
X8654258Y-15381382D02*
X8673305Y-15371858D01*
X8673305Y-15371858D02*
X8701877Y-15371858D01*
X8701877Y-15371858D02*
X8720925Y-15381382D01*
X8720925Y-15381382D02*
X8730448Y-15400429D01*
X8730448Y-15400429D02*
X8730448Y-15505191D01*
X8730448Y-15400429D02*
X8739972Y-15381382D01*
X8739972Y-15381382D02*
X8759020Y-15371858D01*
X8759020Y-15371858D02*
X8787591Y-15371858D01*
X8787591Y-15371858D02*
X8806639Y-15381382D01*
X8806639Y-15381382D02*
X8816163Y-15400429D01*
X8816163Y-15400429D02*
X8816163Y-15505191D01*
X9206639Y-15295667D02*
X9035210Y-15552810D01*
X9463782Y-15305191D02*
X9482829Y-15305191D01*
X9482829Y-15305191D02*
X9501877Y-15314715D01*
X9501877Y-15314715D02*
X9511401Y-15324239D01*
X9511401Y-15324239D02*
X9520925Y-15343286D01*
X9520925Y-15343286D02*
X9530448Y-15381382D01*
X9530448Y-15381382D02*
X9530448Y-15429001D01*
X9530448Y-15429001D02*
X9520925Y-15467096D01*
X9520925Y-15467096D02*
X9511401Y-15486143D01*
X9511401Y-15486143D02*
X9501877Y-15495667D01*
X9501877Y-15495667D02*
X9482829Y-15505191D01*
X9482829Y-15505191D02*
X9463782Y-15505191D01*
X9463782Y-15505191D02*
X9444734Y-15495667D01*
X9444734Y-15495667D02*
X9435210Y-15486143D01*
X9435210Y-15486143D02*
X9425687Y-15467096D01*
X9425687Y-15467096D02*
X9416163Y-15429001D01*
X9416163Y-15429001D02*
X9416163Y-15381382D01*
X9416163Y-15381382D02*
X9425687Y-15343286D01*
X9425687Y-15343286D02*
X9435210Y-15324239D01*
X9435210Y-15324239D02*
X9444734Y-15314715D01*
X9444734Y-15314715D02*
X9463782Y-15305191D01*
X9616163Y-15486143D02*
X9625687Y-15495667D01*
X9625687Y-15495667D02*
X9616163Y-15505191D01*
X9616163Y-15505191D02*
X9606639Y-15495667D01*
X9606639Y-15495667D02*
X9616163Y-15486143D01*
X9616163Y-15486143D02*
X9616163Y-15505191D01*
X9749496Y-15305191D02*
X9768544Y-15305191D01*
X9768544Y-15305191D02*
X9787591Y-15314715D01*
X9787591Y-15314715D02*
X9797115Y-15324239D01*
X9797115Y-15324239D02*
X9806639Y-15343286D01*
X9806639Y-15343286D02*
X9816163Y-15381382D01*
X9816163Y-15381382D02*
X9816163Y-15429001D01*
X9816163Y-15429001D02*
X9806639Y-15467096D01*
X9806639Y-15467096D02*
X9797115Y-15486143D01*
X9797115Y-15486143D02*
X9787591Y-15495667D01*
X9787591Y-15495667D02*
X9768544Y-15505191D01*
X9768544Y-15505191D02*
X9749496Y-15505191D01*
X9749496Y-15505191D02*
X9730448Y-15495667D01*
X9730448Y-15495667D02*
X9720925Y-15486143D01*
X9720925Y-15486143D02*
X9711401Y-15467096D01*
X9711401Y-15467096D02*
X9701877Y-15429001D01*
X9701877Y-15429001D02*
X9701877Y-15381382D01*
X9701877Y-15381382D02*
X9711401Y-15343286D01*
X9711401Y-15343286D02*
X9720925Y-15324239D01*
X9720925Y-15324239D02*
X9730448Y-15314715D01*
X9730448Y-15314715D02*
X9749496Y-15305191D01*
X9882829Y-15305191D02*
X10006639Y-15305191D01*
X10006639Y-15305191D02*
X9939972Y-15381382D01*
X9939972Y-15381382D02*
X9968544Y-15381382D01*
X9968544Y-15381382D02*
X9987591Y-15390905D01*
X9987591Y-15390905D02*
X9997115Y-15400429D01*
X9997115Y-15400429D02*
X10006639Y-15419477D01*
X10006639Y-15419477D02*
X10006639Y-15467096D01*
X10006639Y-15467096D02*
X9997115Y-15486143D01*
X9997115Y-15486143D02*
X9987591Y-15495667D01*
X9987591Y-15495667D02*
X9968544Y-15505191D01*
X9968544Y-15505191D02*
X9911401Y-15505191D01*
X9911401Y-15505191D02*
X9892353Y-15495667D01*
X9892353Y-15495667D02*
X9882829Y-15486143D01*
X10197115Y-15505191D02*
X10082829Y-15505191D01*
X10139972Y-15505191D02*
X10139972Y-15305191D01*
X10139972Y-15305191D02*
X10120925Y-15333763D01*
X10120925Y-15333763D02*
X10101877Y-15352810D01*
X10101877Y-15352810D02*
X10082829Y-15362334D01*
X10378068Y-15305191D02*
X10282829Y-15305191D01*
X10282829Y-15305191D02*
X10273306Y-15400429D01*
X10273306Y-15400429D02*
X10282829Y-15390905D01*
X10282829Y-15390905D02*
X10301877Y-15381382D01*
X10301877Y-15381382D02*
X10349496Y-15381382D01*
X10349496Y-15381382D02*
X10368544Y-15390905D01*
X10368544Y-15390905D02*
X10378068Y-15400429D01*
X10378068Y-15400429D02*
X10387591Y-15419477D01*
X10387591Y-15419477D02*
X10387591Y-15467096D01*
X10387591Y-15467096D02*
X10378068Y-15486143D01*
X10378068Y-15486143D02*
X10368544Y-15495667D01*
X10368544Y-15495667D02*
X10349496Y-15505191D01*
X10349496Y-15505191D02*
X10301877Y-15505191D01*
X10301877Y-15505191D02*
X10282829Y-15495667D01*
X10282829Y-15495667D02*
X10273306Y-15486143D01*
X10463782Y-15305191D02*
X10463782Y-15343286D01*
X10539972Y-15305191D02*
X10539972Y-15343286D01*
X10835211Y-15581382D02*
X10825687Y-15571858D01*
X10825687Y-15571858D02*
X10806639Y-15543286D01*
X10806639Y-15543286D02*
X10797115Y-15524239D01*
X10797115Y-15524239D02*
X10787591Y-15495667D01*
X10787591Y-15495667D02*
X10778068Y-15448048D01*
X10778068Y-15448048D02*
X10778068Y-15409953D01*
X10778068Y-15409953D02*
X10787591Y-15362334D01*
X10787591Y-15362334D02*
X10797115Y-15333763D01*
X10797115Y-15333763D02*
X10806639Y-15314715D01*
X10806639Y-15314715D02*
X10825687Y-15286143D01*
X10825687Y-15286143D02*
X10835211Y-15276620D01*
X10901877Y-15324239D02*
X10911401Y-15314715D01*
X10911401Y-15314715D02*
X10930449Y-15305191D01*
X10930449Y-15305191D02*
X10978068Y-15305191D01*
X10978068Y-15305191D02*
X10997115Y-15314715D01*
X10997115Y-15314715D02*
X11006639Y-15324239D01*
X11006639Y-15324239D02*
X11016163Y-15343286D01*
X11016163Y-15343286D02*
X11016163Y-15362334D01*
X11016163Y-15362334D02*
X11006639Y-15390905D01*
X11006639Y-15390905D02*
X10892353Y-15505191D01*
X10892353Y-15505191D02*
X11016163Y-15505191D01*
X11187591Y-15371858D02*
X11187591Y-15505191D01*
X11139972Y-15295667D02*
X11092353Y-15438524D01*
X11092353Y-15438524D02*
X11216163Y-15438524D01*
X11273306Y-15305191D02*
X11397115Y-15305191D01*
X11397115Y-15305191D02*
X11330448Y-15381382D01*
X11330448Y-15381382D02*
X11359020Y-15381382D01*
X11359020Y-15381382D02*
X11378068Y-15390905D01*
X11378068Y-15390905D02*
X11387591Y-15400429D01*
X11387591Y-15400429D02*
X11397115Y-15419477D01*
X11397115Y-15419477D02*
X11397115Y-15467096D01*
X11397115Y-15467096D02*
X11387591Y-15486143D01*
X11387591Y-15486143D02*
X11378068Y-15495667D01*
X11378068Y-15495667D02*
X11359020Y-15505191D01*
X11359020Y-15505191D02*
X11301877Y-15505191D01*
X11301877Y-15505191D02*
X11282829Y-15495667D01*
X11282829Y-15495667D02*
X11273306Y-15486143D01*
X11635210Y-15505191D02*
X11635210Y-15305191D01*
X11720925Y-15505191D02*
X11720925Y-15400429D01*
X11720925Y-15400429D02*
X11711401Y-15381382D01*
X11711401Y-15381382D02*
X11692353Y-15371858D01*
X11692353Y-15371858D02*
X11663782Y-15371858D01*
X11663782Y-15371858D02*
X11644734Y-15381382D01*
X11644734Y-15381382D02*
X11635210Y-15390905D01*
X11844734Y-15505191D02*
X11825687Y-15495667D01*
X11825687Y-15495667D02*
X11816163Y-15486143D01*
X11816163Y-15486143D02*
X11806639Y-15467096D01*
X11806639Y-15467096D02*
X11806639Y-15409953D01*
X11806639Y-15409953D02*
X11816163Y-15390905D01*
X11816163Y-15390905D02*
X11825687Y-15381382D01*
X11825687Y-15381382D02*
X11844734Y-15371858D01*
X11844734Y-15371858D02*
X11873306Y-15371858D01*
X11873306Y-15371858D02*
X11892353Y-15381382D01*
X11892353Y-15381382D02*
X11901877Y-15390905D01*
X11901877Y-15390905D02*
X11911401Y-15409953D01*
X11911401Y-15409953D02*
X11911401Y-15467096D01*
X11911401Y-15467096D02*
X11901877Y-15486143D01*
X11901877Y-15486143D02*
X11892353Y-15495667D01*
X11892353Y-15495667D02*
X11873306Y-15505191D01*
X11873306Y-15505191D02*
X11844734Y-15505191D01*
X12025687Y-15505191D02*
X12006639Y-15495667D01*
X12006639Y-15495667D02*
X11997115Y-15476620D01*
X11997115Y-15476620D02*
X11997115Y-15305191D01*
X12178068Y-15495667D02*
X12159020Y-15505191D01*
X12159020Y-15505191D02*
X12120925Y-15505191D01*
X12120925Y-15505191D02*
X12101877Y-15495667D01*
X12101877Y-15495667D02*
X12092353Y-15476620D01*
X12092353Y-15476620D02*
X12092353Y-15400429D01*
X12092353Y-15400429D02*
X12101877Y-15381382D01*
X12101877Y-15381382D02*
X12120925Y-15371858D01*
X12120925Y-15371858D02*
X12159020Y-15371858D01*
X12159020Y-15371858D02*
X12178068Y-15381382D01*
X12178068Y-15381382D02*
X12187591Y-15400429D01*
X12187591Y-15400429D02*
X12187591Y-15419477D01*
X12187591Y-15419477D02*
X12092353Y-15438524D01*
X12263782Y-15495667D02*
X12282830Y-15505191D01*
X12282830Y-15505191D02*
X12320925Y-15505191D01*
X12320925Y-15505191D02*
X12339972Y-15495667D01*
X12339972Y-15495667D02*
X12349496Y-15476620D01*
X12349496Y-15476620D02*
X12349496Y-15467096D01*
X12349496Y-15467096D02*
X12339972Y-15448048D01*
X12339972Y-15448048D02*
X12320925Y-15438524D01*
X12320925Y-15438524D02*
X12292353Y-15438524D01*
X12292353Y-15438524D02*
X12273306Y-15429001D01*
X12273306Y-15429001D02*
X12263782Y-15409953D01*
X12263782Y-15409953D02*
X12263782Y-15400429D01*
X12263782Y-15400429D02*
X12273306Y-15381382D01*
X12273306Y-15381382D02*
X12292353Y-15371858D01*
X12292353Y-15371858D02*
X12320925Y-15371858D01*
X12320925Y-15371858D02*
X12339972Y-15381382D01*
X12416163Y-15581382D02*
X12425687Y-15571858D01*
X12425687Y-15571858D02*
X12444734Y-15543286D01*
X12444734Y-15543286D02*
X12454258Y-15524239D01*
X12454258Y-15524239D02*
X12463782Y-15495667D01*
X12463782Y-15495667D02*
X12473306Y-15448048D01*
X12473306Y-15448048D02*
X12473306Y-15409953D01*
X12473306Y-15409953D02*
X12463782Y-15362334D01*
X12463782Y-15362334D02*
X12454258Y-15333763D01*
X12454258Y-15333763D02*
X12444734Y-15314715D01*
X12444734Y-15314715D02*
X12425687Y-15286143D01*
X12425687Y-15286143D02*
X12416163Y-15276620D01*
D12*
X7246968Y-15709527D02*
X7246968Y-15645887D01*
X7183327Y-15645887D01*
X7183327Y-15709527D01*
X7246968Y-15709527D01*
D11*
X7559020Y-15569191D02*
X7578067Y-15569191D01*
X7578067Y-15569191D02*
X7597115Y-15578715D01*
X7597115Y-15578715D02*
X7606639Y-15588239D01*
X7606639Y-15588239D02*
X7616162Y-15607286D01*
X7616162Y-15607286D02*
X7625686Y-15645382D01*
X7625686Y-15645382D02*
X7625686Y-15693001D01*
X7625686Y-15693001D02*
X7616162Y-15731096D01*
X7616162Y-15731096D02*
X7606639Y-15750143D01*
X7606639Y-15750143D02*
X7597115Y-15759667D01*
X7597115Y-15759667D02*
X7578067Y-15769191D01*
X7578067Y-15769191D02*
X7559020Y-15769191D01*
X7559020Y-15769191D02*
X7539972Y-15759667D01*
X7539972Y-15759667D02*
X7530448Y-15750143D01*
X7530448Y-15750143D02*
X7520924Y-15731096D01*
X7520924Y-15731096D02*
X7511401Y-15693001D01*
X7511401Y-15693001D02*
X7511401Y-15645382D01*
X7511401Y-15645382D02*
X7520924Y-15607286D01*
X7520924Y-15607286D02*
X7530448Y-15588239D01*
X7530448Y-15588239D02*
X7539972Y-15578715D01*
X7539972Y-15578715D02*
X7559020Y-15569191D01*
X7711401Y-15750143D02*
X7720924Y-15759667D01*
X7720924Y-15759667D02*
X7711401Y-15769191D01*
X7711401Y-15769191D02*
X7701877Y-15759667D01*
X7701877Y-15759667D02*
X7711401Y-15750143D01*
X7711401Y-15750143D02*
X7711401Y-15769191D01*
X7816162Y-15769191D02*
X7854258Y-15769191D01*
X7854258Y-15769191D02*
X7873305Y-15759667D01*
X7873305Y-15759667D02*
X7882829Y-15750143D01*
X7882829Y-15750143D02*
X7901877Y-15721572D01*
X7901877Y-15721572D02*
X7911401Y-15683477D01*
X7911401Y-15683477D02*
X7911401Y-15607286D01*
X7911401Y-15607286D02*
X7901877Y-15588239D01*
X7901877Y-15588239D02*
X7892353Y-15578715D01*
X7892353Y-15578715D02*
X7873305Y-15569191D01*
X7873305Y-15569191D02*
X7835210Y-15569191D01*
X7835210Y-15569191D02*
X7816162Y-15578715D01*
X7816162Y-15578715D02*
X7806639Y-15588239D01*
X7806639Y-15588239D02*
X7797115Y-15607286D01*
X7797115Y-15607286D02*
X7797115Y-15654905D01*
X7797115Y-15654905D02*
X7806639Y-15673953D01*
X7806639Y-15673953D02*
X7816162Y-15683477D01*
X7816162Y-15683477D02*
X7835210Y-15693001D01*
X7835210Y-15693001D02*
X7873305Y-15693001D01*
X7873305Y-15693001D02*
X7892353Y-15683477D01*
X7892353Y-15683477D02*
X7901877Y-15673953D01*
X7901877Y-15673953D02*
X7911401Y-15654905D01*
X8035210Y-15569191D02*
X8054258Y-15569191D01*
X8054258Y-15569191D02*
X8073305Y-15578715D01*
X8073305Y-15578715D02*
X8082829Y-15588239D01*
X8082829Y-15588239D02*
X8092353Y-15607286D01*
X8092353Y-15607286D02*
X8101877Y-15645382D01*
X8101877Y-15645382D02*
X8101877Y-15693001D01*
X8101877Y-15693001D02*
X8092353Y-15731096D01*
X8092353Y-15731096D02*
X8082829Y-15750143D01*
X8082829Y-15750143D02*
X8073305Y-15759667D01*
X8073305Y-15759667D02*
X8054258Y-15769191D01*
X8054258Y-15769191D02*
X8035210Y-15769191D01*
X8035210Y-15769191D02*
X8016162Y-15759667D01*
X8016162Y-15759667D02*
X8006639Y-15750143D01*
X8006639Y-15750143D02*
X7997115Y-15731096D01*
X7997115Y-15731096D02*
X7987591Y-15693001D01*
X7987591Y-15693001D02*
X7987591Y-15645382D01*
X7987591Y-15645382D02*
X7997115Y-15607286D01*
X7997115Y-15607286D02*
X8006639Y-15588239D01*
X8006639Y-15588239D02*
X8016162Y-15578715D01*
X8016162Y-15578715D02*
X8035210Y-15569191D01*
X8225686Y-15569191D02*
X8244734Y-15569191D01*
X8244734Y-15569191D02*
X8263782Y-15578715D01*
X8263782Y-15578715D02*
X8273305Y-15588239D01*
X8273305Y-15588239D02*
X8282829Y-15607286D01*
X8282829Y-15607286D02*
X8292353Y-15645382D01*
X8292353Y-15645382D02*
X8292353Y-15693001D01*
X8292353Y-15693001D02*
X8282829Y-15731096D01*
X8282829Y-15731096D02*
X8273305Y-15750143D01*
X8273305Y-15750143D02*
X8263782Y-15759667D01*
X8263782Y-15759667D02*
X8244734Y-15769191D01*
X8244734Y-15769191D02*
X8225686Y-15769191D01*
X8225686Y-15769191D02*
X8206639Y-15759667D01*
X8206639Y-15759667D02*
X8197115Y-15750143D01*
X8197115Y-15750143D02*
X8187591Y-15731096D01*
X8187591Y-15731096D02*
X8178067Y-15693001D01*
X8178067Y-15693001D02*
X8178067Y-15645382D01*
X8178067Y-15645382D02*
X8187591Y-15607286D01*
X8187591Y-15607286D02*
X8197115Y-15588239D01*
X8197115Y-15588239D02*
X8206639Y-15578715D01*
X8206639Y-15578715D02*
X8225686Y-15569191D01*
X8378067Y-15769191D02*
X8378067Y-15635858D01*
X8378067Y-15654905D02*
X8387591Y-15645382D01*
X8387591Y-15645382D02*
X8406639Y-15635858D01*
X8406639Y-15635858D02*
X8435210Y-15635858D01*
X8435210Y-15635858D02*
X8454258Y-15645382D01*
X8454258Y-15645382D02*
X8463782Y-15664429D01*
X8463782Y-15664429D02*
X8463782Y-15769191D01*
X8463782Y-15664429D02*
X8473305Y-15645382D01*
X8473305Y-15645382D02*
X8492353Y-15635858D01*
X8492353Y-15635858D02*
X8520924Y-15635858D01*
X8520924Y-15635858D02*
X8539972Y-15645382D01*
X8539972Y-15645382D02*
X8549496Y-15664429D01*
X8549496Y-15664429D02*
X8549496Y-15769191D01*
X8644734Y-15769191D02*
X8644734Y-15635858D01*
X8644734Y-15654905D02*
X8654258Y-15645382D01*
X8654258Y-15645382D02*
X8673305Y-15635858D01*
X8673305Y-15635858D02*
X8701877Y-15635858D01*
X8701877Y-15635858D02*
X8720925Y-15645382D01*
X8720925Y-15645382D02*
X8730448Y-15664429D01*
X8730448Y-15664429D02*
X8730448Y-15769191D01*
X8730448Y-15664429D02*
X8739972Y-15645382D01*
X8739972Y-15645382D02*
X8759020Y-15635858D01*
X8759020Y-15635858D02*
X8787591Y-15635858D01*
X8787591Y-15635858D02*
X8806639Y-15645382D01*
X8806639Y-15645382D02*
X8816163Y-15664429D01*
X8816163Y-15664429D02*
X8816163Y-15769191D01*
X9206639Y-15559667D02*
X9035210Y-15816810D01*
X9463782Y-15569191D02*
X9482829Y-15569191D01*
X9482829Y-15569191D02*
X9501877Y-15578715D01*
X9501877Y-15578715D02*
X9511401Y-15588239D01*
X9511401Y-15588239D02*
X9520925Y-15607286D01*
X9520925Y-15607286D02*
X9530448Y-15645382D01*
X9530448Y-15645382D02*
X9530448Y-15693001D01*
X9530448Y-15693001D02*
X9520925Y-15731096D01*
X9520925Y-15731096D02*
X9511401Y-15750143D01*
X9511401Y-15750143D02*
X9501877Y-15759667D01*
X9501877Y-15759667D02*
X9482829Y-15769191D01*
X9482829Y-15769191D02*
X9463782Y-15769191D01*
X9463782Y-15769191D02*
X9444734Y-15759667D01*
X9444734Y-15759667D02*
X9435210Y-15750143D01*
X9435210Y-15750143D02*
X9425687Y-15731096D01*
X9425687Y-15731096D02*
X9416163Y-15693001D01*
X9416163Y-15693001D02*
X9416163Y-15645382D01*
X9416163Y-15645382D02*
X9425687Y-15607286D01*
X9425687Y-15607286D02*
X9435210Y-15588239D01*
X9435210Y-15588239D02*
X9444734Y-15578715D01*
X9444734Y-15578715D02*
X9463782Y-15569191D01*
X9616163Y-15750143D02*
X9625687Y-15759667D01*
X9625687Y-15759667D02*
X9616163Y-15769191D01*
X9616163Y-15769191D02*
X9606639Y-15759667D01*
X9606639Y-15759667D02*
X9616163Y-15750143D01*
X9616163Y-15750143D02*
X9616163Y-15769191D01*
X9749496Y-15569191D02*
X9768544Y-15569191D01*
X9768544Y-15569191D02*
X9787591Y-15578715D01*
X9787591Y-15578715D02*
X9797115Y-15588239D01*
X9797115Y-15588239D02*
X9806639Y-15607286D01*
X9806639Y-15607286D02*
X9816163Y-15645382D01*
X9816163Y-15645382D02*
X9816163Y-15693001D01*
X9816163Y-15693001D02*
X9806639Y-15731096D01*
X9806639Y-15731096D02*
X9797115Y-15750143D01*
X9797115Y-15750143D02*
X9787591Y-15759667D01*
X9787591Y-15759667D02*
X9768544Y-15769191D01*
X9768544Y-15769191D02*
X9749496Y-15769191D01*
X9749496Y-15769191D02*
X9730448Y-15759667D01*
X9730448Y-15759667D02*
X9720925Y-15750143D01*
X9720925Y-15750143D02*
X9711401Y-15731096D01*
X9711401Y-15731096D02*
X9701877Y-15693001D01*
X9701877Y-15693001D02*
X9701877Y-15645382D01*
X9701877Y-15645382D02*
X9711401Y-15607286D01*
X9711401Y-15607286D02*
X9720925Y-15588239D01*
X9720925Y-15588239D02*
X9730448Y-15578715D01*
X9730448Y-15578715D02*
X9749496Y-15569191D01*
X9882829Y-15569191D02*
X10006639Y-15569191D01*
X10006639Y-15569191D02*
X9939972Y-15645382D01*
X9939972Y-15645382D02*
X9968544Y-15645382D01*
X9968544Y-15645382D02*
X9987591Y-15654905D01*
X9987591Y-15654905D02*
X9997115Y-15664429D01*
X9997115Y-15664429D02*
X10006639Y-15683477D01*
X10006639Y-15683477D02*
X10006639Y-15731096D01*
X10006639Y-15731096D02*
X9997115Y-15750143D01*
X9997115Y-15750143D02*
X9987591Y-15759667D01*
X9987591Y-15759667D02*
X9968544Y-15769191D01*
X9968544Y-15769191D02*
X9911401Y-15769191D01*
X9911401Y-15769191D02*
X9892353Y-15759667D01*
X9892353Y-15759667D02*
X9882829Y-15750143D01*
X10187591Y-15569191D02*
X10092353Y-15569191D01*
X10092353Y-15569191D02*
X10082829Y-15664429D01*
X10082829Y-15664429D02*
X10092353Y-15654905D01*
X10092353Y-15654905D02*
X10111401Y-15645382D01*
X10111401Y-15645382D02*
X10159020Y-15645382D01*
X10159020Y-15645382D02*
X10178068Y-15654905D01*
X10178068Y-15654905D02*
X10187591Y-15664429D01*
X10187591Y-15664429D02*
X10197115Y-15683477D01*
X10197115Y-15683477D02*
X10197115Y-15731096D01*
X10197115Y-15731096D02*
X10187591Y-15750143D01*
X10187591Y-15750143D02*
X10178068Y-15759667D01*
X10178068Y-15759667D02*
X10159020Y-15769191D01*
X10159020Y-15769191D02*
X10111401Y-15769191D01*
X10111401Y-15769191D02*
X10092353Y-15759667D01*
X10092353Y-15759667D02*
X10082829Y-15750143D01*
X10368544Y-15635858D02*
X10368544Y-15769191D01*
X10320925Y-15559667D02*
X10273306Y-15702524D01*
X10273306Y-15702524D02*
X10397115Y-15702524D01*
X10463782Y-15569191D02*
X10463782Y-15607286D01*
X10539972Y-15569191D02*
X10539972Y-15607286D01*
X10835211Y-15845382D02*
X10825687Y-15835858D01*
X10825687Y-15835858D02*
X10806639Y-15807286D01*
X10806639Y-15807286D02*
X10797115Y-15788239D01*
X10797115Y-15788239D02*
X10787591Y-15759667D01*
X10787591Y-15759667D02*
X10778068Y-15712048D01*
X10778068Y-15712048D02*
X10778068Y-15673953D01*
X10778068Y-15673953D02*
X10787591Y-15626334D01*
X10787591Y-15626334D02*
X10797115Y-15597763D01*
X10797115Y-15597763D02*
X10806639Y-15578715D01*
X10806639Y-15578715D02*
X10825687Y-15550143D01*
X10825687Y-15550143D02*
X10835211Y-15540620D01*
X11016163Y-15769191D02*
X10901877Y-15769191D01*
X10959020Y-15769191D02*
X10959020Y-15569191D01*
X10959020Y-15569191D02*
X10939972Y-15597763D01*
X10939972Y-15597763D02*
X10920925Y-15616810D01*
X10920925Y-15616810D02*
X10901877Y-15626334D01*
X11254258Y-15769191D02*
X11254258Y-15569191D01*
X11339972Y-15769191D02*
X11339972Y-15664429D01*
X11339972Y-15664429D02*
X11330449Y-15645382D01*
X11330449Y-15645382D02*
X11311401Y-15635858D01*
X11311401Y-15635858D02*
X11282829Y-15635858D01*
X11282829Y-15635858D02*
X11263782Y-15645382D01*
X11263782Y-15645382D02*
X11254258Y-15654905D01*
X11463782Y-15769191D02*
X11444734Y-15759667D01*
X11444734Y-15759667D02*
X11435210Y-15750143D01*
X11435210Y-15750143D02*
X11425687Y-15731096D01*
X11425687Y-15731096D02*
X11425687Y-15673953D01*
X11425687Y-15673953D02*
X11435210Y-15654905D01*
X11435210Y-15654905D02*
X11444734Y-15645382D01*
X11444734Y-15645382D02*
X11463782Y-15635858D01*
X11463782Y-15635858D02*
X11492353Y-15635858D01*
X11492353Y-15635858D02*
X11511401Y-15645382D01*
X11511401Y-15645382D02*
X11520925Y-15654905D01*
X11520925Y-15654905D02*
X11530449Y-15673953D01*
X11530449Y-15673953D02*
X11530449Y-15731096D01*
X11530449Y-15731096D02*
X11520925Y-15750143D01*
X11520925Y-15750143D02*
X11511401Y-15759667D01*
X11511401Y-15759667D02*
X11492353Y-15769191D01*
X11492353Y-15769191D02*
X11463782Y-15769191D01*
X11644734Y-15769191D02*
X11625687Y-15759667D01*
X11625687Y-15759667D02*
X11616163Y-15740620D01*
X11616163Y-15740620D02*
X11616163Y-15569191D01*
X11797115Y-15759667D02*
X11778068Y-15769191D01*
X11778068Y-15769191D02*
X11739972Y-15769191D01*
X11739972Y-15769191D02*
X11720925Y-15759667D01*
X11720925Y-15759667D02*
X11711401Y-15740620D01*
X11711401Y-15740620D02*
X11711401Y-15664429D01*
X11711401Y-15664429D02*
X11720925Y-15645382D01*
X11720925Y-15645382D02*
X11739972Y-15635858D01*
X11739972Y-15635858D02*
X11778068Y-15635858D01*
X11778068Y-15635858D02*
X11797115Y-15645382D01*
X11797115Y-15645382D02*
X11806639Y-15664429D01*
X11806639Y-15664429D02*
X11806639Y-15683477D01*
X11806639Y-15683477D02*
X11711401Y-15702524D01*
X11873306Y-15845382D02*
X11882830Y-15835858D01*
X11882830Y-15835858D02*
X11901877Y-15807286D01*
X11901877Y-15807286D02*
X11911401Y-15788239D01*
X11911401Y-15788239D02*
X11920925Y-15759667D01*
X11920925Y-15759667D02*
X11930449Y-15712048D01*
X11930449Y-15712048D02*
X11930449Y-15673953D01*
X11930449Y-15673953D02*
X11920925Y-15626334D01*
X11920925Y-15626334D02*
X11911401Y-15597763D01*
X11911401Y-15597763D02*
X11901877Y-15578715D01*
X11901877Y-15578715D02*
X11882830Y-15550143D01*
X11882830Y-15550143D02*
X11873306Y-15540620D01*
D12*
X7210148Y-15991707D02*
X7260148Y-15941707D01*
X7210148Y-15891707D01*
X7160148Y-15941707D01*
X7210148Y-15991707D01*
D11*
X7625686Y-16033191D02*
X7511401Y-16033191D01*
X7568543Y-16033191D02*
X7568543Y-15833191D01*
X7568543Y-15833191D02*
X7549496Y-15861763D01*
X7549496Y-15861763D02*
X7530448Y-15880810D01*
X7530448Y-15880810D02*
X7511401Y-15890334D01*
X7711401Y-16014143D02*
X7720924Y-16023667D01*
X7720924Y-16023667D02*
X7711401Y-16033191D01*
X7711401Y-16033191D02*
X7701877Y-16023667D01*
X7701877Y-16023667D02*
X7711401Y-16014143D01*
X7711401Y-16014143D02*
X7711401Y-16033191D01*
X7844734Y-15833191D02*
X7863782Y-15833191D01*
X7863782Y-15833191D02*
X7882829Y-15842715D01*
X7882829Y-15842715D02*
X7892353Y-15852239D01*
X7892353Y-15852239D02*
X7901877Y-15871286D01*
X7901877Y-15871286D02*
X7911401Y-15909382D01*
X7911401Y-15909382D02*
X7911401Y-15957001D01*
X7911401Y-15957001D02*
X7901877Y-15995096D01*
X7901877Y-15995096D02*
X7892353Y-16014143D01*
X7892353Y-16014143D02*
X7882829Y-16023667D01*
X7882829Y-16023667D02*
X7863782Y-16033191D01*
X7863782Y-16033191D02*
X7844734Y-16033191D01*
X7844734Y-16033191D02*
X7825686Y-16023667D01*
X7825686Y-16023667D02*
X7816162Y-16014143D01*
X7816162Y-16014143D02*
X7806639Y-15995096D01*
X7806639Y-15995096D02*
X7797115Y-15957001D01*
X7797115Y-15957001D02*
X7797115Y-15909382D01*
X7797115Y-15909382D02*
X7806639Y-15871286D01*
X7806639Y-15871286D02*
X7816162Y-15852239D01*
X7816162Y-15852239D02*
X7825686Y-15842715D01*
X7825686Y-15842715D02*
X7844734Y-15833191D01*
X8035210Y-15833191D02*
X8054258Y-15833191D01*
X8054258Y-15833191D02*
X8073305Y-15842715D01*
X8073305Y-15842715D02*
X8082829Y-15852239D01*
X8082829Y-15852239D02*
X8092353Y-15871286D01*
X8092353Y-15871286D02*
X8101877Y-15909382D01*
X8101877Y-15909382D02*
X8101877Y-15957001D01*
X8101877Y-15957001D02*
X8092353Y-15995096D01*
X8092353Y-15995096D02*
X8082829Y-16014143D01*
X8082829Y-16014143D02*
X8073305Y-16023667D01*
X8073305Y-16023667D02*
X8054258Y-16033191D01*
X8054258Y-16033191D02*
X8035210Y-16033191D01*
X8035210Y-16033191D02*
X8016162Y-16023667D01*
X8016162Y-16023667D02*
X8006639Y-16014143D01*
X8006639Y-16014143D02*
X7997115Y-15995096D01*
X7997115Y-15995096D02*
X7987591Y-15957001D01*
X7987591Y-15957001D02*
X7987591Y-15909382D01*
X7987591Y-15909382D02*
X7997115Y-15871286D01*
X7997115Y-15871286D02*
X8006639Y-15852239D01*
X8006639Y-15852239D02*
X8016162Y-15842715D01*
X8016162Y-15842715D02*
X8035210Y-15833191D01*
X8225686Y-15833191D02*
X8244734Y-15833191D01*
X8244734Y-15833191D02*
X8263782Y-15842715D01*
X8263782Y-15842715D02*
X8273305Y-15852239D01*
X8273305Y-15852239D02*
X8282829Y-15871286D01*
X8282829Y-15871286D02*
X8292353Y-15909382D01*
X8292353Y-15909382D02*
X8292353Y-15957001D01*
X8292353Y-15957001D02*
X8282829Y-15995096D01*
X8282829Y-15995096D02*
X8273305Y-16014143D01*
X8273305Y-16014143D02*
X8263782Y-16023667D01*
X8263782Y-16023667D02*
X8244734Y-16033191D01*
X8244734Y-16033191D02*
X8225686Y-16033191D01*
X8225686Y-16033191D02*
X8206639Y-16023667D01*
X8206639Y-16023667D02*
X8197115Y-16014143D01*
X8197115Y-16014143D02*
X8187591Y-15995096D01*
X8187591Y-15995096D02*
X8178067Y-15957001D01*
X8178067Y-15957001D02*
X8178067Y-15909382D01*
X8178067Y-15909382D02*
X8187591Y-15871286D01*
X8187591Y-15871286D02*
X8197115Y-15852239D01*
X8197115Y-15852239D02*
X8206639Y-15842715D01*
X8206639Y-15842715D02*
X8225686Y-15833191D01*
X8378067Y-16033191D02*
X8378067Y-15899858D01*
X8378067Y-15918905D02*
X8387591Y-15909382D01*
X8387591Y-15909382D02*
X8406639Y-15899858D01*
X8406639Y-15899858D02*
X8435210Y-15899858D01*
X8435210Y-15899858D02*
X8454258Y-15909382D01*
X8454258Y-15909382D02*
X8463782Y-15928429D01*
X8463782Y-15928429D02*
X8463782Y-16033191D01*
X8463782Y-15928429D02*
X8473305Y-15909382D01*
X8473305Y-15909382D02*
X8492353Y-15899858D01*
X8492353Y-15899858D02*
X8520924Y-15899858D01*
X8520924Y-15899858D02*
X8539972Y-15909382D01*
X8539972Y-15909382D02*
X8549496Y-15928429D01*
X8549496Y-15928429D02*
X8549496Y-16033191D01*
X8644734Y-16033191D02*
X8644734Y-15899858D01*
X8644734Y-15918905D02*
X8654258Y-15909382D01*
X8654258Y-15909382D02*
X8673305Y-15899858D01*
X8673305Y-15899858D02*
X8701877Y-15899858D01*
X8701877Y-15899858D02*
X8720925Y-15909382D01*
X8720925Y-15909382D02*
X8730448Y-15928429D01*
X8730448Y-15928429D02*
X8730448Y-16033191D01*
X8730448Y-15928429D02*
X8739972Y-15909382D01*
X8739972Y-15909382D02*
X8759020Y-15899858D01*
X8759020Y-15899858D02*
X8787591Y-15899858D01*
X8787591Y-15899858D02*
X8806639Y-15909382D01*
X8806639Y-15909382D02*
X8816163Y-15928429D01*
X8816163Y-15928429D02*
X8816163Y-16033191D01*
X9206639Y-15823667D02*
X9035210Y-16080810D01*
X9463782Y-15833191D02*
X9482829Y-15833191D01*
X9482829Y-15833191D02*
X9501877Y-15842715D01*
X9501877Y-15842715D02*
X9511401Y-15852239D01*
X9511401Y-15852239D02*
X9520925Y-15871286D01*
X9520925Y-15871286D02*
X9530448Y-15909382D01*
X9530448Y-15909382D02*
X9530448Y-15957001D01*
X9530448Y-15957001D02*
X9520925Y-15995096D01*
X9520925Y-15995096D02*
X9511401Y-16014143D01*
X9511401Y-16014143D02*
X9501877Y-16023667D01*
X9501877Y-16023667D02*
X9482829Y-16033191D01*
X9482829Y-16033191D02*
X9463782Y-16033191D01*
X9463782Y-16033191D02*
X9444734Y-16023667D01*
X9444734Y-16023667D02*
X9435210Y-16014143D01*
X9435210Y-16014143D02*
X9425687Y-15995096D01*
X9425687Y-15995096D02*
X9416163Y-15957001D01*
X9416163Y-15957001D02*
X9416163Y-15909382D01*
X9416163Y-15909382D02*
X9425687Y-15871286D01*
X9425687Y-15871286D02*
X9435210Y-15852239D01*
X9435210Y-15852239D02*
X9444734Y-15842715D01*
X9444734Y-15842715D02*
X9463782Y-15833191D01*
X9616163Y-16014143D02*
X9625687Y-16023667D01*
X9625687Y-16023667D02*
X9616163Y-16033191D01*
X9616163Y-16033191D02*
X9606639Y-16023667D01*
X9606639Y-16023667D02*
X9616163Y-16014143D01*
X9616163Y-16014143D02*
X9616163Y-16033191D01*
X9749496Y-15833191D02*
X9768544Y-15833191D01*
X9768544Y-15833191D02*
X9787591Y-15842715D01*
X9787591Y-15842715D02*
X9797115Y-15852239D01*
X9797115Y-15852239D02*
X9806639Y-15871286D01*
X9806639Y-15871286D02*
X9816163Y-15909382D01*
X9816163Y-15909382D02*
X9816163Y-15957001D01*
X9816163Y-15957001D02*
X9806639Y-15995096D01*
X9806639Y-15995096D02*
X9797115Y-16014143D01*
X9797115Y-16014143D02*
X9787591Y-16023667D01*
X9787591Y-16023667D02*
X9768544Y-16033191D01*
X9768544Y-16033191D02*
X9749496Y-16033191D01*
X9749496Y-16033191D02*
X9730448Y-16023667D01*
X9730448Y-16023667D02*
X9720925Y-16014143D01*
X9720925Y-16014143D02*
X9711401Y-15995096D01*
X9711401Y-15995096D02*
X9701877Y-15957001D01*
X9701877Y-15957001D02*
X9701877Y-15909382D01*
X9701877Y-15909382D02*
X9711401Y-15871286D01*
X9711401Y-15871286D02*
X9720925Y-15852239D01*
X9720925Y-15852239D02*
X9730448Y-15842715D01*
X9730448Y-15842715D02*
X9749496Y-15833191D01*
X9882829Y-15833191D02*
X10006639Y-15833191D01*
X10006639Y-15833191D02*
X9939972Y-15909382D01*
X9939972Y-15909382D02*
X9968544Y-15909382D01*
X9968544Y-15909382D02*
X9987591Y-15918905D01*
X9987591Y-15918905D02*
X9997115Y-15928429D01*
X9997115Y-15928429D02*
X10006639Y-15947477D01*
X10006639Y-15947477D02*
X10006639Y-15995096D01*
X10006639Y-15995096D02*
X9997115Y-16014143D01*
X9997115Y-16014143D02*
X9987591Y-16023667D01*
X9987591Y-16023667D02*
X9968544Y-16033191D01*
X9968544Y-16033191D02*
X9911401Y-16033191D01*
X9911401Y-16033191D02*
X9892353Y-16023667D01*
X9892353Y-16023667D02*
X9882829Y-16014143D01*
X10101877Y-16033191D02*
X10139972Y-16033191D01*
X10139972Y-16033191D02*
X10159020Y-16023667D01*
X10159020Y-16023667D02*
X10168544Y-16014143D01*
X10168544Y-16014143D02*
X10187591Y-15985572D01*
X10187591Y-15985572D02*
X10197115Y-15947477D01*
X10197115Y-15947477D02*
X10197115Y-15871286D01*
X10197115Y-15871286D02*
X10187591Y-15852239D01*
X10187591Y-15852239D02*
X10178068Y-15842715D01*
X10178068Y-15842715D02*
X10159020Y-15833191D01*
X10159020Y-15833191D02*
X10120925Y-15833191D01*
X10120925Y-15833191D02*
X10101877Y-15842715D01*
X10101877Y-15842715D02*
X10092353Y-15852239D01*
X10092353Y-15852239D02*
X10082829Y-15871286D01*
X10082829Y-15871286D02*
X10082829Y-15918905D01*
X10082829Y-15918905D02*
X10092353Y-15937953D01*
X10092353Y-15937953D02*
X10101877Y-15947477D01*
X10101877Y-15947477D02*
X10120925Y-15957001D01*
X10120925Y-15957001D02*
X10159020Y-15957001D01*
X10159020Y-15957001D02*
X10178068Y-15947477D01*
X10178068Y-15947477D02*
X10187591Y-15937953D01*
X10187591Y-15937953D02*
X10197115Y-15918905D01*
X10368544Y-15899858D02*
X10368544Y-16033191D01*
X10320925Y-15823667D02*
X10273306Y-15966524D01*
X10273306Y-15966524D02*
X10397115Y-15966524D01*
X10463782Y-15833191D02*
X10463782Y-15871286D01*
X10539972Y-15833191D02*
X10539972Y-15871286D01*
X10835211Y-16109382D02*
X10825687Y-16099858D01*
X10825687Y-16099858D02*
X10806639Y-16071286D01*
X10806639Y-16071286D02*
X10797115Y-16052239D01*
X10797115Y-16052239D02*
X10787591Y-16023667D01*
X10787591Y-16023667D02*
X10778068Y-15976048D01*
X10778068Y-15976048D02*
X10778068Y-15937953D01*
X10778068Y-15937953D02*
X10787591Y-15890334D01*
X10787591Y-15890334D02*
X10797115Y-15861763D01*
X10797115Y-15861763D02*
X10806639Y-15842715D01*
X10806639Y-15842715D02*
X10825687Y-15814143D01*
X10825687Y-15814143D02*
X10835211Y-15804620D01*
X10920925Y-16033191D02*
X10959020Y-16033191D01*
X10959020Y-16033191D02*
X10978068Y-16023667D01*
X10978068Y-16023667D02*
X10987591Y-16014143D01*
X10987591Y-16014143D02*
X11006639Y-15985572D01*
X11006639Y-15985572D02*
X11016163Y-15947477D01*
X11016163Y-15947477D02*
X11016163Y-15871286D01*
X11016163Y-15871286D02*
X11006639Y-15852239D01*
X11006639Y-15852239D02*
X10997115Y-15842715D01*
X10997115Y-15842715D02*
X10978068Y-15833191D01*
X10978068Y-15833191D02*
X10939972Y-15833191D01*
X10939972Y-15833191D02*
X10920925Y-15842715D01*
X10920925Y-15842715D02*
X10911401Y-15852239D01*
X10911401Y-15852239D02*
X10901877Y-15871286D01*
X10901877Y-15871286D02*
X10901877Y-15918905D01*
X10901877Y-15918905D02*
X10911401Y-15937953D01*
X10911401Y-15937953D02*
X10920925Y-15947477D01*
X10920925Y-15947477D02*
X10939972Y-15957001D01*
X10939972Y-15957001D02*
X10978068Y-15957001D01*
X10978068Y-15957001D02*
X10997115Y-15947477D01*
X10997115Y-15947477D02*
X11006639Y-15937953D01*
X11006639Y-15937953D02*
X11016163Y-15918905D01*
X11130449Y-15918905D02*
X11111401Y-15909382D01*
X11111401Y-15909382D02*
X11101877Y-15899858D01*
X11101877Y-15899858D02*
X11092353Y-15880810D01*
X11092353Y-15880810D02*
X11092353Y-15871286D01*
X11092353Y-15871286D02*
X11101877Y-15852239D01*
X11101877Y-15852239D02*
X11111401Y-15842715D01*
X11111401Y-15842715D02*
X11130449Y-15833191D01*
X11130449Y-15833191D02*
X11168544Y-15833191D01*
X11168544Y-15833191D02*
X11187591Y-15842715D01*
X11187591Y-15842715D02*
X11197115Y-15852239D01*
X11197115Y-15852239D02*
X11206639Y-15871286D01*
X11206639Y-15871286D02*
X11206639Y-15880810D01*
X11206639Y-15880810D02*
X11197115Y-15899858D01*
X11197115Y-15899858D02*
X11187591Y-15909382D01*
X11187591Y-15909382D02*
X11168544Y-15918905D01*
X11168544Y-15918905D02*
X11130449Y-15918905D01*
X11130449Y-15918905D02*
X11111401Y-15928429D01*
X11111401Y-15928429D02*
X11101877Y-15937953D01*
X11101877Y-15937953D02*
X11092353Y-15957001D01*
X11092353Y-15957001D02*
X11092353Y-15995096D01*
X11092353Y-15995096D02*
X11101877Y-16014143D01*
X11101877Y-16014143D02*
X11111401Y-16023667D01*
X11111401Y-16023667D02*
X11130449Y-16033191D01*
X11130449Y-16033191D02*
X11168544Y-16033191D01*
X11168544Y-16033191D02*
X11187591Y-16023667D01*
X11187591Y-16023667D02*
X11197115Y-16014143D01*
X11197115Y-16014143D02*
X11206639Y-15995096D01*
X11206639Y-15995096D02*
X11206639Y-15957001D01*
X11206639Y-15957001D02*
X11197115Y-15937953D01*
X11197115Y-15937953D02*
X11187591Y-15928429D01*
X11187591Y-15928429D02*
X11168544Y-15918905D01*
X11444734Y-16033191D02*
X11444734Y-15833191D01*
X11530449Y-16033191D02*
X11530449Y-15928429D01*
X11530449Y-15928429D02*
X11520925Y-15909382D01*
X11520925Y-15909382D02*
X11501877Y-15899858D01*
X11501877Y-15899858D02*
X11473306Y-15899858D01*
X11473306Y-15899858D02*
X11454258Y-15909382D01*
X11454258Y-15909382D02*
X11444734Y-15918905D01*
X11654258Y-16033191D02*
X11635210Y-16023667D01*
X11635210Y-16023667D02*
X11625687Y-16014143D01*
X11625687Y-16014143D02*
X11616163Y-15995096D01*
X11616163Y-15995096D02*
X11616163Y-15937953D01*
X11616163Y-15937953D02*
X11625687Y-15918905D01*
X11625687Y-15918905D02*
X11635210Y-15909382D01*
X11635210Y-15909382D02*
X11654258Y-15899858D01*
X11654258Y-15899858D02*
X11682830Y-15899858D01*
X11682830Y-15899858D02*
X11701877Y-15909382D01*
X11701877Y-15909382D02*
X11711401Y-15918905D01*
X11711401Y-15918905D02*
X11720925Y-15937953D01*
X11720925Y-15937953D02*
X11720925Y-15995096D01*
X11720925Y-15995096D02*
X11711401Y-16014143D01*
X11711401Y-16014143D02*
X11701877Y-16023667D01*
X11701877Y-16023667D02*
X11682830Y-16033191D01*
X11682830Y-16033191D02*
X11654258Y-16033191D01*
X11835210Y-16033191D02*
X11816163Y-16023667D01*
X11816163Y-16023667D02*
X11806639Y-16004620D01*
X11806639Y-16004620D02*
X11806639Y-15833191D01*
X11987591Y-16023667D02*
X11968544Y-16033191D01*
X11968544Y-16033191D02*
X11930449Y-16033191D01*
X11930449Y-16033191D02*
X11911401Y-16023667D01*
X11911401Y-16023667D02*
X11901877Y-16004620D01*
X11901877Y-16004620D02*
X11901877Y-15928429D01*
X11901877Y-15928429D02*
X11911401Y-15909382D01*
X11911401Y-15909382D02*
X11930449Y-15899858D01*
X11930449Y-15899858D02*
X11968544Y-15899858D01*
X11968544Y-15899858D02*
X11987591Y-15909382D01*
X11987591Y-15909382D02*
X11997115Y-15928429D01*
X11997115Y-15928429D02*
X11997115Y-15947477D01*
X11997115Y-15947477D02*
X11901877Y-15966524D01*
X12073306Y-16023667D02*
X12092353Y-16033191D01*
X12092353Y-16033191D02*
X12130449Y-16033191D01*
X12130449Y-16033191D02*
X12149496Y-16023667D01*
X12149496Y-16023667D02*
X12159020Y-16004620D01*
X12159020Y-16004620D02*
X12159020Y-15995096D01*
X12159020Y-15995096D02*
X12149496Y-15976048D01*
X12149496Y-15976048D02*
X12130449Y-15966524D01*
X12130449Y-15966524D02*
X12101877Y-15966524D01*
X12101877Y-15966524D02*
X12082830Y-15957001D01*
X12082830Y-15957001D02*
X12073306Y-15937953D01*
X12073306Y-15937953D02*
X12073306Y-15928429D01*
X12073306Y-15928429D02*
X12082830Y-15909382D01*
X12082830Y-15909382D02*
X12101877Y-15899858D01*
X12101877Y-15899858D02*
X12130449Y-15899858D01*
X12130449Y-15899858D02*
X12149496Y-15909382D01*
X12225687Y-16109382D02*
X12235211Y-16099858D01*
X12235211Y-16099858D02*
X12254258Y-16071286D01*
X12254258Y-16071286D02*
X12263782Y-16052239D01*
X12263782Y-16052239D02*
X12273306Y-16023667D01*
X12273306Y-16023667D02*
X12282830Y-15976048D01*
X12282830Y-15976048D02*
X12282830Y-15937953D01*
X12282830Y-15937953D02*
X12273306Y-15890334D01*
X12273306Y-15890334D02*
X12263782Y-15861763D01*
X12263782Y-15861763D02*
X12254258Y-15842715D01*
X12254258Y-15842715D02*
X12235211Y-15814143D01*
X12235211Y-15814143D02*
X12225687Y-15804620D01*
D13*
X7150148Y-16150707D02*
X7260148Y-16260707D01*
X7260148Y-16150707D02*
X7150148Y-16260707D01*
X7260148Y-16205707D02*
G75*
G02*
X7150148Y-16205707I-55000J0D01*
G01*
X7150148Y-16205707D02*
G75*
G02*
X7260148Y-16205707I55000J0D01*
G01*
D11*
X7625686Y-16297191D02*
X7511401Y-16297191D01*
X7568543Y-16297191D02*
X7568543Y-16097191D01*
X7568543Y-16097191D02*
X7549496Y-16125763D01*
X7549496Y-16125763D02*
X7530448Y-16144810D01*
X7530448Y-16144810D02*
X7511401Y-16154334D01*
X7711401Y-16278143D02*
X7720924Y-16287667D01*
X7720924Y-16287667D02*
X7711401Y-16297191D01*
X7711401Y-16297191D02*
X7701877Y-16287667D01*
X7701877Y-16287667D02*
X7711401Y-16278143D01*
X7711401Y-16278143D02*
X7711401Y-16297191D01*
X7911401Y-16297191D02*
X7797115Y-16297191D01*
X7854258Y-16297191D02*
X7854258Y-16097191D01*
X7854258Y-16097191D02*
X7835210Y-16125763D01*
X7835210Y-16125763D02*
X7816162Y-16144810D01*
X7816162Y-16144810D02*
X7797115Y-16154334D01*
X8035210Y-16097191D02*
X8054258Y-16097191D01*
X8054258Y-16097191D02*
X8073305Y-16106715D01*
X8073305Y-16106715D02*
X8082829Y-16116239D01*
X8082829Y-16116239D02*
X8092353Y-16135286D01*
X8092353Y-16135286D02*
X8101877Y-16173382D01*
X8101877Y-16173382D02*
X8101877Y-16221001D01*
X8101877Y-16221001D02*
X8092353Y-16259096D01*
X8092353Y-16259096D02*
X8082829Y-16278143D01*
X8082829Y-16278143D02*
X8073305Y-16287667D01*
X8073305Y-16287667D02*
X8054258Y-16297191D01*
X8054258Y-16297191D02*
X8035210Y-16297191D01*
X8035210Y-16297191D02*
X8016162Y-16287667D01*
X8016162Y-16287667D02*
X8006639Y-16278143D01*
X8006639Y-16278143D02*
X7997115Y-16259096D01*
X7997115Y-16259096D02*
X7987591Y-16221001D01*
X7987591Y-16221001D02*
X7987591Y-16173382D01*
X7987591Y-16173382D02*
X7997115Y-16135286D01*
X7997115Y-16135286D02*
X8006639Y-16116239D01*
X8006639Y-16116239D02*
X8016162Y-16106715D01*
X8016162Y-16106715D02*
X8035210Y-16097191D01*
X8225686Y-16097191D02*
X8244734Y-16097191D01*
X8244734Y-16097191D02*
X8263782Y-16106715D01*
X8263782Y-16106715D02*
X8273305Y-16116239D01*
X8273305Y-16116239D02*
X8282829Y-16135286D01*
X8282829Y-16135286D02*
X8292353Y-16173382D01*
X8292353Y-16173382D02*
X8292353Y-16221001D01*
X8292353Y-16221001D02*
X8282829Y-16259096D01*
X8282829Y-16259096D02*
X8273305Y-16278143D01*
X8273305Y-16278143D02*
X8263782Y-16287667D01*
X8263782Y-16287667D02*
X8244734Y-16297191D01*
X8244734Y-16297191D02*
X8225686Y-16297191D01*
X8225686Y-16297191D02*
X8206639Y-16287667D01*
X8206639Y-16287667D02*
X8197115Y-16278143D01*
X8197115Y-16278143D02*
X8187591Y-16259096D01*
X8187591Y-16259096D02*
X8178067Y-16221001D01*
X8178067Y-16221001D02*
X8178067Y-16173382D01*
X8178067Y-16173382D02*
X8187591Y-16135286D01*
X8187591Y-16135286D02*
X8197115Y-16116239D01*
X8197115Y-16116239D02*
X8206639Y-16106715D01*
X8206639Y-16106715D02*
X8225686Y-16097191D01*
X8378067Y-16297191D02*
X8378067Y-16163858D01*
X8378067Y-16182905D02*
X8387591Y-16173382D01*
X8387591Y-16173382D02*
X8406639Y-16163858D01*
X8406639Y-16163858D02*
X8435210Y-16163858D01*
X8435210Y-16163858D02*
X8454258Y-16173382D01*
X8454258Y-16173382D02*
X8463782Y-16192429D01*
X8463782Y-16192429D02*
X8463782Y-16297191D01*
X8463782Y-16192429D02*
X8473305Y-16173382D01*
X8473305Y-16173382D02*
X8492353Y-16163858D01*
X8492353Y-16163858D02*
X8520924Y-16163858D01*
X8520924Y-16163858D02*
X8539972Y-16173382D01*
X8539972Y-16173382D02*
X8549496Y-16192429D01*
X8549496Y-16192429D02*
X8549496Y-16297191D01*
X8644734Y-16297191D02*
X8644734Y-16163858D01*
X8644734Y-16182905D02*
X8654258Y-16173382D01*
X8654258Y-16173382D02*
X8673305Y-16163858D01*
X8673305Y-16163858D02*
X8701877Y-16163858D01*
X8701877Y-16163858D02*
X8720925Y-16173382D01*
X8720925Y-16173382D02*
X8730448Y-16192429D01*
X8730448Y-16192429D02*
X8730448Y-16297191D01*
X8730448Y-16192429D02*
X8739972Y-16173382D01*
X8739972Y-16173382D02*
X8759020Y-16163858D01*
X8759020Y-16163858D02*
X8787591Y-16163858D01*
X8787591Y-16163858D02*
X8806639Y-16173382D01*
X8806639Y-16173382D02*
X8816163Y-16192429D01*
X8816163Y-16192429D02*
X8816163Y-16297191D01*
X9206639Y-16087667D02*
X9035210Y-16344810D01*
X9463782Y-16097191D02*
X9482829Y-16097191D01*
X9482829Y-16097191D02*
X9501877Y-16106715D01*
X9501877Y-16106715D02*
X9511401Y-16116239D01*
X9511401Y-16116239D02*
X9520925Y-16135286D01*
X9520925Y-16135286D02*
X9530448Y-16173382D01*
X9530448Y-16173382D02*
X9530448Y-16221001D01*
X9530448Y-16221001D02*
X9520925Y-16259096D01*
X9520925Y-16259096D02*
X9511401Y-16278143D01*
X9511401Y-16278143D02*
X9501877Y-16287667D01*
X9501877Y-16287667D02*
X9482829Y-16297191D01*
X9482829Y-16297191D02*
X9463782Y-16297191D01*
X9463782Y-16297191D02*
X9444734Y-16287667D01*
X9444734Y-16287667D02*
X9435210Y-16278143D01*
X9435210Y-16278143D02*
X9425687Y-16259096D01*
X9425687Y-16259096D02*
X9416163Y-16221001D01*
X9416163Y-16221001D02*
X9416163Y-16173382D01*
X9416163Y-16173382D02*
X9425687Y-16135286D01*
X9425687Y-16135286D02*
X9435210Y-16116239D01*
X9435210Y-16116239D02*
X9444734Y-16106715D01*
X9444734Y-16106715D02*
X9463782Y-16097191D01*
X9616163Y-16278143D02*
X9625687Y-16287667D01*
X9625687Y-16287667D02*
X9616163Y-16297191D01*
X9616163Y-16297191D02*
X9606639Y-16287667D01*
X9606639Y-16287667D02*
X9616163Y-16278143D01*
X9616163Y-16278143D02*
X9616163Y-16297191D01*
X9749496Y-16097191D02*
X9768544Y-16097191D01*
X9768544Y-16097191D02*
X9787591Y-16106715D01*
X9787591Y-16106715D02*
X9797115Y-16116239D01*
X9797115Y-16116239D02*
X9806639Y-16135286D01*
X9806639Y-16135286D02*
X9816163Y-16173382D01*
X9816163Y-16173382D02*
X9816163Y-16221001D01*
X9816163Y-16221001D02*
X9806639Y-16259096D01*
X9806639Y-16259096D02*
X9797115Y-16278143D01*
X9797115Y-16278143D02*
X9787591Y-16287667D01*
X9787591Y-16287667D02*
X9768544Y-16297191D01*
X9768544Y-16297191D02*
X9749496Y-16297191D01*
X9749496Y-16297191D02*
X9730448Y-16287667D01*
X9730448Y-16287667D02*
X9720925Y-16278143D01*
X9720925Y-16278143D02*
X9711401Y-16259096D01*
X9711401Y-16259096D02*
X9701877Y-16221001D01*
X9701877Y-16221001D02*
X9701877Y-16173382D01*
X9701877Y-16173382D02*
X9711401Y-16135286D01*
X9711401Y-16135286D02*
X9720925Y-16116239D01*
X9720925Y-16116239D02*
X9730448Y-16106715D01*
X9730448Y-16106715D02*
X9749496Y-16097191D01*
X9987591Y-16163858D02*
X9987591Y-16297191D01*
X9939972Y-16087667D02*
X9892353Y-16230524D01*
X9892353Y-16230524D02*
X10016163Y-16230524D01*
X10073306Y-16097191D02*
X10197115Y-16097191D01*
X10197115Y-16097191D02*
X10130448Y-16173382D01*
X10130448Y-16173382D02*
X10159020Y-16173382D01*
X10159020Y-16173382D02*
X10178068Y-16182905D01*
X10178068Y-16182905D02*
X10187591Y-16192429D01*
X10187591Y-16192429D02*
X10197115Y-16211477D01*
X10197115Y-16211477D02*
X10197115Y-16259096D01*
X10197115Y-16259096D02*
X10187591Y-16278143D01*
X10187591Y-16278143D02*
X10178068Y-16287667D01*
X10178068Y-16287667D02*
X10159020Y-16297191D01*
X10159020Y-16297191D02*
X10101877Y-16297191D01*
X10101877Y-16297191D02*
X10082829Y-16287667D01*
X10082829Y-16287667D02*
X10073306Y-16278143D01*
X10263782Y-16097191D02*
X10387591Y-16097191D01*
X10387591Y-16097191D02*
X10320925Y-16173382D01*
X10320925Y-16173382D02*
X10349496Y-16173382D01*
X10349496Y-16173382D02*
X10368544Y-16182905D01*
X10368544Y-16182905D02*
X10378068Y-16192429D01*
X10378068Y-16192429D02*
X10387591Y-16211477D01*
X10387591Y-16211477D02*
X10387591Y-16259096D01*
X10387591Y-16259096D02*
X10378068Y-16278143D01*
X10378068Y-16278143D02*
X10368544Y-16287667D01*
X10368544Y-16287667D02*
X10349496Y-16297191D01*
X10349496Y-16297191D02*
X10292353Y-16297191D01*
X10292353Y-16297191D02*
X10273306Y-16287667D01*
X10273306Y-16287667D02*
X10263782Y-16278143D01*
X10463782Y-16097191D02*
X10463782Y-16135286D01*
X10539972Y-16097191D02*
X10539972Y-16135286D01*
X10835211Y-16373382D02*
X10825687Y-16363858D01*
X10825687Y-16363858D02*
X10806639Y-16335286D01*
X10806639Y-16335286D02*
X10797115Y-16316239D01*
X10797115Y-16316239D02*
X10787591Y-16287667D01*
X10787591Y-16287667D02*
X10778068Y-16240048D01*
X10778068Y-16240048D02*
X10778068Y-16201953D01*
X10778068Y-16201953D02*
X10787591Y-16154334D01*
X10787591Y-16154334D02*
X10797115Y-16125763D01*
X10797115Y-16125763D02*
X10806639Y-16106715D01*
X10806639Y-16106715D02*
X10825687Y-16078143D01*
X10825687Y-16078143D02*
X10835211Y-16068620D01*
X10892353Y-16097191D02*
X11016163Y-16097191D01*
X11016163Y-16097191D02*
X10949496Y-16173382D01*
X10949496Y-16173382D02*
X10978068Y-16173382D01*
X10978068Y-16173382D02*
X10997115Y-16182905D01*
X10997115Y-16182905D02*
X11006639Y-16192429D01*
X11006639Y-16192429D02*
X11016163Y-16211477D01*
X11016163Y-16211477D02*
X11016163Y-16259096D01*
X11016163Y-16259096D02*
X11006639Y-16278143D01*
X11006639Y-16278143D02*
X10997115Y-16287667D01*
X10997115Y-16287667D02*
X10978068Y-16297191D01*
X10978068Y-16297191D02*
X10920925Y-16297191D01*
X10920925Y-16297191D02*
X10901877Y-16287667D01*
X10901877Y-16287667D02*
X10892353Y-16278143D01*
X11254258Y-16297191D02*
X11254258Y-16097191D01*
X11339972Y-16297191D02*
X11339972Y-16192429D01*
X11339972Y-16192429D02*
X11330449Y-16173382D01*
X11330449Y-16173382D02*
X11311401Y-16163858D01*
X11311401Y-16163858D02*
X11282829Y-16163858D01*
X11282829Y-16163858D02*
X11263782Y-16173382D01*
X11263782Y-16173382D02*
X11254258Y-16182905D01*
X11463782Y-16297191D02*
X11444734Y-16287667D01*
X11444734Y-16287667D02*
X11435210Y-16278143D01*
X11435210Y-16278143D02*
X11425687Y-16259096D01*
X11425687Y-16259096D02*
X11425687Y-16201953D01*
X11425687Y-16201953D02*
X11435210Y-16182905D01*
X11435210Y-16182905D02*
X11444734Y-16173382D01*
X11444734Y-16173382D02*
X11463782Y-16163858D01*
X11463782Y-16163858D02*
X11492353Y-16163858D01*
X11492353Y-16163858D02*
X11511401Y-16173382D01*
X11511401Y-16173382D02*
X11520925Y-16182905D01*
X11520925Y-16182905D02*
X11530449Y-16201953D01*
X11530449Y-16201953D02*
X11530449Y-16259096D01*
X11530449Y-16259096D02*
X11520925Y-16278143D01*
X11520925Y-16278143D02*
X11511401Y-16287667D01*
X11511401Y-16287667D02*
X11492353Y-16297191D01*
X11492353Y-16297191D02*
X11463782Y-16297191D01*
X11644734Y-16297191D02*
X11625687Y-16287667D01*
X11625687Y-16287667D02*
X11616163Y-16268620D01*
X11616163Y-16268620D02*
X11616163Y-16097191D01*
X11797115Y-16287667D02*
X11778068Y-16297191D01*
X11778068Y-16297191D02*
X11739972Y-16297191D01*
X11739972Y-16297191D02*
X11720925Y-16287667D01*
X11720925Y-16287667D02*
X11711401Y-16268620D01*
X11711401Y-16268620D02*
X11711401Y-16192429D01*
X11711401Y-16192429D02*
X11720925Y-16173382D01*
X11720925Y-16173382D02*
X11739972Y-16163858D01*
X11739972Y-16163858D02*
X11778068Y-16163858D01*
X11778068Y-16163858D02*
X11797115Y-16173382D01*
X11797115Y-16173382D02*
X11806639Y-16192429D01*
X11806639Y-16192429D02*
X11806639Y-16211477D01*
X11806639Y-16211477D02*
X11711401Y-16230524D01*
X11882830Y-16287667D02*
X11901877Y-16297191D01*
X11901877Y-16297191D02*
X11939972Y-16297191D01*
X11939972Y-16297191D02*
X11959020Y-16287667D01*
X11959020Y-16287667D02*
X11968544Y-16268620D01*
X11968544Y-16268620D02*
X11968544Y-16259096D01*
X11968544Y-16259096D02*
X11959020Y-16240048D01*
X11959020Y-16240048D02*
X11939972Y-16230524D01*
X11939972Y-16230524D02*
X11911401Y-16230524D01*
X11911401Y-16230524D02*
X11892353Y-16221001D01*
X11892353Y-16221001D02*
X11882830Y-16201953D01*
X11882830Y-16201953D02*
X11882830Y-16192429D01*
X11882830Y-16192429D02*
X11892353Y-16173382D01*
X11892353Y-16173382D02*
X11911401Y-16163858D01*
X11911401Y-16163858D02*
X11939972Y-16163858D01*
X11939972Y-16163858D02*
X11959020Y-16173382D01*
X12035211Y-16373382D02*
X12044734Y-16363858D01*
X12044734Y-16363858D02*
X12063782Y-16335286D01*
X12063782Y-16335286D02*
X12073306Y-16316239D01*
X12073306Y-16316239D02*
X12082830Y-16287667D01*
X12082830Y-16287667D02*
X12092353Y-16240048D01*
X12092353Y-16240048D02*
X12092353Y-16201953D01*
X12092353Y-16201953D02*
X12082830Y-16154334D01*
X12082830Y-16154334D02*
X12073306Y-16125763D01*
X12073306Y-16125763D02*
X12063782Y-16106715D01*
X12063782Y-16106715D02*
X12044734Y-16078143D01*
X12044734Y-16078143D02*
X12035211Y-16068620D01*
D14*
X7140148Y-16409707D02*
X7260148Y-16529707D01*
X7260148Y-16409707D02*
X7140148Y-16529707D01*
X7200148Y-16409707D02*
X7200148Y-16529707D01*
X7140148Y-16469707D02*
X7260148Y-16469707D01*
D11*
X7625686Y-16561191D02*
X7511401Y-16561191D01*
X7568543Y-16561191D02*
X7568543Y-16361191D01*
X7568543Y-16361191D02*
X7549496Y-16389763D01*
X7549496Y-16389763D02*
X7530448Y-16408810D01*
X7530448Y-16408810D02*
X7511401Y-16418334D01*
X7711401Y-16542143D02*
X7720924Y-16551667D01*
X7720924Y-16551667D02*
X7711401Y-16561191D01*
X7711401Y-16561191D02*
X7701877Y-16551667D01*
X7701877Y-16551667D02*
X7711401Y-16542143D01*
X7711401Y-16542143D02*
X7711401Y-16561191D01*
X7797115Y-16380239D02*
X7806639Y-16370715D01*
X7806639Y-16370715D02*
X7825686Y-16361191D01*
X7825686Y-16361191D02*
X7873305Y-16361191D01*
X7873305Y-16361191D02*
X7892353Y-16370715D01*
X7892353Y-16370715D02*
X7901877Y-16380239D01*
X7901877Y-16380239D02*
X7911401Y-16399286D01*
X7911401Y-16399286D02*
X7911401Y-16418334D01*
X7911401Y-16418334D02*
X7901877Y-16446905D01*
X7901877Y-16446905D02*
X7787591Y-16561191D01*
X7787591Y-16561191D02*
X7911401Y-16561191D01*
X8035210Y-16361191D02*
X8054258Y-16361191D01*
X8054258Y-16361191D02*
X8073305Y-16370715D01*
X8073305Y-16370715D02*
X8082829Y-16380239D01*
X8082829Y-16380239D02*
X8092353Y-16399286D01*
X8092353Y-16399286D02*
X8101877Y-16437382D01*
X8101877Y-16437382D02*
X8101877Y-16485001D01*
X8101877Y-16485001D02*
X8092353Y-16523096D01*
X8092353Y-16523096D02*
X8082829Y-16542143D01*
X8082829Y-16542143D02*
X8073305Y-16551667D01*
X8073305Y-16551667D02*
X8054258Y-16561191D01*
X8054258Y-16561191D02*
X8035210Y-16561191D01*
X8035210Y-16561191D02*
X8016162Y-16551667D01*
X8016162Y-16551667D02*
X8006639Y-16542143D01*
X8006639Y-16542143D02*
X7997115Y-16523096D01*
X7997115Y-16523096D02*
X7987591Y-16485001D01*
X7987591Y-16485001D02*
X7987591Y-16437382D01*
X7987591Y-16437382D02*
X7997115Y-16399286D01*
X7997115Y-16399286D02*
X8006639Y-16380239D01*
X8006639Y-16380239D02*
X8016162Y-16370715D01*
X8016162Y-16370715D02*
X8035210Y-16361191D01*
X8225686Y-16361191D02*
X8244734Y-16361191D01*
X8244734Y-16361191D02*
X8263782Y-16370715D01*
X8263782Y-16370715D02*
X8273305Y-16380239D01*
X8273305Y-16380239D02*
X8282829Y-16399286D01*
X8282829Y-16399286D02*
X8292353Y-16437382D01*
X8292353Y-16437382D02*
X8292353Y-16485001D01*
X8292353Y-16485001D02*
X8282829Y-16523096D01*
X8282829Y-16523096D02*
X8273305Y-16542143D01*
X8273305Y-16542143D02*
X8263782Y-16551667D01*
X8263782Y-16551667D02*
X8244734Y-16561191D01*
X8244734Y-16561191D02*
X8225686Y-16561191D01*
X8225686Y-16561191D02*
X8206639Y-16551667D01*
X8206639Y-16551667D02*
X8197115Y-16542143D01*
X8197115Y-16542143D02*
X8187591Y-16523096D01*
X8187591Y-16523096D02*
X8178067Y-16485001D01*
X8178067Y-16485001D02*
X8178067Y-16437382D01*
X8178067Y-16437382D02*
X8187591Y-16399286D01*
X8187591Y-16399286D02*
X8197115Y-16380239D01*
X8197115Y-16380239D02*
X8206639Y-16370715D01*
X8206639Y-16370715D02*
X8225686Y-16361191D01*
X8378067Y-16561191D02*
X8378067Y-16427858D01*
X8378067Y-16446905D02*
X8387591Y-16437382D01*
X8387591Y-16437382D02*
X8406639Y-16427858D01*
X8406639Y-16427858D02*
X8435210Y-16427858D01*
X8435210Y-16427858D02*
X8454258Y-16437382D01*
X8454258Y-16437382D02*
X8463782Y-16456429D01*
X8463782Y-16456429D02*
X8463782Y-16561191D01*
X8463782Y-16456429D02*
X8473305Y-16437382D01*
X8473305Y-16437382D02*
X8492353Y-16427858D01*
X8492353Y-16427858D02*
X8520924Y-16427858D01*
X8520924Y-16427858D02*
X8539972Y-16437382D01*
X8539972Y-16437382D02*
X8549496Y-16456429D01*
X8549496Y-16456429D02*
X8549496Y-16561191D01*
X8644734Y-16561191D02*
X8644734Y-16427858D01*
X8644734Y-16446905D02*
X8654258Y-16437382D01*
X8654258Y-16437382D02*
X8673305Y-16427858D01*
X8673305Y-16427858D02*
X8701877Y-16427858D01*
X8701877Y-16427858D02*
X8720925Y-16437382D01*
X8720925Y-16437382D02*
X8730448Y-16456429D01*
X8730448Y-16456429D02*
X8730448Y-16561191D01*
X8730448Y-16456429D02*
X8739972Y-16437382D01*
X8739972Y-16437382D02*
X8759020Y-16427858D01*
X8759020Y-16427858D02*
X8787591Y-16427858D01*
X8787591Y-16427858D02*
X8806639Y-16437382D01*
X8806639Y-16437382D02*
X8816163Y-16456429D01*
X8816163Y-16456429D02*
X8816163Y-16561191D01*
X9206639Y-16351667D02*
X9035210Y-16608810D01*
X9463782Y-16361191D02*
X9482829Y-16361191D01*
X9482829Y-16361191D02*
X9501877Y-16370715D01*
X9501877Y-16370715D02*
X9511401Y-16380239D01*
X9511401Y-16380239D02*
X9520925Y-16399286D01*
X9520925Y-16399286D02*
X9530448Y-16437382D01*
X9530448Y-16437382D02*
X9530448Y-16485001D01*
X9530448Y-16485001D02*
X9520925Y-16523096D01*
X9520925Y-16523096D02*
X9511401Y-16542143D01*
X9511401Y-16542143D02*
X9501877Y-16551667D01*
X9501877Y-16551667D02*
X9482829Y-16561191D01*
X9482829Y-16561191D02*
X9463782Y-16561191D01*
X9463782Y-16561191D02*
X9444734Y-16551667D01*
X9444734Y-16551667D02*
X9435210Y-16542143D01*
X9435210Y-16542143D02*
X9425687Y-16523096D01*
X9425687Y-16523096D02*
X9416163Y-16485001D01*
X9416163Y-16485001D02*
X9416163Y-16437382D01*
X9416163Y-16437382D02*
X9425687Y-16399286D01*
X9425687Y-16399286D02*
X9435210Y-16380239D01*
X9435210Y-16380239D02*
X9444734Y-16370715D01*
X9444734Y-16370715D02*
X9463782Y-16361191D01*
X9616163Y-16542143D02*
X9625687Y-16551667D01*
X9625687Y-16551667D02*
X9616163Y-16561191D01*
X9616163Y-16561191D02*
X9606639Y-16551667D01*
X9606639Y-16551667D02*
X9616163Y-16542143D01*
X9616163Y-16542143D02*
X9616163Y-16561191D01*
X9749496Y-16361191D02*
X9768544Y-16361191D01*
X9768544Y-16361191D02*
X9787591Y-16370715D01*
X9787591Y-16370715D02*
X9797115Y-16380239D01*
X9797115Y-16380239D02*
X9806639Y-16399286D01*
X9806639Y-16399286D02*
X9816163Y-16437382D01*
X9816163Y-16437382D02*
X9816163Y-16485001D01*
X9816163Y-16485001D02*
X9806639Y-16523096D01*
X9806639Y-16523096D02*
X9797115Y-16542143D01*
X9797115Y-16542143D02*
X9787591Y-16551667D01*
X9787591Y-16551667D02*
X9768544Y-16561191D01*
X9768544Y-16561191D02*
X9749496Y-16561191D01*
X9749496Y-16561191D02*
X9730448Y-16551667D01*
X9730448Y-16551667D02*
X9720925Y-16542143D01*
X9720925Y-16542143D02*
X9711401Y-16523096D01*
X9711401Y-16523096D02*
X9701877Y-16485001D01*
X9701877Y-16485001D02*
X9701877Y-16437382D01*
X9701877Y-16437382D02*
X9711401Y-16399286D01*
X9711401Y-16399286D02*
X9720925Y-16380239D01*
X9720925Y-16380239D02*
X9730448Y-16370715D01*
X9730448Y-16370715D02*
X9749496Y-16361191D01*
X9987591Y-16427858D02*
X9987591Y-16561191D01*
X9939972Y-16351667D02*
X9892353Y-16494524D01*
X9892353Y-16494524D02*
X10016163Y-16494524D01*
X10073306Y-16361191D02*
X10206639Y-16361191D01*
X10206639Y-16361191D02*
X10120925Y-16561191D01*
X10273306Y-16380239D02*
X10282829Y-16370715D01*
X10282829Y-16370715D02*
X10301877Y-16361191D01*
X10301877Y-16361191D02*
X10349496Y-16361191D01*
X10349496Y-16361191D02*
X10368544Y-16370715D01*
X10368544Y-16370715D02*
X10378068Y-16380239D01*
X10378068Y-16380239D02*
X10387591Y-16399286D01*
X10387591Y-16399286D02*
X10387591Y-16418334D01*
X10387591Y-16418334D02*
X10378068Y-16446905D01*
X10378068Y-16446905D02*
X10263782Y-16561191D01*
X10263782Y-16561191D02*
X10387591Y-16561191D01*
X10463782Y-16361191D02*
X10463782Y-16399286D01*
X10539972Y-16361191D02*
X10539972Y-16399286D01*
X10835211Y-16637382D02*
X10825687Y-16627858D01*
X10825687Y-16627858D02*
X10806639Y-16599286D01*
X10806639Y-16599286D02*
X10797115Y-16580239D01*
X10797115Y-16580239D02*
X10787591Y-16551667D01*
X10787591Y-16551667D02*
X10778068Y-16504048D01*
X10778068Y-16504048D02*
X10778068Y-16465953D01*
X10778068Y-16465953D02*
X10787591Y-16418334D01*
X10787591Y-16418334D02*
X10797115Y-16389763D01*
X10797115Y-16389763D02*
X10806639Y-16370715D01*
X10806639Y-16370715D02*
X10825687Y-16342143D01*
X10825687Y-16342143D02*
X10835211Y-16332620D01*
X11016163Y-16561191D02*
X10901877Y-16561191D01*
X10959020Y-16561191D02*
X10959020Y-16361191D01*
X10959020Y-16361191D02*
X10939972Y-16389763D01*
X10939972Y-16389763D02*
X10920925Y-16408810D01*
X10920925Y-16408810D02*
X10901877Y-16418334D01*
X11139972Y-16361191D02*
X11159020Y-16361191D01*
X11159020Y-16361191D02*
X11178068Y-16370715D01*
X11178068Y-16370715D02*
X11187591Y-16380239D01*
X11187591Y-16380239D02*
X11197115Y-16399286D01*
X11197115Y-16399286D02*
X11206639Y-16437382D01*
X11206639Y-16437382D02*
X11206639Y-16485001D01*
X11206639Y-16485001D02*
X11197115Y-16523096D01*
X11197115Y-16523096D02*
X11187591Y-16542143D01*
X11187591Y-16542143D02*
X11178068Y-16551667D01*
X11178068Y-16551667D02*
X11159020Y-16561191D01*
X11159020Y-16561191D02*
X11139972Y-16561191D01*
X11139972Y-16561191D02*
X11120925Y-16551667D01*
X11120925Y-16551667D02*
X11111401Y-16542143D01*
X11111401Y-16542143D02*
X11101877Y-16523096D01*
X11101877Y-16523096D02*
X11092353Y-16485001D01*
X11092353Y-16485001D02*
X11092353Y-16437382D01*
X11092353Y-16437382D02*
X11101877Y-16399286D01*
X11101877Y-16399286D02*
X11111401Y-16380239D01*
X11111401Y-16380239D02*
X11120925Y-16370715D01*
X11120925Y-16370715D02*
X11139972Y-16361191D01*
X11444734Y-16561191D02*
X11444734Y-16361191D01*
X11530449Y-16561191D02*
X11530449Y-16456429D01*
X11530449Y-16456429D02*
X11520925Y-16437382D01*
X11520925Y-16437382D02*
X11501877Y-16427858D01*
X11501877Y-16427858D02*
X11473306Y-16427858D01*
X11473306Y-16427858D02*
X11454258Y-16437382D01*
X11454258Y-16437382D02*
X11444734Y-16446905D01*
X11654258Y-16561191D02*
X11635210Y-16551667D01*
X11635210Y-16551667D02*
X11625687Y-16542143D01*
X11625687Y-16542143D02*
X11616163Y-16523096D01*
X11616163Y-16523096D02*
X11616163Y-16465953D01*
X11616163Y-16465953D02*
X11625687Y-16446905D01*
X11625687Y-16446905D02*
X11635210Y-16437382D01*
X11635210Y-16437382D02*
X11654258Y-16427858D01*
X11654258Y-16427858D02*
X11682830Y-16427858D01*
X11682830Y-16427858D02*
X11701877Y-16437382D01*
X11701877Y-16437382D02*
X11711401Y-16446905D01*
X11711401Y-16446905D02*
X11720925Y-16465953D01*
X11720925Y-16465953D02*
X11720925Y-16523096D01*
X11720925Y-16523096D02*
X11711401Y-16542143D01*
X11711401Y-16542143D02*
X11701877Y-16551667D01*
X11701877Y-16551667D02*
X11682830Y-16561191D01*
X11682830Y-16561191D02*
X11654258Y-16561191D01*
X11835210Y-16561191D02*
X11816163Y-16551667D01*
X11816163Y-16551667D02*
X11806639Y-16532620D01*
X11806639Y-16532620D02*
X11806639Y-16361191D01*
X11987591Y-16551667D02*
X11968544Y-16561191D01*
X11968544Y-16561191D02*
X11930449Y-16561191D01*
X11930449Y-16561191D02*
X11911401Y-16551667D01*
X11911401Y-16551667D02*
X11901877Y-16532620D01*
X11901877Y-16532620D02*
X11901877Y-16456429D01*
X11901877Y-16456429D02*
X11911401Y-16437382D01*
X11911401Y-16437382D02*
X11930449Y-16427858D01*
X11930449Y-16427858D02*
X11968544Y-16427858D01*
X11968544Y-16427858D02*
X11987591Y-16437382D01*
X11987591Y-16437382D02*
X11997115Y-16456429D01*
X11997115Y-16456429D02*
X11997115Y-16475477D01*
X11997115Y-16475477D02*
X11901877Y-16494524D01*
X12073306Y-16551667D02*
X12092353Y-16561191D01*
X12092353Y-16561191D02*
X12130449Y-16561191D01*
X12130449Y-16561191D02*
X12149496Y-16551667D01*
X12149496Y-16551667D02*
X12159020Y-16532620D01*
X12159020Y-16532620D02*
X12159020Y-16523096D01*
X12159020Y-16523096D02*
X12149496Y-16504048D01*
X12149496Y-16504048D02*
X12130449Y-16494524D01*
X12130449Y-16494524D02*
X12101877Y-16494524D01*
X12101877Y-16494524D02*
X12082830Y-16485001D01*
X12082830Y-16485001D02*
X12073306Y-16465953D01*
X12073306Y-16465953D02*
X12073306Y-16456429D01*
X12073306Y-16456429D02*
X12082830Y-16437382D01*
X12082830Y-16437382D02*
X12101877Y-16427858D01*
X12101877Y-16427858D02*
X12130449Y-16427858D01*
X12130449Y-16427858D02*
X12149496Y-16437382D01*
X12225687Y-16637382D02*
X12235211Y-16627858D01*
X12235211Y-16627858D02*
X12254258Y-16599286D01*
X12254258Y-16599286D02*
X12263782Y-16580239D01*
X12263782Y-16580239D02*
X12273306Y-16551667D01*
X12273306Y-16551667D02*
X12282830Y-16504048D01*
X12282830Y-16504048D02*
X12282830Y-16465953D01*
X12282830Y-16465953D02*
X12273306Y-16418334D01*
X12273306Y-16418334D02*
X12263782Y-16389763D01*
X12263782Y-16389763D02*
X12254258Y-16370715D01*
X12254258Y-16370715D02*
X12235211Y-16342143D01*
X12235211Y-16342143D02*
X12225687Y-16332620D01*
M02*
