%TF.GenerationSoftware,KiCad,Pcbnew,9.0.0*%
%TF.CreationDate,2025-03-11T15:51:22-04:00*%
%TF.ProjectId,BidenCard,42696465-6e43-4617-9264-2e6b69636164,rev?*%
%TF.SameCoordinates,Original*%
%TF.FileFunction,Soldermask,Bot*%
%TF.FilePolarity,Negative*%
%FSLAX46Y46*%
G04 Gerber Fmt 4.6, Leading zero omitted, Abs format (unit mm)*
G04 Created by KiCad (PCBNEW 9.0.0) date 2025-03-11 15:51:22*
%MOMM*%
%LPD*%
G01*
G04 APERTURE LIST*
G04 Aperture macros list*
%AMRoundRect*
0 Rectangle with rounded corners*
0 $1 Rounding radius*
0 $2 $3 $4 $5 $6 $7 $8 $9 X,Y pos of 4 corners*
0 Add a 4 corners polygon primitive as box body*
4,1,4,$2,$3,$4,$5,$6,$7,$8,$9,$2,$3,0*
0 Add four circle primitives for the rounded corners*
1,1,$1+$1,$2,$3*
1,1,$1+$1,$4,$5*
1,1,$1+$1,$6,$7*
1,1,$1+$1,$8,$9*
0 Add four rect primitives between the rounded corners*
20,1,$1+$1,$2,$3,$4,$5,0*
20,1,$1+$1,$4,$5,$6,$7,0*
20,1,$1+$1,$6,$7,$8,$9,0*
20,1,$1+$1,$8,$9,$2,$3,0*%
%AMHorizOval*
0 Thick line with rounded ends*
0 $1 width*
0 $2 $3 position (X,Y) of the first rounded end (center of the circle)*
0 $4 $5 position (X,Y) of the second rounded end (center of the circle)*
0 Add line between two ends*
20,1,$1,$2,$3,$4,$5,0*
0 Add two circle primitives to create the rounded ends*
1,1,$1,$2,$3*
1,1,$1,$4,$5*%
%AMRotRect*
0 Rectangle, with rotation*
0 The origin of the aperture is its center*
0 $1 length*
0 $2 width*
0 $3 Rotation angle, in degrees counterclockwise*
0 Add horizontal line*
21,1,$1,$2,0,0,$3*%
G04 Aperture macros list end*
%ADD10R,1.600000X1.600000*%
%ADD11O,1.600000X1.600000*%
%ADD12C,1.600000*%
%ADD13HorizOval,1.600000X0.000000X0.000000X0.000000X0.000000X0*%
%ADD14C,1.500000*%
%ADD15R,2.400000X2.400000*%
%ADD16O,2.400000X2.400000*%
%ADD17R,1.700000X1.700000*%
%ADD18O,1.700000X1.700000*%
%ADD19C,2.850000*%
%ADD20RoundRect,0.249999X-0.525001X0.525001X-0.525001X-0.525001X0.525001X-0.525001X0.525001X0.525001X0*%
%ADD21C,1.550000*%
%ADD22RotRect,1.600000X1.600000X14.000000*%
%ADD23O,3.500000X3.500000*%
%ADD24R,2.000000X1.905000*%
%ADD25O,2.000000X1.905000*%
G04 APERTURE END LIST*
D10*
%TO.C,D1*%
X163271200Y-94721200D03*
D11*
X173431200Y-94721200D03*
%TD*%
D12*
%TO.C,R7*%
X150368000Y-125095000D03*
D11*
X150368000Y-114935000D03*
%TD*%
D10*
%TO.C,D3*%
X163271200Y-101821200D03*
D11*
X173431200Y-101821200D03*
%TD*%
D12*
%TO.C,R6*%
X143002000Y-128016000D03*
D11*
X153162000Y-128016000D03*
%TD*%
D12*
%TO.C,R5*%
X153162000Y-134518400D03*
D11*
X143002000Y-134518400D03*
%TD*%
D12*
%TO.C,U4*%
X118244083Y-55445721D03*
D13*
X118858565Y-57910272D03*
X119473046Y-60374823D03*
X120087528Y-62839374D03*
X120702008Y-65303926D03*
X121316491Y-67768477D03*
X121930973Y-70233028D03*
X122545454Y-72697579D03*
X123159936Y-75162130D03*
X123774419Y-77626681D03*
X124388899Y-80091232D03*
X125003381Y-82555784D03*
X125617862Y-85020335D03*
X126232344Y-87484886D03*
X126846826Y-89949437D03*
X127461307Y-92413988D03*
X142248614Y-88727098D03*
X141634132Y-86262547D03*
X141019651Y-83797996D03*
X140405169Y-81333445D03*
X139790688Y-78868894D03*
X139176206Y-76404343D03*
X138561724Y-73939792D03*
X137947243Y-71475240D03*
X137332761Y-69010689D03*
X136718280Y-66546138D03*
X136103798Y-64081587D03*
X135489316Y-61617036D03*
X134874835Y-59152485D03*
X134260353Y-56687934D03*
X133645871Y-54223381D03*
X133031390Y-51758831D03*
%TD*%
D10*
%TO.C,U13*%
X160568800Y-95956200D03*
D11*
X158028800Y-95956200D03*
X155488800Y-95956200D03*
X152948800Y-95956200D03*
X150408800Y-95956200D03*
X147868800Y-95956200D03*
X145328800Y-95956200D03*
X142788800Y-95956200D03*
X140248800Y-95956200D03*
X137708800Y-95956200D03*
X135168800Y-95956200D03*
X132628800Y-95956200D03*
X130088800Y-95956200D03*
X127548800Y-95956200D03*
X127548800Y-111196200D03*
X130088800Y-111196200D03*
X132628800Y-111196200D03*
X135168800Y-111196200D03*
X137708800Y-111196200D03*
X140248800Y-111196200D03*
X142788800Y-111196200D03*
X145328800Y-111196200D03*
X147868800Y-111196200D03*
X150408800Y-111196200D03*
X152948800Y-111196200D03*
X155488800Y-111196200D03*
X158028800Y-111196200D03*
X160568800Y-111196200D03*
%TD*%
D10*
%TO.C,D7*%
X163271200Y-108921200D03*
D11*
X173431200Y-108921200D03*
%TD*%
D10*
%TO.C,U1*%
X175707200Y-81986200D03*
D11*
X175707200Y-79446200D03*
X175707200Y-76906200D03*
X175707200Y-74366200D03*
X175707200Y-71826200D03*
X175707200Y-69286200D03*
X175707200Y-66746200D03*
X175707200Y-64206200D03*
X175707200Y-61666200D03*
X175707200Y-59126200D03*
X168087200Y-59126200D03*
X168087200Y-61666200D03*
X168087200Y-64206200D03*
X168087200Y-66746200D03*
X168087200Y-69286200D03*
X168087200Y-71826200D03*
X168087200Y-74366200D03*
X168087200Y-76906200D03*
X168087200Y-79446200D03*
X168087200Y-81986200D03*
%TD*%
D12*
%TO.C,C19*%
X102819200Y-140472800D03*
X102819200Y-135472800D03*
%TD*%
D10*
%TO.C,D8*%
X163271200Y-112471200D03*
D11*
X173431200Y-112471200D03*
%TD*%
D14*
%TO.C,Y1*%
X137210800Y-134530000D03*
X137210800Y-129630000D03*
%TD*%
D12*
%TO.C,C22*%
X157226000Y-131662800D03*
X157226000Y-136662800D03*
%TD*%
%TO.C,R10*%
X147421600Y-125095000D03*
D11*
X147421600Y-114935000D03*
%TD*%
D10*
%TO.C,D6*%
X163271200Y-105371200D03*
D11*
X173431200Y-105371200D03*
%TD*%
D15*
%TO.C,C24*%
X93886800Y-67151700D03*
D16*
X75886800Y-67151700D03*
%TD*%
D12*
%TO.C,C1*%
X154747600Y-47244000D03*
X149747600Y-47244000D03*
%TD*%
D10*
%TO.C,D2*%
X163271200Y-98271200D03*
D11*
X173431200Y-98271200D03*
%TD*%
D15*
%TO.C,C23*%
X93886800Y-74486700D03*
D16*
X75886800Y-74486700D03*
%TD*%
D17*
%TO.C,J2*%
X86995000Y-137541000D03*
D18*
X84455000Y-137541000D03*
X86995000Y-135001000D03*
X84455000Y-135001000D03*
X86995000Y-132461000D03*
X84455000Y-132461000D03*
X86995000Y-129921000D03*
X84455000Y-129921000D03*
X86995000Y-127381000D03*
X84455000Y-127381000D03*
X86995000Y-124841000D03*
X84455000Y-124841000D03*
X86995000Y-122301000D03*
X84455000Y-122301000D03*
X86995000Y-119761000D03*
X84455000Y-119761000D03*
X86995000Y-117221000D03*
X84455000Y-117221000D03*
X86995000Y-114681000D03*
X84455000Y-114681000D03*
X86995000Y-112141000D03*
X84455000Y-112141000D03*
X86995000Y-109601000D03*
X84455000Y-109601000D03*
X86995000Y-107061000D03*
X84455000Y-107061000D03*
X86995000Y-104521000D03*
X84455000Y-104521000D03*
X86995000Y-101981000D03*
X84455000Y-101981000D03*
X86995000Y-99441000D03*
X84455000Y-99441000D03*
X86995000Y-96901000D03*
X84455000Y-96901000D03*
%TD*%
D10*
%TO.C,U16*%
X119573200Y-113777000D03*
D11*
X119573200Y-111237000D03*
X119573200Y-108697000D03*
X119573200Y-106157000D03*
X119573200Y-103617000D03*
X119573200Y-101077000D03*
X119573200Y-98537000D03*
X119573200Y-95997000D03*
X111953200Y-95997000D03*
X111953200Y-98537000D03*
X111953200Y-101077000D03*
X111953200Y-103617000D03*
X111953200Y-106157000D03*
X111953200Y-108697000D03*
X111953200Y-111237000D03*
X111953200Y-113777000D03*
%TD*%
D12*
%TO.C,R8*%
X137718800Y-124155200D03*
D11*
X137718800Y-113995200D03*
%TD*%
D12*
%TO.C,C18*%
X123647200Y-114666400D03*
X123647200Y-109666400D03*
%TD*%
D15*
%TO.C,C14*%
X93937600Y-59856300D03*
D16*
X75937600Y-59856300D03*
%TD*%
D12*
%TO.C,C10*%
X128106800Y-47244000D03*
X133106800Y-47244000D03*
%TD*%
D19*
%TO.C,J1*%
X187021476Y-48012074D03*
X187021476Y-136912074D03*
D20*
X184481476Y-53092074D03*
D21*
X184481476Y-55632074D03*
X184481476Y-58172074D03*
X184481476Y-60712074D03*
X184481476Y-63252074D03*
X184481476Y-65792074D03*
X184481476Y-68332074D03*
X184481476Y-70872074D03*
X184481476Y-73412074D03*
X184481476Y-75952074D03*
X184481476Y-78492074D03*
X184481476Y-81032074D03*
X184481476Y-83572074D03*
X184481476Y-86112074D03*
X184481476Y-88652074D03*
X184481476Y-91192074D03*
X184481476Y-93732074D03*
X184481476Y-96272074D03*
X184481476Y-98812074D03*
X184481476Y-101352074D03*
X184481476Y-103892074D03*
X184481476Y-106432074D03*
X184481476Y-108972074D03*
X184481476Y-111512074D03*
X184481476Y-114052074D03*
X184481476Y-116592074D03*
X184481476Y-119132074D03*
X184481476Y-121672074D03*
X184481476Y-124212074D03*
X184481476Y-126752074D03*
X184481476Y-129292074D03*
X184481476Y-131832074D03*
X181941476Y-53092074D03*
X181941476Y-55632074D03*
X181941476Y-58172074D03*
X181941476Y-60712074D03*
X181941476Y-63252074D03*
X181941476Y-65792074D03*
X181941476Y-68332074D03*
X181941476Y-70872074D03*
X181941476Y-73412074D03*
X181941476Y-75952074D03*
X181941476Y-78492074D03*
X181941476Y-81032074D03*
X181941476Y-83572074D03*
X181941476Y-86112074D03*
X181941476Y-88652074D03*
X181941476Y-91192074D03*
X181941476Y-93732074D03*
X181941476Y-96272074D03*
X181941476Y-98812074D03*
X181941476Y-101352074D03*
X181941476Y-103892074D03*
X181941476Y-106432074D03*
X181941476Y-108972074D03*
X181941476Y-111512074D03*
X181941476Y-114052074D03*
X181941476Y-116592074D03*
X181941476Y-119132074D03*
X181941476Y-121672074D03*
X181941476Y-124212074D03*
X181941476Y-126752074D03*
X181941476Y-129292074D03*
X181941476Y-131832074D03*
%TD*%
D12*
%TO.C,C21*%
X124801000Y-92862400D03*
X119801000Y-92862400D03*
%TD*%
%TO.C,C12*%
X112990000Y-47345600D03*
X107990000Y-47345600D03*
%TD*%
D15*
%TO.C,C25*%
X93988400Y-89269500D03*
D16*
X75988400Y-89269500D03*
%TD*%
D12*
%TO.C,C17*%
X99441000Y-86654000D03*
X99441000Y-91654000D03*
%TD*%
%TO.C,R9*%
X153365200Y-125095000D03*
D11*
X153365200Y-114935000D03*
%TD*%
D22*
%TO.C,U2*%
X98178083Y-55445721D03*
D13*
X98792565Y-57910272D03*
X99407046Y-60374823D03*
X100021528Y-62839374D03*
X100636008Y-65303926D03*
X101250491Y-67768477D03*
X101864973Y-70233028D03*
X102479454Y-72697579D03*
X103093936Y-75162130D03*
X103708419Y-77626681D03*
X104322899Y-80091232D03*
X104937381Y-82555784D03*
X105551862Y-85020335D03*
X106166344Y-87484886D03*
X106780826Y-89949437D03*
X107395307Y-92413988D03*
X122182614Y-88727098D03*
X121568132Y-86262547D03*
X120953651Y-83797996D03*
X120339169Y-81333445D03*
X119724688Y-78868894D03*
X119110206Y-76404343D03*
X118495724Y-73939792D03*
X117881243Y-71475240D03*
X117266761Y-69010689D03*
X116652280Y-66546138D03*
X116037798Y-64081587D03*
X115423316Y-61617036D03*
X114808835Y-59152485D03*
X114194353Y-56687934D03*
X113579871Y-54223381D03*
X112965390Y-51758831D03*
%TD*%
D12*
%TO.C,C13*%
X177546000Y-52792000D03*
X177546000Y-47792000D03*
%TD*%
D23*
%TO.C,U18*%
X76591476Y-49885600D03*
D24*
X93251476Y-52425600D03*
D25*
X93251476Y-49885600D03*
X93251476Y-47345600D03*
%TD*%
D15*
%TO.C,C16*%
X93886800Y-81821700D03*
D16*
X75886800Y-81821700D03*
%TD*%
D10*
%TO.C,U3*%
X161335800Y-137708800D03*
D11*
X163875800Y-137708800D03*
X166415800Y-137708800D03*
X168955800Y-137708800D03*
X171495800Y-137708800D03*
X174035800Y-137708800D03*
X176575800Y-137708800D03*
X176575800Y-130088800D03*
X174035800Y-130088800D03*
X171495800Y-130088800D03*
X168955800Y-130088800D03*
X166415800Y-130088800D03*
X163875800Y-130088800D03*
X161335800Y-130088800D03*
%TD*%
D10*
%TO.C,U15*%
X102712600Y-132984400D03*
D11*
X105252600Y-132984400D03*
X107792600Y-132984400D03*
X110332600Y-132984400D03*
X112872600Y-132984400D03*
X115412600Y-132984400D03*
X117952600Y-132984400D03*
X117952600Y-125364400D03*
X115412600Y-125364400D03*
X112872600Y-125364400D03*
X110332600Y-125364400D03*
X107792600Y-125364400D03*
X105252600Y-125364400D03*
X102712600Y-125364400D03*
%TD*%
D12*
%TO.C,U14*%
X139892184Y-60358375D03*
D13*
X140506666Y-62822926D03*
X141121147Y-65287477D03*
X141735629Y-67752028D03*
X142350109Y-70216580D03*
X142964592Y-72681131D03*
X143579074Y-75145682D03*
X144193555Y-77610233D03*
X144808037Y-80074784D03*
X145422520Y-82539335D03*
X146037000Y-85003886D03*
X146651482Y-87468438D03*
X147265963Y-89932989D03*
X147880445Y-92397540D03*
X162667752Y-88710650D03*
X162053270Y-86246099D03*
X161438789Y-83781548D03*
X160824307Y-81316997D03*
X160209825Y-78852446D03*
X159595344Y-76387894D03*
X158980862Y-73923343D03*
X158366381Y-71458792D03*
X157751899Y-68994241D03*
X157137417Y-66529690D03*
X156522936Y-64065139D03*
X155908454Y-61600588D03*
X155293972Y-59136035D03*
X154679491Y-56671485D03*
%TD*%
D10*
%TO.C,U17*%
X107533600Y-113777000D03*
D11*
X107533600Y-111237000D03*
X107533600Y-108697000D03*
X107533600Y-106157000D03*
X107533600Y-103617000D03*
X107533600Y-101077000D03*
X107533600Y-98537000D03*
X107533600Y-95997000D03*
X99913600Y-95997000D03*
X99913600Y-98537000D03*
X99913600Y-101077000D03*
X99913600Y-103617000D03*
X99913600Y-106157000D03*
X99913600Y-108697000D03*
X99913600Y-111237000D03*
X99913600Y-113777000D03*
%TD*%
M02*
