M48
; DRILL file {KiCad 9.0.0} date 2025-03-11T15:52:01-0400
; FORMAT={-:-/ absolute / metric / decimal}
; #@! TF.CreationDate,2025-03-11T15:52:01-04:00
; #@! TF.GenerationSoftware,Kicad,Pcbnew,9.0.0
; #@! TF.FileFunction,Plated,1,2,PTH
FMAT,2
METRIC
; #@! TA.AperFunction,Plated,PTH,ViaDrill
T1C0.300
; #@! TA.AperFunction,Plated,PTH,ViaDrill
T2C0.400
; #@! TA.AperFunction,Plated,PTH,ComponentDrill
T3C0.800
; #@! TA.AperFunction,Plated,PTH,ComponentDrill
T4C0.900
; #@! TA.AperFunction,Plated,PTH,ComponentDrill
T5C1.000
; #@! TA.AperFunction,Plated,PTH,ComponentDrill
T6C1.100
; #@! TA.AperFunction,Plated,PTH,ComponentDrill
T7C1.200
%
G90
G05
T1
X170.561Y-60.071
X178.546Y-57.554
X179.197Y-52.578
X179.451Y-57.531
T2
X79.502Y-46.101
X79.502Y-48.641
X79.502Y-51.181
X79.502Y-53.721
X79.502Y-56.261
X79.502Y-58.801
X79.502Y-61.468
X82.042Y-46.101
X82.042Y-48.641
X82.042Y-51.181
X82.042Y-53.721
X82.042Y-56.261
X82.042Y-58.801
X82.042Y-61.468
X84.582Y-46.101
X84.582Y-48.641
X84.582Y-51.181
X84.582Y-53.721
X84.582Y-56.261
X84.582Y-58.801
X84.582Y-61.468
X87.122Y-46.101
X87.122Y-48.641
X87.122Y-51.181
X87.122Y-53.721
X87.122Y-56.261
X87.122Y-58.801
X87.122Y-61.468
X97.023Y-130.18
X98.298Y-130.937
X101.092Y-131.572
X102.006Y-89.916
X102.921Y-87.528
X108.915Y-85.039
X110.439Y-88.748
X113.9Y-92.414
X125.864Y-107.449
X127.737Y-107.569
X128.651Y-108.839
X132.639Y-78.842
X132.639Y-102.514
X135.179Y-81.382
X135.179Y-104.699
X137.719Y-83.769
X137.719Y-103.581
X140.259Y-106.274
X150.409Y-85.049
X151.638Y-87.478
X151.656Y-92.169
X152.959Y-80.061
X155.448Y-82.55
X156.769Y-93.624
X157.988Y-100.838
X166.421Y-84.582
X166.472Y-89.436
X171.196Y-84.582
X171.196Y-89.459
X173.431Y-84.582
X173.431Y-89.459
X173.838Y-114.427
X179.426Y-63.144
X185.776Y-67.462
X186.792Y-100.178
T3
X98.178Y-55.446
X98.793Y-57.91
X99.407Y-60.375
X99.441Y-86.654
X99.441Y-91.654
X99.914Y-95.997
X99.914Y-98.537
X99.914Y-101.077
X99.914Y-103.617
X99.914Y-106.157
X99.914Y-108.697
X99.914Y-111.237
X99.914Y-113.777
X100.022Y-62.839
X100.636Y-65.304
X101.25Y-67.768
X101.865Y-70.233
X102.479Y-72.698
X102.713Y-125.364
X102.713Y-132.984
X102.819Y-135.473
X102.819Y-140.473
X103.094Y-75.162
X103.708Y-77.627
X104.323Y-80.091
X104.937Y-82.556
X105.253Y-125.364
X105.253Y-132.984
X105.552Y-85.02
X106.166Y-87.485
X106.781Y-89.949
X107.395Y-92.414
X107.534Y-95.997
X107.534Y-98.537
X107.534Y-101.077
X107.534Y-103.617
X107.534Y-106.157
X107.534Y-108.697
X107.534Y-111.237
X107.534Y-113.777
X107.793Y-125.364
X107.793Y-132.984
X107.99Y-47.346
X110.333Y-125.364
X110.333Y-132.984
X111.953Y-95.997
X111.953Y-98.537
X111.953Y-101.077
X111.953Y-103.617
X111.953Y-106.157
X111.953Y-108.697
X111.953Y-111.237
X111.953Y-113.777
X112.873Y-125.364
X112.873Y-132.984
X112.965Y-51.759
X112.99Y-47.346
X113.58Y-54.223
X114.194Y-56.688
X114.809Y-59.152
X115.413Y-125.364
X115.413Y-132.984
X115.423Y-61.617
X116.038Y-64.082
X116.652Y-66.546
X117.267Y-69.011
X117.881Y-71.475
X117.953Y-125.364
X117.953Y-132.984
X118.496Y-73.94
X118.859Y-57.91
X119.11Y-76.404
X119.473Y-60.375
X119.573Y-95.997
X119.573Y-98.537
X119.573Y-101.077
X119.573Y-103.617
X119.573Y-106.157
X119.573Y-108.697
X119.573Y-111.237
X119.573Y-113.777
X119.725Y-78.869
X119.801Y-92.862
X120.088Y-62.839
X120.339Y-81.333
X120.702Y-65.304
X120.954Y-83.798
X121.316Y-67.768
X121.568Y-86.263
X121.931Y-70.233
X122.183Y-88.727
X122.545Y-72.698
X123.16Y-75.162
X123.647Y-109.666
X123.647Y-114.666
X123.774Y-77.627
X124.389Y-80.091
X124.801Y-92.862
X125.003Y-82.556
X125.618Y-85.02
X126.232Y-87.485
X126.847Y-89.949
X127.461Y-92.414
X127.549Y-95.956
X127.549Y-111.196
X128.107Y-47.244
X130.089Y-95.956
X130.089Y-111.196
X132.629Y-95.956
X132.629Y-111.196
X133.031Y-51.759
X133.107Y-47.244
X133.646Y-54.223
X134.26Y-56.688
X134.875Y-59.152
X135.169Y-95.956
X135.169Y-111.196
X135.489Y-61.617
X136.104Y-64.082
X136.718Y-66.546
X137.211Y-129.63
X137.211Y-134.53
X137.333Y-69.011
X137.709Y-95.956
X137.709Y-111.196
X137.719Y-113.995
X137.719Y-124.155
X137.947Y-71.475
X138.562Y-73.94
X139.176Y-76.404
X139.791Y-78.869
X139.892Y-60.358
X140.249Y-95.956
X140.249Y-111.196
X140.405Y-81.333
X140.507Y-62.823
X141.02Y-83.798
X141.121Y-65.287
X141.634Y-86.263
X141.736Y-67.752
X142.249Y-88.727
X142.35Y-70.217
X142.789Y-95.956
X142.789Y-111.196
X142.965Y-72.681
X143.002Y-128.016
X143.002Y-134.518
X143.579Y-75.146
X144.194Y-77.61
X144.808Y-80.075
X145.329Y-95.956
X145.329Y-111.196
X145.423Y-82.539
X146.037Y-85.004
X146.651Y-87.468
X147.266Y-89.933
X147.422Y-114.935
X147.422Y-125.095
X147.869Y-95.956
X147.869Y-111.196
X147.88Y-92.398
X149.748Y-47.244
X150.368Y-114.935
X150.368Y-125.095
X150.409Y-95.956
X150.409Y-111.196
X152.949Y-95.956
X152.949Y-111.196
X153.162Y-128.016
X153.162Y-134.518
X153.365Y-114.935
X153.365Y-125.095
X154.679Y-56.671
X154.748Y-47.244
X155.294Y-59.136
X155.489Y-95.956
X155.489Y-111.196
X155.908Y-61.601
X156.523Y-64.065
X157.137Y-66.53
X157.226Y-131.663
X157.226Y-136.663
X157.752Y-68.994
X158.029Y-95.956
X158.029Y-111.196
X158.366Y-71.459
X158.981Y-73.923
X159.595Y-76.388
X160.21Y-78.852
X160.569Y-95.956
X160.569Y-111.196
X160.824Y-81.317
X161.336Y-130.089
X161.336Y-137.709
X161.439Y-83.782
X162.053Y-86.246
X162.668Y-88.711
X163.271Y-94.721
X163.271Y-98.271
X163.271Y-101.821
X163.271Y-105.371
X163.271Y-108.921
X163.271Y-112.471
X163.876Y-130.089
X163.876Y-137.709
X166.416Y-130.089
X166.416Y-137.709
X168.087Y-59.126
X168.087Y-61.666
X168.087Y-64.206
X168.087Y-66.746
X168.087Y-69.286
X168.087Y-71.826
X168.087Y-74.366
X168.087Y-76.906
X168.087Y-79.446
X168.087Y-81.986
X168.956Y-130.089
X168.956Y-137.709
X171.496Y-130.089
X171.496Y-137.709
X173.431Y-94.721
X173.431Y-98.271
X173.431Y-101.821
X173.431Y-105.371
X173.431Y-108.921
X173.431Y-112.471
X174.036Y-130.089
X174.036Y-137.709
X175.707Y-59.126
X175.707Y-61.666
X175.707Y-64.206
X175.707Y-66.746
X175.707Y-69.286
X175.707Y-71.826
X175.707Y-74.366
X175.707Y-76.906
X175.707Y-79.446
X175.707Y-81.986
X176.576Y-130.089
X176.576Y-137.709
X177.546Y-47.792
X177.546Y-52.792
T4
X118.244Y-55.446
T5
X84.455Y-96.901
X84.455Y-99.441
X84.455Y-101.981
X84.455Y-104.521
X84.455Y-107.061
X84.455Y-109.601
X84.455Y-112.141
X84.455Y-114.681
X84.455Y-117.221
X84.455Y-119.761
X84.455Y-122.301
X84.455Y-124.841
X84.455Y-127.381
X84.455Y-129.921
X84.455Y-132.461
X84.455Y-135.001
X84.455Y-137.541
X86.995Y-96.901
X86.995Y-99.441
X86.995Y-101.981
X86.995Y-104.521
X86.995Y-107.061
X86.995Y-109.601
X86.995Y-112.141
X86.995Y-114.681
X86.995Y-117.221
X86.995Y-119.761
X86.995Y-122.301
X86.995Y-124.841
X86.995Y-127.381
X86.995Y-129.921
X86.995Y-132.461
X86.995Y-135.001
X86.995Y-137.541
X181.941Y-53.092
X181.941Y-55.632
X181.941Y-58.172
X181.941Y-60.712
X181.941Y-63.252
X181.941Y-65.792
X181.941Y-68.332
X181.941Y-70.872
X181.941Y-73.412
X181.941Y-75.952
X181.941Y-78.492
X181.941Y-81.032
X181.941Y-83.572
X181.941Y-86.112
X181.941Y-88.652
X181.941Y-91.192
X181.941Y-93.732
X181.941Y-96.272
X181.941Y-98.812
X181.941Y-101.352
X181.941Y-103.892
X181.941Y-106.432
X181.941Y-108.972
X181.941Y-111.512
X181.941Y-114.052
X181.941Y-116.592
X181.941Y-119.132
X181.941Y-121.672
X181.941Y-124.212
X181.941Y-126.752
X181.941Y-129.292
X181.941Y-131.832
X184.481Y-53.092
X184.481Y-55.632
X184.481Y-58.172
X184.481Y-60.712
X184.481Y-63.252
X184.481Y-65.792
X184.481Y-68.332
X184.481Y-70.872
X184.481Y-73.412
X184.481Y-75.952
X184.481Y-78.492
X184.481Y-81.032
X184.481Y-83.572
X184.481Y-86.112
X184.481Y-88.652
X184.481Y-91.192
X184.481Y-93.732
X184.481Y-96.272
X184.481Y-98.812
X184.481Y-101.352
X184.481Y-103.892
X184.481Y-106.432
X184.481Y-108.972
X184.481Y-111.512
X184.481Y-114.052
X184.481Y-116.592
X184.481Y-119.132
X184.481Y-121.672
X184.481Y-124.212
X184.481Y-126.752
X184.481Y-129.292
X184.481Y-131.832
T6
X93.251Y-47.346
X93.251Y-49.886
X93.251Y-52.426
T7
X75.887Y-67.152
X75.887Y-74.487
X75.887Y-81.822
X75.938Y-59.856
X75.988Y-89.269
X93.887Y-67.152
X93.887Y-74.487
X93.887Y-81.822
X93.938Y-59.856
X93.988Y-89.269
M30
