%TF.GenerationSoftware,KiCad,Pcbnew,9.0.0*%
%TF.CreationDate,2025-03-11T15:51:22-04:00*%
%TF.ProjectId,BidenCard,42696465-6e43-4617-9264-2e6b69636164,rev?*%
%TF.SameCoordinates,Original*%
%TF.FileFunction,Legend,Bot*%
%TF.FilePolarity,Positive*%
%FSLAX46Y46*%
G04 Gerber Fmt 4.6, Leading zero omitted, Abs format (unit mm)*
G04 Created by KiCad (PCBNEW 9.0.0) date 2025-03-11 15:51:22*
%MOMM*%
%LPD*%
G01*
G04 APERTURE LIST*
%ADD10C,0.200000*%
%ADD11C,0.150000*%
G04 APERTURE END LIST*
D10*
G36*
X80056095Y-140555827D02*
G01*
X80085122Y-140562448D01*
X80105004Y-140571296D01*
X80122029Y-140583693D01*
X80134619Y-140597985D01*
X80144623Y-140615571D01*
X80156255Y-140661331D01*
X80157632Y-140688221D01*
X80157632Y-141466745D01*
X80155712Y-141490544D01*
X80150092Y-141512136D01*
X80141261Y-141530798D01*
X80129308Y-141546900D01*
X80114702Y-141560012D01*
X80097445Y-141570212D01*
X80055554Y-141581013D01*
X80042838Y-141581539D01*
X80019000Y-141579625D01*
X79997489Y-141574041D01*
X79978893Y-141565259D01*
X79962898Y-141553419D01*
X79939587Y-141521752D01*
X79928628Y-141480087D01*
X79928043Y-141466745D01*
X79928043Y-141171211D01*
X79701264Y-141171211D01*
X79667677Y-141173194D01*
X79638901Y-141179261D01*
X79617955Y-141187774D01*
X79600064Y-141199481D01*
X79573858Y-141230766D01*
X79555775Y-141277560D01*
X79545183Y-141350147D01*
X79543056Y-141419117D01*
X79539289Y-141463151D01*
X79532541Y-141490783D01*
X79520737Y-141518694D01*
X79507522Y-141538530D01*
X79489988Y-141555877D01*
X79472117Y-141567364D01*
X79450665Y-141575828D01*
X79407257Y-141581539D01*
X79365301Y-141574099D01*
X79345467Y-141564845D01*
X79328095Y-141552316D01*
X79314833Y-141537867D01*
X79305259Y-141521070D01*
X79299423Y-141491963D01*
X79305725Y-141449607D01*
X79309847Y-141433546D01*
X79323409Y-141372865D01*
X79328328Y-141333023D01*
X79330259Y-141284662D01*
X79332626Y-141232509D01*
X79341377Y-141185179D01*
X79351009Y-141159186D01*
X79364573Y-141136057D01*
X79379389Y-141119172D01*
X79397711Y-141104808D01*
X79418491Y-141093791D01*
X79442970Y-141085415D01*
X79468867Y-141080230D01*
X79468867Y-141077422D01*
X79417350Y-141057910D01*
X79372505Y-141024973D01*
X79335643Y-140979190D01*
X79309222Y-140922102D01*
X79298089Y-140866701D01*
X79524860Y-140866701D01*
X79526757Y-140894317D01*
X79532224Y-140918082D01*
X79540585Y-140937650D01*
X79551660Y-140954113D01*
X79581753Y-140979294D01*
X79624292Y-140995687D01*
X79683099Y-141002983D01*
X79698455Y-141003233D01*
X79928043Y-141003233D01*
X79928043Y-140730169D01*
X79691433Y-140730169D01*
X79647970Y-140732307D01*
X79610022Y-140739452D01*
X79586521Y-140748294D01*
X79566443Y-140760697D01*
X79552218Y-140774380D01*
X79540802Y-140791196D01*
X79527269Y-140833370D01*
X79524860Y-140866701D01*
X79298089Y-140866701D01*
X79296213Y-140857366D01*
X79295271Y-140834339D01*
X79297333Y-140796869D01*
X79303950Y-140759231D01*
X79313852Y-140727184D01*
X79328070Y-140696211D01*
X79344687Y-140670006D01*
X79365348Y-140645482D01*
X79388336Y-140624619D01*
X79415276Y-140605844D01*
X79445135Y-140590044D01*
X79479077Y-140576738D01*
X79516932Y-140566289D01*
X79559201Y-140558828D01*
X79641058Y-140553765D01*
X80023237Y-140553765D01*
X80056095Y-140555827D01*
G37*
G36*
X78835873Y-140813618D02*
G01*
X78878608Y-140819331D01*
X78918109Y-140828500D01*
X78955086Y-140841073D01*
X78989048Y-140856706D01*
X79020417Y-140875422D01*
X79048998Y-140896994D01*
X79074880Y-140921390D01*
X79118482Y-140978507D01*
X79150769Y-141046677D01*
X79170756Y-141125927D01*
X79177058Y-141208946D01*
X79175071Y-141250890D01*
X79168979Y-141292765D01*
X79159233Y-141331871D01*
X79145451Y-141369890D01*
X79128804Y-141403945D01*
X79108361Y-141436214D01*
X79085699Y-141464404D01*
X79059489Y-141490350D01*
X79031277Y-141512565D01*
X78999684Y-141532186D01*
X78965880Y-141548406D01*
X78928749Y-141561692D01*
X78888898Y-141571651D01*
X78845663Y-141578284D01*
X78783644Y-141581539D01*
X78697443Y-141573640D01*
X78650922Y-141563473D01*
X78605320Y-141549073D01*
X78567680Y-141532890D01*
X78533746Y-141513351D01*
X78509391Y-141494548D01*
X78489358Y-141473375D01*
X78476424Y-141453681D01*
X78467604Y-141432272D01*
X78463075Y-141400799D01*
X78470465Y-141369563D01*
X78480038Y-141353936D01*
X78493013Y-141340303D01*
X78508495Y-141329813D01*
X78526443Y-141322861D01*
X78547094Y-141320260D01*
X78565447Y-141322110D01*
X78581355Y-141327242D01*
X78611811Y-141347410D01*
X78625394Y-141359421D01*
X78651021Y-141381289D01*
X78683094Y-141401452D01*
X78725879Y-141416242D01*
X78783644Y-141421987D01*
X78814808Y-141420070D01*
X78843461Y-141414467D01*
X78869149Y-141405554D01*
X78892215Y-141393489D01*
X78930021Y-141360862D01*
X78956576Y-141317638D01*
X78970777Y-141264507D01*
X78972688Y-141234103D01*
X78510641Y-141234103D01*
X78476649Y-141231922D01*
X78451794Y-141224468D01*
X78440201Y-141216318D01*
X78431615Y-141205104D01*
X78422418Y-141172760D01*
X78421065Y-141145932D01*
X78424335Y-141116501D01*
X78614261Y-141116501D01*
X78972688Y-141116501D01*
X78963051Y-141082775D01*
X78950087Y-141052386D01*
X78935204Y-141027594D01*
X78917481Y-141006060D01*
X78898303Y-140989035D01*
X78876616Y-140975218D01*
X78853203Y-140965050D01*
X78827419Y-140958208D01*
X78786452Y-140954506D01*
X78735882Y-140962000D01*
X78690952Y-140983768D01*
X78653810Y-141018703D01*
X78627195Y-141065112D01*
X78614261Y-141116501D01*
X78424335Y-141116501D01*
X78428790Y-141076407D01*
X78438454Y-141042210D01*
X78451893Y-141009073D01*
X78468934Y-140977506D01*
X78489572Y-140947668D01*
X78513265Y-140920385D01*
X78540293Y-140895415D01*
X78569781Y-140873613D01*
X78602314Y-140854611D01*
X78636871Y-140839079D01*
X78674203Y-140826759D01*
X78713361Y-140818078D01*
X78755069Y-140812993D01*
X78790666Y-140811685D01*
X78835873Y-140813618D01*
G37*
G36*
X78155085Y-141508693D02*
G01*
X78145325Y-141533264D01*
X78133992Y-141552168D01*
X78118330Y-141565925D01*
X78095585Y-141575058D01*
X78039431Y-141581305D01*
X78020690Y-141581539D01*
X77971640Y-141579461D01*
X77937908Y-141572734D01*
X77921976Y-141565289D01*
X77909957Y-141555220D01*
X77893064Y-141526501D01*
X77886295Y-141508693D01*
X77693038Y-140970138D01*
X77684665Y-140942607D01*
X77680460Y-140918236D01*
X77682338Y-140894894D01*
X77687666Y-140874545D01*
X77707114Y-140842337D01*
X77736660Y-140820985D01*
X77774097Y-140811841D01*
X77779867Y-140811685D01*
X77801387Y-140813530D01*
X77819693Y-140818625D01*
X77849054Y-140837174D01*
X77870066Y-140865442D01*
X77882082Y-140897232D01*
X78019286Y-141360011D01*
X78022033Y-141360011D01*
X78159237Y-140897232D01*
X78166750Y-140874978D01*
X78183577Y-140846559D01*
X78196755Y-140833198D01*
X78213788Y-140822090D01*
X78235184Y-140814497D01*
X78261452Y-140811685D01*
X78281857Y-140813655D01*
X78301582Y-140819622D01*
X78318879Y-140829042D01*
X78334106Y-140842207D01*
X78345656Y-140857657D01*
X78354315Y-140876389D01*
X78360859Y-140918236D01*
X78354962Y-140948744D01*
X78348281Y-140970138D01*
X78155085Y-141508693D01*
G37*
G36*
X77578733Y-141479262D02*
G01*
X77576606Y-141506399D01*
X77569532Y-141531104D01*
X77560346Y-141547325D01*
X77547348Y-141560985D01*
X77532437Y-141570466D01*
X77513948Y-141577231D01*
X77476578Y-141581539D01*
X77450879Y-141579650D01*
X77429554Y-141574243D01*
X77413031Y-141566196D01*
X77399869Y-141555657D01*
X77382144Y-141527592D01*
X77374568Y-141488138D01*
X77374362Y-141479262D01*
X77374362Y-140914023D01*
X77376490Y-140886860D01*
X77383565Y-140862138D01*
X77392750Y-140845915D01*
X77405747Y-140832254D01*
X77420657Y-140822771D01*
X77439146Y-140816003D01*
X77476578Y-140811685D01*
X77502258Y-140813575D01*
X77523569Y-140818983D01*
X77540080Y-140827030D01*
X77553235Y-140837572D01*
X77570952Y-140865650D01*
X77578527Y-140905138D01*
X77578733Y-140914023D01*
X77578733Y-141479262D01*
G37*
G36*
X77582946Y-140636747D02*
G01*
X77575596Y-140675728D01*
X77554245Y-140709496D01*
X77538930Y-140723006D01*
X77521207Y-140733398D01*
X77501867Y-140740155D01*
X77481020Y-140743084D01*
X77476578Y-140743175D01*
X77437620Y-140735826D01*
X77403858Y-140714473D01*
X77390343Y-140699153D01*
X77379945Y-140681424D01*
X77373179Y-140662077D01*
X77370242Y-140641225D01*
X77370149Y-140636747D01*
X77377499Y-140597789D01*
X77398851Y-140564026D01*
X77414172Y-140550511D01*
X77431901Y-140540113D01*
X77451248Y-140533347D01*
X77472099Y-140530410D01*
X77476578Y-140530318D01*
X77515527Y-140537667D01*
X77549266Y-140559016D01*
X77562770Y-140574335D01*
X77573159Y-140592063D01*
X77579920Y-140611416D01*
X77582854Y-140632274D01*
X77582946Y-140636747D01*
G37*
G36*
X77233312Y-141040114D02*
G01*
X77231397Y-141072937D01*
X77225808Y-141102265D01*
X77217105Y-141127583D01*
X77205383Y-141150068D01*
X77173027Y-141188055D01*
X77126763Y-141219223D01*
X77061363Y-141245370D01*
X77021920Y-141256269D01*
X76901508Y-141285761D01*
X76890817Y-141288429D01*
X76846076Y-141300334D01*
X76812440Y-141314098D01*
X76800210Y-141323017D01*
X76791265Y-141334007D01*
X76785773Y-141347605D01*
X76783905Y-141364346D01*
X76791458Y-141392390D01*
X76813909Y-141415893D01*
X76852627Y-141432821D01*
X76902913Y-141438779D01*
X76933353Y-141436919D01*
X76959872Y-141431711D01*
X77004777Y-141412512D01*
X77044360Y-141381499D01*
X77062952Y-141362991D01*
X77102385Y-141327645D01*
X77124584Y-141316565D01*
X77150697Y-141312444D01*
X77170942Y-141314324D01*
X77188185Y-141319668D01*
X77213917Y-141338877D01*
X77229327Y-141368539D01*
X77233312Y-141398051D01*
X77225768Y-141436362D01*
X77202624Y-141473863D01*
X77161653Y-141510258D01*
X77100741Y-141543111D01*
X77020632Y-141568145D01*
X76974735Y-141576246D01*
X76926394Y-141580717D01*
X76894547Y-141581539D01*
X76851996Y-141579575D01*
X76809878Y-141573643D01*
X76770323Y-141564085D01*
X76732611Y-141550710D01*
X76699939Y-141534870D01*
X76670018Y-141515667D01*
X76645626Y-141495206D01*
X76624410Y-141471885D01*
X76608062Y-141447879D01*
X76595093Y-141421401D01*
X76586237Y-141394074D01*
X76580974Y-141364495D01*
X76579535Y-141337724D01*
X76581437Y-141309580D01*
X76586936Y-141283949D01*
X76607771Y-141239233D01*
X76641834Y-141201011D01*
X76691060Y-141167877D01*
X76758854Y-141139443D01*
X76834341Y-141118760D01*
X76919704Y-141099098D01*
X76963357Y-141088477D01*
X76997954Y-141075224D01*
X77020735Y-141055650D01*
X77026833Y-141042341D01*
X77028942Y-141026070D01*
X77027023Y-141011587D01*
X77021408Y-140999077D01*
X77000172Y-140979936D01*
X76961739Y-140967029D01*
X76911339Y-140962933D01*
X76881673Y-140964778D01*
X76856543Y-140969881D01*
X76815435Y-140988291D01*
X76777865Y-141018327D01*
X76743596Y-141045300D01*
X76723756Y-141053799D01*
X76699947Y-141056966D01*
X76681085Y-141055083D01*
X76664305Y-141049713D01*
X76636890Y-141029512D01*
X76619302Y-140998132D01*
X76614523Y-140967146D01*
X76622000Y-140932525D01*
X76644756Y-140899726D01*
X76685567Y-140868260D01*
X76747682Y-140840069D01*
X76830726Y-140819462D01*
X76878233Y-140813663D01*
X76926726Y-140811685D01*
X76970895Y-140813687D01*
X77015338Y-140819880D01*
X77055582Y-140829577D01*
X77094037Y-140843320D01*
X77125729Y-140859000D01*
X77154599Y-140878164D01*
X77177204Y-140898103D01*
X77196627Y-140920984D01*
X77211120Y-140944400D01*
X77222265Y-140970411D01*
X77229417Y-140997496D01*
X77232966Y-141027045D01*
X77233312Y-141040114D01*
G37*
G36*
X76438607Y-141479262D02*
G01*
X76436480Y-141506399D01*
X76429407Y-141531104D01*
X76420221Y-141547325D01*
X76407222Y-141560985D01*
X76392311Y-141570466D01*
X76373822Y-141577231D01*
X76336452Y-141581539D01*
X76310753Y-141579650D01*
X76289428Y-141574243D01*
X76272905Y-141566196D01*
X76259743Y-141555657D01*
X76242019Y-141527592D01*
X76234443Y-141488138D01*
X76234237Y-141479262D01*
X76234237Y-140914023D01*
X76236364Y-140886860D01*
X76243439Y-140862138D01*
X76252625Y-140845915D01*
X76265621Y-140832254D01*
X76280532Y-140822771D01*
X76299021Y-140816003D01*
X76336452Y-140811685D01*
X76362133Y-140813575D01*
X76383443Y-140818983D01*
X76399955Y-140827030D01*
X76413109Y-140837572D01*
X76430826Y-140865650D01*
X76438401Y-140905138D01*
X76438607Y-140914023D01*
X76438607Y-141479262D01*
G37*
G36*
X76442820Y-140636747D02*
G01*
X76435470Y-140675728D01*
X76414119Y-140709496D01*
X76398804Y-140723006D01*
X76381081Y-140733398D01*
X76361741Y-140740155D01*
X76340895Y-140743084D01*
X76336452Y-140743175D01*
X76297495Y-140735826D01*
X76263732Y-140714473D01*
X76250217Y-140699153D01*
X76239819Y-140681424D01*
X76233053Y-140662077D01*
X76230116Y-140641225D01*
X76230024Y-140636747D01*
X76237373Y-140597789D01*
X76258726Y-140564026D01*
X76274046Y-140550511D01*
X76291775Y-140540113D01*
X76311122Y-140533347D01*
X76331974Y-140530410D01*
X76336452Y-140530318D01*
X76375402Y-140537667D01*
X76409140Y-140559016D01*
X76422644Y-140574335D01*
X76433033Y-140592063D01*
X76439794Y-140611416D01*
X76442728Y-140632274D01*
X76442820Y-140636747D01*
G37*
G36*
X75758494Y-140813610D02*
G01*
X75800478Y-140819270D01*
X75839335Y-140828372D01*
X75875509Y-140840791D01*
X75908878Y-140856306D01*
X75939533Y-140874785D01*
X75992955Y-140920332D01*
X76035741Y-140976970D01*
X76067283Y-141044430D01*
X76086412Y-141122266D01*
X76091782Y-141195941D01*
X76089786Y-141245155D01*
X76083628Y-141292914D01*
X76074157Y-141334824D01*
X76060813Y-141374728D01*
X76045028Y-141409196D01*
X76025682Y-141441372D01*
X76004366Y-141468988D01*
X75979722Y-141494136D01*
X75953070Y-141515566D01*
X75923194Y-141534348D01*
X75890825Y-141549934D01*
X75855190Y-141562619D01*
X75816277Y-141572197D01*
X75773921Y-141578513D01*
X75713816Y-141581539D01*
X75665544Y-141579619D01*
X75621046Y-141573994D01*
X75581043Y-141565095D01*
X75544460Y-141553031D01*
X75511474Y-141538135D01*
X75481658Y-141520502D01*
X75430718Y-141477298D01*
X75390448Y-141423374D01*
X75360598Y-141358024D01*
X75341886Y-141280389D01*
X75335789Y-141195941D01*
X75540221Y-141195941D01*
X75542200Y-141237259D01*
X75548243Y-141276616D01*
X75557425Y-141310123D01*
X75570231Y-141340732D01*
X75584795Y-141365084D01*
X75602415Y-141386226D01*
X75621029Y-141402213D01*
X75642266Y-141414916D01*
X75664711Y-141423593D01*
X75689587Y-141428819D01*
X75713816Y-141430353D01*
X75740750Y-141428442D01*
X75765237Y-141422882D01*
X75806868Y-141402001D01*
X75840441Y-141368371D01*
X75866216Y-141320975D01*
X75882720Y-141258548D01*
X75887412Y-141195941D01*
X75885445Y-141153556D01*
X75879496Y-141114096D01*
X75870512Y-141081034D01*
X75858083Y-141051237D01*
X75843825Y-141027426D01*
X75826658Y-141006898D01*
X75808248Y-140991153D01*
X75787304Y-140978663D01*
X75764818Y-140969955D01*
X75739944Y-140964647D01*
X75713816Y-140962933D01*
X75686211Y-140964852D01*
X75661100Y-140970470D01*
X75638866Y-140979371D01*
X75618973Y-140991431D01*
X75585520Y-141025014D01*
X75560249Y-141072312D01*
X75544396Y-141135178D01*
X75540221Y-141195941D01*
X75335789Y-141195941D01*
X75337738Y-141151062D01*
X75343559Y-141107866D01*
X75352913Y-141067666D01*
X75365872Y-141029528D01*
X75381826Y-140994781D01*
X75401101Y-140962394D01*
X75422910Y-140933470D01*
X75447780Y-140907149D01*
X75474940Y-140884180D01*
X75504958Y-140864040D01*
X75537284Y-140847145D01*
X75572334Y-140833332D01*
X75609921Y-140822806D01*
X75650162Y-140815671D01*
X75713816Y-140811685D01*
X75758494Y-140813610D01*
G37*
G36*
X75204204Y-141479201D02*
G01*
X75202076Y-141506364D01*
X75195001Y-141531087D01*
X75185816Y-141547310D01*
X75172819Y-141560970D01*
X75157909Y-141570454D01*
X75139420Y-141577221D01*
X75101988Y-141581539D01*
X75076289Y-141579650D01*
X75054964Y-141574242D01*
X75038443Y-141566195D01*
X75025282Y-141555655D01*
X75007559Y-141527584D01*
X74999979Y-141488110D01*
X74999772Y-141479201D01*
X74999772Y-141141047D01*
X74992484Y-141091065D01*
X74971714Y-141048201D01*
X74938770Y-141013437D01*
X74895926Y-140989423D01*
X74872270Y-140982599D01*
X74848624Y-140979794D01*
X74844373Y-140979725D01*
X74818132Y-140981638D01*
X74794997Y-140987214D01*
X74775623Y-140995812D01*
X74759036Y-141007358D01*
X74733929Y-141038653D01*
X74719057Y-141081959D01*
X74715596Y-141121446D01*
X74715596Y-141479201D01*
X74713468Y-141506364D01*
X74706393Y-141531087D01*
X74697208Y-141547310D01*
X74684211Y-141560970D01*
X74669301Y-141570454D01*
X74650812Y-141577221D01*
X74613380Y-141581539D01*
X74587681Y-141579650D01*
X74566356Y-141574242D01*
X74549835Y-141566195D01*
X74536674Y-141555655D01*
X74518951Y-141527584D01*
X74511371Y-141488110D01*
X74511165Y-141479201D01*
X74511165Y-141080719D01*
X74513069Y-141039500D01*
X74518587Y-141002349D01*
X74527259Y-140969591D01*
X74538864Y-140940447D01*
X74553189Y-140914647D01*
X74569904Y-140892163D01*
X74610877Y-140855446D01*
X74661926Y-140829433D01*
X74723278Y-140814614D01*
X74768780Y-140811685D01*
X74805827Y-140813598D01*
X74839996Y-140819167D01*
X74900525Y-140840278D01*
X74953940Y-140874576D01*
X75003337Y-140923882D01*
X75016564Y-140940524D01*
X75019373Y-140940524D01*
X75019373Y-140913901D01*
X75021356Y-140887259D01*
X75027424Y-140863962D01*
X75036009Y-140846972D01*
X75047835Y-140833009D01*
X75061555Y-140823126D01*
X75078154Y-140816183D01*
X75111758Y-140811685D01*
X75134499Y-140813600D01*
X75153841Y-140819183D01*
X75168997Y-140827552D01*
X75181329Y-140838747D01*
X75198030Y-140869353D01*
X75204204Y-140913901D01*
X75204204Y-141479201D01*
G37*
G36*
X73728244Y-141385656D02*
G01*
X73709621Y-141354770D01*
X73666413Y-141315211D01*
X73578858Y-141256883D01*
X73455242Y-141185072D01*
X73383323Y-141141326D01*
X73323675Y-141095640D01*
X73296532Y-141068437D01*
X73273379Y-141038811D01*
X73256512Y-141010444D01*
X73242854Y-140979299D01*
X73225851Y-140909701D01*
X73221440Y-140841483D01*
X73229141Y-140786724D01*
X73252880Y-140730630D01*
X73270889Y-140703281D01*
X73292759Y-140677280D01*
X73318297Y-140653103D01*
X73347469Y-140631059D01*
X73379483Y-140611906D01*
X73414796Y-140595551D01*
X73452191Y-140582690D01*
X73492526Y-140573167D01*
X73534173Y-140567459D01*
X73578401Y-140565489D01*
X73663097Y-140573051D01*
X73703738Y-140582412D01*
X73742341Y-140595227D01*
X73778763Y-140611371D01*
X73812540Y-140630594D01*
X73843013Y-140652401D01*
X73870336Y-140676819D01*
X73893605Y-140702869D01*
X73913368Y-140731022D01*
X73928840Y-140759948D01*
X73940589Y-140790496D01*
X73948167Y-140821302D01*
X73951867Y-140853323D01*
X73952215Y-140866762D01*
X73950317Y-140890137D01*
X73944851Y-140909716D01*
X73936655Y-140925023D01*
X73925831Y-140937315D01*
X73896361Y-140954037D01*
X73853962Y-140960696D01*
X73849999Y-140960735D01*
X73826395Y-140958787D01*
X73807558Y-140952965D01*
X73794450Y-140944779D01*
X73783863Y-140933710D01*
X73767165Y-140899973D01*
X73761827Y-140882211D01*
X73749932Y-140846159D01*
X73735662Y-140815854D01*
X73720585Y-140792928D01*
X73703535Y-140774191D01*
X73665116Y-140748877D01*
X73617343Y-140735808D01*
X73581210Y-140733528D01*
X73555340Y-140735467D01*
X73530567Y-140741228D01*
X73507861Y-140750511D01*
X73487266Y-140763309D01*
X73470125Y-140778654D01*
X73455812Y-140797030D01*
X73445269Y-140817166D01*
X73438046Y-140839898D01*
X73434237Y-140875189D01*
X73436248Y-140906348D01*
X73442513Y-140933436D01*
X73451535Y-140954232D01*
X73464156Y-140973495D01*
X73503342Y-141011946D01*
X73579702Y-141064586D01*
X73627834Y-141094692D01*
X73696004Y-141137383D01*
X73754566Y-141176765D01*
X73805800Y-141216030D01*
X73846981Y-141252458D01*
X73881760Y-141288595D01*
X73908219Y-141321682D01*
X73929180Y-141354369D01*
X73943662Y-141384173D01*
X73953430Y-141413517D01*
X73959237Y-141458441D01*
X73957245Y-141479045D01*
X73951122Y-141499330D01*
X73941523Y-141517054D01*
X73927976Y-141532877D01*
X73912181Y-141544893D01*
X73892879Y-141554137D01*
X73871338Y-141559796D01*
X73846446Y-141561988D01*
X73844443Y-141562000D01*
X73319443Y-141562000D01*
X73290364Y-141559993D01*
X73265552Y-141553760D01*
X73248716Y-141545327D01*
X73235140Y-141533699D01*
X73225862Y-141520348D01*
X73219521Y-141504140D01*
X73215823Y-141473828D01*
X73217723Y-141451320D01*
X73223206Y-141432423D01*
X73231432Y-141417678D01*
X73242318Y-141405900D01*
X73271882Y-141390409D01*
X73308207Y-141385656D01*
X73728244Y-141385656D01*
G37*
D11*
G36*
X187517676Y-140556471D02*
G01*
X187566056Y-140544029D01*
X187617624Y-140524458D01*
X187660214Y-140490800D01*
X187674480Y-140446073D01*
X187663622Y-140397415D01*
X187631768Y-140359428D01*
X187587517Y-140336994D01*
X187537994Y-140327183D01*
X187509371Y-140325905D01*
X187454994Y-140329643D01*
X187398591Y-140344444D01*
X187348032Y-140373742D01*
X187311951Y-140408576D01*
X187276167Y-140447941D01*
X187226798Y-140475394D01*
X187208220Y-140477092D01*
X187159077Y-140467451D01*
X187118882Y-140436059D01*
X187103196Y-140385256D01*
X187112634Y-140336340D01*
X187139046Y-140291410D01*
X187179574Y-140251249D01*
X187231362Y-140216637D01*
X187275874Y-140194791D01*
X187323908Y-140176835D01*
X187374259Y-140163100D01*
X187425721Y-140153916D01*
X187477090Y-140149611D01*
X187493984Y-140149318D01*
X187548824Y-140151580D01*
X187603257Y-140158557D01*
X187656194Y-140170533D01*
X187706547Y-140187790D01*
X187753226Y-140210613D01*
X187795141Y-140239286D01*
X187831204Y-140274092D01*
X187860326Y-140315315D01*
X187881416Y-140363239D01*
X187893387Y-140418147D01*
X187895764Y-140458773D01*
X187892484Y-140510090D01*
X187880618Y-140560856D01*
X187857124Y-140609484D01*
X187818961Y-140654387D01*
X187775825Y-140686560D01*
X187719798Y-140714520D01*
X187668381Y-140732237D01*
X187649323Y-140737454D01*
X187390181Y-140803889D01*
X187341802Y-140823062D01*
X187304550Y-140859912D01*
X187292240Y-140909890D01*
X187304402Y-140959563D01*
X187340081Y-141002641D01*
X187389636Y-141030101D01*
X187445086Y-141042764D01*
X187477131Y-141044468D01*
X187535837Y-141039922D01*
X187596030Y-141021916D01*
X187640077Y-140994212D01*
X187679945Y-140952510D01*
X187711923Y-140910808D01*
X187753447Y-140872620D01*
X187801974Y-140860553D01*
X187853177Y-140873666D01*
X187887340Y-140909356D01*
X187898450Y-140956785D01*
X187888798Y-141010225D01*
X187866873Y-141053951D01*
X187831932Y-141096241D01*
X187783614Y-141134973D01*
X187738381Y-141160408D01*
X187685268Y-141181750D01*
X187624123Y-141198104D01*
X187554795Y-141208574D01*
X187503955Y-141211842D01*
X187477131Y-141212263D01*
X187426793Y-141210693D01*
X187357427Y-141202653D01*
X187295419Y-141188178D01*
X187240755Y-141167704D01*
X187193423Y-141141668D01*
X187153410Y-141110504D01*
X187111420Y-141061731D01*
X187082384Y-141005651D01*
X187066273Y-140943297D01*
X187062651Y-140893037D01*
X187066946Y-140837184D01*
X187081411Y-140782209D01*
X187108416Y-140730062D01*
X187140641Y-140691692D01*
X187183623Y-140657381D01*
X187238574Y-140628126D01*
X187288373Y-140610104D01*
X187325945Y-140600190D01*
X187517676Y-140556471D01*
G37*
G36*
X186909267Y-141094782D02*
G01*
X186899892Y-141146802D01*
X186866134Y-141183979D01*
X186814472Y-141196493D01*
X186807173Y-141196631D01*
X186757489Y-141188376D01*
X186718303Y-141154953D01*
X186705107Y-141104901D01*
X186704836Y-141094782D01*
X186704836Y-140532779D01*
X186714220Y-140480692D01*
X186748047Y-140443394D01*
X186799853Y-140430824D01*
X186807173Y-140430685D01*
X186856716Y-140438978D01*
X186895816Y-140472519D01*
X186908995Y-140522657D01*
X186909267Y-140532779D01*
X186909267Y-141094782D01*
G37*
G36*
X186913419Y-140255808D02*
G01*
X186900584Y-140306589D01*
X186866550Y-140344124D01*
X186818026Y-140361748D01*
X186807173Y-140362297D01*
X186756392Y-140349455D01*
X186718857Y-140315369D01*
X186701233Y-140266704D01*
X186700683Y-140255808D01*
X186713526Y-140205026D01*
X186747612Y-140167491D01*
X186796277Y-140149867D01*
X186807173Y-140149318D01*
X186857790Y-140162160D01*
X186895258Y-140196246D01*
X186912870Y-140244911D01*
X186913419Y-140255808D01*
G37*
G36*
X186531667Y-141094782D02*
G01*
X186522293Y-141146802D01*
X186488535Y-141183979D01*
X186436872Y-141196493D01*
X186429574Y-141196631D01*
X186379889Y-141188376D01*
X186340703Y-141154953D01*
X186327508Y-141104901D01*
X186327236Y-141094782D01*
X186327236Y-140759192D01*
X186319012Y-140706563D01*
X186292121Y-140657499D01*
X186252389Y-140622643D01*
X186205890Y-140602959D01*
X186171898Y-140598725D01*
X186120768Y-140606774D01*
X186078461Y-140633767D01*
X186052763Y-140676603D01*
X186043057Y-140732007D01*
X186042937Y-140739653D01*
X186042937Y-141094782D01*
X186033620Y-141146802D01*
X185999913Y-141183979D01*
X185948164Y-141196493D01*
X185940844Y-141196631D01*
X185891160Y-141188376D01*
X185851973Y-141154953D01*
X185838778Y-141104901D01*
X185838506Y-141094782D01*
X185838506Y-140699108D01*
X185841934Y-140644744D01*
X185856297Y-140583430D01*
X185880280Y-140533992D01*
X185912174Y-140495456D01*
X185960556Y-140461134D01*
X186015280Y-140440425D01*
X186073003Y-140431430D01*
X186096182Y-140430685D01*
X186147698Y-140434468D01*
X186202205Y-140448310D01*
X186249674Y-140471153D01*
X186291101Y-140501778D01*
X186327481Y-140538969D01*
X186344089Y-140559646D01*
X186346775Y-140559646D01*
X186346775Y-140533023D01*
X186355258Y-140482014D01*
X186389302Y-140442024D01*
X186439344Y-140430685D01*
X186489220Y-140442024D01*
X186523192Y-140482014D01*
X186531667Y-140533023D01*
X186531667Y-141094782D01*
G37*
G36*
X185716140Y-140828313D02*
G01*
X185712986Y-140886613D01*
X185703479Y-140941391D01*
X185687552Y-140992162D01*
X185665136Y-141038446D01*
X185636164Y-141079757D01*
X185600568Y-141115614D01*
X185558282Y-141145533D01*
X185509236Y-141169032D01*
X185453364Y-141185626D01*
X185390599Y-141194835D01*
X185344891Y-141196631D01*
X185288749Y-141193514D01*
X185238312Y-141184682D01*
X185179867Y-141165352D01*
X185131399Y-141139076D01*
X185092812Y-141107691D01*
X185058331Y-141064075D01*
X185038959Y-141018936D01*
X185034214Y-140984140D01*
X185052181Y-140935713D01*
X185096730Y-140908848D01*
X185119699Y-140906226D01*
X185167739Y-140918308D01*
X185203334Y-140953489D01*
X185235576Y-140995718D01*
X185275405Y-141025059D01*
X185326622Y-141036765D01*
X185339518Y-141037140D01*
X185388146Y-141031272D01*
X185436251Y-141009567D01*
X185472848Y-140973260D01*
X185497589Y-140923830D01*
X185508898Y-140873680D01*
X185511709Y-140828313D01*
X185507523Y-140765357D01*
X185495807Y-140713656D01*
X185472494Y-140663513D01*
X185435062Y-140622310D01*
X185391337Y-140598992D01*
X185338053Y-140590420D01*
X185281262Y-140598273D01*
X185238199Y-140623123D01*
X185206881Y-140661421D01*
X185171944Y-140699055D01*
X185129469Y-140710099D01*
X185080444Y-140699719D01*
X185043749Y-140664767D01*
X185034214Y-140622416D01*
X185047085Y-140569441D01*
X185075931Y-140527829D01*
X185119211Y-140490922D01*
X185162943Y-140466299D01*
X185213710Y-140447283D01*
X185270534Y-140435027D01*
X185332435Y-140430685D01*
X185399804Y-140434929D01*
X185460900Y-140447351D01*
X185515646Y-140467485D01*
X185563966Y-140494866D01*
X185605781Y-140529031D01*
X185641014Y-140569514D01*
X185669588Y-140615850D01*
X185691426Y-140667574D01*
X185706451Y-140724222D01*
X185714584Y-140785328D01*
X185716140Y-140828313D01*
G37*
G36*
X184914291Y-141094293D02*
G01*
X184905105Y-141143408D01*
X184871549Y-141182025D01*
X184823487Y-141196222D01*
X184812198Y-141196631D01*
X184761081Y-141186473D01*
X184723449Y-141152196D01*
X184709978Y-141100518D01*
X184709860Y-141094293D01*
X184709860Y-140251900D01*
X184719052Y-140202738D01*
X184752662Y-140164001D01*
X184800865Y-140149729D01*
X184812198Y-140149318D01*
X184863150Y-140159532D01*
X184900712Y-140193930D01*
X184914173Y-140245674D01*
X184914291Y-140251900D01*
X184914291Y-141094293D01*
G37*
G36*
X184245927Y-140433317D02*
G01*
X184297356Y-140440793D01*
X184357796Y-140457206D01*
X184408734Y-140479615D01*
X184449941Y-140506526D01*
X184487415Y-140544220D01*
X184511211Y-140591549D01*
X184514221Y-140614600D01*
X184495679Y-140662435D01*
X184450484Y-140688097D01*
X184427515Y-140690560D01*
X184377484Y-140673616D01*
X184335375Y-140636338D01*
X184288504Y-140603025D01*
X184241084Y-140586776D01*
X184190844Y-140582116D01*
X184141778Y-140586822D01*
X184092314Y-140606735D01*
X184063670Y-140648293D01*
X184062128Y-140663449D01*
X184077082Y-140710225D01*
X184123933Y-140732841D01*
X184150300Y-140736722D01*
X184274863Y-140750399D01*
X184332152Y-140758826D01*
X184385628Y-140771099D01*
X184434112Y-140788318D01*
X184485901Y-140818472D01*
X184525744Y-140860217D01*
X184551340Y-140915701D01*
X184560009Y-140971423D01*
X184560383Y-140987071D01*
X184552409Y-141044182D01*
X184530218Y-141093252D01*
X184496411Y-141133610D01*
X184453587Y-141164586D01*
X184404345Y-141185508D01*
X184351285Y-141195705D01*
X184329574Y-141196631D01*
X184280103Y-141194275D01*
X184223657Y-141184640D01*
X184170279Y-141166583D01*
X184119842Y-141139051D01*
X184079968Y-141108111D01*
X184049427Y-141077685D01*
X184040078Y-141128086D01*
X184009581Y-141172213D01*
X183959394Y-141194105D01*
X183929016Y-141196631D01*
X183878337Y-141184060D01*
X183842534Y-141146430D01*
X183836692Y-141118229D01*
X183847194Y-141069533D01*
X183856318Y-141015934D01*
X183857697Y-140979988D01*
X183857697Y-140912088D01*
X184062128Y-140912088D01*
X184071714Y-140961127D01*
X184099411Y-141004932D01*
X184143621Y-141039037D01*
X184193451Y-141057166D01*
X184242623Y-141062297D01*
X184295076Y-141053866D01*
X184338744Y-141024695D01*
X184356196Y-140977301D01*
X184342832Y-140928474D01*
X184303663Y-140896605D01*
X184254680Y-140880676D01*
X184224549Y-140875207D01*
X184150300Y-140863728D01*
X184102525Y-140853115D01*
X184062128Y-140831732D01*
X184062128Y-140912088D01*
X183857697Y-140912088D01*
X183857697Y-140639025D01*
X183863914Y-140588349D01*
X183888238Y-140535510D01*
X183929335Y-140493934D01*
X183973124Y-140468485D01*
X184025652Y-140449736D01*
X184086030Y-140437459D01*
X184135933Y-140432363D01*
X184189378Y-140430685D01*
X184245927Y-140433317D01*
G37*
G36*
X183670607Y-141094782D02*
G01*
X183661232Y-141146802D01*
X183627474Y-141183979D01*
X183575811Y-141196493D01*
X183568513Y-141196631D01*
X183518829Y-141188376D01*
X183479643Y-141154953D01*
X183466447Y-141104901D01*
X183466175Y-141094782D01*
X183466175Y-140532779D01*
X183475560Y-140480692D01*
X183509387Y-140443394D01*
X183561193Y-140430824D01*
X183568513Y-140430685D01*
X183618056Y-140438978D01*
X183657156Y-140472519D01*
X183670335Y-140522657D01*
X183670607Y-140532779D01*
X183670607Y-141094782D01*
G37*
G36*
X183674759Y-140255808D02*
G01*
X183661923Y-140306589D01*
X183627890Y-140344124D01*
X183579366Y-140361748D01*
X183568513Y-140362297D01*
X183517732Y-140349455D01*
X183480197Y-140315369D01*
X183462572Y-140266704D01*
X183462023Y-140255808D01*
X183474866Y-140205026D01*
X183508952Y-140167491D01*
X183557617Y-140149867D01*
X183568513Y-140149318D01*
X183619130Y-140162160D01*
X183656598Y-140196246D01*
X183674210Y-140244911D01*
X183674759Y-140255808D01*
G37*
G36*
X183281772Y-141095026D02*
G01*
X183272398Y-141146871D01*
X183238640Y-141183987D01*
X183186977Y-141196493D01*
X183179678Y-141196631D01*
X183129994Y-141188380D01*
X183090808Y-141155005D01*
X183077613Y-141105103D01*
X183077341Y-141095026D01*
X183077341Y-140858110D01*
X183075259Y-140800027D01*
X183066886Y-140741139D01*
X183048582Y-140688950D01*
X183016185Y-140650829D01*
X182965124Y-140633113D01*
X182950090Y-140632430D01*
X182913698Y-140632430D01*
X182863680Y-140622090D01*
X182826038Y-140587458D01*
X182812972Y-140537270D01*
X182812826Y-140530337D01*
X182825832Y-140481682D01*
X182861066Y-140447017D01*
X182912847Y-140431171D01*
X182924689Y-140430685D01*
X182975215Y-140439407D01*
X183021630Y-140468321D01*
X183056361Y-140511937D01*
X183078272Y-140556663D01*
X183094193Y-140604342D01*
X183096880Y-140604342D01*
X183096880Y-140525940D01*
X183107921Y-140476574D01*
X183145034Y-140440381D01*
X183189448Y-140430685D01*
X183237673Y-140442396D01*
X183272803Y-140480746D01*
X183281772Y-140525940D01*
X183281772Y-141095026D01*
G37*
G36*
X181865748Y-140151865D02*
G01*
X181922339Y-140159367D01*
X181975299Y-140171616D01*
X182024589Y-140188404D01*
X182070168Y-140209523D01*
X182111996Y-140234764D01*
X182167616Y-140279899D01*
X182214568Y-140333138D01*
X182252715Y-140393778D01*
X182281922Y-140461117D01*
X182296359Y-140509383D01*
X182306721Y-140560107D01*
X182312968Y-140613078D01*
X182315059Y-140668090D01*
X182313306Y-140725037D01*
X182307983Y-140780039D01*
X182298996Y-140832858D01*
X182286250Y-140883256D01*
X182269649Y-140930993D01*
X182249100Y-140975831D01*
X182210665Y-141037131D01*
X182162812Y-141090565D01*
X182105221Y-141135328D01*
X182061259Y-141159956D01*
X182012732Y-141180133D01*
X181959545Y-141195621D01*
X181901603Y-141206182D01*
X181838812Y-141211577D01*
X181805568Y-141212263D01*
X181753448Y-141210219D01*
X181704216Y-141204161D01*
X181650364Y-141192160D01*
X181600302Y-141175006D01*
X181560348Y-141156331D01*
X181472177Y-141238885D01*
X181430502Y-141265865D01*
X181406475Y-141268438D01*
X181360750Y-141249136D01*
X181331834Y-141205445D01*
X181328073Y-141182953D01*
X181346147Y-141143875D01*
X181434563Y-141061076D01*
X181401675Y-141022011D01*
X181373319Y-140979133D01*
X181349452Y-140932912D01*
X181330027Y-140883817D01*
X181314999Y-140832318D01*
X181304321Y-140778884D01*
X181297948Y-140723985D01*
X181295833Y-140668090D01*
X181525422Y-140668090D01*
X181527389Y-140722031D01*
X181533433Y-140773504D01*
X181543766Y-140821840D01*
X181561526Y-140873378D01*
X181585750Y-140918683D01*
X181665373Y-140845166D01*
X181707286Y-140817947D01*
X181731318Y-140815368D01*
X181777043Y-140834863D01*
X181804654Y-140875165D01*
X181809720Y-140901586D01*
X181791402Y-140941153D01*
X181713000Y-141014914D01*
X181761910Y-141025131D01*
X181805568Y-141027615D01*
X181862247Y-141023397D01*
X181911393Y-141011180D01*
X181965944Y-140983584D01*
X182008876Y-140944494D01*
X182041205Y-140895466D01*
X182063941Y-140838058D01*
X182075309Y-140790438D01*
X182082279Y-140739637D01*
X182085279Y-140686312D01*
X182085471Y-140668090D01*
X182083034Y-140614759D01*
X182075714Y-140564811D01*
X182058333Y-140504178D01*
X182032211Y-140451245D01*
X181997313Y-140406978D01*
X181953606Y-140372341D01*
X181901054Y-140348299D01*
X181839624Y-140335815D01*
X181805568Y-140334210D01*
X181755315Y-140337800D01*
X181696083Y-140353263D01*
X181645709Y-140380045D01*
X181604163Y-140417180D01*
X181571417Y-140463704D01*
X181547443Y-140518652D01*
X181532211Y-140581059D01*
X181526507Y-140632180D01*
X181525422Y-140668090D01*
X181295833Y-140668090D01*
X181297927Y-140613078D01*
X181304182Y-140560107D01*
X181314556Y-140509383D01*
X181329008Y-140461117D01*
X181347498Y-140415515D01*
X181382712Y-140352564D01*
X181426778Y-140296779D01*
X181479558Y-140248865D01*
X181540911Y-140209523D01*
X181586509Y-140188404D01*
X181635815Y-140171616D01*
X181688787Y-140159367D01*
X181745385Y-140151865D01*
X181805568Y-140149318D01*
X181865748Y-140151865D01*
G37*
G36*
X181128283Y-141046666D02*
G01*
X181122835Y-141097065D01*
X181099836Y-141143804D01*
X181055195Y-141172554D01*
X181001469Y-141180905D01*
X180993949Y-141181000D01*
X180514989Y-141181000D01*
X180463417Y-141173146D01*
X180419670Y-141146428D01*
X180397413Y-141101464D01*
X180396043Y-141084524D01*
X180410397Y-141034168D01*
X180448481Y-141001791D01*
X180496873Y-140988689D01*
X180514989Y-140987803D01*
X180898695Y-140987803D01*
X180898695Y-140264845D01*
X180908872Y-140212441D01*
X180941927Y-140170706D01*
X180988430Y-140151447D01*
X181013489Y-140149318D01*
X181066070Y-140159803D01*
X181107375Y-140193439D01*
X181126215Y-140240035D01*
X181128283Y-140264845D01*
X181128283Y-141046666D01*
G37*
G36*
X179599078Y-141083058D02*
G01*
X179588859Y-141134446D01*
X179555741Y-141175518D01*
X179509272Y-141194526D01*
X179484284Y-141196631D01*
X179431596Y-141186273D01*
X179390326Y-141153129D01*
X179371548Y-141107363D01*
X179369490Y-141083058D01*
X179369490Y-140374021D01*
X179152358Y-140374021D01*
X179100786Y-140366120D01*
X179057040Y-140339294D01*
X179034782Y-140294247D01*
X179033412Y-140277301D01*
X179047766Y-140226946D01*
X179085850Y-140194568D01*
X179134242Y-140181466D01*
X179152358Y-140180581D01*
X179815966Y-140180581D01*
X179867692Y-140188481D01*
X179911512Y-140215308D01*
X179933786Y-140260355D01*
X179935157Y-140277301D01*
X179920795Y-140327656D01*
X179882659Y-140360033D01*
X179834145Y-140373136D01*
X179815966Y-140374021D01*
X179599078Y-140374021D01*
X179599078Y-141083058D01*
G37*
G36*
X179115966Y-141095026D02*
G01*
X179106592Y-141146871D01*
X179072834Y-141183987D01*
X179021171Y-141196493D01*
X179013872Y-141196631D01*
X178964188Y-141188380D01*
X178925002Y-141155005D01*
X178911807Y-141105103D01*
X178911535Y-141095026D01*
X178911535Y-140858110D01*
X178909453Y-140800027D01*
X178901080Y-140741139D01*
X178882776Y-140688950D01*
X178850379Y-140650829D01*
X178799318Y-140633113D01*
X178784284Y-140632430D01*
X178747892Y-140632430D01*
X178697874Y-140622090D01*
X178660232Y-140587458D01*
X178647166Y-140537270D01*
X178647020Y-140530337D01*
X178660026Y-140481682D01*
X178695260Y-140447017D01*
X178747041Y-140431171D01*
X178758883Y-140430685D01*
X178809409Y-140439407D01*
X178855824Y-140468321D01*
X178890555Y-140511937D01*
X178912466Y-140556663D01*
X178928387Y-140604342D01*
X178931074Y-140604342D01*
X178931074Y-140525940D01*
X178942115Y-140476574D01*
X178979228Y-140440381D01*
X179023642Y-140430685D01*
X179071867Y-140442396D01*
X179106997Y-140480746D01*
X179115966Y-140525940D01*
X179115966Y-141095026D01*
G37*
G36*
X177864466Y-140532779D02*
G01*
X177873850Y-140480692D01*
X177907677Y-140443394D01*
X177959483Y-140430824D01*
X177966803Y-140430685D01*
X178016450Y-140438978D01*
X178055518Y-140472519D01*
X178068628Y-140522657D01*
X178068897Y-140532779D01*
X178068897Y-140868613D01*
X178077122Y-140921129D01*
X178104028Y-140970112D01*
X178143804Y-141004931D01*
X178190390Y-141024603D01*
X178224480Y-141028836D01*
X178275579Y-141020787D01*
X178317806Y-140993794D01*
X178343417Y-140950958D01*
X178353077Y-140895554D01*
X178353196Y-140887908D01*
X178353196Y-140532779D01*
X178362580Y-140480692D01*
X178396407Y-140443394D01*
X178448213Y-140430824D01*
X178455533Y-140430685D01*
X178505076Y-140438978D01*
X178544176Y-140472519D01*
X178557355Y-140522657D01*
X178557627Y-140532779D01*
X178557627Y-140928452D01*
X178554205Y-140982810D01*
X178539864Y-141044100D01*
X178515910Y-141093502D01*
X178484045Y-141131995D01*
X178435684Y-141166260D01*
X178380951Y-141186921D01*
X178323171Y-141195889D01*
X178299951Y-141196631D01*
X178248451Y-141192865D01*
X178193995Y-141179073D01*
X178146592Y-141156297D01*
X178105229Y-141125736D01*
X178068890Y-141088586D01*
X178052288Y-141067915D01*
X178049357Y-141067915D01*
X178049357Y-141094538D01*
X178040932Y-141145490D01*
X178007019Y-141185349D01*
X177957034Y-141196631D01*
X177906992Y-141185349D01*
X177872948Y-141145490D01*
X177864466Y-141094538D01*
X177864466Y-140532779D01*
G37*
G36*
X177702777Y-141094782D02*
G01*
X177693403Y-141146802D01*
X177659645Y-141183979D01*
X177607982Y-141196493D01*
X177600683Y-141196631D01*
X177550999Y-141188376D01*
X177511813Y-141154953D01*
X177498617Y-141104901D01*
X177498346Y-141094782D01*
X177498346Y-140756261D01*
X177491360Y-140706533D01*
X177467782Y-140658670D01*
X177431286Y-140623583D01*
X177385753Y-140603205D01*
X177349846Y-140598725D01*
X177298776Y-140609017D01*
X177260794Y-140641654D01*
X177241483Y-140690842D01*
X177237983Y-140729883D01*
X177237983Y-141094782D01*
X177228599Y-141146802D01*
X177194771Y-141183979D01*
X177142965Y-141196493D01*
X177135645Y-141196631D01*
X177086102Y-141188376D01*
X177047002Y-141154953D01*
X177033823Y-141104901D01*
X177033551Y-141094782D01*
X177033551Y-140756261D01*
X177026566Y-140706533D01*
X177002988Y-140658670D01*
X176966492Y-140623583D01*
X176920959Y-140603205D01*
X176885052Y-140598725D01*
X176833982Y-140609017D01*
X176796000Y-140641654D01*
X176776689Y-140690842D01*
X176773189Y-140729883D01*
X176773189Y-141094782D01*
X176763804Y-141146802D01*
X176729977Y-141183979D01*
X176678171Y-141196493D01*
X176670851Y-141196631D01*
X176621205Y-141188376D01*
X176582136Y-141154953D01*
X176569026Y-141104901D01*
X176568757Y-141094782D01*
X176568757Y-140678348D01*
X176573903Y-140615113D01*
X176588675Y-140562371D01*
X176612073Y-140519486D01*
X176651930Y-140478774D01*
X176701755Y-140451231D01*
X176759596Y-140435615D01*
X176810330Y-140430876D01*
X176823503Y-140430685D01*
X176872679Y-140434211D01*
X176925095Y-140447344D01*
X176971154Y-140469505D01*
X177011746Y-140499968D01*
X177047759Y-140538010D01*
X177064326Y-140559646D01*
X177090477Y-140511829D01*
X177124536Y-140476338D01*
X177170658Y-140448810D01*
X177219568Y-140434298D01*
X177260453Y-140430685D01*
X177317087Y-140435617D01*
X177369886Y-140450044D01*
X177417951Y-140473416D01*
X177460385Y-140505183D01*
X177496288Y-140544794D01*
X177506650Y-140559646D01*
X177509581Y-140559646D01*
X177509581Y-140533023D01*
X177519855Y-140482014D01*
X177553010Y-140444331D01*
X177600494Y-140430804D01*
X177606057Y-140430685D01*
X177655222Y-140442024D01*
X177690382Y-140477724D01*
X177702671Y-140527314D01*
X177702777Y-140533023D01*
X177702777Y-141094782D01*
G37*
G36*
X176363348Y-140440426D02*
G01*
X176397615Y-140477050D01*
X176406336Y-140527406D01*
X176406336Y-141372974D01*
X176397149Y-141423672D01*
X176363593Y-141463187D01*
X176315532Y-141477587D01*
X176304242Y-141477999D01*
X176253125Y-141467710D01*
X176215493Y-141432696D01*
X176202023Y-141379422D01*
X176201905Y-141372974D01*
X176201905Y-141093072D01*
X176199218Y-141093072D01*
X176169835Y-141132184D01*
X176125609Y-141166176D01*
X176078199Y-141185895D01*
X176023220Y-141195647D01*
X175997473Y-141196631D01*
X175939869Y-141191942D01*
X175888312Y-141178441D01*
X175842719Y-141156976D01*
X175803007Y-141128393D01*
X175759062Y-141080677D01*
X175732748Y-141038784D01*
X175712037Y-140992600D01*
X175696847Y-140942972D01*
X175687093Y-140890748D01*
X175682692Y-140836776D01*
X175682400Y-140818543D01*
X175682774Y-140811704D01*
X175886831Y-140811704D01*
X175890665Y-140867608D01*
X175903897Y-140924572D01*
X175929128Y-140975977D01*
X175968954Y-141015208D01*
X176015168Y-141033826D01*
X176049253Y-141037140D01*
X176101574Y-141029283D01*
X176149357Y-141000452D01*
X176182489Y-140955773D01*
X176202787Y-140900880D01*
X176211207Y-140851394D01*
X176213140Y-140811704D01*
X176209752Y-140758633D01*
X176199136Y-140709189D01*
X176175893Y-140657740D01*
X176140079Y-140618475D01*
X176090516Y-140595190D01*
X176049253Y-140590420D01*
X175993722Y-140601583D01*
X175949884Y-140630061D01*
X175917631Y-140672867D01*
X175896857Y-140727017D01*
X175888237Y-140778654D01*
X175886831Y-140811704D01*
X175682774Y-140811704D01*
X175686248Y-140748194D01*
X175697365Y-140685069D01*
X175715113Y-140629102D01*
X175738853Y-140580225D01*
X175767946Y-140538372D01*
X175813961Y-140493381D01*
X175866842Y-140460602D01*
X175925077Y-140439878D01*
X175987150Y-140431052D01*
X176003091Y-140430685D01*
X176057019Y-140435136D01*
X176106127Y-140448563D01*
X176155638Y-140475729D01*
X176194857Y-140515457D01*
X176218757Y-140559646D01*
X176221444Y-140559646D01*
X176221444Y-140527406D01*
X176230763Y-140477050D01*
X176265810Y-140440426D01*
X176314012Y-140430685D01*
X176363348Y-140440426D01*
G37*
G36*
X175130655Y-140681034D02*
G01*
X175128486Y-140744799D01*
X175122033Y-140804559D01*
X175111381Y-140860299D01*
X175096614Y-140912004D01*
X175077818Y-140959659D01*
X175055076Y-141003249D01*
X175013749Y-141060979D01*
X174964021Y-141109478D01*
X174906174Y-141148695D01*
X174840495Y-141178580D01*
X174792498Y-141193294D01*
X174741231Y-141203822D01*
X174686779Y-141210150D01*
X174629225Y-141212263D01*
X174567970Y-141208580D01*
X174509792Y-141197996D01*
X174455337Y-141181212D01*
X174405246Y-141158927D01*
X174360164Y-141131838D01*
X174320735Y-141100646D01*
X174278067Y-141053882D01*
X174248117Y-141002723D01*
X174232411Y-140948826D01*
X174230376Y-140921369D01*
X174247932Y-140871952D01*
X174291511Y-140841533D01*
X174342240Y-140832221D01*
X174394342Y-140850253D01*
X174434074Y-140894045D01*
X174466278Y-140939065D01*
X174504968Y-140982296D01*
X174556999Y-141014795D01*
X174612835Y-141027054D01*
X174629225Y-141027615D01*
X174681868Y-141023472D01*
X174742192Y-141005881D01*
X174791805Y-140975980D01*
X174831325Y-140935382D01*
X174861372Y-140885703D01*
X174882563Y-140828556D01*
X174895517Y-140765556D01*
X174900199Y-140715436D01*
X174901067Y-140681034D01*
X174898002Y-140621460D01*
X174889118Y-140567038D01*
X174874880Y-140517922D01*
X174848375Y-140460956D01*
X174814286Y-140414066D01*
X174773719Y-140377616D01*
X174727778Y-140351974D01*
X174677568Y-140337507D01*
X174637773Y-140334210D01*
X174584925Y-140338756D01*
X174531312Y-140356761D01*
X174484428Y-140392401D01*
X174450903Y-140434777D01*
X174421082Y-140475468D01*
X174376593Y-140510222D01*
X174333935Y-140518124D01*
X174284052Y-140509050D01*
X174245047Y-140475215D01*
X174230785Y-140425469D01*
X174230376Y-140413588D01*
X174240836Y-140363239D01*
X174264018Y-140319518D01*
X174300054Y-140275680D01*
X174348650Y-140234441D01*
X174393165Y-140206853D01*
X174444458Y-140183400D01*
X174502406Y-140165229D01*
X174566885Y-140153487D01*
X174637773Y-140149318D01*
X174696841Y-140152134D01*
X174752217Y-140160384D01*
X174803886Y-140173774D01*
X174851829Y-140192007D01*
X174896032Y-140214788D01*
X174955286Y-140256841D01*
X175006031Y-140307465D01*
X175048210Y-140365662D01*
X175081768Y-140430436D01*
X175099324Y-140476779D01*
X175113007Y-140525306D01*
X175122801Y-140575721D01*
X175128689Y-140627729D01*
X175130655Y-140681034D01*
G37*
G36*
X173822619Y-140433317D02*
G01*
X173874048Y-140440793D01*
X173934489Y-140457206D01*
X173985427Y-140479615D01*
X174026633Y-140506526D01*
X174064107Y-140544220D01*
X174087903Y-140591549D01*
X174090914Y-140614600D01*
X174072372Y-140662435D01*
X174027176Y-140688097D01*
X174004207Y-140690560D01*
X173954176Y-140673616D01*
X173912067Y-140636338D01*
X173865196Y-140603025D01*
X173817777Y-140586776D01*
X173767536Y-140582116D01*
X173718470Y-140586822D01*
X173669006Y-140606735D01*
X173640362Y-140648293D01*
X173638820Y-140663449D01*
X173653774Y-140710225D01*
X173700625Y-140732841D01*
X173726992Y-140736722D01*
X173851556Y-140750399D01*
X173908844Y-140758826D01*
X173962320Y-140771099D01*
X174010804Y-140788318D01*
X174062593Y-140818472D01*
X174102437Y-140860217D01*
X174128032Y-140915701D01*
X174136702Y-140971423D01*
X174137076Y-140987071D01*
X174129101Y-141044182D01*
X174106910Y-141093252D01*
X174073103Y-141133610D01*
X174030279Y-141164586D01*
X173981037Y-141185508D01*
X173927977Y-141195705D01*
X173906266Y-141196631D01*
X173856795Y-141194275D01*
X173800349Y-141184640D01*
X173746971Y-141166583D01*
X173696534Y-141139051D01*
X173656660Y-141108111D01*
X173626120Y-141077685D01*
X173616771Y-141128086D01*
X173586273Y-141172213D01*
X173536086Y-141194105D01*
X173505708Y-141196631D01*
X173455029Y-141184060D01*
X173419226Y-141146430D01*
X173413384Y-141118229D01*
X173423886Y-141069533D01*
X173433011Y-141015934D01*
X173434389Y-140979988D01*
X173434389Y-140912088D01*
X173638820Y-140912088D01*
X173648407Y-140961127D01*
X173676103Y-141004932D01*
X173720313Y-141039037D01*
X173770143Y-141057166D01*
X173819316Y-141062297D01*
X173871768Y-141053866D01*
X173915436Y-141024695D01*
X173932889Y-140977301D01*
X173919524Y-140928474D01*
X173880355Y-140896605D01*
X173831372Y-140880676D01*
X173801242Y-140875207D01*
X173726992Y-140863728D01*
X173679217Y-140853115D01*
X173638820Y-140831732D01*
X173638820Y-140912088D01*
X173434389Y-140912088D01*
X173434389Y-140639025D01*
X173440607Y-140588349D01*
X173464930Y-140535510D01*
X173506027Y-140493934D01*
X173549816Y-140468485D01*
X173602344Y-140449736D01*
X173662723Y-140437459D01*
X173712625Y-140432363D01*
X173766071Y-140430685D01*
X173822619Y-140433317D01*
G37*
G36*
X173247299Y-141095026D02*
G01*
X173237925Y-141146871D01*
X173204167Y-141183987D01*
X173152504Y-141196493D01*
X173145205Y-141196631D01*
X173095521Y-141188380D01*
X173056335Y-141155005D01*
X173043139Y-141105103D01*
X173042868Y-141095026D01*
X173042868Y-140858110D01*
X173040786Y-140800027D01*
X173032413Y-140741139D01*
X173014109Y-140688950D01*
X172981712Y-140650829D01*
X172930651Y-140633113D01*
X172915617Y-140632430D01*
X172879225Y-140632430D01*
X172829207Y-140622090D01*
X172791565Y-140587458D01*
X172778498Y-140537270D01*
X172778353Y-140530337D01*
X172791359Y-140481682D01*
X172826593Y-140447017D01*
X172878374Y-140431171D01*
X172890216Y-140430685D01*
X172940742Y-140439407D01*
X172987157Y-140468321D01*
X173021888Y-140511937D01*
X173043799Y-140556663D01*
X173059720Y-140604342D01*
X173062407Y-140604342D01*
X173062407Y-140525940D01*
X173073447Y-140476574D01*
X173110561Y-140440381D01*
X173154975Y-140430685D01*
X173203199Y-140442396D01*
X173238330Y-140480746D01*
X173247299Y-140525940D01*
X173247299Y-141095026D01*
G37*
G36*
X172165697Y-140159626D02*
G01*
X172203259Y-140194453D01*
X172216720Y-140247028D01*
X172216838Y-140253365D01*
X172216838Y-140534489D01*
X172219769Y-140534489D01*
X172250527Y-140495346D01*
X172289217Y-140464882D01*
X172335289Y-140443709D01*
X172388188Y-140432441D01*
X172421270Y-140430685D01*
X172478874Y-140435380D01*
X172530431Y-140448896D01*
X172576024Y-140470383D01*
X172615736Y-140498988D01*
X172659681Y-140546731D01*
X172685995Y-140588637D01*
X172706705Y-140634825D01*
X172721896Y-140684442D01*
X172731650Y-140736638D01*
X172736051Y-140790562D01*
X172736343Y-140808773D01*
X172732501Y-140879179D01*
X172721399Y-140942338D01*
X172703672Y-140998321D01*
X172679954Y-141047199D01*
X172650882Y-141089041D01*
X172604887Y-141134008D01*
X172552007Y-141166756D01*
X172493748Y-141187454D01*
X172431614Y-141196266D01*
X172415652Y-141196631D01*
X172361726Y-141192204D01*
X172312629Y-141178831D01*
X172263156Y-141151743D01*
X172224017Y-141112082D01*
X172200230Y-141067915D01*
X172197299Y-141067915D01*
X172197299Y-141100155D01*
X172187988Y-141150454D01*
X172153012Y-141186947D01*
X172104975Y-141196631D01*
X172055583Y-141186947D01*
X172021185Y-141150454D01*
X172012407Y-141100155D01*
X172012407Y-140815856D01*
X172205847Y-140815856D01*
X172209234Y-140868928D01*
X172219844Y-140918371D01*
X172243064Y-140969821D01*
X172278829Y-141009086D01*
X172328308Y-141032371D01*
X172369490Y-141037140D01*
X172425021Y-141025977D01*
X172468859Y-140997500D01*
X172501112Y-140954694D01*
X172521886Y-140900544D01*
X172530505Y-140848907D01*
X172531912Y-140815856D01*
X172528078Y-140759952D01*
X172514846Y-140702989D01*
X172489615Y-140651583D01*
X172449789Y-140612353D01*
X172403575Y-140593734D01*
X172369490Y-140590420D01*
X172317185Y-140598278D01*
X172269452Y-140627109D01*
X172236387Y-140671787D01*
X172216153Y-140726681D01*
X172207770Y-140776167D01*
X172205847Y-140815856D01*
X172012407Y-140815856D01*
X172012407Y-140253365D01*
X172021641Y-140203388D01*
X172055316Y-140164143D01*
X172103452Y-140149732D01*
X172114745Y-140149318D01*
X172165697Y-140159626D01*
G37*
G36*
X171321933Y-141086478D02*
G01*
X171302995Y-141138529D01*
X171271197Y-141180410D01*
X171223031Y-141195350D01*
X171189064Y-141196631D01*
X171136033Y-141191437D01*
X171091493Y-141163634D01*
X171069572Y-141118396D01*
X171061570Y-141090630D01*
X170960697Y-140690316D01*
X170958011Y-140690316D01*
X170857138Y-141090630D01*
X170840377Y-141141299D01*
X170806226Y-141182128D01*
X170758804Y-141195392D01*
X170729644Y-141196631D01*
X170678795Y-141192952D01*
X170633499Y-141167592D01*
X170607574Y-141118840D01*
X170596775Y-141086478D01*
X170447055Y-140600923D01*
X170434747Y-140552304D01*
X170432889Y-140525696D01*
X170448006Y-140476195D01*
X170486295Y-140442046D01*
X170532295Y-140430685D01*
X170582581Y-140439807D01*
X170617577Y-140476718D01*
X170631976Y-140524406D01*
X170633168Y-140529848D01*
X170734040Y-140976324D01*
X170736727Y-140976324D01*
X170824898Y-140570392D01*
X170837890Y-140520579D01*
X170859287Y-140474053D01*
X170900221Y-140440012D01*
X170950632Y-140430620D01*
X170959476Y-140430685D01*
X171011425Y-140437810D01*
X171053143Y-140469673D01*
X171074331Y-140514594D01*
X171086610Y-140562979D01*
X171088192Y-140570392D01*
X171174898Y-140976324D01*
X171177829Y-140976324D01*
X171285540Y-140529848D01*
X171299963Y-140480874D01*
X171332320Y-140441878D01*
X171386413Y-140430685D01*
X171436572Y-140444318D01*
X171473193Y-140480174D01*
X171485819Y-140525696D01*
X171479308Y-140575468D01*
X171471898Y-140600923D01*
X171321933Y-141086478D01*
G37*
G36*
X170393321Y-141094049D02*
G01*
X170404556Y-141140699D01*
X170385287Y-141188571D01*
X170340962Y-141211573D01*
X170331772Y-141212263D01*
X170282914Y-141198147D01*
X170255410Y-141157007D01*
X170254591Y-141154866D01*
X169919979Y-140267775D01*
X169908743Y-140221125D01*
X169928013Y-140173154D01*
X169972338Y-140150013D01*
X169981528Y-140149318D01*
X170030385Y-140163522D01*
X170057890Y-140204817D01*
X170058709Y-140206959D01*
X170393321Y-141094049D01*
G37*
G36*
X169278211Y-140185605D02*
G01*
X169326835Y-140209493D01*
X169354007Y-140250957D01*
X169363438Y-140305769D01*
X169363593Y-140315159D01*
X169363593Y-141046666D01*
X169358145Y-141097065D01*
X169335146Y-141143804D01*
X169290506Y-141172554D01*
X169236780Y-141180905D01*
X169229260Y-141181000D01*
X168953265Y-141181000D01*
X168897312Y-141178849D01*
X168844448Y-141172449D01*
X168794744Y-141161879D01*
X168726272Y-141138377D01*
X168665316Y-141105935D01*
X168612118Y-141064818D01*
X168566922Y-141015292D01*
X168529970Y-140957623D01*
X168501504Y-140892075D01*
X168487361Y-140844132D01*
X168477171Y-140792884D01*
X168471004Y-140738411D01*
X168468932Y-140680790D01*
X168698520Y-140680790D01*
X168701408Y-140738458D01*
X168710583Y-140794909D01*
X168726817Y-140848148D01*
X168750880Y-140896182D01*
X168783540Y-140937014D01*
X168825568Y-140968649D01*
X168877735Y-140989094D01*
X168940809Y-140996352D01*
X169134005Y-140996352D01*
X169134005Y-140365473D01*
X168942030Y-140365473D01*
X168883321Y-140370967D01*
X168833090Y-140387126D01*
X168791137Y-140413463D01*
X168757260Y-140449492D01*
X168731261Y-140494726D01*
X168712938Y-140548678D01*
X168702091Y-140610861D01*
X168698742Y-140662608D01*
X168698520Y-140680790D01*
X168468932Y-140680790D01*
X168471571Y-140610773D01*
X168479286Y-140547098D01*
X168491771Y-140489514D01*
X168508720Y-140437769D01*
X168529829Y-140391610D01*
X168568620Y-140332298D01*
X168615050Y-140284140D01*
X168668088Y-140246285D01*
X168726701Y-140217885D01*
X168789860Y-140198089D01*
X168856533Y-140186046D01*
X168925688Y-140180907D01*
X168949113Y-140180581D01*
X169229260Y-140180581D01*
X169278211Y-140185605D01*
G37*
G36*
X168315547Y-141094782D02*
G01*
X168306173Y-141146802D01*
X168272415Y-141183979D01*
X168220752Y-141196493D01*
X168213454Y-141196631D01*
X168163769Y-141188376D01*
X168124583Y-141154953D01*
X168111388Y-141104901D01*
X168111116Y-141094782D01*
X168111116Y-140532779D01*
X168120500Y-140480692D01*
X168154328Y-140443394D01*
X168206133Y-140430824D01*
X168213454Y-140430685D01*
X168262997Y-140438978D01*
X168302096Y-140472519D01*
X168315276Y-140522657D01*
X168315547Y-140532779D01*
X168315547Y-141094782D01*
G37*
G36*
X168319699Y-140255808D02*
G01*
X168306864Y-140306589D01*
X168272831Y-140344124D01*
X168224307Y-140361748D01*
X168213454Y-140362297D01*
X168162672Y-140349455D01*
X168125138Y-140315369D01*
X168107513Y-140266704D01*
X168106964Y-140255808D01*
X168119807Y-140205026D01*
X168153892Y-140167491D01*
X168202558Y-140149867D01*
X168213454Y-140149318D01*
X168264070Y-140162160D01*
X168301539Y-140196246D01*
X168319150Y-140244911D01*
X168319699Y-140255808D01*
G37*
G36*
X167970188Y-140658564D02*
G01*
X167963676Y-140716385D01*
X167945138Y-140762897D01*
X167909127Y-140805995D01*
X167860546Y-140837785D01*
X167812327Y-140857596D01*
X167758674Y-140873009D01*
X167638262Y-140902318D01*
X167589200Y-140914870D01*
X167541798Y-140935274D01*
X167520781Y-140980232D01*
X167542327Y-141024806D01*
X167590436Y-141048341D01*
X167639727Y-141053993D01*
X167690170Y-141048609D01*
X167738387Y-141029835D01*
X167781201Y-140997211D01*
X167821517Y-140957757D01*
X167864752Y-140931794D01*
X167887634Y-140928697D01*
X167935683Y-140941524D01*
X167965360Y-140981556D01*
X167970188Y-141013693D01*
X167954748Y-141067852D01*
X167920575Y-141108264D01*
X167870048Y-141142806D01*
X167819754Y-141165217D01*
X167762253Y-141182163D01*
X167698993Y-141192888D01*
X167648641Y-141196391D01*
X167631423Y-141196631D01*
X167573636Y-141193001D01*
X167517175Y-141182015D01*
X167464005Y-141163529D01*
X167416092Y-141137402D01*
X167375405Y-141103490D01*
X167343907Y-141061649D01*
X167323567Y-141011736D01*
X167316350Y-140953609D01*
X167322527Y-140904629D01*
X167345638Y-140854431D01*
X167382413Y-140814962D01*
X167429174Y-140784589D01*
X167482244Y-140761680D01*
X167537943Y-140744603D01*
X167571095Y-140736478D01*
X167656580Y-140717182D01*
X167705097Y-140705209D01*
X167750583Y-140682269D01*
X167765757Y-140644642D01*
X167740988Y-140601359D01*
X167691131Y-140584962D01*
X167648032Y-140582116D01*
X167596151Y-140588238D01*
X167545679Y-140611637D01*
X167504768Y-140645896D01*
X167457357Y-140673110D01*
X167436762Y-140675417D01*
X167389755Y-140662080D01*
X167358677Y-140624110D01*
X167351277Y-140586268D01*
X167366771Y-140537083D01*
X167409082Y-140495825D01*
X167460309Y-140468349D01*
X167509135Y-140451380D01*
X167562924Y-140439244D01*
X167619822Y-140432290D01*
X167663419Y-140430685D01*
X167717202Y-140433665D01*
X167771012Y-140442936D01*
X167822629Y-140458996D01*
X167869835Y-140482343D01*
X167910412Y-140513475D01*
X167942142Y-140552891D01*
X167962807Y-140601088D01*
X167970188Y-140658564D01*
G37*
G36*
X167186657Y-141094782D02*
G01*
X167177470Y-141143590D01*
X167143914Y-141182051D01*
X167095853Y-141196222D01*
X167084563Y-141196631D01*
X167033446Y-141186488D01*
X166995814Y-141152334D01*
X166982344Y-141100962D01*
X166982226Y-141094782D01*
X166982226Y-140939932D01*
X166910907Y-140877161D01*
X166717711Y-141149248D01*
X166681770Y-141182941D01*
X166634345Y-141196343D01*
X166625143Y-141196631D01*
X166574590Y-141181590D01*
X166540072Y-141143491D01*
X166528667Y-141097713D01*
X166539913Y-141048270D01*
X166549672Y-141032011D01*
X166762407Y-140747468D01*
X166611221Y-140589932D01*
X166583255Y-140548336D01*
X166580446Y-140523009D01*
X166596070Y-140474785D01*
X166634091Y-140441669D01*
X166676922Y-140430685D01*
X166724731Y-140444683D01*
X166755324Y-140470009D01*
X166982226Y-140721090D01*
X166982226Y-140253365D01*
X166991418Y-140203388D01*
X167025028Y-140164143D01*
X167073231Y-140149732D01*
X167084563Y-140149318D01*
X167135516Y-140159626D01*
X167173078Y-140194453D01*
X167186539Y-140247028D01*
X167186657Y-140253365D01*
X167186657Y-141094782D01*
G37*
G36*
X166014535Y-140681034D02*
G01*
X166012366Y-140744799D01*
X166005913Y-140804559D01*
X165995261Y-140860299D01*
X165980494Y-140912004D01*
X165961698Y-140959659D01*
X165938956Y-141003249D01*
X165897629Y-141060979D01*
X165847901Y-141109478D01*
X165790054Y-141148695D01*
X165724375Y-141178580D01*
X165676378Y-141193294D01*
X165625111Y-141203822D01*
X165570659Y-141210150D01*
X165513105Y-141212263D01*
X165451850Y-141208580D01*
X165393672Y-141197996D01*
X165339217Y-141181212D01*
X165289126Y-141158927D01*
X165244044Y-141131838D01*
X165204615Y-141100646D01*
X165161947Y-141053882D01*
X165131997Y-141002723D01*
X165116291Y-140948826D01*
X165114256Y-140921369D01*
X165131812Y-140871952D01*
X165175391Y-140841533D01*
X165226120Y-140832221D01*
X165278222Y-140850253D01*
X165317954Y-140894045D01*
X165350158Y-140939065D01*
X165388848Y-140982296D01*
X165440879Y-141014795D01*
X165496715Y-141027054D01*
X165513105Y-141027615D01*
X165565748Y-141023472D01*
X165626072Y-141005881D01*
X165675685Y-140975980D01*
X165715205Y-140935382D01*
X165745252Y-140885703D01*
X165766443Y-140828556D01*
X165779397Y-140765556D01*
X165784078Y-140715436D01*
X165784947Y-140681034D01*
X165781882Y-140621460D01*
X165772998Y-140567038D01*
X165758760Y-140517922D01*
X165732255Y-140460956D01*
X165698166Y-140414066D01*
X165657599Y-140377616D01*
X165611658Y-140351974D01*
X165561448Y-140337507D01*
X165521653Y-140334210D01*
X165468805Y-140338756D01*
X165415192Y-140356761D01*
X165368308Y-140392401D01*
X165334783Y-140434777D01*
X165304962Y-140475468D01*
X165260473Y-140510222D01*
X165217815Y-140518124D01*
X165167932Y-140509050D01*
X165128927Y-140475215D01*
X165114665Y-140425469D01*
X165114256Y-140413588D01*
X165124716Y-140363239D01*
X165147898Y-140319518D01*
X165183934Y-140275680D01*
X165232530Y-140234441D01*
X165277045Y-140206853D01*
X165328338Y-140183400D01*
X165386286Y-140165229D01*
X165450765Y-140153487D01*
X165521653Y-140149318D01*
X165580721Y-140152134D01*
X165636097Y-140160384D01*
X165687766Y-140173774D01*
X165735709Y-140192007D01*
X165779912Y-140214788D01*
X165839166Y-140256841D01*
X165889911Y-140307465D01*
X165932090Y-140365662D01*
X165965648Y-140430436D01*
X165983204Y-140476779D01*
X165996887Y-140525306D01*
X166006681Y-140575721D01*
X166012569Y-140627729D01*
X166014535Y-140681034D01*
G37*
G36*
X164986029Y-141094293D02*
G01*
X164976842Y-141143408D01*
X164943286Y-141182025D01*
X164895225Y-141196222D01*
X164883935Y-141196631D01*
X164832818Y-141186473D01*
X164795186Y-141152196D01*
X164781716Y-141100518D01*
X164781598Y-141094293D01*
X164781598Y-140251900D01*
X164790790Y-140202738D01*
X164824400Y-140164001D01*
X164872603Y-140149729D01*
X164883935Y-140149318D01*
X164934888Y-140159532D01*
X164972450Y-140193930D01*
X164985911Y-140245674D01*
X164986029Y-140251900D01*
X164986029Y-141094293D01*
G37*
G36*
X164327387Y-140435016D02*
G01*
X164387521Y-140447607D01*
X164441435Y-140467856D01*
X164489045Y-140495163D01*
X164530268Y-140528926D01*
X164565021Y-140568543D01*
X164593221Y-140613414D01*
X164614783Y-140662938D01*
X164629626Y-140716511D01*
X164637665Y-140773535D01*
X164639204Y-140813170D01*
X164636517Y-140869588D01*
X164628193Y-140924017D01*
X164613837Y-140975681D01*
X164593055Y-141023801D01*
X164565451Y-141067599D01*
X164530630Y-141106299D01*
X164488199Y-141139122D01*
X164437761Y-141165292D01*
X164378922Y-141184029D01*
X164311287Y-141194557D01*
X164261116Y-141196631D01*
X164210988Y-141194557D01*
X164143408Y-141184029D01*
X164084612Y-141165292D01*
X164034209Y-141139122D01*
X163991802Y-141106299D01*
X163957000Y-141067599D01*
X163929408Y-141023801D01*
X163908633Y-140975681D01*
X163894282Y-140924017D01*
X163885959Y-140869588D01*
X163883272Y-140813170D01*
X164087704Y-140813170D01*
X164091565Y-140869734D01*
X164103425Y-140921914D01*
X164123697Y-140967580D01*
X164159710Y-141010782D01*
X164209148Y-141037857D01*
X164261116Y-141045445D01*
X164313182Y-141037857D01*
X164362697Y-141010782D01*
X164398754Y-140967580D01*
X164419044Y-140921914D01*
X164430910Y-140869734D01*
X164434773Y-140813170D01*
X164430744Y-140753833D01*
X164418503Y-140700921D01*
X164397813Y-140655920D01*
X164361504Y-140614456D01*
X164312285Y-140589095D01*
X164261116Y-140582116D01*
X164210044Y-140589095D01*
X164160904Y-140614456D01*
X164124638Y-140655920D01*
X164103966Y-140700921D01*
X164091731Y-140753833D01*
X164087704Y-140813170D01*
X163883272Y-140813170D01*
X163886724Y-140754181D01*
X163897023Y-140698241D01*
X163914091Y-140645950D01*
X163937845Y-140597911D01*
X163968205Y-140554724D01*
X164005090Y-140516991D01*
X164048419Y-140485313D01*
X164098111Y-140460292D01*
X164154085Y-140442529D01*
X164216260Y-140432625D01*
X164261116Y-140430685D01*
X164327387Y-140435016D01*
G37*
G36*
X163751625Y-141094782D02*
G01*
X163742251Y-141146802D01*
X163708493Y-141183979D01*
X163656830Y-141196493D01*
X163649532Y-141196631D01*
X163599848Y-141188376D01*
X163560661Y-141154953D01*
X163547466Y-141104901D01*
X163547194Y-141094782D01*
X163547194Y-140759192D01*
X163538970Y-140706563D01*
X163512079Y-140657499D01*
X163472347Y-140622643D01*
X163425848Y-140602959D01*
X163391856Y-140598725D01*
X163340726Y-140606774D01*
X163298419Y-140633767D01*
X163272722Y-140676603D01*
X163263015Y-140732007D01*
X163262896Y-140739653D01*
X163262896Y-141094782D01*
X163253578Y-141146802D01*
X163219871Y-141183979D01*
X163168122Y-141196493D01*
X163160802Y-141196631D01*
X163111118Y-141188376D01*
X163071931Y-141154953D01*
X163058736Y-141104901D01*
X163058464Y-141094782D01*
X163058464Y-140699108D01*
X163061892Y-140644744D01*
X163076255Y-140583430D01*
X163100238Y-140533992D01*
X163132132Y-140495456D01*
X163180514Y-140461134D01*
X163235238Y-140440425D01*
X163292961Y-140431430D01*
X163316140Y-140430685D01*
X163367656Y-140434468D01*
X163422163Y-140448310D01*
X163469632Y-140471153D01*
X163511059Y-140501778D01*
X163547439Y-140538969D01*
X163564047Y-140559646D01*
X163566734Y-140559646D01*
X163566734Y-140533023D01*
X163575216Y-140482014D01*
X163609260Y-140442024D01*
X163659302Y-140430685D01*
X163709179Y-140442024D01*
X163743151Y-140482014D01*
X163751625Y-140533023D01*
X163751625Y-141094782D01*
G37*
G36*
X162606675Y-140434829D02*
G01*
X162666787Y-140446990D01*
X162721268Y-140466760D01*
X162769889Y-140493733D01*
X162812425Y-140527502D01*
X162848648Y-140567659D01*
X162878332Y-140613799D01*
X162901248Y-140665514D01*
X162917171Y-140722396D01*
X162925873Y-140784040D01*
X162927550Y-140827580D01*
X162924652Y-140877436D01*
X162915726Y-140927121D01*
X162900425Y-140975602D01*
X162878400Y-141021845D01*
X162849304Y-141064816D01*
X162812789Y-141103482D01*
X162768508Y-141136810D01*
X162716112Y-141163765D01*
X162655254Y-141183314D01*
X162585586Y-141194424D01*
X162534075Y-141196631D01*
X162484963Y-141193925D01*
X162432073Y-141185743D01*
X162378588Y-141171992D01*
X162327690Y-141152576D01*
X162282562Y-141127401D01*
X162239116Y-141087691D01*
X162215875Y-141038650D01*
X162213628Y-141016380D01*
X162231945Y-140968773D01*
X162275752Y-140940356D01*
X162297648Y-140937489D01*
X162347779Y-140953060D01*
X162389117Y-140987315D01*
X162435499Y-141017927D01*
X162483124Y-141032859D01*
X162534075Y-141037140D01*
X162586254Y-141031637D01*
X162638667Y-141011582D01*
X162679186Y-140978667D01*
X162706999Y-140934815D01*
X162721294Y-140881950D01*
X162723119Y-140852737D01*
X162261011Y-140852737D01*
X162209974Y-140846406D01*
X162175969Y-140807915D01*
X162171618Y-140764565D01*
X162174546Y-140735256D01*
X162364815Y-140735256D01*
X162723119Y-140735256D01*
X162706348Y-140683603D01*
X162681276Y-140640627D01*
X162641456Y-140602861D01*
X162590167Y-140580012D01*
X162537006Y-140573568D01*
X162488248Y-140580494D01*
X162439001Y-140604513D01*
X162400213Y-140643096D01*
X162374232Y-140693512D01*
X162364815Y-140735256D01*
X162174546Y-140735256D01*
X162177850Y-140702184D01*
X162196283Y-140641814D01*
X162226526Y-140585400D01*
X162256722Y-140546855D01*
X162293175Y-140512448D01*
X162335719Y-140482998D01*
X162384190Y-140459327D01*
X162438421Y-140442253D01*
X162498247Y-140432597D01*
X162541158Y-140430685D01*
X162606675Y-140434829D01*
G37*
M02*
