%TF.GenerationSoftware,KiCad,Pcbnew,9.0.0*%
%TF.CreationDate,2025-03-11T15:51:22-04:00*%
%TF.ProjectId,BidenCard,42696465-6e43-4617-9264-2e6b69636164,rev?*%
%TF.SameCoordinates,Original*%
%TF.FileFunction,Copper,L1,Top*%
%TF.FilePolarity,Positive*%
%FSLAX46Y46*%
G04 Gerber Fmt 4.6, Leading zero omitted, Abs format (unit mm)*
G04 Created by KiCad (PCBNEW 9.0.0) date 2025-03-11 15:51:22*
%MOMM*%
%LPD*%
G01*
G04 APERTURE LIST*
G04 Aperture macros list*
%AMRoundRect*
0 Rectangle with rounded corners*
0 $1 Rounding radius*
0 $2 $3 $4 $5 $6 $7 $8 $9 X,Y pos of 4 corners*
0 Add a 4 corners polygon primitive as box body*
4,1,4,$2,$3,$4,$5,$6,$7,$8,$9,$2,$3,0*
0 Add four circle primitives for the rounded corners*
1,1,$1+$1,$2,$3*
1,1,$1+$1,$4,$5*
1,1,$1+$1,$6,$7*
1,1,$1+$1,$8,$9*
0 Add four rect primitives between the rounded corners*
20,1,$1+$1,$2,$3,$4,$5,0*
20,1,$1+$1,$4,$5,$6,$7,0*
20,1,$1+$1,$6,$7,$8,$9,0*
20,1,$1+$1,$8,$9,$2,$3,0*%
%AMHorizOval*
0 Thick line with rounded ends*
0 $1 width*
0 $2 $3 position (X,Y) of the first rounded end (center of the circle)*
0 $4 $5 position (X,Y) of the second rounded end (center of the circle)*
0 Add line between two ends*
20,1,$1,$2,$3,$4,$5,0*
0 Add two circle primitives to create the rounded ends*
1,1,$1,$2,$3*
1,1,$1,$4,$5*%
%AMRotRect*
0 Rectangle, with rotation*
0 The origin of the aperture is its center*
0 $1 length*
0 $2 width*
0 $3 Rotation angle, in degrees counterclockwise*
0 Add horizontal line*
21,1,$1,$2,0,0,$3*%
G04 Aperture macros list end*
%TA.AperFunction,ComponentPad*%
%ADD10R,1.600000X1.600000*%
%TD*%
%TA.AperFunction,ComponentPad*%
%ADD11O,1.600000X1.600000*%
%TD*%
%TA.AperFunction,ComponentPad*%
%ADD12C,1.600000*%
%TD*%
%TA.AperFunction,ComponentPad*%
%ADD13HorizOval,1.600000X0.000000X0.000000X0.000000X0.000000X0*%
%TD*%
%TA.AperFunction,ComponentPad*%
%ADD14C,1.500000*%
%TD*%
%TA.AperFunction,ComponentPad*%
%ADD15R,2.400000X2.400000*%
%TD*%
%TA.AperFunction,ComponentPad*%
%ADD16O,2.400000X2.400000*%
%TD*%
%TA.AperFunction,ComponentPad*%
%ADD17R,1.700000X1.700000*%
%TD*%
%TA.AperFunction,ComponentPad*%
%ADD18O,1.700000X1.700000*%
%TD*%
%TA.AperFunction,ComponentPad*%
%ADD19RoundRect,0.249999X-0.525001X0.525001X-0.525001X-0.525001X0.525001X-0.525001X0.525001X0.525001X0*%
%TD*%
%TA.AperFunction,ComponentPad*%
%ADD20C,1.550000*%
%TD*%
%TA.AperFunction,ComponentPad*%
%ADD21RotRect,1.600000X1.600000X14.000000*%
%TD*%
%TA.AperFunction,ComponentPad*%
%ADD22R,2.000000X1.905000*%
%TD*%
%TA.AperFunction,ComponentPad*%
%ADD23O,2.000000X1.905000*%
%TD*%
%TA.AperFunction,ViaPad*%
%ADD24C,0.600000*%
%TD*%
%TA.AperFunction,ViaPad*%
%ADD25C,0.800000*%
%TD*%
%TA.AperFunction,Conductor*%
%ADD26C,0.750000*%
%TD*%
%TA.AperFunction,Conductor*%
%ADD27C,0.300000*%
%TD*%
%TA.AperFunction,Conductor*%
%ADD28C,0.500000*%
%TD*%
%TA.AperFunction,Conductor*%
%ADD29C,0.350000*%
%TD*%
G04 APERTURE END LIST*
D10*
%TO.P,D1,1,K*%
%TO.N,/DSMC*%
X163271200Y-94721200D03*
D11*
%TO.P,D1,2,A*%
%TO.N,Net-(D1-A)*%
X173431200Y-94721200D03*
%TD*%
D12*
%TO.P,R7,1*%
%TO.N,+5V*%
X150368000Y-125095000D03*
D11*
%TO.P,R7,2*%
%TO.N,/FDC_IP*%
X150368000Y-114935000D03*
%TD*%
D10*
%TO.P,D3,1,K*%
%TO.N,/SRAM_CS2*%
X163271200Y-101821200D03*
D11*
%TO.P,D3,2,A*%
%TO.N,/DTACKL*%
X173431200Y-101821200D03*
%TD*%
D12*
%TO.P,R6,1*%
%TO.N,Net-(R6-Pad1)*%
X143002000Y-128016000D03*
D11*
%TO.P,R6,2*%
%TO.N,Net-(R5-Pad1)*%
X153162000Y-128016000D03*
%TD*%
D12*
%TO.P,R5,1*%
%TO.N,Net-(R5-Pad1)*%
X153162000Y-134518400D03*
D11*
%TO.P,R5,2*%
%TO.N,/CLK*%
X143002000Y-134518400D03*
%TD*%
D12*
%TO.P,U4,1,A18*%
%TO.N,/A18*%
X118244083Y-55445721D03*
D13*
%TO.P,U4,2,A16*%
%TO.N,/A16*%
X118858565Y-57910272D03*
%TO.P,U4,3,A14*%
%TO.N,/A14*%
X119473046Y-60374823D03*
%TO.P,U4,4,A12*%
%TO.N,/A12*%
X120087528Y-62839374D03*
%TO.P,U4,5,A7*%
%TO.N,/A7*%
X120702008Y-65303926D03*
%TO.P,U4,6,A6*%
%TO.N,/A6*%
X121316491Y-67768477D03*
%TO.P,U4,7,A5*%
%TO.N,/A5*%
X121930973Y-70233028D03*
%TO.P,U4,8,A4*%
%TO.N,/A4*%
X122545454Y-72697579D03*
%TO.P,U4,9,A3*%
%TO.N,/A3*%
X123159936Y-75162130D03*
%TO.P,U4,10,A2*%
%TO.N,/A2*%
X123774419Y-77626681D03*
%TO.P,U4,11,A1*%
%TO.N,/A1*%
X124388899Y-80091232D03*
%TO.P,U4,12,A0*%
%TO.N,/A0*%
X125003381Y-82555784D03*
%TO.P,U4,13,DQ0*%
%TO.N,/D0*%
X125617862Y-85020335D03*
%TO.P,U4,14,DQ1*%
%TO.N,/D1*%
X126232344Y-87484886D03*
%TO.P,U4,15,DQ2*%
%TO.N,/D2*%
X126846826Y-89949437D03*
%TO.P,U4,16,VSS*%
%TO.N,GND*%
X127461307Y-92413988D03*
%TO.P,U4,17,DQ3*%
%TO.N,/D3*%
X142248614Y-88727098D03*
%TO.P,U4,18,DQ4*%
%TO.N,/D4*%
X141634132Y-86262547D03*
%TO.P,U4,19,DQ5*%
%TO.N,/D5*%
X141019651Y-83797996D03*
%TO.P,U4,20,DQ6*%
%TO.N,/D6*%
X140405169Y-81333445D03*
%TO.P,U4,21,DQ7*%
%TO.N,/D7*%
X139790688Y-78868894D03*
%TO.P,U4,22,CE#*%
%TO.N,/SRAM_CS2*%
X139176206Y-76404343D03*
%TO.P,U4,23,A10*%
%TO.N,/A10*%
X138561724Y-73939792D03*
%TO.P,U4,24,OE#*%
%TO.N,GND*%
X137947243Y-71475240D03*
%TO.P,U4,25,A11*%
%TO.N,/A11*%
X137332761Y-69010689D03*
%TO.P,U4,26,A9*%
%TO.N,/A9*%
X136718280Y-66546138D03*
%TO.P,U4,27,A8*%
%TO.N,/A8*%
X136103798Y-64081587D03*
%TO.P,U4,28,A13*%
%TO.N,/A13*%
X135489316Y-61617036D03*
%TO.P,U4,29,WE#*%
%TO.N,/RW*%
X134874835Y-59152485D03*
%TO.P,U4,30,A17*%
%TO.N,/A17*%
X134260353Y-56687934D03*
%TO.P,U4,31,A15*%
%TO.N,/A15*%
X133645871Y-54223381D03*
%TO.P,U4,32,VCC*%
%TO.N,+5V*%
X133031390Y-51758831D03*
%TD*%
D10*
%TO.P,U13,1,~{CS}*%
%TO.N,/FDCON_CS*%
X160568800Y-95956200D03*
D11*
%TO.P,U13,2,R/~{W}*%
%TO.N,/RW*%
X158028800Y-95956200D03*
%TO.P,U13,3,A0*%
%TO.N,/A0*%
X155488800Y-95956200D03*
%TO.P,U13,4,A1*%
%TO.N,/A1*%
X152948800Y-95956200D03*
%TO.P,U13,5,DI0*%
%TO.N,/D0*%
X150408800Y-95956200D03*
%TO.P,U13,6,DI1*%
%TO.N,/D1*%
X147868800Y-95956200D03*
%TO.P,U13,7,DI2*%
%TO.N,/D2*%
X145328800Y-95956200D03*
%TO.P,U13,8,DI3*%
%TO.N,/D3*%
X142788800Y-95956200D03*
%TO.P,U13,9,DI4*%
%TO.N,/D4*%
X140248800Y-95956200D03*
%TO.P,U13,10,DI5*%
%TO.N,/D5*%
X137708800Y-95956200D03*
%TO.P,U13,11,DI6*%
%TO.N,/D6*%
X135168800Y-95956200D03*
%TO.P,U13,12,DI7*%
%TO.N,/D7*%
X132628800Y-95956200D03*
%TO.P,U13,13,~{MR}*%
%TO.N,/RESET*%
X130088800Y-95956200D03*
%TO.P,U13,14,GND*%
%TO.N,GND*%
X127548800Y-95956200D03*
%TO.P,U13,15,VCC*%
%TO.N,+5V*%
X127548800Y-111196200D03*
%TO.P,U13,16,STEP*%
%TO.N,/FDC_STEP*%
X130088800Y-111196200D03*
%TO.P,U13,17,DIRC*%
%TO.N,/FDC_DIR*%
X132628800Y-111196200D03*
%TO.P,U13,18,CLK*%
%TO.N,/CLK*%
X135168800Y-111196200D03*
%TO.P,U13,19,~{RD}*%
%TO.N,/FDC_RD*%
X137708800Y-111196200D03*
%TO.P,U13,20,MOTOR*%
%TO.N,unconnected-(U13-MOTOR-Pad20)*%
X140248800Y-111196200D03*
%TO.P,U13,21,WG*%
%TO.N,/FDC_WG*%
X142788800Y-111196200D03*
%TO.P,U13,22,WD*%
%TO.N,/FDC_WD*%
X145328800Y-111196200D03*
%TO.P,U13,23,~{TR00}*%
%TO.N,/FDC_T0*%
X147868800Y-111196200D03*
%TO.P,U13,24,~{IP}*%
%TO.N,/FDC_IP*%
X150408800Y-111196200D03*
%TO.P,U13,25,~{WPRT}*%
%TO.N,/FDC_WPRT*%
X152948800Y-111196200D03*
%TO.P,U13,26,~{DDEN}*%
%TO.N,GND*%
X155488800Y-111196200D03*
%TO.P,U13,27,DRQ*%
%TO.N,unconnected-(U13-DRQ-Pad27)*%
X158028800Y-111196200D03*
%TO.P,U13,28,INTRQ*%
%TO.N,unconnected-(U13-INTRQ-Pad28)*%
X160568800Y-111196200D03*
%TD*%
D10*
%TO.P,D7,1,K*%
%TO.N,/CS175*%
X163271200Y-108921200D03*
D11*
%TO.P,D7,2,A*%
%TO.N,/DTACKL*%
X173431200Y-108921200D03*
%TD*%
D10*
%TO.P,U1,1,I1/CLK*%
%TO.N,/DS*%
X175707200Y-81986200D03*
D11*
%TO.P,U1,2,I2*%
%TO.N,/A19*%
X175707200Y-79446200D03*
%TO.P,U1,3,I3*%
%TO.N,/A18*%
X175707200Y-76906200D03*
%TO.P,U1,4,I4*%
%TO.N,/A17*%
X175707200Y-74366200D03*
%TO.P,U1,5,I5*%
%TO.N,/A16*%
X175707200Y-71826200D03*
%TO.P,U1,6,I6*%
%TO.N,/A15*%
X175707200Y-69286200D03*
%TO.P,U1,7,I7*%
%TO.N,/RESET*%
X175707200Y-66746200D03*
%TO.P,U1,8,I8*%
%TO.N,/A14*%
X175707200Y-64206200D03*
%TO.P,U1,9,I9*%
%TO.N,/A13*%
X175707200Y-61666200D03*
%TO.P,U1,10,GND*%
%TO.N,GND*%
X175707200Y-59126200D03*
%TO.P,U1,11,I10/~{OE}*%
%TO.N,unconnected-(U1-I10{slash}~{OE}-Pad11)*%
X168087200Y-59126200D03*
%TO.P,U1,12,IO8*%
%TO.N,Net-(D1-A)*%
X168087200Y-61666200D03*
%TO.P,U1,13,IO7*%
%TO.N,unconnected-(U1-IO7-Pad13)*%
X168087200Y-64206200D03*
%TO.P,U1,14,IO6*%
%TO.N,/SRAM_CS1*%
X168087200Y-66746200D03*
%TO.P,U1,15,IO5*%
%TO.N,/SRAM_CS2*%
X168087200Y-69286200D03*
%TO.P,U1,16,IO4*%
%TO.N,unconnected-(U1-IO4-Pad16)*%
X168087200Y-71826200D03*
%TO.P,U1,17,I03*%
%TO.N,/FDCON_CS*%
X168087200Y-74366200D03*
%TO.P,U1,18,IO2*%
%TO.N,/CS175*%
X168087200Y-76906200D03*
%TO.P,U1,19,IO1*%
%TO.N,/ROM_CE*%
X168087200Y-79446200D03*
%TO.P,U1,20,VCC*%
%TO.N,+5V*%
X168087200Y-81986200D03*
%TD*%
D12*
%TO.P,C19,1*%
%TO.N,GND*%
X102819200Y-140472800D03*
%TO.P,C19,2*%
%TO.N,+5V*%
X102819200Y-135472800D03*
%TD*%
D10*
%TO.P,D8,1,K*%
%TO.N,/ROM_CE*%
X163271200Y-112471200D03*
D11*
%TO.P,D8,2,A*%
%TO.N,/DTACKL*%
X173431200Y-112471200D03*
%TD*%
D14*
%TO.P,Y1,1,1*%
%TO.N,/CLK*%
X137210800Y-134530000D03*
%TO.P,Y1,2,2*%
%TO.N,Net-(R6-Pad1)*%
X137210800Y-129630000D03*
%TD*%
D12*
%TO.P,C22,1*%
%TO.N,+5V*%
X157226000Y-131662800D03*
%TO.P,C22,2*%
%TO.N,GND*%
X157226000Y-136662800D03*
%TD*%
%TO.P,R10,1*%
%TO.N,+5V*%
X147421600Y-125095000D03*
D11*
%TO.P,R10,2*%
%TO.N,/FDC_T0*%
X147421600Y-114935000D03*
%TD*%
D10*
%TO.P,D6,1,K*%
%TO.N,/FDCON_CS*%
X163271200Y-105371200D03*
D11*
%TO.P,D6,2,A*%
%TO.N,/DTACKL*%
X173431200Y-105371200D03*
%TD*%
D15*
%TO.P,C24,1*%
%TO.N,+5V*%
X93886800Y-67151700D03*
D16*
%TO.P,C24,2*%
%TO.N,GND*%
X75886800Y-67151700D03*
%TD*%
D12*
%TO.P,C1,1*%
%TO.N,+5V*%
X154747600Y-47244000D03*
%TO.P,C1,2*%
%TO.N,GND*%
X149747600Y-47244000D03*
%TD*%
D10*
%TO.P,D2,1,K*%
%TO.N,/SRAM_CS1*%
X163271200Y-98271200D03*
D11*
%TO.P,D2,2,A*%
%TO.N,/DTACKL*%
X173431200Y-98271200D03*
%TD*%
D15*
%TO.P,C23,1*%
%TO.N,+5V*%
X93886800Y-74486700D03*
D16*
%TO.P,C23,2*%
%TO.N,GND*%
X75886800Y-74486700D03*
%TD*%
D17*
%TO.P,J2,1,Pin_1*%
%TO.N,GND*%
X86995000Y-137541000D03*
D18*
%TO.P,J2,2,Pin_2*%
%TO.N,unconnected-(J2-Pin_2-Pad2)*%
X84455000Y-137541000D03*
%TO.P,J2,3,Pin_3*%
%TO.N,GND*%
X86995000Y-135001000D03*
%TO.P,J2,4,Pin_4*%
%TO.N,unconnected-(J2-Pin_4-Pad4)*%
X84455000Y-135001000D03*
%TO.P,J2,5,Pin_5*%
%TO.N,GND*%
X86995000Y-132461000D03*
%TO.P,J2,6,Pin_6*%
%TO.N,/DS3*%
X84455000Y-132461000D03*
%TO.P,J2,7,Pin_7*%
%TO.N,GND*%
X86995000Y-129921000D03*
%TO.P,J2,8,Pin_8*%
%TO.N,/FDC_IP*%
X84455000Y-129921000D03*
%TO.P,J2,9,Pin_9*%
%TO.N,GND*%
X86995000Y-127381000D03*
%TO.P,J2,10,Pin_10*%
%TO.N,/DS0*%
X84455000Y-127381000D03*
%TO.P,J2,11,Pin_11*%
%TO.N,GND*%
X86995000Y-124841000D03*
%TO.P,J2,12,Pin_12*%
%TO.N,/DS1*%
X84455000Y-124841000D03*
%TO.P,J2,13,Pin_13*%
%TO.N,GND*%
X86995000Y-122301000D03*
%TO.P,J2,14,Pin_14*%
%TO.N,/DS2*%
X84455000Y-122301000D03*
%TO.P,J2,15,Pin_15*%
%TO.N,GND*%
X86995000Y-119761000D03*
%TO.P,J2,16,Pin_16*%
%TO.N,/MOTOR_ON*%
X84455000Y-119761000D03*
%TO.P,J2,17,Pin_17*%
%TO.N,GND*%
X86995000Y-117221000D03*
%TO.P,J2,18,Pin_18*%
%TO.N,/DIR*%
X84455000Y-117221000D03*
%TO.P,J2,19,Pin_19*%
%TO.N,GND*%
X86995000Y-114681000D03*
%TO.P,J2,20,Pin_20*%
%TO.N,/STEP*%
X84455000Y-114681000D03*
%TO.P,J2,21,Pin_21*%
%TO.N,GND*%
X86995000Y-112141000D03*
%TO.P,J2,22,Pin_22*%
%TO.N,/DATA_WR*%
X84455000Y-112141000D03*
%TO.P,J2,23,Pin_23*%
%TO.N,GND*%
X86995000Y-109601000D03*
%TO.P,J2,24,Pin_24*%
%TO.N,/GATE_WR*%
X84455000Y-109601000D03*
%TO.P,J2,25,Pin_25*%
%TO.N,GND*%
X86995000Y-107061000D03*
%TO.P,J2,26,Pin_26*%
%TO.N,/FDC_T0*%
X84455000Y-107061000D03*
%TO.P,J2,27,Pin_27*%
%TO.N,GND*%
X86995000Y-104521000D03*
%TO.P,J2,28,Pin_28*%
%TO.N,/FDC_WPRT*%
X84455000Y-104521000D03*
%TO.P,J2,29,Pin_29*%
%TO.N,GND*%
X86995000Y-101981000D03*
%TO.P,J2,30,Pin_30*%
%TO.N,/FDC_RD*%
X84455000Y-101981000D03*
%TO.P,J2,31,Pin_31*%
%TO.N,GND*%
X86995000Y-99441000D03*
%TO.P,J2,32,Pin_32*%
%TO.N,/HEAD*%
X84455000Y-99441000D03*
%TO.P,J2,33,Pin_33*%
%TO.N,GND*%
X86995000Y-96901000D03*
%TO.P,J2,34,Pin_34*%
%TO.N,unconnected-(J2-Pin_34-Pad34)*%
X84455000Y-96901000D03*
%TD*%
D10*
%TO.P,U16,1,~{Mr}*%
%TO.N,/RESET*%
X119573200Y-113777000D03*
D11*
%TO.P,U16,2,Q0*%
%TO.N,unconnected-(U16-Q0-Pad2)*%
X119573200Y-111237000D03*
%TO.P,U16,3,~{Q0}*%
%TO.N,/DS3*%
X119573200Y-108697000D03*
%TO.P,U16,4,D0*%
%TO.N,/D4*%
X119573200Y-106157000D03*
%TO.P,U16,5,D1*%
%TO.N,/D5*%
X119573200Y-103617000D03*
%TO.P,U16,6,~{Q1}*%
%TO.N,/DS2*%
X119573200Y-101077000D03*
%TO.P,U16,7,Q1*%
%TO.N,unconnected-(U16-Q1-Pad7)*%
X119573200Y-98537000D03*
%TO.P,U16,8,GND*%
%TO.N,GND*%
X119573200Y-95997000D03*
%TO.P,U16,9,Cp*%
%TO.N,/CS175*%
X111953200Y-95997000D03*
%TO.P,U16,10,Q2*%
%TO.N,unconnected-(U16-Q2-Pad10)*%
X111953200Y-98537000D03*
%TO.P,U16,11,~{Q2}*%
%TO.N,unconnected-(U16-~{Q2}-Pad11)*%
X111953200Y-101077000D03*
%TO.P,U16,12,D2*%
%TO.N,/D7*%
X111953200Y-103617000D03*
%TO.P,U16,13,D3*%
%TO.N,/D6*%
X111953200Y-106157000D03*
%TO.P,U16,14,~{Q3}*%
%TO.N,unconnected-(U16-~{Q3}-Pad14)*%
X111953200Y-108697000D03*
%TO.P,U16,15,Q3*%
%TO.N,unconnected-(U16-Q3-Pad15)*%
X111953200Y-111237000D03*
%TO.P,U16,16,VCC*%
%TO.N,+5V*%
X111953200Y-113777000D03*
%TD*%
D12*
%TO.P,R8,1*%
%TO.N,+5V*%
X137718800Y-124155200D03*
D11*
%TO.P,R8,2*%
%TO.N,/FDC_RD*%
X137718800Y-113995200D03*
%TD*%
D12*
%TO.P,C18,1*%
%TO.N,+5V*%
X123647200Y-114666400D03*
%TO.P,C18,2*%
%TO.N,GND*%
X123647200Y-109666400D03*
%TD*%
D15*
%TO.P,C14,1*%
%TO.N,+9V*%
X93937600Y-59856300D03*
D16*
%TO.P,C14,2*%
%TO.N,GND*%
X75937600Y-59856300D03*
%TD*%
D12*
%TO.P,C10,1*%
%TO.N,GND*%
X128106800Y-47244000D03*
%TO.P,C10,2*%
%TO.N,+5V*%
X133106800Y-47244000D03*
%TD*%
D19*
%TO.P,J1,a1,Vin*%
%TO.N,+9V*%
X184481476Y-53092074D03*
D20*
%TO.P,J1,a2,-12V*%
%TO.N,unconnected-(J1--12V-Pada2)*%
X184481476Y-55632074D03*
%TO.P,J1,a3,+12V*%
%TO.N,unconnected-(J1-+12V-Pada3)*%
X184481476Y-58172074D03*
%TO.P,J1,a4,SP0*%
%TO.N,/SP0*%
X184481476Y-60712074D03*
%TO.P,J1,a5,SP1*%
%TO.N,/SP1*%
X184481476Y-63252074D03*
%TO.P,J1,a6,~{DSMC}*%
%TO.N,/DSMC*%
X184481476Y-65792074D03*
%TO.P,J1,a7,SP2*%
%TO.N,/SP2*%
X184481476Y-68332074D03*
%TO.P,J1,a8,~{DBG}*%
%TO.N,unconnected-(J1-~{DBG}-Pada8)*%
X184481476Y-70872074D03*
%TO.P,J1,a9,A3*%
%TO.N,/A3*%
X184481476Y-73412074D03*
%TO.P,J1,a10,A4*%
%TO.N,/A4*%
X184481476Y-75952074D03*
%TO.P,J1,a11,A5*%
%TO.N,/A5*%
X184481476Y-78492074D03*
%TO.P,J1,a12,A6*%
%TO.N,/A6*%
X184481476Y-81032074D03*
%TO.P,J1,a13,A7*%
%TO.N,/A7*%
X184481476Y-83572074D03*
%TO.P,J1,a14,A8*%
%TO.N,/A8*%
X184481476Y-86112074D03*
%TO.P,J1,a15,A9*%
%TO.N,/A9*%
X184481476Y-88652074D03*
%TO.P,J1,a16,A10*%
%TO.N,/A10*%
X184481476Y-91192074D03*
%TO.P,J1,a17,A11*%
%TO.N,/A11*%
X184481476Y-93732074D03*
%TO.P,J1,a18,A12*%
%TO.N,/A12*%
X184481476Y-96272074D03*
%TO.P,J1,a19,A13*%
%TO.N,/A13*%
X184481476Y-98812074D03*
%TO.P,J1,a20,A14*%
%TO.N,/A14*%
X184481476Y-101352074D03*
%TO.P,J1,a21,RED*%
%TO.N,unconnected-(J1-RED-Pada21)*%
X184481476Y-103892074D03*
%TO.P,J1,a22,CLKCPU*%
%TO.N,unconnected-(J1-CLKCPU-Pada22)*%
X184481476Y-106432074D03*
%TO.P,J1,a23,A16*%
%TO.N,/A16*%
X184481476Y-108972074D03*
%TO.P,J1,a24,A17*%
%TO.N,/A17*%
X184481476Y-111512074D03*
%TO.P,J1,a25,A18*%
%TO.N,/A18*%
X184481476Y-114052074D03*
%TO.P,J1,a26,A19*%
%TO.N,/A19*%
X184481476Y-116592074D03*
%TO.P,J1,a27,D7*%
%TO.N,/D7*%
X184481476Y-119132074D03*
%TO.P,J1,a28,D6*%
%TO.N,/D6*%
X184481476Y-121672074D03*
%TO.P,J1,a29,D5*%
%TO.N,/D5*%
X184481476Y-124212074D03*
%TO.P,J1,a30,D4*%
%TO.N,/D4*%
X184481476Y-126752074D03*
%TO.P,J1,a31,D3*%
%TO.N,/D3*%
X184481476Y-129292074D03*
%TO.P,J1,a32,GND*%
%TO.N,GND*%
X184481476Y-131832074D03*
%TO.P,J1,b1,Vin*%
%TO.N,+9V*%
X181941476Y-53092074D03*
%TO.P,J1,b2,Vin*%
X181941476Y-55632074D03*
%TO.P,J1,b3,~{EXTINT}*%
%TO.N,/EXTINTL*%
X181941476Y-58172074D03*
%TO.P,J1,b4,~{IPL1}*%
%TO.N,unconnected-(J1-~{IPL1}-Padb4)*%
X181941476Y-60712074D03*
%TO.P,J1,b5,~{BERR}*%
%TO.N,unconnected-(J1-~{BERR}-Padb5)*%
X181941476Y-63252074D03*
%TO.P,J1,b6,~{IPLO}*%
%TO.N,unconnected-(J1-~{IPLO}-Padb6)*%
X181941476Y-65792074D03*
%TO.P,J1,b7,SP3*%
%TO.N,/SP3*%
X181941476Y-68332074D03*
%TO.P,J1,b8,A2*%
%TO.N,/A2*%
X181941476Y-70872074D03*
%TO.P,J1,b9,G9*%
%TO.N,/A1*%
X181941476Y-73412074D03*
%TO.P,J1,b10,ROMOEH*%
%TO.N,unconnected-(J1-ROMOEH-Padb10)*%
X181941476Y-75952074D03*
%TO.P,J1,b11,A0*%
%TO.N,/A0*%
X181941476Y-78492074D03*
%TO.P,J1,b12,FC0*%
%TO.N,unconnected-(J1-FC0-Padb12)*%
X181941476Y-81032074D03*
%TO.P,J1,b13,FC1*%
%TO.N,unconnected-(J1-FC1-Padb13)*%
X181941476Y-83572074D03*
%TO.P,J1,b14,FC2*%
%TO.N,unconnected-(J1-FC2-Padb14)*%
X181941476Y-86112074D03*
%TO.P,J1,b15,BLUE*%
%TO.N,unconnected-(J1-BLUE-Padb15)*%
X181941476Y-88652074D03*
%TO.P,J1,b16,GREEN*%
%TO.N,unconnected-(J1-GREEN-Padb16)*%
X181941476Y-91192074D03*
%TO.P,J1,b17,~{VPA}*%
%TO.N,/VPA*%
X181941476Y-93732074D03*
%TO.P,J1,b18,VSYNCH*%
%TO.N,unconnected-(J1-VSYNCH-Padb18)*%
X181941476Y-96272074D03*
%TO.P,J1,b19,E*%
%TO.N,/E*%
X181941476Y-98812074D03*
%TO.P,J1,b20,~{CSYNC}*%
%TO.N,unconnected-(J1-~{CSYNC}-Padb20)*%
X181941476Y-101352074D03*
%TO.P,J1,b21,~{RESETCPU}*%
%TO.N,/RESET*%
X181941476Y-103892074D03*
%TO.P,J1,b22,A15*%
%TO.N,/A15*%
X181941476Y-106432074D03*
%TO.P,J1,b23,~{BR}*%
%TO.N,unconnected-(J1-~{BR}-Padb23)*%
X181941476Y-108972074D03*
%TO.P,J1,b24,~{BG}*%
%TO.N,unconnected-(J1-~{BG}-Padb24)*%
X181941476Y-111512074D03*
%TO.P,J1,b25,~{DTACK}*%
%TO.N,/DTACKL*%
X181941476Y-114052074D03*
%TO.P,J1,b26,~{DRW}*%
%TO.N,/RW*%
X181941476Y-116592074D03*
%TO.P,J1,b27,~{DS}*%
%TO.N,/DS*%
X181941476Y-119132074D03*
%TO.P,J1,b28,~{AS}*%
%TO.N,unconnected-(J1-~{AS}-Padb28)*%
X181941476Y-121672074D03*
%TO.P,J1,b29,D0*%
%TO.N,/D0*%
X181941476Y-124212074D03*
%TO.P,J1,b30,D1*%
%TO.N,/D1*%
X181941476Y-126752074D03*
%TO.P,J1,b31,D2*%
%TO.N,/D2*%
X181941476Y-129292074D03*
%TO.P,J1,b32,GND*%
%TO.N,GND*%
X181941476Y-131832074D03*
%TD*%
D12*
%TO.P,C21,1*%
%TO.N,GND*%
X124801000Y-92862400D03*
%TO.P,C21,2*%
%TO.N,+5V*%
X119801000Y-92862400D03*
%TD*%
%TO.P,C12,1*%
%TO.N,+5V*%
X112990000Y-47345600D03*
%TO.P,C12,2*%
%TO.N,GND*%
X107990000Y-47345600D03*
%TD*%
D15*
%TO.P,C25,1*%
%TO.N,+5V*%
X93988400Y-89269500D03*
D16*
%TO.P,C25,2*%
%TO.N,GND*%
X75988400Y-89269500D03*
%TD*%
D12*
%TO.P,C17,1*%
%TO.N,+5V*%
X99441000Y-86654000D03*
%TO.P,C17,2*%
%TO.N,GND*%
X99441000Y-91654000D03*
%TD*%
%TO.P,R9,1*%
%TO.N,+5V*%
X153365200Y-125095000D03*
D11*
%TO.P,R9,2*%
%TO.N,/FDC_WPRT*%
X153365200Y-114935000D03*
%TD*%
D21*
%TO.P,U2,1,A18*%
%TO.N,/A18*%
X98178083Y-55445721D03*
D13*
%TO.P,U2,2,A16*%
%TO.N,/A16*%
X98792565Y-57910272D03*
%TO.P,U2,3,A14*%
%TO.N,/A14*%
X99407046Y-60374823D03*
%TO.P,U2,4,A12*%
%TO.N,/A12*%
X100021528Y-62839374D03*
%TO.P,U2,5,A7*%
%TO.N,/A7*%
X100636008Y-65303926D03*
%TO.P,U2,6,A6*%
%TO.N,/A6*%
X101250491Y-67768477D03*
%TO.P,U2,7,A5*%
%TO.N,/A5*%
X101864973Y-70233028D03*
%TO.P,U2,8,A4*%
%TO.N,/A4*%
X102479454Y-72697579D03*
%TO.P,U2,9,A3*%
%TO.N,/A3*%
X103093936Y-75162130D03*
%TO.P,U2,10,A2*%
%TO.N,/A2*%
X103708419Y-77626681D03*
%TO.P,U2,11,A1*%
%TO.N,/A1*%
X104322899Y-80091232D03*
%TO.P,U2,12,A0*%
%TO.N,/A0*%
X104937381Y-82555784D03*
%TO.P,U2,13,DQ0*%
%TO.N,/D0*%
X105551862Y-85020335D03*
%TO.P,U2,14,DQ1*%
%TO.N,/D1*%
X106166344Y-87484886D03*
%TO.P,U2,15,DQ2*%
%TO.N,/D2*%
X106780826Y-89949437D03*
%TO.P,U2,16,VSS*%
%TO.N,GND*%
X107395307Y-92413988D03*
%TO.P,U2,17,DQ3*%
%TO.N,/D3*%
X122182614Y-88727098D03*
%TO.P,U2,18,DQ4*%
%TO.N,/D4*%
X121568132Y-86262547D03*
%TO.P,U2,19,DQ5*%
%TO.N,/D5*%
X120953651Y-83797996D03*
%TO.P,U2,20,DQ6*%
%TO.N,/D6*%
X120339169Y-81333445D03*
%TO.P,U2,21,DQ7*%
%TO.N,/D7*%
X119724688Y-78868894D03*
%TO.P,U2,22,CE#*%
%TO.N,/SRAM_CS1*%
X119110206Y-76404343D03*
%TO.P,U2,23,A10*%
%TO.N,/A10*%
X118495724Y-73939792D03*
%TO.P,U2,24,OE#*%
%TO.N,GND*%
X117881243Y-71475240D03*
%TO.P,U2,25,A11*%
%TO.N,/A11*%
X117266761Y-69010689D03*
%TO.P,U2,26,A9*%
%TO.N,/A9*%
X116652280Y-66546138D03*
%TO.P,U2,27,A8*%
%TO.N,/A8*%
X116037798Y-64081587D03*
%TO.P,U2,28,A13*%
%TO.N,/A13*%
X115423316Y-61617036D03*
%TO.P,U2,29,WE#*%
%TO.N,/RW*%
X114808835Y-59152485D03*
%TO.P,U2,30,A17*%
%TO.N,/A17*%
X114194353Y-56687934D03*
%TO.P,U2,31,A15*%
%TO.N,/A15*%
X113579871Y-54223381D03*
%TO.P,U2,32,VCC*%
%TO.N,+5V*%
X112965390Y-51758831D03*
%TD*%
D12*
%TO.P,C13,1*%
%TO.N,+5V*%
X177546000Y-52792000D03*
%TO.P,C13,2*%
%TO.N,GND*%
X177546000Y-47792000D03*
%TD*%
D22*
%TO.P,U18,1,VI*%
%TO.N,+9V*%
X93251476Y-52425600D03*
D23*
%TO.P,U18,2,GND*%
%TO.N,GND*%
X93251476Y-49885600D03*
%TO.P,U18,3,VO*%
%TO.N,+5V*%
X93251476Y-47345600D03*
%TD*%
D15*
%TO.P,C16,1*%
%TO.N,+5V*%
X93886800Y-81821700D03*
D16*
%TO.P,C16,2*%
%TO.N,GND*%
X75886800Y-81821700D03*
%TD*%
D10*
%TO.P,U3,1*%
%TO.N,GND*%
X161335800Y-137708800D03*
D11*
%TO.P,U3,2*%
%TO.N,unconnected-(U3-Pad2)*%
X163875800Y-137708800D03*
%TO.P,U3,3*%
%TO.N,GND*%
X166415800Y-137708800D03*
%TO.P,U3,4*%
%TO.N,unconnected-(U3-Pad4)*%
X168955800Y-137708800D03*
%TO.P,U3,5*%
%TO.N,GND*%
X171495800Y-137708800D03*
%TO.P,U3,6*%
%TO.N,unconnected-(U3-Pad6)*%
X174035800Y-137708800D03*
%TO.P,U3,7,GND*%
%TO.N,GND*%
X176575800Y-137708800D03*
%TO.P,U3,8*%
%TO.N,/ROM_OE*%
X176575800Y-130088800D03*
%TO.P,U3,9*%
%TO.N,/RW*%
X174035800Y-130088800D03*
%TO.P,U3,10*%
%TO.N,/CLK*%
X171495800Y-130088800D03*
%TO.P,U3,11*%
%TO.N,Net-(R5-Pad1)*%
X168955800Y-130088800D03*
%TO.P,U3,12*%
X166415800Y-130088800D03*
%TO.P,U3,13*%
%TO.N,Net-(R6-Pad1)*%
X163875800Y-130088800D03*
%TO.P,U3,14,VCC*%
%TO.N,+5V*%
X161335800Y-130088800D03*
%TD*%
D10*
%TO.P,U15,1*%
%TO.N,+5V*%
X102712600Y-132984400D03*
D11*
%TO.P,U15,2*%
%TO.N,unconnected-(U15-Pad2)*%
X105252600Y-132984400D03*
%TO.P,U15,3*%
%TO.N,/FDC_WG*%
X107792600Y-132984400D03*
%TO.P,U15,4*%
%TO.N,/GATE_WR*%
X110332600Y-132984400D03*
%TO.P,U15,5*%
%TO.N,/FDC_DIR*%
X112872600Y-132984400D03*
%TO.P,U15,6*%
%TO.N,/DIR*%
X115412600Y-132984400D03*
%TO.P,U15,7,GND*%
%TO.N,GND*%
X117952600Y-132984400D03*
%TO.P,U15,8*%
%TO.N,/STEP*%
X117952600Y-125364400D03*
%TO.P,U15,9*%
%TO.N,/FDC_STEP*%
X115412600Y-125364400D03*
%TO.P,U15,10*%
%TO.N,unconnected-(U15-Pad10)*%
X112872600Y-125364400D03*
%TO.P,U15,11*%
%TO.N,+5V*%
X110332600Y-125364400D03*
%TO.P,U15,12*%
%TO.N,/DATA_WR*%
X107792600Y-125364400D03*
%TO.P,U15,13*%
%TO.N,/FDC_WD*%
X105252600Y-125364400D03*
%TO.P,U15,14,VCC*%
%TO.N,+5V*%
X102712600Y-125364400D03*
%TD*%
D12*
%TO.P,U14,1,VPP*%
%TO.N,+5V*%
X139892184Y-60358375D03*
D13*
%TO.P,U14,2,A12*%
%TO.N,/A12*%
X140506666Y-62822926D03*
%TO.P,U14,3,A7*%
%TO.N,/A7*%
X141121147Y-65287477D03*
%TO.P,U14,4,A6*%
%TO.N,/A6*%
X141735629Y-67752028D03*
%TO.P,U14,5,A5*%
%TO.N,/A5*%
X142350109Y-70216580D03*
%TO.P,U14,6,A4*%
%TO.N,/A4*%
X142964592Y-72681131D03*
%TO.P,U14,7,A3*%
%TO.N,/A3*%
X143579074Y-75145682D03*
%TO.P,U14,8,A2*%
%TO.N,/A2*%
X144193555Y-77610233D03*
%TO.P,U14,9,A1*%
%TO.N,/A1*%
X144808037Y-80074784D03*
%TO.P,U14,10,A0*%
%TO.N,/A0*%
X145422520Y-82539335D03*
%TO.P,U14,11,D0*%
%TO.N,/D0*%
X146037000Y-85003886D03*
%TO.P,U14,12,D1*%
%TO.N,/D1*%
X146651482Y-87468438D03*
%TO.P,U14,13,D2*%
%TO.N,/D2*%
X147265963Y-89932989D03*
%TO.P,U14,14,GND*%
%TO.N,GND*%
X147880445Y-92397540D03*
%TO.P,U14,15,D3*%
%TO.N,/D3*%
X162667752Y-88710650D03*
%TO.P,U14,16,D4*%
%TO.N,/D4*%
X162053270Y-86246099D03*
%TO.P,U14,17,D5*%
%TO.N,/D5*%
X161438789Y-83781548D03*
%TO.P,U14,18,D6*%
%TO.N,/D6*%
X160824307Y-81316997D03*
%TO.P,U14,19,D7*%
%TO.N,/D7*%
X160209825Y-78852446D03*
%TO.P,U14,20,~{CE}*%
%TO.N,/ROM_CE*%
X159595344Y-76387894D03*
%TO.P,U14,21,A10*%
%TO.N,/A10*%
X158980862Y-73923343D03*
%TO.P,U14,22,~{OE}*%
%TO.N,/ROM_OE*%
X158366381Y-71458792D03*
%TO.P,U14,23,A11*%
%TO.N,/A11*%
X157751899Y-68994241D03*
%TO.P,U14,24,A9*%
%TO.N,/A9*%
X157137417Y-66529690D03*
%TO.P,U14,25,A8*%
%TO.N,/A8*%
X156522936Y-64065139D03*
%TO.P,U14,26,A13*%
%TO.N,/A13*%
X155908454Y-61600588D03*
%TO.P,U14,27,A14*%
%TO.N,/A14*%
X155293972Y-59136035D03*
%TO.P,U14,28,VCC*%
%TO.N,+5V*%
X154679491Y-56671485D03*
%TD*%
D10*
%TO.P,U17,1,~{Mr}*%
%TO.N,/RESET*%
X107533600Y-113777000D03*
D11*
%TO.P,U17,2,Q0*%
%TO.N,unconnected-(U17-Q0-Pad2)*%
X107533600Y-111237000D03*
%TO.P,U17,3,~{Q0}*%
%TO.N,/HEAD*%
X107533600Y-108697000D03*
%TO.P,U17,4,D0*%
%TO.N,/D3*%
X107533600Y-106157000D03*
%TO.P,U17,5,D1*%
%TO.N,/D0*%
X107533600Y-103617000D03*
%TO.P,U17,6,~{Q1}*%
%TO.N,/DS1*%
X107533600Y-101077000D03*
%TO.P,U17,7,Q1*%
%TO.N,unconnected-(U17-Q1-Pad7)*%
X107533600Y-98537000D03*
%TO.P,U17,8,GND*%
%TO.N,GND*%
X107533600Y-95997000D03*
%TO.P,U17,9,Cp*%
%TO.N,/CS175*%
X99913600Y-95997000D03*
%TO.P,U17,10,Q2*%
%TO.N,unconnected-(U17-Q2-Pad10)*%
X99913600Y-98537000D03*
%TO.P,U17,11,~{Q2}*%
%TO.N,/MOTOR_ON*%
X99913600Y-101077000D03*
%TO.P,U17,12,D2*%
%TO.N,/D2*%
X99913600Y-103617000D03*
%TO.P,U17,13,D3*%
%TO.N,/D1*%
X99913600Y-106157000D03*
%TO.P,U17,14,~{Q3}*%
%TO.N,/DS0*%
X99913600Y-108697000D03*
%TO.P,U17,15,Q3*%
%TO.N,unconnected-(U17-Q3-Pad15)*%
X99913600Y-111237000D03*
%TO.P,U17,16,VCC*%
%TO.N,+5V*%
X99913600Y-113777000D03*
%TD*%
D24*
%TO.N,+5V*%
X178545985Y-57554006D03*
X170561000Y-60071000D03*
%TO.N,GND*%
X179451000Y-57531000D03*
D25*
X87122000Y-61468000D03*
X79502000Y-61468000D03*
X79502000Y-46101000D03*
X87122000Y-53721000D03*
X113900000Y-92413988D03*
X82042000Y-46101000D03*
X84582000Y-61468000D03*
X84582000Y-48641000D03*
X82042000Y-56261000D03*
X79502000Y-53721000D03*
X82042000Y-58801000D03*
X84582000Y-58801000D03*
X87122000Y-56261000D03*
X84582000Y-51181000D03*
D24*
X179197000Y-52578000D03*
D25*
X125864300Y-107449300D03*
X84582000Y-46101000D03*
X87122000Y-51181000D03*
X87122000Y-58801000D03*
X79502000Y-51181000D03*
X84582000Y-53721000D03*
X82042000Y-48641000D03*
X82042000Y-51181000D03*
X82042000Y-61468000D03*
X79502000Y-58801000D03*
X87122000Y-48641000D03*
X128651000Y-108839000D03*
X79502000Y-56261000D03*
X87122000Y-46101000D03*
X82042000Y-53721000D03*
X79502000Y-48641000D03*
X84582000Y-56261000D03*
%TO.N,/DSMC*%
X186791600Y-100177600D03*
%TO.N,Net-(D1-A)*%
X173431200Y-89458800D03*
X173431200Y-84582000D03*
%TO.N,/CS175*%
X171196000Y-89458800D03*
X171196000Y-84582000D03*
%TO.N,/ROM_CE*%
X166471600Y-89435650D03*
X166420800Y-84582000D03*
%TO.N,/A10*%
X185775600Y-67462400D03*
%TO.N,/A11*%
X179425600Y-63144400D03*
%TO.N,/D7*%
X132638800Y-78841600D03*
X132638800Y-102514400D03*
%TO.N,/D6*%
X135178800Y-81381600D03*
X135178800Y-104698800D03*
%TO.N,/D5*%
X137718800Y-103581200D03*
X137718800Y-83769200D03*
%TO.N,/D4*%
X140258800Y-106273600D03*
%TO.N,/D3*%
X110439200Y-88747600D03*
%TO.N,/A1*%
X152958800Y-80060800D03*
%TO.N,/A0*%
X155448000Y-82550000D03*
%TO.N,/RESET*%
X127736600Y-107569000D03*
%TO.N,/RW*%
X157988000Y-100838000D03*
%TO.N,/D0*%
X150408800Y-85049200D03*
X108915200Y-85039200D03*
%TO.N,/D1*%
X151638000Y-87477600D03*
X102920800Y-87528400D03*
X151655900Y-92169100D03*
%TO.N,/D2*%
X102006400Y-89916000D03*
%TO.N,/DS3*%
X101092000Y-131572000D03*
%TO.N,/DS0*%
X97023347Y-130179653D03*
%TO.N,/DS1*%
X98298000Y-130937000D03*
%TO.N,/ROM_OE*%
X173837600Y-114427074D03*
X156768800Y-93624400D03*
%TD*%
D26*
%TO.N,+5V*%
X102819200Y-133091000D02*
X102712600Y-132984400D01*
D27*
X120294400Y-107442000D02*
X117398800Y-107442000D01*
X99913600Y-113777000D02*
X95112600Y-113777000D01*
X123647200Y-114666400D02*
X122847201Y-115466399D01*
D28*
X177546000Y-56554021D02*
X177546000Y-52792000D01*
D26*
X117398800Y-95036000D02*
X117398800Y-107442000D01*
D27*
X120954800Y-108102400D02*
X120294400Y-107442000D01*
D26*
X113959400Y-113777000D02*
X111953200Y-113777000D01*
D28*
X178545985Y-57554006D02*
X177546000Y-56554021D01*
D26*
X117398800Y-107442000D02*
X117398800Y-110337600D01*
D27*
X119062599Y-115466399D02*
X117833380Y-114237180D01*
X120954800Y-111810800D02*
X120954800Y-108102400D01*
X95112600Y-113777000D02*
X94843600Y-114046000D01*
D26*
X117398800Y-110337600D02*
X113959400Y-113777000D01*
X102819200Y-135472800D02*
X102819200Y-133091000D01*
X123647200Y-114666400D02*
X124078600Y-114666400D01*
X124078600Y-114666400D02*
X127548800Y-111196200D01*
D28*
X101234400Y-132984400D02*
X102712600Y-132984400D01*
D27*
X117833380Y-114237180D02*
X117833380Y-112492518D01*
X117833380Y-112492518D02*
X120273082Y-112492518D01*
D28*
X168087200Y-81986200D02*
X168087200Y-83378200D01*
D26*
X139892184Y-60358375D02*
X143579074Y-56671485D01*
D28*
X93988400Y-89269500D02*
X96825500Y-89269500D01*
D26*
X111953200Y-113777000D02*
X111953200Y-115122800D01*
D28*
X102712600Y-125364400D02*
X102712600Y-126649400D01*
X172339000Y-85090000D02*
X172339000Y-61849000D01*
D27*
X122847201Y-115466399D02*
X119062599Y-115466399D01*
D28*
X171577000Y-85852000D02*
X172339000Y-85090000D01*
X172339000Y-61849000D02*
X170561000Y-60071000D01*
X96825500Y-89269500D02*
X99441000Y-86654000D01*
X170561000Y-85852000D02*
X171577000Y-85852000D01*
D27*
X120273082Y-112492518D02*
X120954800Y-111810800D01*
D28*
X102712600Y-126649400D02*
X100228400Y-129133600D01*
X168087200Y-83378200D02*
X170561000Y-85852000D01*
D26*
X111953200Y-115122800D02*
X102712600Y-124363400D01*
X102712600Y-124363400D02*
X102712600Y-125364400D01*
D28*
X100228400Y-131978400D02*
X101234400Y-132984400D01*
D26*
X143579074Y-56671485D02*
X154679491Y-56671485D01*
X119801000Y-92862400D02*
X119572400Y-92862400D01*
D28*
X100228400Y-129133600D02*
X100228400Y-131978400D01*
D26*
X119572400Y-92862400D02*
X117398800Y-95036000D01*
%TO.N,GND*%
X127548800Y-105764800D02*
X125864300Y-107449300D01*
X127548800Y-92501481D02*
X127461307Y-92413988D01*
X107395307Y-92413988D02*
X107395307Y-95858707D01*
X125864300Y-107449300D02*
X123647200Y-109666400D01*
X117881243Y-71475240D02*
X113900000Y-75456483D01*
X127461307Y-92413988D02*
X125249412Y-92413988D01*
D28*
X179451000Y-52832000D02*
X179197000Y-52578000D01*
D26*
X155488800Y-111196200D02*
X153131600Y-108839000D01*
D28*
X179451000Y-57531000D02*
X179451000Y-52832000D01*
D26*
X107395307Y-95858707D02*
X107533600Y-95997000D01*
X127548800Y-95956200D02*
X127548800Y-105764800D01*
X125249412Y-92413988D02*
X124801000Y-92862400D01*
X127548800Y-95956200D02*
X127548800Y-92501481D01*
X113900000Y-75456483D02*
X113900000Y-92413988D01*
X153131600Y-108839000D02*
X128651000Y-108839000D01*
X75937600Y-59856300D02*
X78446700Y-59856300D01*
X78446700Y-59856300D02*
X79502000Y-58801000D01*
D29*
%TO.N,/DSMC*%
X186791600Y-100177600D02*
X187005000Y-99964200D01*
X187230000Y-66751789D02*
X186270285Y-65792074D01*
X187005000Y-67991611D02*
X187230000Y-67766611D01*
X187230000Y-67766611D02*
X187230000Y-66751789D01*
X187005000Y-99964200D02*
X187005000Y-67991611D01*
X186270285Y-65792074D02*
X184481476Y-65792074D01*
%TO.N,Net-(D1-A)*%
X173126400Y-61206718D02*
X171355682Y-59436000D01*
X171355682Y-59436000D02*
X171335682Y-59416000D01*
X173431200Y-84582000D02*
X173431200Y-74777600D01*
X169922097Y-60358407D02*
X168614304Y-61666200D01*
X171335682Y-59416000D02*
X170289690Y-59416000D01*
X168614304Y-61666200D02*
X168087200Y-61666200D01*
X169906000Y-60342310D02*
X169922097Y-60358407D01*
X173126400Y-74472800D02*
X173126400Y-61206718D01*
X169906000Y-59799690D02*
X169906000Y-60342310D01*
X173431200Y-74777600D02*
X173126400Y-74472800D01*
X173431200Y-94721200D02*
X173431200Y-89458800D01*
X170289690Y-59416000D02*
X169906000Y-59799690D01*
%TO.N,/SRAM_CS1*%
X132589143Y-76404343D02*
X138785600Y-82600800D01*
X141628247Y-73916153D02*
X140360400Y-75184000D01*
X119110206Y-76404343D02*
X132589143Y-76404343D01*
X168087200Y-66746200D02*
X167066200Y-67767200D01*
X138785600Y-82600800D02*
X141624487Y-82600800D01*
X140360400Y-75184000D02*
X133809486Y-75184000D01*
X144068800Y-97891600D02*
X144448400Y-98271200D01*
X150723600Y-67767200D02*
X144574647Y-73916153D01*
X167066200Y-67767200D02*
X150723600Y-67767200D01*
X144068800Y-85045113D02*
X144068800Y-97891600D01*
X133809486Y-75184000D02*
X132589143Y-76404343D01*
X144574647Y-73916153D02*
X141628247Y-73916153D01*
X144448400Y-98271200D02*
X163271200Y-98271200D01*
X141624487Y-82600800D02*
X144068800Y-85045113D01*
%TO.N,/DTACKL*%
X173431200Y-98271200D02*
X173431200Y-112471200D01*
%TO.N,/SRAM_CS2*%
X149860000Y-97536000D02*
X161337046Y-97536000D01*
X164125600Y-96875600D02*
X165252400Y-98002400D01*
X150500757Y-70104000D02*
X151231600Y-70104000D01*
X141935200Y-79163337D02*
X141935200Y-82042000D01*
X151231600Y-70104000D02*
X151333200Y-70205600D01*
X165252400Y-98002400D02*
X165252400Y-101447600D01*
X151333200Y-70205600D02*
X165100000Y-70205600D01*
X166019400Y-69286200D02*
X168087200Y-69286200D01*
X143671287Y-83778087D02*
X146973287Y-83778087D01*
X164878800Y-101821200D02*
X163271200Y-101821200D01*
X149207957Y-96883957D02*
X149860000Y-97536000D01*
X161997446Y-96875600D02*
X164125600Y-96875600D01*
X139226919Y-76353630D02*
X144251127Y-76353630D01*
X161337046Y-97536000D02*
X161997446Y-96875600D01*
X165100000Y-70205600D02*
X166019400Y-69286200D01*
X139176206Y-76404343D02*
X141935200Y-79163337D01*
X146973287Y-83778087D02*
X149207957Y-86012757D01*
X141935200Y-82042000D02*
X143671287Y-83778087D01*
X149207957Y-86012757D02*
X149207957Y-96883957D01*
X165252400Y-101447600D02*
X164878800Y-101821200D01*
X139176206Y-76404343D02*
X139226919Y-76353630D01*
X144251127Y-76353630D02*
X150500757Y-70104000D01*
%TO.N,/FDCON_CS*%
X158394400Y-75641200D02*
X158394400Y-89560400D01*
X168087200Y-74366200D02*
X167269400Y-75184000D01*
X160568800Y-91734800D02*
X160568800Y-95956200D01*
X165752400Y-102890000D02*
X163271200Y-105371200D01*
X163913306Y-95956200D02*
X165752400Y-97795294D01*
X160568800Y-95956200D02*
X163913306Y-95956200D01*
X158394400Y-89560400D02*
X160568800Y-91734800D01*
X165752400Y-97795294D02*
X165752400Y-102890000D01*
X158851600Y-75184000D02*
X158394400Y-75641200D01*
X167269400Y-75184000D02*
X158851600Y-75184000D01*
%TO.N,/CS175*%
X171196000Y-100996400D02*
X171196000Y-89458800D01*
X171196000Y-80015000D02*
X168087200Y-76906200D01*
X163271200Y-108921200D02*
X171196000Y-100996400D01*
X171196000Y-84582000D02*
X171196000Y-80015000D01*
%TO.N,/ROM_CE*%
X160969894Y-76387894D02*
X164028200Y-79446200D01*
X161899600Y-107645200D02*
X161899600Y-111099600D01*
X164028200Y-79446200D02*
X168087200Y-79446200D01*
X166471600Y-89435650D02*
X166471600Y-104420800D01*
X166420800Y-84582000D02*
X166420800Y-81112600D01*
X166420800Y-81112600D02*
X168087200Y-79446200D01*
X163755200Y-107137200D02*
X162407600Y-107137200D01*
X161899600Y-111099600D02*
X163271200Y-112471200D01*
X162407600Y-107137200D02*
X161899600Y-107645200D01*
X159595344Y-76387894D02*
X160969894Y-76387894D01*
X166471600Y-104420800D02*
X163755200Y-107137200D01*
%TO.N,/A10*%
X186005000Y-67691800D02*
X186005000Y-89668550D01*
X185775600Y-67462400D02*
X186005000Y-67691800D01*
X186005000Y-89668550D02*
X184481476Y-91192074D01*
%TO.N,/A11*%
X186510600Y-66876600D02*
X186510600Y-67778905D01*
X185521600Y-66497200D02*
X186131200Y-66497200D01*
X186510600Y-67778905D02*
X186505000Y-67784505D01*
X181248883Y-67056000D02*
X184962800Y-67056000D01*
X186505000Y-91708550D02*
X184481476Y-93732074D01*
X180340000Y-66147117D02*
X181248883Y-67056000D01*
X180340000Y-64160400D02*
X180340000Y-66147117D01*
X186131200Y-66497200D02*
X186510600Y-66876600D01*
X186505000Y-67784505D02*
X186505000Y-91708550D01*
X184962800Y-67056000D02*
X185521600Y-66497200D01*
X179425600Y-63144400D02*
X179425600Y-63246000D01*
X179425600Y-63246000D02*
X180340000Y-64160400D01*
%TO.N,/A12*%
X186533506Y-101092000D02*
X185826400Y-100384894D01*
X175148106Y-60400000D02*
X177375033Y-60400000D01*
X187505000Y-99967295D02*
X187567400Y-100029695D01*
X177375033Y-60400000D02*
X179205033Y-62230000D01*
X154626784Y-61070016D02*
X155346400Y-60350400D01*
X179205033Y-62230000D02*
X179744882Y-62230000D01*
X187105705Y-101092000D02*
X186533506Y-101092000D01*
X187567400Y-100029695D02*
X187567400Y-100630305D01*
X140506666Y-62822926D02*
X153991474Y-62822926D01*
X181491033Y-64516000D02*
X185701318Y-64516000D01*
X155346400Y-60350400D02*
X156451536Y-60350400D01*
X187505000Y-68198718D02*
X187505000Y-99967295D01*
X153991474Y-62822926D02*
X154626784Y-62187616D01*
X187567400Y-100630305D02*
X187105705Y-101092000D01*
X187730000Y-66544682D02*
X187730000Y-67973718D01*
X185826400Y-100384894D02*
X185826400Y-97616998D01*
X185701318Y-64516000D02*
X187730000Y-66544682D01*
X187730000Y-67973718D02*
X187505000Y-68198718D01*
X180499236Y-63524203D02*
X181491033Y-64516000D01*
X171542506Y-56794400D02*
X175148106Y-60400000D01*
X180499236Y-62984354D02*
X180499236Y-63524203D01*
X185826400Y-97616998D02*
X184481476Y-96272074D01*
X179744882Y-62230000D02*
X180499236Y-62984354D01*
X154626784Y-62187616D02*
X154626784Y-61070016D01*
X156451536Y-60350400D02*
X160007536Y-56794400D01*
X160007536Y-56794400D02*
X171542506Y-56794400D01*
%TO.N,/A13*%
X160214642Y-57294400D02*
X171335400Y-57294400D01*
X175707200Y-61666200D02*
X179832000Y-65791000D01*
X183184800Y-85293200D02*
X183184800Y-97515398D01*
X180436400Y-83769200D02*
X181452400Y-84785200D01*
X183184800Y-97515398D02*
X184481476Y-98812074D01*
X155908454Y-61600588D02*
X160214642Y-57294400D01*
X180436400Y-70160000D02*
X180436400Y-83769200D01*
X179832000Y-65791000D02*
X179832000Y-67056000D01*
X181452400Y-84785200D02*
X182676800Y-84785200D01*
X180543200Y-67767200D02*
X180543200Y-70053200D01*
X179832000Y-67056000D02*
X180543200Y-67767200D01*
X171335400Y-57294400D02*
X175707200Y-61666200D01*
X182676800Y-84785200D02*
X183184800Y-85293200D01*
X180543200Y-70053200D02*
X180436400Y-70160000D01*
%TO.N,/A14*%
X187254011Y-101650800D02*
X188067400Y-100837411D01*
X183225804Y-102607746D02*
X184481476Y-101352074D01*
X184912000Y-61976000D02*
X180402587Y-61976000D01*
X181364254Y-102607746D02*
X183225804Y-102607746D01*
X188005000Y-99760188D02*
X188005000Y-68405825D01*
X158135608Y-56294400D02*
X155293972Y-59136036D01*
X179936400Y-68435400D02*
X179936400Y-85345129D01*
X180402587Y-61976000D02*
X174720987Y-56294400D01*
X180687600Y-86096329D02*
X180687600Y-101931092D01*
X188005000Y-68405825D02*
X188230000Y-68180825D01*
X179936400Y-85345129D02*
X180687600Y-86096329D01*
X184481476Y-101352074D02*
X184780202Y-101650800D01*
X175707200Y-64206200D02*
X179936400Y-68435400D01*
X180687600Y-101931092D02*
X181364254Y-102607746D01*
X174720987Y-56294400D02*
X158135608Y-56294400D01*
X188067400Y-100837411D02*
X188067400Y-99822588D01*
X184780202Y-101650800D02*
X187254011Y-101650800D01*
X188230000Y-68180825D02*
X188230000Y-65294000D01*
X188230000Y-65294000D02*
X184912000Y-61976000D01*
X188067400Y-99822588D02*
X188005000Y-99760188D01*
%TO.N,/A16*%
X179150400Y-107878000D02*
X181457600Y-110185200D01*
X178436400Y-85966447D02*
X179150400Y-86680447D01*
X183268350Y-110185200D02*
X184481476Y-108972074D01*
X179150400Y-86680447D02*
X179150400Y-107878000D01*
X123784329Y-62836036D02*
X138477236Y-62836036D01*
X178436400Y-74555400D02*
X178436400Y-85966447D01*
X160421748Y-57794400D02*
X171128294Y-57794400D01*
X171128294Y-57794400D02*
X174218147Y-60884253D01*
X157106665Y-61109483D02*
X160421748Y-57794400D01*
X155556445Y-62854593D02*
X156367192Y-62854593D01*
X175707200Y-71826200D02*
X178436400Y-74555400D01*
X174218147Y-60884253D02*
X174218147Y-70337147D01*
X118858565Y-57910272D02*
X123784329Y-62836036D01*
X174218147Y-70337147D02*
X175707200Y-71826200D01*
X154352223Y-64058815D02*
X155556445Y-62854593D01*
X181457600Y-110185200D02*
X183268350Y-110185200D01*
X138477236Y-62836036D02*
X139700015Y-64058815D01*
X157106665Y-62115120D02*
X157106665Y-61109483D01*
X156367192Y-62854593D02*
X157106665Y-62115120D01*
X139700015Y-64058815D02*
X154352223Y-64058815D01*
%TO.N,/A17*%
X119024400Y-61620400D02*
X120904000Y-61620400D01*
X124612400Y-65328800D02*
X137566400Y-65328800D01*
X165049200Y-58294400D02*
X167131845Y-60377045D01*
X177936400Y-86173553D02*
X178650400Y-86887553D01*
X169797600Y-58294400D02*
X170921188Y-58294400D01*
X181316000Y-112776000D02*
X183217550Y-112776000D01*
X114194353Y-56790353D02*
X119024400Y-61620400D01*
X178650400Y-110110400D02*
X181316000Y-112776000D01*
X169546523Y-58545477D02*
X169797600Y-58294400D01*
X173718147Y-72377147D02*
X175707200Y-74366200D01*
X175707200Y-74366200D02*
X177936400Y-76595400D01*
X167131845Y-60377045D02*
X168578555Y-60377045D01*
X114194353Y-56687934D02*
X114194353Y-56790353D01*
X120904000Y-61620400D02*
X124612400Y-65328800D01*
X157886400Y-64618680D02*
X157886400Y-61214000D01*
X160806000Y-58294400D02*
X165049200Y-58294400D01*
X157227080Y-65278000D02*
X157886400Y-64618680D01*
X138795082Y-66557482D02*
X142687718Y-66557482D01*
X142687718Y-66557482D02*
X143967200Y-65278000D01*
X177936400Y-76595400D02*
X177936400Y-86173553D01*
X137566400Y-65328800D02*
X138795082Y-66557482D01*
X169546523Y-59409077D02*
X169546523Y-58545477D01*
X157886400Y-61214000D02*
X160806000Y-58294400D01*
X143967200Y-65278000D02*
X157227080Y-65278000D01*
X178650400Y-86887553D02*
X178650400Y-110110400D01*
X173718147Y-61091359D02*
X173718147Y-72377147D01*
X170921188Y-58294400D02*
X173718147Y-61091359D01*
X183217550Y-112776000D02*
X184481476Y-111512074D01*
X168578555Y-60377045D02*
X169546523Y-59409077D01*
%TO.N,/A18*%
X120654604Y-53035200D02*
X134414738Y-53035200D01*
X185420000Y-56896000D02*
X189230000Y-60706000D01*
X174788497Y-54849940D02*
X178231557Y-58293000D01*
X177436400Y-78635400D02*
X177436400Y-86380659D01*
X177436400Y-86380659D02*
X178150400Y-87094659D01*
X181229000Y-56896000D02*
X185420000Y-56896000D01*
X178150400Y-112650400D02*
X180816000Y-115316000D01*
X134414738Y-53035200D02*
X136229478Y-54849940D01*
X189230000Y-60706000D02*
X189230000Y-102362000D01*
X118244083Y-55445721D02*
X120654604Y-53035200D01*
X183217550Y-115316000D02*
X184481476Y-114052074D01*
X186232800Y-105359200D02*
X186232800Y-112300750D01*
X186232800Y-112300750D02*
X184481476Y-114052074D01*
X179832000Y-58293000D02*
X181229000Y-56896000D01*
X178150400Y-87094659D02*
X178150400Y-112650400D01*
X180816000Y-115316000D02*
X183217550Y-115316000D01*
X136229478Y-54849940D02*
X174788497Y-54849940D01*
X178231557Y-58293000D02*
X179832000Y-58293000D01*
X189230000Y-102362000D02*
X186232800Y-105359200D01*
X175707200Y-76906200D02*
X177436400Y-78635400D01*
%TO.N,/A19*%
X180722400Y-117906800D02*
X183166750Y-117906800D01*
X177650400Y-87301765D02*
X177650400Y-114834800D01*
X183166750Y-117906800D02*
X184481476Y-116592074D01*
X176936400Y-80675400D02*
X176936400Y-86587765D01*
X175707200Y-79446200D02*
X176936400Y-80675400D01*
X176936400Y-86587765D02*
X177650400Y-87301765D01*
X177650400Y-114834800D02*
X180722400Y-117906800D01*
%TO.N,/D7*%
X132638800Y-102514400D02*
X132628800Y-102504400D01*
X165802039Y-86710650D02*
X175312574Y-86710650D01*
X132628800Y-79004000D02*
X132638800Y-78994000D01*
X180019200Y-120396000D02*
X183217550Y-120396000D01*
X176650400Y-117027200D02*
X180019200Y-120396000D01*
X132628800Y-102504400D02*
X132628800Y-95956200D01*
X183217550Y-120396000D02*
X184481476Y-119132074D01*
X132628800Y-95956200D02*
X132628800Y-79004000D01*
X160209825Y-78852446D02*
X163322000Y-81964621D01*
X176650400Y-88048476D02*
X176650400Y-117027200D01*
X175312574Y-86710650D02*
X176650400Y-88048476D01*
X163322000Y-81964621D02*
X163322000Y-84230611D01*
X163322000Y-84230611D02*
X165802039Y-86710650D01*
%TO.N,/D6*%
X183166750Y-122986800D02*
X184481476Y-121672074D01*
X180898800Y-122986800D02*
X183166750Y-122986800D01*
X160824307Y-81316997D02*
X162763200Y-83255890D01*
X135168800Y-95956200D02*
X135168800Y-81442400D01*
X162763200Y-84398853D02*
X165574997Y-87210650D01*
X176150400Y-88255582D02*
X176150400Y-118238400D01*
X135178800Y-104698800D02*
X135168800Y-104688800D01*
X135178800Y-81432400D02*
X135178800Y-81381600D01*
X162763200Y-83255890D02*
X162763200Y-84398853D01*
X175105468Y-87210650D02*
X176150400Y-88255582D01*
X135168800Y-104688800D02*
X135168800Y-95956200D01*
X165574997Y-87210650D02*
X175105468Y-87210650D01*
X135168800Y-81442400D02*
X135178800Y-81432400D01*
X176150400Y-118238400D02*
X180898800Y-122986800D01*
%TO.N,/D5*%
X161438789Y-83968789D02*
X165180650Y-87710650D01*
X181051200Y-125476000D02*
X183217550Y-125476000D01*
X137708800Y-95956200D02*
X137708800Y-83931600D01*
X174898362Y-87710650D02*
X175650400Y-88462688D01*
X175650400Y-120075200D02*
X181051200Y-125476000D01*
X137708800Y-103571200D02*
X137708800Y-95956200D01*
X137718800Y-103581200D02*
X137708800Y-103571200D01*
X161438789Y-83781548D02*
X161438789Y-83968789D01*
X183217550Y-125476000D02*
X184481476Y-124212074D01*
X175650400Y-88462688D02*
X175650400Y-120075200D01*
X137708800Y-83931600D02*
X137769600Y-83870800D01*
X165180650Y-87710650D02*
X174898362Y-87710650D01*
%TO.N,/D4*%
X180441600Y-128016000D02*
X183217550Y-128016000D01*
X162053270Y-86246099D02*
X164017821Y-88210650D01*
X164017821Y-88210650D02*
X174691256Y-88210650D01*
X140248800Y-95956200D02*
X140248800Y-87647879D01*
X140248800Y-87647879D02*
X141634132Y-86262547D01*
X175150400Y-122724800D02*
X180441600Y-128016000D01*
X140258800Y-106273600D02*
X140248800Y-106263600D01*
X140248800Y-106263600D02*
X140248800Y-95956200D01*
X183217550Y-128016000D02*
X184481476Y-126752074D01*
X175150400Y-88669794D02*
X175150400Y-122724800D01*
X174691256Y-88210650D02*
X175150400Y-88669794D01*
%TO.N,/D3*%
X162667752Y-88710650D02*
X162681602Y-88696800D01*
X162681602Y-88696800D02*
X174470300Y-88696800D01*
X110439200Y-90627200D02*
X110439200Y-88747600D01*
X110439200Y-103251400D02*
X110439200Y-90627200D01*
X183217550Y-130556000D02*
X184481476Y-129292074D01*
X174650400Y-125730000D02*
X179476400Y-130556000D01*
X179476400Y-130556000D02*
X183217550Y-130556000D01*
X142788800Y-95956200D02*
X142788800Y-89267284D01*
X174470300Y-88696800D02*
X174650400Y-88876900D01*
X174650400Y-88876900D02*
X174650400Y-125730000D01*
X142788800Y-89267284D02*
X142248614Y-88727098D01*
X107533600Y-106157000D02*
X110439200Y-103251400D01*
%TO.N,/A1*%
X152948800Y-95956200D02*
X152948800Y-80101600D01*
X152948800Y-80101600D02*
X152958800Y-80111600D01*
X152958800Y-80111600D02*
X152958800Y-80060800D01*
%TO.N,/A0*%
X155488800Y-95956200D02*
X155448000Y-82550000D01*
%TO.N,/RESET*%
X179436400Y-85552235D02*
X180187600Y-86303435D01*
X179436400Y-70475400D02*
X179436400Y-85552235D01*
X120004600Y-113777000D02*
X119573200Y-113777000D01*
X123494800Y-111810800D02*
X121970800Y-111810800D01*
X175707200Y-66746200D02*
X179436400Y-70475400D01*
X130088800Y-95956200D02*
X130088800Y-105216800D01*
X180187600Y-102138198D02*
X181941476Y-103892074D01*
X121970800Y-111810800D02*
X120004600Y-113777000D01*
X127736600Y-107569000D02*
X123494800Y-111810800D01*
X180187600Y-86303435D02*
X180187600Y-102138198D01*
X130088800Y-105216800D02*
X127736600Y-107569000D01*
%TO.N,/A15*%
X188730000Y-101594666D02*
X185168666Y-105156000D01*
X178765200Y-59537600D02*
X185029400Y-59537600D01*
X185168666Y-105156000D02*
X183217550Y-105156000D01*
X133645871Y-54223382D02*
X134775379Y-55352890D01*
X134775379Y-55352890D02*
X174580490Y-55352890D01*
X179650400Y-105816400D02*
X180266074Y-106432074D01*
X178936400Y-72515400D02*
X178936400Y-85759341D01*
X179679600Y-88595200D02*
X179650400Y-88624400D01*
X185029400Y-59537600D02*
X188730000Y-63238200D01*
X180266074Y-106432074D02*
X181941476Y-106432074D01*
X188730000Y-63238200D02*
X188730000Y-101594666D01*
X179650400Y-88624400D02*
X179650400Y-105816400D01*
X175707200Y-69286200D02*
X178936400Y-72515400D01*
X179679600Y-86502541D02*
X179679600Y-88595200D01*
X178936400Y-85759341D02*
X179679600Y-86502541D01*
X174580490Y-55352890D02*
X178765200Y-59537600D01*
X183217550Y-105156000D02*
X181941476Y-106432074D01*
%TO.N,/RW*%
X118129815Y-72644000D02*
X119113219Y-72644000D01*
X119113219Y-72644000D02*
X119156979Y-72600240D01*
X119156979Y-72600240D02*
X119156979Y-70602014D01*
X128245988Y-91288988D02*
X128245988Y-82286620D01*
X157988000Y-100838000D02*
X151688800Y-107137200D01*
X114008836Y-68261842D02*
X114008836Y-59952484D01*
X116484400Y-74289415D02*
X118129815Y-72644000D01*
X119156979Y-70602014D02*
X118780795Y-70225830D01*
X114008836Y-59952484D02*
X114808835Y-59152485D01*
X124800968Y-78841600D02*
X121413683Y-78841600D01*
X131419600Y-102362000D02*
X131419600Y-94462600D01*
X121413683Y-78841600D02*
X120151426Y-77579343D01*
X120151426Y-77579343D02*
X118574943Y-77579343D01*
X136194800Y-107137200D02*
X131419600Y-102362000D01*
X115972824Y-70225830D02*
X114008836Y-68261842D01*
X128245988Y-82286620D02*
X124800968Y-78841600D01*
X151688800Y-107137200D02*
X136194800Y-107137200D01*
X118574943Y-77579343D02*
X116484400Y-75488800D01*
X131419600Y-94462600D02*
X128245988Y-91288988D01*
X118780795Y-70225830D02*
X115972824Y-70225830D01*
X116484400Y-75488800D02*
X116484400Y-74289415D01*
%TO.N,/DS*%
X175717200Y-81996200D02*
X175717200Y-86408169D01*
X181046114Y-119132074D02*
X181941476Y-119132074D01*
X175717200Y-86408169D02*
X177150400Y-87841370D01*
X177150400Y-115236360D02*
X181046114Y-119132074D01*
X175707200Y-81986200D02*
X175717200Y-81996200D01*
X177150400Y-87841370D02*
X177150400Y-115236360D01*
%TO.N,/D0*%
X107533600Y-103617000D02*
X108915200Y-102235400D01*
X150408800Y-95956200D02*
X150408800Y-85049200D01*
X108915200Y-102235400D02*
X108915200Y-85039200D01*
%TO.N,/D1*%
X151638000Y-92151200D02*
X151655900Y-92169100D01*
X151638000Y-87477600D02*
X151638000Y-92151200D01*
X99913600Y-106157000D02*
X102870000Y-103200600D01*
X102870000Y-103200600D02*
X102870000Y-87579200D01*
X102870000Y-87579200D02*
X102920800Y-87528400D01*
%TO.N,/D2*%
X145328800Y-95956200D02*
X145328800Y-91870152D01*
X145328800Y-91870152D02*
X147265963Y-89932989D01*
X101981000Y-89941400D02*
X102006400Y-89916000D01*
X101981000Y-101549600D02*
X101981000Y-89941400D01*
X99913600Y-103617000D02*
X101981000Y-101549600D01*
%TO.N,/DS3*%
X114781000Y-114454000D02*
X118448200Y-110786800D01*
X101092000Y-129286000D02*
X103936800Y-126441200D01*
X103936800Y-126441200D02*
X103936800Y-124256800D01*
X118448200Y-109822000D02*
X119573200Y-108697000D01*
X101092000Y-131572000D02*
X101092000Y-129286000D01*
X113739600Y-114454000D02*
X114781000Y-114454000D01*
X118448200Y-110786800D02*
X118448200Y-109822000D01*
X103936800Y-124256800D02*
X113739600Y-114454000D01*
%TO.N,/FDC_IP*%
X150408800Y-111196200D02*
X150408800Y-113954400D01*
X150408800Y-113954400D02*
X150368000Y-113995200D01*
%TO.N,/DS0*%
X101712000Y-108697000D02*
X102362000Y-109347000D01*
X97028000Y-127943894D02*
X97028000Y-130175000D01*
X102362000Y-122609894D02*
X97028000Y-127943894D01*
X99913600Y-108697000D02*
X101712000Y-108697000D01*
X97028000Y-130175000D02*
X97023347Y-130179653D01*
X102362000Y-109347000D02*
X102362000Y-122609894D01*
%TO.N,/DS1*%
X105791000Y-102819600D02*
X107533600Y-101077000D01*
X99441000Y-127889000D02*
X101038600Y-126291400D01*
X101038600Y-126291400D02*
X101038600Y-124640400D01*
X101038600Y-124640400D02*
X105791000Y-119888000D01*
X99441000Y-129794000D02*
X99441000Y-127889000D01*
X105791000Y-119888000D02*
X105791000Y-102819600D01*
X98298000Y-130937000D02*
X99441000Y-129794000D01*
%TO.N,/FDC_T0*%
X147868800Y-113548000D02*
X147421600Y-113995200D01*
X147868800Y-111196200D02*
X147868800Y-113548000D01*
%TO.N,/FDC_WPRT*%
X152948800Y-111196200D02*
X152948800Y-113578800D01*
X152948800Y-113578800D02*
X153365200Y-113995200D01*
%TO.N,/FDC_RD*%
X137718800Y-113995200D02*
X137718800Y-111206200D01*
X137718800Y-111206200D02*
X137708800Y-111196200D01*
%TO.N,Net-(R5-Pad1)*%
X168955800Y-131678600D02*
X168955800Y-130088800D01*
X153162000Y-128016000D02*
X157672009Y-128016000D01*
X159207200Y-129551191D02*
X159207200Y-131622800D01*
X157672009Y-128016000D02*
X159207200Y-129551191D01*
X153162000Y-134518400D02*
X153162000Y-128016000D01*
X159816800Y-132232400D02*
X168402000Y-132232400D01*
X159207200Y-131622800D02*
X159816800Y-132232400D01*
X168402000Y-132232400D02*
X168955800Y-131678600D01*
%TO.N,/CLK*%
X137210800Y-134530000D02*
X142990400Y-134530000D01*
X142990400Y-134530000D02*
X143002000Y-134518400D01*
%TO.N,Net-(R6-Pad1)*%
X141388000Y-129630000D02*
X143002000Y-128016000D01*
X160431400Y-126644400D02*
X163875800Y-130088800D01*
X143002000Y-128016000D02*
X144373600Y-126644400D01*
X137210800Y-129630000D02*
X141388000Y-129630000D01*
X144373600Y-126644400D02*
X160431400Y-126644400D01*
%TO.N,/ROM_OE*%
X173837600Y-127350600D02*
X173837600Y-114452400D01*
X158366381Y-71458792D02*
X156768800Y-73056373D01*
X176575800Y-130088800D02*
X173837600Y-127350600D01*
X156768800Y-73056373D02*
X156768800Y-93624400D01*
%TO.N,/FDC_STEP*%
X116088000Y-125364400D02*
X130088800Y-111363600D01*
X130088800Y-111363600D02*
X130088800Y-111196200D01*
X115412600Y-125364400D02*
X116088000Y-125364400D01*
%TO.N,/FDC_DIR*%
X114211400Y-134323200D02*
X112872600Y-132984400D01*
X132628800Y-111196200D02*
X132628800Y-120558400D01*
X132628800Y-120558400D02*
X118864000Y-134323200D01*
X118864000Y-134323200D02*
X114211400Y-134323200D01*
%TO.N,/FDC_WG*%
X119071107Y-134823200D02*
X142698107Y-111196200D01*
X142698107Y-111196200D02*
X142788800Y-111196200D01*
X109626400Y-134823200D02*
X119071107Y-134823200D01*
X107792600Y-132984400D02*
X107792600Y-132989400D01*
X107792600Y-132989400D02*
X109626400Y-134823200D01*
%TO.N,/FDC_WD*%
X129562505Y-109982000D02*
X144114600Y-109982000D01*
X144114600Y-109982000D02*
X145328800Y-111196200D01*
X107770200Y-122846800D02*
X117691200Y-122846800D01*
X128905000Y-111633000D02*
X128905000Y-110639505D01*
X117691200Y-122846800D02*
X128905000Y-111633000D01*
X128905000Y-110639505D02*
X129562505Y-109982000D01*
X105252600Y-125364400D02*
X107770200Y-122846800D01*
%TD*%
%TA.AperFunction,Conductor*%
%TO.N,GND*%
G36*
X178946074Y-43687927D02*
G01*
X179013101Y-43707651D01*
X179058825Y-43760482D01*
X179070000Y-43811927D01*
X179070000Y-47528397D01*
X179050315Y-47595436D01*
X178997511Y-47641191D01*
X178928353Y-47651135D01*
X178864797Y-47622110D01*
X178827023Y-47563332D01*
X178823527Y-47547795D01*
X178813990Y-47487582D01*
X178750755Y-47292968D01*
X178657859Y-47110650D01*
X178625474Y-47066077D01*
X178625474Y-47066076D01*
X177946000Y-47745551D01*
X177946000Y-47739339D01*
X177918741Y-47637606D01*
X177866080Y-47546394D01*
X177791606Y-47471920D01*
X177700394Y-47419259D01*
X177598661Y-47392000D01*
X177592446Y-47392000D01*
X178271922Y-46712524D01*
X178271921Y-46712523D01*
X178227359Y-46680147D01*
X178227350Y-46680141D01*
X178045031Y-46587244D01*
X177850417Y-46524009D01*
X177648317Y-46492000D01*
X177443683Y-46492000D01*
X177241582Y-46524009D01*
X177046968Y-46587244D01*
X176864644Y-46680143D01*
X176820077Y-46712523D01*
X176820077Y-46712524D01*
X177499554Y-47392000D01*
X177493339Y-47392000D01*
X177391606Y-47419259D01*
X177300394Y-47471920D01*
X177225920Y-47546394D01*
X177173259Y-47637606D01*
X177146000Y-47739339D01*
X177146000Y-47745553D01*
X176466524Y-47066077D01*
X176466523Y-47066077D01*
X176434143Y-47110644D01*
X176341244Y-47292968D01*
X176278009Y-47487582D01*
X176246000Y-47689682D01*
X176246000Y-47894317D01*
X176278009Y-48096417D01*
X176341244Y-48291031D01*
X176434141Y-48473350D01*
X176434147Y-48473359D01*
X176466523Y-48517921D01*
X176466524Y-48517922D01*
X177146000Y-47838446D01*
X177146000Y-47844661D01*
X177173259Y-47946394D01*
X177225920Y-48037606D01*
X177300394Y-48112080D01*
X177391606Y-48164741D01*
X177493339Y-48192000D01*
X177499553Y-48192000D01*
X176820076Y-48871474D01*
X176864650Y-48903859D01*
X177046968Y-48996755D01*
X177161807Y-49034069D01*
X177219482Y-49073507D01*
X177246680Y-49137866D01*
X177234765Y-49206712D01*
X177187521Y-49258188D01*
X177123488Y-49276000D01*
X175942800Y-49276000D01*
X175875761Y-49256315D01*
X175830006Y-49203511D01*
X175818800Y-49152000D01*
X175818800Y-45212000D01*
X150876000Y-45212000D01*
X150876000Y-46448448D01*
X150855360Y-46489679D01*
X150852289Y-46492861D01*
X150147600Y-47197551D01*
X150147600Y-47191339D01*
X150120341Y-47089606D01*
X150067680Y-46998394D01*
X149993206Y-46923920D01*
X149901994Y-46871259D01*
X149800261Y-46844000D01*
X149794046Y-46844000D01*
X150473522Y-46164524D01*
X150473521Y-46164523D01*
X150428959Y-46132147D01*
X150428950Y-46132141D01*
X150246631Y-46039244D01*
X150052017Y-45976009D01*
X149849917Y-45944000D01*
X149645283Y-45944000D01*
X149443182Y-45976009D01*
X149248568Y-46039244D01*
X149066244Y-46132143D01*
X149021677Y-46164523D01*
X149021677Y-46164524D01*
X149701154Y-46844000D01*
X149694939Y-46844000D01*
X149593206Y-46871259D01*
X149501994Y-46923920D01*
X149427520Y-46998394D01*
X149374859Y-47089606D01*
X149347600Y-47191339D01*
X149347600Y-47197553D01*
X148668124Y-46518077D01*
X148668123Y-46518077D01*
X148635743Y-46562644D01*
X148542844Y-46744968D01*
X148527131Y-46793330D01*
X148487693Y-46851005D01*
X148423334Y-46878203D01*
X148354488Y-46866288D01*
X148303012Y-46819043D01*
X148285200Y-46755011D01*
X148285200Y-45212000D01*
X129540000Y-45262800D01*
X129540000Y-46676819D01*
X129520315Y-46743858D01*
X129467511Y-46789613D01*
X129398353Y-46799557D01*
X129334797Y-46770532D01*
X129305515Y-46733114D01*
X129218659Y-46562650D01*
X129186274Y-46518077D01*
X129186274Y-46518076D01*
X128506800Y-47197551D01*
X128506800Y-47191339D01*
X128479541Y-47089606D01*
X128426880Y-46998394D01*
X128352406Y-46923920D01*
X128261194Y-46871259D01*
X128159461Y-46844000D01*
X128153246Y-46844000D01*
X128832722Y-46164524D01*
X128832721Y-46164523D01*
X128788159Y-46132147D01*
X128788150Y-46132141D01*
X128605831Y-46039244D01*
X128411217Y-45976009D01*
X128209117Y-45944000D01*
X128004483Y-45944000D01*
X127802382Y-45976009D01*
X127607768Y-46039244D01*
X127425444Y-46132143D01*
X127380877Y-46164523D01*
X127380877Y-46164524D01*
X128060354Y-46844000D01*
X128054139Y-46844000D01*
X127952406Y-46871259D01*
X127861194Y-46923920D01*
X127786720Y-46998394D01*
X127734059Y-47089606D01*
X127706800Y-47191339D01*
X127706800Y-47197553D01*
X127006541Y-46497294D01*
X127000000Y-46485315D01*
X127000000Y-45212000D01*
X109220000Y-45212000D01*
X109220000Y-46497380D01*
X109200315Y-46564419D01*
X109147511Y-46610174D01*
X109086273Y-46620998D01*
X109069474Y-46619676D01*
X108390000Y-47299151D01*
X108390000Y-47292939D01*
X108362741Y-47191206D01*
X108310080Y-47099994D01*
X108235606Y-47025520D01*
X108144394Y-46972859D01*
X108042661Y-46945600D01*
X108036446Y-46945600D01*
X108715922Y-46266124D01*
X108715921Y-46266123D01*
X108671359Y-46233747D01*
X108671350Y-46233741D01*
X108489031Y-46140844D01*
X108294417Y-46077609D01*
X108092317Y-46045600D01*
X107887683Y-46045600D01*
X107685582Y-46077609D01*
X107490968Y-46140844D01*
X107308644Y-46233743D01*
X107264077Y-46266123D01*
X107264077Y-46266124D01*
X107943554Y-46945600D01*
X107937339Y-46945600D01*
X107835606Y-46972859D01*
X107744394Y-47025520D01*
X107669920Y-47099994D01*
X107617259Y-47191206D01*
X107590000Y-47292939D01*
X107590000Y-47299153D01*
X106910524Y-46619677D01*
X106910523Y-46619677D01*
X106878143Y-46664244D01*
X106785244Y-46846568D01*
X106722009Y-47041182D01*
X106690000Y-47243282D01*
X106690000Y-47447917D01*
X106722009Y-47650017D01*
X106785244Y-47844631D01*
X106878141Y-48026950D01*
X106878147Y-48026959D01*
X106910523Y-48071521D01*
X106910524Y-48071522D01*
X107590000Y-47392046D01*
X107590000Y-47398261D01*
X107617259Y-47499994D01*
X107669920Y-47591206D01*
X107744394Y-47665680D01*
X107835606Y-47718341D01*
X107937339Y-47745600D01*
X107943553Y-47745600D01*
X107264076Y-48425074D01*
X107308650Y-48457459D01*
X107457918Y-48533515D01*
X107508714Y-48581489D01*
X107525509Y-48649310D01*
X107502972Y-48715445D01*
X107448257Y-48758897D01*
X107401623Y-48768000D01*
X106578400Y-48768000D01*
X106578400Y-45212000D01*
X92456000Y-45212000D01*
X92456000Y-43637200D01*
X178946074Y-43687927D01*
G37*
%TD.AperFunction*%
%TA.AperFunction,Conductor*%
G36*
X178625474Y-48517921D02*
G01*
X178657859Y-48473349D01*
X178750755Y-48291031D01*
X178813990Y-48096417D01*
X178823527Y-48036204D01*
X178853456Y-47973069D01*
X178912768Y-47936138D01*
X178982630Y-47937136D01*
X179040863Y-47975746D01*
X179068977Y-48039709D01*
X179070000Y-48055602D01*
X179070000Y-49152000D01*
X179050315Y-49219039D01*
X178997511Y-49264794D01*
X178946000Y-49276000D01*
X177968512Y-49276000D01*
X177901473Y-49256315D01*
X177855718Y-49203511D01*
X177845774Y-49134353D01*
X177874799Y-49070797D01*
X177930193Y-49034069D01*
X178045031Y-48996755D01*
X178227349Y-48903859D01*
X178271921Y-48871474D01*
X177592447Y-48192000D01*
X177598661Y-48192000D01*
X177700394Y-48164741D01*
X177791606Y-48112080D01*
X177866080Y-48037606D01*
X177918741Y-47946394D01*
X177946000Y-47844661D01*
X177946000Y-47838447D01*
X178625474Y-48517921D01*
G37*
%TD.AperFunction*%
%TA.AperFunction,Conductor*%
G36*
X109069473Y-48071521D02*
G01*
X109086271Y-48070200D01*
X109154648Y-48084564D01*
X109204405Y-48133616D01*
X109220000Y-48193818D01*
X109220000Y-48644000D01*
X109200315Y-48711039D01*
X109147511Y-48756794D01*
X109096000Y-48768000D01*
X108578377Y-48768000D01*
X108511338Y-48748315D01*
X108465583Y-48695511D01*
X108455639Y-48626353D01*
X108484664Y-48562797D01*
X108522082Y-48533515D01*
X108671349Y-48457459D01*
X108715921Y-48425074D01*
X108036447Y-47745600D01*
X108042661Y-47745600D01*
X108144394Y-47718341D01*
X108235606Y-47665680D01*
X108310080Y-47591206D01*
X108362741Y-47499994D01*
X108390000Y-47398261D01*
X108390000Y-47392048D01*
X109069473Y-48071521D01*
G37*
%TD.AperFunction*%
%TA.AperFunction,Conductor*%
G36*
X127706800Y-47296661D02*
G01*
X127734059Y-47398394D01*
X127786720Y-47489606D01*
X127861194Y-47564080D01*
X127952406Y-47616741D01*
X128054139Y-47644000D01*
X128060353Y-47644000D01*
X127380876Y-48323474D01*
X127425450Y-48355859D01*
X127607768Y-48448755D01*
X127802382Y-48511990D01*
X127862596Y-48521527D01*
X127925731Y-48551456D01*
X127962662Y-48610768D01*
X127961664Y-48680630D01*
X127923054Y-48738863D01*
X127859091Y-48766977D01*
X127843198Y-48768000D01*
X127124000Y-48768000D01*
X127056961Y-48748315D01*
X127011206Y-48695511D01*
X127000000Y-48644000D01*
X127000000Y-48159525D01*
X127000000Y-47999441D01*
X127006534Y-47990713D01*
X127006541Y-47990704D01*
X127017440Y-47979805D01*
X127706800Y-47290445D01*
X127706800Y-47296661D01*
G37*
%TD.AperFunction*%
%TA.AperFunction,Conductor*%
G36*
X129186274Y-47969921D02*
G01*
X129218659Y-47925349D01*
X129305515Y-47754885D01*
X129353489Y-47704089D01*
X129421310Y-47687294D01*
X129487445Y-47709831D01*
X129530897Y-47764546D01*
X129540000Y-47811180D01*
X129540000Y-48644000D01*
X129520315Y-48711039D01*
X129467511Y-48756794D01*
X129416000Y-48768000D01*
X128370402Y-48768000D01*
X128303363Y-48748315D01*
X128257608Y-48695511D01*
X128247664Y-48626353D01*
X128276689Y-48562797D01*
X128335467Y-48525023D01*
X128351004Y-48521527D01*
X128411217Y-48511990D01*
X128605831Y-48448755D01*
X128788149Y-48355859D01*
X128832721Y-48323474D01*
X128153247Y-47644000D01*
X128159461Y-47644000D01*
X128261194Y-47616741D01*
X128352406Y-47564080D01*
X128426880Y-47489606D01*
X128479541Y-47398394D01*
X128506800Y-47296661D01*
X128506800Y-47290447D01*
X129186274Y-47969921D01*
G37*
%TD.AperFunction*%
%TA.AperFunction,Conductor*%
G36*
X149347600Y-47296661D02*
G01*
X149374859Y-47398394D01*
X149427520Y-47489606D01*
X149501994Y-47564080D01*
X149593206Y-47616741D01*
X149694939Y-47644000D01*
X149701153Y-47644000D01*
X149021676Y-48323474D01*
X149066250Y-48355859D01*
X149248568Y-48448755D01*
X149443182Y-48511990D01*
X149503396Y-48521527D01*
X149566531Y-48551456D01*
X149603462Y-48610768D01*
X149602464Y-48680630D01*
X149563854Y-48738863D01*
X149499891Y-48766977D01*
X149483998Y-48768000D01*
X148409200Y-48768000D01*
X148342161Y-48748315D01*
X148296406Y-48695511D01*
X148285200Y-48644000D01*
X148285200Y-47732988D01*
X148304885Y-47665949D01*
X148357689Y-47620194D01*
X148426847Y-47610250D01*
X148490403Y-47639275D01*
X148527131Y-47694670D01*
X148542844Y-47743029D01*
X148635741Y-47925350D01*
X148635747Y-47925359D01*
X148668123Y-47969921D01*
X148668124Y-47969922D01*
X149347600Y-47290446D01*
X149347600Y-47296661D01*
G37*
%TD.AperFunction*%
%TA.AperFunction,Conductor*%
G36*
X150852290Y-47995138D02*
G01*
X150876000Y-48038559D01*
X150876000Y-48137925D01*
X150876000Y-48644000D01*
X150856315Y-48711039D01*
X150803511Y-48756794D01*
X150752000Y-48768000D01*
X150011202Y-48768000D01*
X149944163Y-48748315D01*
X149898408Y-48695511D01*
X149888464Y-48626353D01*
X149917489Y-48562797D01*
X149976267Y-48525023D01*
X149991804Y-48521527D01*
X150052017Y-48511990D01*
X150246631Y-48448755D01*
X150428949Y-48355859D01*
X150473521Y-48323474D01*
X149794047Y-47644000D01*
X149800261Y-47644000D01*
X149901994Y-47616741D01*
X149993206Y-47564080D01*
X150067680Y-47489606D01*
X150120341Y-47398394D01*
X150147600Y-47296661D01*
X150147600Y-47290447D01*
X150852290Y-47995138D01*
G37*
%TD.AperFunction*%
%TD*%
%TA.AperFunction,Conductor*%
%TO.N,+9V*%
G36*
X91694515Y-51429285D02*
G01*
X91740270Y-51482089D01*
X91751476Y-51533600D01*
X91751476Y-52175600D01*
X92760728Y-52175600D01*
X92738958Y-52213308D01*
X92701476Y-52353191D01*
X92701476Y-52498009D01*
X92738958Y-52637892D01*
X92760728Y-52675600D01*
X91751476Y-52675600D01*
X91751476Y-53425944D01*
X91757877Y-53485472D01*
X91757879Y-53485479D01*
X91808121Y-53620186D01*
X91808125Y-53620193D01*
X91894285Y-53735287D01*
X91894288Y-53735290D01*
X92009382Y-53821450D01*
X92009389Y-53821454D01*
X92144096Y-53871696D01*
X92144103Y-53871698D01*
X92203631Y-53878099D01*
X92203648Y-53878100D01*
X93001476Y-53878100D01*
X93001476Y-52916347D01*
X93039184Y-52938118D01*
X93179067Y-52975600D01*
X93323885Y-52975600D01*
X93463768Y-52938118D01*
X93501476Y-52916347D01*
X93501476Y-53878100D01*
X94299304Y-53878100D01*
X94299320Y-53878099D01*
X94358848Y-53871698D01*
X94358855Y-53871696D01*
X94493562Y-53821454D01*
X94493569Y-53821450D01*
X94608663Y-53735290D01*
X94608666Y-53735287D01*
X94694826Y-53620193D01*
X94694830Y-53620186D01*
X94745072Y-53485479D01*
X94745074Y-53485472D01*
X94751475Y-53425944D01*
X94751476Y-53425927D01*
X94751476Y-52675600D01*
X93742224Y-52675600D01*
X93763994Y-52637892D01*
X93801476Y-52498009D01*
X93801476Y-52353191D01*
X93763994Y-52213308D01*
X93742224Y-52175600D01*
X94751476Y-52175600D01*
X94751476Y-51425272D01*
X94751475Y-51425255D01*
X94749792Y-51409600D01*
X94996000Y-51409600D01*
X95046800Y-55016400D01*
X91005200Y-55016400D01*
X90938161Y-54996715D01*
X90892406Y-54943911D01*
X90881200Y-54892400D01*
X90881200Y-51533600D01*
X90900885Y-51466561D01*
X90953689Y-51420806D01*
X91005200Y-51409600D01*
X91627476Y-51409600D01*
X91694515Y-51429285D01*
G37*
%TD.AperFunction*%
%TD*%
%TA.AperFunction,Conductor*%
%TO.N,+9V*%
G36*
X185490039Y-49549685D02*
G01*
X185535794Y-49602489D01*
X185547000Y-49654000D01*
X185547000Y-49834800D01*
X185470800Y-49834800D01*
X184150000Y-51155600D01*
X184150000Y-51817074D01*
X183906504Y-51817074D01*
X183906488Y-51817075D01*
X183803779Y-51827568D01*
X183803777Y-51827568D01*
X183637356Y-51882714D01*
X183637345Y-51882719D01*
X183488135Y-51974754D01*
X183488131Y-51974757D01*
X183364159Y-52098729D01*
X183364156Y-52098733D01*
X183272121Y-52247943D01*
X183272116Y-52247954D01*
X183232868Y-52366397D01*
X183193095Y-52423842D01*
X183128579Y-52450665D01*
X183059803Y-52438350D01*
X183014844Y-52400279D01*
X183003052Y-52384050D01*
X183003052Y-52384049D01*
X182424438Y-52962664D01*
X182407401Y-52899081D01*
X182341575Y-52785067D01*
X182248483Y-52691975D01*
X182134469Y-52626149D01*
X182070885Y-52609111D01*
X182649499Y-52030497D01*
X182649498Y-52030496D01*
X182609722Y-52001596D01*
X182430908Y-51910486D01*
X182240035Y-51848467D01*
X182041826Y-51817074D01*
X181841126Y-51817074D01*
X181642916Y-51848467D01*
X181452043Y-51910486D01*
X181273231Y-52001595D01*
X181233452Y-52030496D01*
X181812067Y-52609111D01*
X181748483Y-52626149D01*
X181634469Y-52691975D01*
X181541377Y-52785067D01*
X181475551Y-52899081D01*
X181458513Y-52962665D01*
X180879898Y-52384050D01*
X180850997Y-52423829D01*
X180759888Y-52602641D01*
X180697869Y-52793514D01*
X180666476Y-52991723D01*
X180666476Y-53192424D01*
X180697869Y-53390633D01*
X180759888Y-53581506D01*
X180850998Y-53760320D01*
X180879898Y-53800096D01*
X180879899Y-53800097D01*
X181458513Y-53221482D01*
X181475551Y-53285067D01*
X181541377Y-53399081D01*
X181634469Y-53492173D01*
X181748483Y-53557999D01*
X181812066Y-53575036D01*
X181233451Y-54153650D01*
X181273230Y-54182552D01*
X181408723Y-54251589D01*
X181459519Y-54299564D01*
X181476314Y-54367385D01*
X181453777Y-54433519D01*
X181408723Y-54472559D01*
X181273231Y-54541595D01*
X181233452Y-54570496D01*
X181812067Y-55149111D01*
X181748483Y-55166149D01*
X181634469Y-55231975D01*
X181541377Y-55325067D01*
X181475551Y-55439081D01*
X181458513Y-55502665D01*
X180879898Y-54924050D01*
X180850997Y-54963829D01*
X180759888Y-55142641D01*
X180697869Y-55333514D01*
X180666476Y-55531723D01*
X180666476Y-55732424D01*
X180697869Y-55930633D01*
X180759888Y-56121506D01*
X180851000Y-56300324D01*
X180863926Y-56318115D01*
X180887406Y-56383921D01*
X180871580Y-56451975D01*
X180821474Y-56500670D01*
X180763608Y-56515000D01*
X180464000Y-56515000D01*
X180396961Y-56495315D01*
X180351206Y-56442511D01*
X180340000Y-56391000D01*
X180340000Y-52070000D01*
X178231920Y-52070000D01*
X178164881Y-52050315D01*
X178163029Y-52049102D01*
X178000964Y-51940814D01*
X177826171Y-51868413D01*
X177826161Y-51868410D01*
X177640603Y-51831500D01*
X177640601Y-51831500D01*
X177451399Y-51831500D01*
X177451397Y-51831500D01*
X177265838Y-51868410D01*
X177265828Y-51868413D01*
X177091035Y-51940814D01*
X176928971Y-52049102D01*
X176862293Y-52069980D01*
X176860080Y-52070000D01*
X134099906Y-52070000D01*
X134032867Y-52050315D01*
X133987112Y-51997511D01*
X133977168Y-51928353D01*
X133978289Y-51921808D01*
X133991890Y-51853434D01*
X133991890Y-51664227D01*
X133954979Y-51478669D01*
X133954978Y-51478668D01*
X133954978Y-51478664D01*
X133954976Y-51478659D01*
X133882575Y-51303865D01*
X133882573Y-51303862D01*
X133777462Y-51146552D01*
X133777456Y-51146544D01*
X133643676Y-51012764D01*
X133643668Y-51012758D01*
X133486358Y-50907647D01*
X133486355Y-50907645D01*
X133311561Y-50835244D01*
X133311551Y-50835241D01*
X133125993Y-50798331D01*
X133125991Y-50798331D01*
X132936789Y-50798331D01*
X132936787Y-50798331D01*
X132751228Y-50835241D01*
X132751218Y-50835244D01*
X132576424Y-50907645D01*
X132576421Y-50907647D01*
X132419111Y-51012758D01*
X132419103Y-51012764D01*
X132285323Y-51146544D01*
X132285317Y-51146552D01*
X132180206Y-51303862D01*
X132180204Y-51303865D01*
X132107803Y-51478659D01*
X132107800Y-51478669D01*
X132070890Y-51664227D01*
X132070890Y-51853434D01*
X132084491Y-51921808D01*
X132078264Y-51991399D01*
X132035402Y-52046577D01*
X131969512Y-52069822D01*
X131962874Y-52070000D01*
X114033906Y-52070000D01*
X113966867Y-52050315D01*
X113921112Y-51997511D01*
X113911168Y-51928353D01*
X113912289Y-51921808D01*
X113925890Y-51853434D01*
X113925890Y-51664227D01*
X113888979Y-51478669D01*
X113888978Y-51478668D01*
X113888978Y-51478664D01*
X113888976Y-51478659D01*
X113816575Y-51303865D01*
X113816573Y-51303862D01*
X113711462Y-51146552D01*
X113711456Y-51146544D01*
X113577676Y-51012764D01*
X113577668Y-51012758D01*
X113420358Y-50907647D01*
X113420355Y-50907645D01*
X113245561Y-50835244D01*
X113245551Y-50835241D01*
X113059993Y-50798331D01*
X113059991Y-50798331D01*
X112870789Y-50798331D01*
X112870787Y-50798331D01*
X112685228Y-50835241D01*
X112685218Y-50835244D01*
X112510424Y-50907645D01*
X112510421Y-50907647D01*
X112353111Y-51012758D01*
X112353103Y-51012764D01*
X112219323Y-51146544D01*
X112219317Y-51146552D01*
X112114206Y-51303862D01*
X112114204Y-51303865D01*
X112041803Y-51478659D01*
X112041800Y-51478669D01*
X112004890Y-51664227D01*
X112004890Y-51853434D01*
X112018491Y-51921808D01*
X112012264Y-51991399D01*
X111969402Y-52046577D01*
X111903512Y-52069822D01*
X111896874Y-52070000D01*
X99060000Y-52070000D01*
X99060000Y-53597000D01*
X99040315Y-53664039D01*
X98987511Y-53709794D01*
X98936000Y-53721000D01*
X95028555Y-53721000D01*
X94996000Y-51409600D01*
X94749792Y-51409600D01*
X94744245Y-51358013D01*
X94747328Y-51357681D01*
X94750301Y-51302244D01*
X94791169Y-51245573D01*
X94856188Y-51219993D01*
X94867237Y-51219500D01*
X97310398Y-51219500D01*
X97310400Y-51219500D01*
X97345581Y-51215718D01*
X97397092Y-51204512D01*
X97397124Y-51204504D01*
X97397155Y-51204498D01*
X97398889Y-51204104D01*
X97399750Y-51203910D01*
X97470291Y-51167870D01*
X97494903Y-51146544D01*
X97523079Y-51122129D01*
X97523080Y-51122127D01*
X97523095Y-51122115D01*
X97533653Y-51112122D01*
X97573511Y-51043667D01*
X97593196Y-50976628D01*
X97599900Y-50930000D01*
X97599900Y-49654000D01*
X97619585Y-49586961D01*
X97672389Y-49541206D01*
X97723900Y-49530000D01*
X185423000Y-49530000D01*
X185490039Y-49549685D01*
G37*
%TD.AperFunction*%
%TA.AperFunction,Conductor*%
G36*
X183003052Y-53800096D02*
G01*
X183014845Y-53783866D01*
X183070176Y-53741201D01*
X183139790Y-53735223D01*
X183201584Y-53767830D01*
X183232868Y-53817749D01*
X183272116Y-53936193D01*
X183272121Y-53936204D01*
X183364156Y-54085414D01*
X183364159Y-54085418D01*
X183488131Y-54209390D01*
X183488135Y-54209393D01*
X183637345Y-54301428D01*
X183637356Y-54301433D01*
X183803778Y-54356579D01*
X183863115Y-54362642D01*
X183927807Y-54389038D01*
X183967958Y-54446219D01*
X183970821Y-54516030D01*
X183935486Y-54576307D01*
X183873173Y-54607912D01*
X183850512Y-54610000D01*
X183261000Y-54610000D01*
X183261000Y-54897926D01*
X183241315Y-54964965D01*
X183188511Y-55010720D01*
X183119353Y-55020664D01*
X183055797Y-54991639D01*
X183035274Y-54967436D01*
X183034817Y-54967769D01*
X183003052Y-54924050D01*
X183003052Y-54924049D01*
X182424438Y-55502663D01*
X182407401Y-55439081D01*
X182341575Y-55325067D01*
X182248483Y-55231975D01*
X182134469Y-55166149D01*
X182070885Y-55149111D01*
X182649499Y-54570497D01*
X182649498Y-54570496D01*
X182609722Y-54541596D01*
X182474228Y-54472559D01*
X182423432Y-54424585D01*
X182406637Y-54356764D01*
X182429174Y-54290629D01*
X182474228Y-54251589D01*
X182609723Y-54182551D01*
X182649498Y-54153650D01*
X182070884Y-53575036D01*
X182134469Y-53557999D01*
X182248483Y-53492173D01*
X182341575Y-53399081D01*
X182407401Y-53285067D01*
X182424438Y-53221482D01*
X183003052Y-53800096D01*
G37*
%TD.AperFunction*%
%TD*%
%TA.AperFunction,Conductor*%
%TO.N,GND*%
G36*
X106578400Y-48768000D02*
G01*
X97434400Y-48768000D01*
X97434400Y-48615600D01*
X94005866Y-48615600D01*
X93852201Y-48537304D01*
X93852771Y-48536184D01*
X93802885Y-48495983D01*
X93780821Y-48429689D01*
X93798101Y-48361989D01*
X93848448Y-48314779D01*
X93882315Y-48297523D01*
X94024047Y-48194549D01*
X94147925Y-48070671D01*
X94250899Y-47928939D01*
X94330434Y-47772844D01*
X94384571Y-47606228D01*
X94401347Y-47500304D01*
X94411976Y-47433199D01*
X94411976Y-47258000D01*
X94398690Y-47174118D01*
X94384571Y-47084972D01*
X94330434Y-46918356D01*
X94330432Y-46918353D01*
X94330432Y-46918351D01*
X94301576Y-46861721D01*
X94250899Y-46762261D01*
X94237742Y-46744153D01*
X94147930Y-46620535D01*
X94147926Y-46620530D01*
X94024045Y-46496649D01*
X94024040Y-46496645D01*
X93882318Y-46393679D01*
X93882317Y-46393678D01*
X93882315Y-46393677D01*
X93833571Y-46368840D01*
X93726224Y-46314143D01*
X93559604Y-46260005D01*
X93386575Y-46232600D01*
X93386571Y-46232600D01*
X93116381Y-46232600D01*
X93116377Y-46232600D01*
X92943347Y-46260005D01*
X92776727Y-46314143D01*
X92620633Y-46393679D01*
X92478911Y-46496645D01*
X92478906Y-46496649D01*
X92355025Y-46620530D01*
X92355021Y-46620535D01*
X92252055Y-46762257D01*
X92172519Y-46918351D01*
X92118381Y-47084971D01*
X92090976Y-47258000D01*
X92090976Y-47433199D01*
X92118381Y-47606228D01*
X92172519Y-47772848D01*
X92252055Y-47928942D01*
X92355021Y-48070664D01*
X92355025Y-48070669D01*
X92478906Y-48194550D01*
X92478911Y-48194554D01*
X92602529Y-48284366D01*
X92620637Y-48297523D01*
X92654504Y-48314779D01*
X92705300Y-48362754D01*
X92722095Y-48430575D01*
X92699558Y-48496710D01*
X92650191Y-48536205D01*
X92650751Y-48537304D01*
X92497085Y-48615600D01*
X90830400Y-48615600D01*
X90830400Y-51054000D01*
X90678000Y-51054000D01*
X90678000Y-45212000D01*
X106578400Y-45212000D01*
X106578400Y-48768000D01*
G37*
%TD.AperFunction*%
%TD*%
%TA.AperFunction,Conductor*%
%TO.N,+9V*%
G36*
X95504000Y-58080718D02*
G01*
X95484315Y-58147757D01*
X95431511Y-58193512D01*
X95362353Y-58203456D01*
X95336667Y-58196900D01*
X95244980Y-58162703D01*
X95244972Y-58162701D01*
X95185444Y-58156300D01*
X94187600Y-58156300D01*
X94187600Y-59307817D01*
X94169191Y-59297189D01*
X94016591Y-59256300D01*
X93858609Y-59256300D01*
X93706009Y-59297189D01*
X93687600Y-59307817D01*
X93687600Y-58156300D01*
X92689755Y-58156300D01*
X92630227Y-58162701D01*
X92630220Y-58162703D01*
X92495513Y-58212945D01*
X92495506Y-58212949D01*
X92380412Y-58299109D01*
X92380409Y-58299112D01*
X92294249Y-58414206D01*
X92294245Y-58414213D01*
X92244003Y-58548920D01*
X92244001Y-58548927D01*
X92237600Y-58608455D01*
X92237600Y-59606300D01*
X93389118Y-59606300D01*
X93378489Y-59624709D01*
X93337600Y-59777309D01*
X93337600Y-59935291D01*
X93378489Y-60087891D01*
X93389118Y-60106300D01*
X92237600Y-60106300D01*
X92237600Y-61104144D01*
X92244001Y-61163672D01*
X92244003Y-61163679D01*
X92295096Y-61300667D01*
X92300080Y-61370359D01*
X92266595Y-61431682D01*
X92205271Y-61465166D01*
X92178914Y-61468000D01*
X91945000Y-61468000D01*
X91877961Y-61448315D01*
X91832206Y-61395511D01*
X91821000Y-61344000D01*
X91821000Y-55016400D01*
X95046800Y-55016400D01*
X95028555Y-53721000D01*
X95504000Y-53721000D01*
X95504000Y-58080718D01*
G37*
%TD.AperFunction*%
%TD*%
%TA.AperFunction,Conductor*%
%TO.N,+5V*%
G36*
X95396006Y-64383285D02*
G01*
X95441761Y-64436089D01*
X95452967Y-64487833D01*
X95451300Y-65375643D01*
X95431489Y-65442645D01*
X95378600Y-65488301D01*
X95309423Y-65498115D01*
X95283967Y-65491592D01*
X95194179Y-65458103D01*
X95194172Y-65458101D01*
X95134644Y-65451700D01*
X94136800Y-65451700D01*
X94136800Y-66603217D01*
X94118391Y-66592589D01*
X93965791Y-66551700D01*
X93807809Y-66551700D01*
X93655209Y-66592589D01*
X93636800Y-66603217D01*
X93636800Y-65451700D01*
X92638955Y-65451700D01*
X92579427Y-65458101D01*
X92579420Y-65458103D01*
X92444713Y-65508345D01*
X92444706Y-65508349D01*
X92329612Y-65594509D01*
X92329609Y-65594512D01*
X92243449Y-65709606D01*
X92243445Y-65709613D01*
X92193203Y-65844320D01*
X92193201Y-65844327D01*
X92186800Y-65903855D01*
X92186800Y-66901700D01*
X93338318Y-66901700D01*
X93327689Y-66920109D01*
X93286800Y-67072709D01*
X93286800Y-67230691D01*
X93327689Y-67383291D01*
X93338318Y-67401700D01*
X92186800Y-67401700D01*
X92186800Y-68399544D01*
X92193201Y-68459072D01*
X92193203Y-68459079D01*
X92243445Y-68593786D01*
X92243449Y-68593793D01*
X92329609Y-68708887D01*
X92329612Y-68708890D01*
X92444706Y-68795050D01*
X92444713Y-68795054D01*
X92579420Y-68845296D01*
X92579427Y-68845298D01*
X92638955Y-68851699D01*
X92638972Y-68851700D01*
X93636800Y-68851700D01*
X93636800Y-67700182D01*
X93655209Y-67710811D01*
X93807809Y-67751700D01*
X93965791Y-67751700D01*
X94118391Y-67710811D01*
X94136800Y-67700182D01*
X94136800Y-68851700D01*
X95134628Y-68851700D01*
X95134644Y-68851699D01*
X95194172Y-68845298D01*
X95194176Y-68845297D01*
X95277297Y-68814295D01*
X95346989Y-68809311D01*
X95408312Y-68842796D01*
X95441797Y-68904119D01*
X95444631Y-68930710D01*
X95437548Y-72705513D01*
X95417737Y-72772515D01*
X95364848Y-72818171D01*
X95295671Y-72827985D01*
X95270216Y-72821462D01*
X95194182Y-72793103D01*
X95194172Y-72793101D01*
X95134644Y-72786700D01*
X94136800Y-72786700D01*
X94136800Y-73938217D01*
X94118391Y-73927589D01*
X93965791Y-73886700D01*
X93807809Y-73886700D01*
X93655209Y-73927589D01*
X93636800Y-73938217D01*
X93636800Y-72786700D01*
X92638955Y-72786700D01*
X92579427Y-72793101D01*
X92579420Y-72793103D01*
X92444713Y-72843345D01*
X92444706Y-72843349D01*
X92329612Y-72929509D01*
X92329609Y-72929512D01*
X92243449Y-73044606D01*
X92243445Y-73044613D01*
X92193203Y-73179320D01*
X92193201Y-73179327D01*
X92186800Y-73238855D01*
X92186800Y-74236700D01*
X93338318Y-74236700D01*
X93327689Y-74255109D01*
X93286800Y-74407709D01*
X93286800Y-74565691D01*
X93327689Y-74718291D01*
X93338318Y-74736700D01*
X92186800Y-74736700D01*
X92186800Y-75734544D01*
X92193201Y-75794072D01*
X92193203Y-75794079D01*
X92243445Y-75928786D01*
X92243449Y-75928793D01*
X92329609Y-76043887D01*
X92329612Y-76043890D01*
X92444706Y-76130050D01*
X92444713Y-76130054D01*
X92579420Y-76180296D01*
X92579427Y-76180298D01*
X92638955Y-76186699D01*
X92638972Y-76186700D01*
X93636800Y-76186700D01*
X93636800Y-75035182D01*
X93655209Y-75045811D01*
X93807809Y-75086700D01*
X93965791Y-75086700D01*
X94118391Y-75045811D01*
X94136800Y-75035182D01*
X94136800Y-76186700D01*
X95134628Y-76186700D01*
X95134644Y-76186699D01*
X95194172Y-76180298D01*
X95194180Y-76180296D01*
X95263524Y-76154432D01*
X95333216Y-76149446D01*
X95394539Y-76182931D01*
X95428025Y-76244254D01*
X95430859Y-76270846D01*
X95423796Y-80035384D01*
X95403985Y-80102386D01*
X95351096Y-80148042D01*
X95281919Y-80157856D01*
X95256463Y-80151333D01*
X95194180Y-80128103D01*
X95194172Y-80128101D01*
X95134644Y-80121700D01*
X94136800Y-80121700D01*
X94136800Y-81273217D01*
X94118391Y-81262589D01*
X93965791Y-81221700D01*
X93807809Y-81221700D01*
X93655209Y-81262589D01*
X93636800Y-81273217D01*
X93636800Y-80121700D01*
X92638955Y-80121700D01*
X92579427Y-80128101D01*
X92579420Y-80128103D01*
X92444713Y-80178345D01*
X92444706Y-80178349D01*
X92329612Y-80264509D01*
X92329609Y-80264512D01*
X92243449Y-80379606D01*
X92243445Y-80379613D01*
X92193203Y-80514320D01*
X92193201Y-80514327D01*
X92186800Y-80573855D01*
X92186800Y-81571700D01*
X93338318Y-81571700D01*
X93327689Y-81590109D01*
X93286800Y-81742709D01*
X93286800Y-81900691D01*
X93327689Y-82053291D01*
X93338318Y-82071700D01*
X92186800Y-82071700D01*
X92186800Y-83069544D01*
X92193201Y-83129072D01*
X92193203Y-83129079D01*
X92243445Y-83263786D01*
X92243449Y-83263793D01*
X92329609Y-83378887D01*
X92329612Y-83378890D01*
X92444706Y-83465050D01*
X92444713Y-83465054D01*
X92579420Y-83515296D01*
X92579427Y-83515298D01*
X92638955Y-83521699D01*
X92638972Y-83521700D01*
X93636800Y-83521700D01*
X93636800Y-82370182D01*
X93655209Y-82380811D01*
X93807809Y-82421700D01*
X93965791Y-82421700D01*
X94118391Y-82380811D01*
X94136800Y-82370182D01*
X94136800Y-83521700D01*
X95134628Y-83521700D01*
X95134644Y-83521699D01*
X95194172Y-83515298D01*
X95194180Y-83515296D01*
X95249752Y-83494569D01*
X95319444Y-83489584D01*
X95380767Y-83523068D01*
X95414253Y-83584391D01*
X95417087Y-83610983D01*
X95409885Y-87450357D01*
X95390075Y-87517359D01*
X95337185Y-87563015D01*
X95272629Y-87573413D01*
X95236244Y-87569500D01*
X94238400Y-87569500D01*
X94238400Y-88721017D01*
X94219991Y-88710389D01*
X94067391Y-88669500D01*
X93909409Y-88669500D01*
X93756809Y-88710389D01*
X93738400Y-88721017D01*
X93738400Y-87569500D01*
X92740555Y-87569500D01*
X92681027Y-87575901D01*
X92681020Y-87575903D01*
X92546313Y-87626145D01*
X92546306Y-87626149D01*
X92431212Y-87712309D01*
X92431209Y-87712312D01*
X92345049Y-87827406D01*
X92345045Y-87827413D01*
X92294803Y-87962120D01*
X92294801Y-87962127D01*
X92288400Y-88021655D01*
X92288400Y-89019500D01*
X93439918Y-89019500D01*
X93429289Y-89037909D01*
X93388400Y-89190509D01*
X93388400Y-89348491D01*
X93429289Y-89501091D01*
X93439918Y-89519500D01*
X92288400Y-89519500D01*
X92288400Y-90517344D01*
X92294801Y-90576872D01*
X92294803Y-90576879D01*
X92345045Y-90711586D01*
X92345049Y-90711593D01*
X92431209Y-90826687D01*
X92431212Y-90826690D01*
X92546306Y-90912850D01*
X92546313Y-90912854D01*
X92681020Y-90963096D01*
X92681027Y-90963098D01*
X92740555Y-90969499D01*
X92740572Y-90969500D01*
X93738400Y-90969500D01*
X93738400Y-89817982D01*
X93756809Y-89828611D01*
X93909409Y-89869500D01*
X94067391Y-89869500D01*
X94219991Y-89828611D01*
X94238400Y-89817982D01*
X94238400Y-90969500D01*
X95236228Y-90969500D01*
X95236241Y-90969499D01*
X95265799Y-90966321D01*
X95334559Y-90978725D01*
X95385697Y-91026335D01*
X95403056Y-91089842D01*
X95402400Y-91440000D01*
X90627200Y-91440000D01*
X90627200Y-91439884D01*
X90619803Y-89468603D01*
X90614363Y-88018816D01*
X90591856Y-82020803D01*
X90586416Y-80571016D01*
X90569843Y-76154432D01*
X90526257Y-64538766D01*
X90545689Y-64471658D01*
X90598321Y-64425706D01*
X90601741Y-64424190D01*
X90612269Y-64419713D01*
X90641288Y-64413289D01*
X90643350Y-64412818D01*
X90713891Y-64376778D01*
X90714495Y-64376254D01*
X90721012Y-64373484D01*
X90735487Y-64371791D01*
X90769526Y-64363600D01*
X95328967Y-64363600D01*
X95396006Y-64383285D01*
G37*
%TD.AperFunction*%
%TD*%
%TA.AperFunction,Conductor*%
%TO.N,GND*%
G36*
X90678000Y-51054000D02*
G01*
X90678000Y-64138908D01*
X90658315Y-64205947D01*
X90605511Y-64251702D01*
X90554912Y-64262905D01*
X77470000Y-64359117D01*
X76860400Y-64363600D01*
X76860400Y-61286512D01*
X76884091Y-61272835D01*
X76884095Y-61272833D01*
X77060893Y-61137169D01*
X77060902Y-61137162D01*
X77218462Y-60979602D01*
X77218469Y-60979593D01*
X77354133Y-60802795D01*
X77354135Y-60802791D01*
X77465545Y-60609820D01*
X77465554Y-60609802D01*
X77550835Y-60403920D01*
X77608512Y-60188667D01*
X77619356Y-60106300D01*
X76860400Y-60106300D01*
X76860400Y-59606300D01*
X77619355Y-59606300D01*
X77619355Y-59606299D01*
X77608512Y-59523932D01*
X77550835Y-59308679D01*
X77465554Y-59102797D01*
X77465545Y-59102779D01*
X77354135Y-58909808D01*
X77354133Y-58909804D01*
X77218469Y-58733006D01*
X77218462Y-58732998D01*
X77060902Y-58575438D01*
X77060893Y-58575430D01*
X76884096Y-58439767D01*
X76860400Y-58426086D01*
X76860400Y-51871992D01*
X76983374Y-51855802D01*
X77237184Y-51787794D01*
X77479946Y-51687239D01*
X77707506Y-51555857D01*
X77915971Y-51395897D01*
X78101773Y-51210095D01*
X78261733Y-51001630D01*
X78393115Y-50774070D01*
X78493670Y-50531308D01*
X78561678Y-50277498D01*
X78595976Y-50016982D01*
X78595976Y-49754218D01*
X78561678Y-49493702D01*
X78493670Y-49239892D01*
X78393115Y-48997130D01*
X78393113Y-48997127D01*
X78393111Y-48997122D01*
X78346172Y-48915823D01*
X78261733Y-48769570D01*
X78101773Y-48561105D01*
X78101768Y-48561099D01*
X77915976Y-48375307D01*
X77915969Y-48375301D01*
X77707510Y-48215346D01*
X77707509Y-48215345D01*
X77707506Y-48215343D01*
X77616779Y-48162962D01*
X77479953Y-48083964D01*
X77479942Y-48083959D01*
X77237193Y-47983409D01*
X77237187Y-47983407D01*
X77237184Y-47983406D01*
X76983374Y-47915398D01*
X76860400Y-47899207D01*
X76860400Y-44805600D01*
X90678000Y-44704000D01*
X90678000Y-51054000D01*
G37*
%TD.AperFunction*%
%TD*%
%TA.AperFunction,Conductor*%
%TO.N,GND*%
G36*
X88843039Y-95142685D02*
G01*
X88888794Y-95195489D01*
X88900000Y-95247000D01*
X88900000Y-139700000D01*
X85598000Y-139700000D01*
X85598000Y-139664945D01*
X85598000Y-138853818D01*
X85617685Y-138786779D01*
X85670489Y-138741024D01*
X85739647Y-138731080D01*
X85796312Y-138754552D01*
X85902910Y-138834352D01*
X85902913Y-138834354D01*
X86037620Y-138884596D01*
X86037627Y-138884598D01*
X86097155Y-138890999D01*
X86097172Y-138891000D01*
X86745000Y-138891000D01*
X86745000Y-137974012D01*
X86802007Y-138006925D01*
X86929174Y-138041000D01*
X87060826Y-138041000D01*
X87187993Y-138006925D01*
X87245000Y-137974012D01*
X87245000Y-138891000D01*
X87892828Y-138891000D01*
X87892844Y-138890999D01*
X87952372Y-138884598D01*
X87952379Y-138884596D01*
X88087086Y-138834354D01*
X88087093Y-138834350D01*
X88202187Y-138748190D01*
X88202190Y-138748187D01*
X88288350Y-138633093D01*
X88288354Y-138633086D01*
X88338596Y-138498379D01*
X88338598Y-138498372D01*
X88344999Y-138438844D01*
X88345000Y-138438827D01*
X88345000Y-137791000D01*
X87428012Y-137791000D01*
X87460925Y-137733993D01*
X87495000Y-137606826D01*
X87495000Y-137475174D01*
X87460925Y-137348007D01*
X87428012Y-137291000D01*
X88345000Y-137291000D01*
X88345000Y-136643172D01*
X88344999Y-136643155D01*
X88338598Y-136583627D01*
X88338596Y-136583620D01*
X88288354Y-136448913D01*
X88288350Y-136448906D01*
X88202190Y-136333812D01*
X88202187Y-136333809D01*
X88087093Y-136247649D01*
X88087086Y-136247645D01*
X87955013Y-136198385D01*
X87899079Y-136156514D01*
X87874662Y-136091049D01*
X87889514Y-136022776D01*
X87910665Y-135994521D01*
X88024728Y-135880458D01*
X88149620Y-135708557D01*
X88246095Y-135519217D01*
X88311757Y-135317129D01*
X88311757Y-135317126D01*
X88322231Y-135251000D01*
X87428012Y-135251000D01*
X87460925Y-135193993D01*
X87495000Y-135066826D01*
X87495000Y-134935174D01*
X87460925Y-134808007D01*
X87428012Y-134751000D01*
X88322231Y-134751000D01*
X88311757Y-134684873D01*
X88311757Y-134684870D01*
X88246095Y-134482782D01*
X88149620Y-134293442D01*
X88024727Y-134121540D01*
X88024723Y-134121535D01*
X87874464Y-133971276D01*
X87874459Y-133971272D01*
X87702558Y-133846379D01*
X87692954Y-133841486D01*
X87642157Y-133793512D01*
X87625361Y-133725692D01*
X87647897Y-133659556D01*
X87692954Y-133620514D01*
X87702558Y-133615620D01*
X87874459Y-133490727D01*
X87874464Y-133490723D01*
X88024723Y-133340464D01*
X88024727Y-133340459D01*
X88149620Y-133168557D01*
X88246095Y-132979217D01*
X88311757Y-132777129D01*
X88311757Y-132777126D01*
X88322231Y-132711000D01*
X87428012Y-132711000D01*
X87460925Y-132653993D01*
X87495000Y-132526826D01*
X87495000Y-132395174D01*
X87460925Y-132268007D01*
X87428012Y-132211000D01*
X88322231Y-132211000D01*
X88311757Y-132144873D01*
X88311757Y-132144870D01*
X88246095Y-131942782D01*
X88149620Y-131753442D01*
X88024727Y-131581540D01*
X88024723Y-131581535D01*
X87874464Y-131431276D01*
X87874459Y-131431272D01*
X87702558Y-131306379D01*
X87692954Y-131301486D01*
X87642157Y-131253512D01*
X87625361Y-131185692D01*
X87647897Y-131119556D01*
X87692954Y-131080514D01*
X87702558Y-131075620D01*
X87874459Y-130950727D01*
X87874464Y-130950723D01*
X88024723Y-130800464D01*
X88024727Y-130800459D01*
X88149620Y-130628557D01*
X88246095Y-130439217D01*
X88311757Y-130237129D01*
X88311757Y-130237126D01*
X88322231Y-130171000D01*
X87428012Y-130171000D01*
X87460925Y-130113993D01*
X87495000Y-129986826D01*
X87495000Y-129855174D01*
X87460925Y-129728007D01*
X87428012Y-129671000D01*
X88322231Y-129671000D01*
X88311757Y-129604873D01*
X88311757Y-129604870D01*
X88246095Y-129402782D01*
X88149620Y-129213442D01*
X88024727Y-129041540D01*
X88024723Y-129041535D01*
X87874464Y-128891276D01*
X87874459Y-128891272D01*
X87702558Y-128766379D01*
X87692954Y-128761486D01*
X87642157Y-128713512D01*
X87625361Y-128645692D01*
X87647897Y-128579556D01*
X87692954Y-128540514D01*
X87702558Y-128535620D01*
X87874459Y-128410727D01*
X87874464Y-128410723D01*
X88024723Y-128260464D01*
X88024727Y-128260459D01*
X88149620Y-128088557D01*
X88246095Y-127899217D01*
X88311757Y-127697129D01*
X88311757Y-127697126D01*
X88322231Y-127631000D01*
X87428012Y-127631000D01*
X87460925Y-127573993D01*
X87495000Y-127446826D01*
X87495000Y-127315174D01*
X87460925Y-127188007D01*
X87428012Y-127131000D01*
X88322231Y-127131000D01*
X88311757Y-127064873D01*
X88311757Y-127064870D01*
X88246095Y-126862782D01*
X88149620Y-126673442D01*
X88024727Y-126501540D01*
X88024723Y-126501535D01*
X87874464Y-126351276D01*
X87874459Y-126351272D01*
X87702558Y-126226379D01*
X87692954Y-126221486D01*
X87642157Y-126173512D01*
X87625361Y-126105692D01*
X87647897Y-126039556D01*
X87692954Y-126000514D01*
X87702558Y-125995620D01*
X87874459Y-125870727D01*
X87874464Y-125870723D01*
X88024723Y-125720464D01*
X88024727Y-125720459D01*
X88149620Y-125548557D01*
X88246095Y-125359217D01*
X88311757Y-125157129D01*
X88311757Y-125157126D01*
X88322231Y-125091000D01*
X87428012Y-125091000D01*
X87460925Y-125033993D01*
X87495000Y-124906826D01*
X87495000Y-124775174D01*
X87460925Y-124648007D01*
X87428012Y-124591000D01*
X88322231Y-124591000D01*
X88311757Y-124524873D01*
X88311757Y-124524870D01*
X88246095Y-124322782D01*
X88149620Y-124133442D01*
X88024727Y-123961540D01*
X88024723Y-123961535D01*
X87874464Y-123811276D01*
X87874459Y-123811272D01*
X87702558Y-123686379D01*
X87692954Y-123681486D01*
X87642157Y-123633512D01*
X87625361Y-123565692D01*
X87647897Y-123499556D01*
X87692954Y-123460514D01*
X87702558Y-123455620D01*
X87874459Y-123330727D01*
X87874464Y-123330723D01*
X88024723Y-123180464D01*
X88024727Y-123180459D01*
X88149620Y-123008557D01*
X88246095Y-122819217D01*
X88311757Y-122617129D01*
X88311757Y-122617126D01*
X88322231Y-122551000D01*
X87428012Y-122551000D01*
X87460925Y-122493993D01*
X87495000Y-122366826D01*
X87495000Y-122235174D01*
X87460925Y-122108007D01*
X87428012Y-122051000D01*
X88322231Y-122051000D01*
X88311757Y-121984873D01*
X88311757Y-121984870D01*
X88246095Y-121782782D01*
X88149620Y-121593442D01*
X88024727Y-121421540D01*
X88024723Y-121421535D01*
X87874464Y-121271276D01*
X87874459Y-121271272D01*
X87702558Y-121146379D01*
X87692954Y-121141486D01*
X87642157Y-121093512D01*
X87625361Y-121025692D01*
X87647897Y-120959556D01*
X87692954Y-120920514D01*
X87702558Y-120915620D01*
X87874459Y-120790727D01*
X87874464Y-120790723D01*
X88024723Y-120640464D01*
X88024727Y-120640459D01*
X88149620Y-120468557D01*
X88246095Y-120279217D01*
X88311757Y-120077129D01*
X88311757Y-120077126D01*
X88322231Y-120011000D01*
X87428012Y-120011000D01*
X87460925Y-119953993D01*
X87495000Y-119826826D01*
X87495000Y-119695174D01*
X87460925Y-119568007D01*
X87428012Y-119511000D01*
X88322231Y-119511000D01*
X88311757Y-119444873D01*
X88311757Y-119444870D01*
X88246095Y-119242782D01*
X88149620Y-119053442D01*
X88024727Y-118881540D01*
X88024723Y-118881535D01*
X87874464Y-118731276D01*
X87874459Y-118731272D01*
X87702558Y-118606379D01*
X87692954Y-118601486D01*
X87642157Y-118553512D01*
X87625361Y-118485692D01*
X87647897Y-118419556D01*
X87692954Y-118380514D01*
X87702558Y-118375620D01*
X87874459Y-118250727D01*
X87874464Y-118250723D01*
X88024723Y-118100464D01*
X88024727Y-118100459D01*
X88149620Y-117928557D01*
X88246095Y-117739217D01*
X88311757Y-117537129D01*
X88311757Y-117537126D01*
X88322231Y-117471000D01*
X87428012Y-117471000D01*
X87460925Y-117413993D01*
X87495000Y-117286826D01*
X87495000Y-117155174D01*
X87460925Y-117028007D01*
X87428012Y-116971000D01*
X88322231Y-116971000D01*
X88311757Y-116904873D01*
X88311757Y-116904870D01*
X88246095Y-116702782D01*
X88149620Y-116513442D01*
X88024727Y-116341540D01*
X88024723Y-116341535D01*
X87874464Y-116191276D01*
X87874459Y-116191272D01*
X87702558Y-116066379D01*
X87692954Y-116061486D01*
X87642157Y-116013512D01*
X87625361Y-115945692D01*
X87647897Y-115879556D01*
X87692954Y-115840514D01*
X87702558Y-115835620D01*
X87874459Y-115710727D01*
X87874464Y-115710723D01*
X88024723Y-115560464D01*
X88024727Y-115560459D01*
X88149620Y-115388557D01*
X88246095Y-115199217D01*
X88311757Y-114997129D01*
X88311757Y-114997126D01*
X88322231Y-114931000D01*
X87428012Y-114931000D01*
X87460925Y-114873993D01*
X87495000Y-114746826D01*
X87495000Y-114615174D01*
X87460925Y-114488007D01*
X87428012Y-114431000D01*
X88322231Y-114431000D01*
X88311757Y-114364873D01*
X88311757Y-114364870D01*
X88246095Y-114162782D01*
X88149620Y-113973442D01*
X88024727Y-113801540D01*
X88024723Y-113801535D01*
X87874464Y-113651276D01*
X87874459Y-113651272D01*
X87702558Y-113526379D01*
X87692954Y-113521486D01*
X87642157Y-113473512D01*
X87625361Y-113405692D01*
X87647897Y-113339556D01*
X87692954Y-113300514D01*
X87702558Y-113295620D01*
X87874459Y-113170727D01*
X87874464Y-113170723D01*
X88024723Y-113020464D01*
X88024727Y-113020459D01*
X88149620Y-112848557D01*
X88246095Y-112659217D01*
X88311757Y-112457129D01*
X88311757Y-112457126D01*
X88322231Y-112391000D01*
X87428012Y-112391000D01*
X87460925Y-112333993D01*
X87495000Y-112206826D01*
X87495000Y-112075174D01*
X87460925Y-111948007D01*
X87428012Y-111891000D01*
X88322231Y-111891000D01*
X88311757Y-111824873D01*
X88311757Y-111824870D01*
X88246095Y-111622782D01*
X88149620Y-111433442D01*
X88024727Y-111261540D01*
X88024723Y-111261535D01*
X87874464Y-111111276D01*
X87874459Y-111111272D01*
X87702558Y-110986379D01*
X87692954Y-110981486D01*
X87642157Y-110933512D01*
X87625361Y-110865692D01*
X87647897Y-110799556D01*
X87692954Y-110760514D01*
X87702558Y-110755620D01*
X87874459Y-110630727D01*
X87874464Y-110630723D01*
X88024723Y-110480464D01*
X88024727Y-110480459D01*
X88149620Y-110308557D01*
X88246095Y-110119217D01*
X88311757Y-109917129D01*
X88311757Y-109917126D01*
X88322231Y-109851000D01*
X87428012Y-109851000D01*
X87460925Y-109793993D01*
X87495000Y-109666826D01*
X87495000Y-109535174D01*
X87460925Y-109408007D01*
X87428012Y-109351000D01*
X88322231Y-109351000D01*
X88311757Y-109284873D01*
X88311757Y-109284870D01*
X88246095Y-109082782D01*
X88149620Y-108893442D01*
X88024727Y-108721540D01*
X88024723Y-108721535D01*
X87874464Y-108571276D01*
X87874459Y-108571272D01*
X87702558Y-108446379D01*
X87692954Y-108441486D01*
X87642157Y-108393512D01*
X87625361Y-108325692D01*
X87647897Y-108259556D01*
X87692954Y-108220514D01*
X87702558Y-108215620D01*
X87874459Y-108090727D01*
X87874464Y-108090723D01*
X88024723Y-107940464D01*
X88024727Y-107940459D01*
X88149620Y-107768557D01*
X88246095Y-107579217D01*
X88311757Y-107377129D01*
X88311757Y-107377126D01*
X88322231Y-107311000D01*
X87428012Y-107311000D01*
X87460925Y-107253993D01*
X87495000Y-107126826D01*
X87495000Y-106995174D01*
X87460925Y-106868007D01*
X87428012Y-106811000D01*
X88322231Y-106811000D01*
X88311757Y-106744873D01*
X88311757Y-106744870D01*
X88246095Y-106542782D01*
X88149620Y-106353442D01*
X88024727Y-106181540D01*
X88024723Y-106181535D01*
X87874464Y-106031276D01*
X87874459Y-106031272D01*
X87702558Y-105906379D01*
X87692954Y-105901486D01*
X87642157Y-105853512D01*
X87625361Y-105785692D01*
X87647897Y-105719556D01*
X87692954Y-105680514D01*
X87702558Y-105675620D01*
X87874459Y-105550727D01*
X87874464Y-105550723D01*
X88024723Y-105400464D01*
X88024727Y-105400459D01*
X88149620Y-105228557D01*
X88246095Y-105039217D01*
X88311757Y-104837129D01*
X88311757Y-104837126D01*
X88322231Y-104771000D01*
X87428012Y-104771000D01*
X87460925Y-104713993D01*
X87495000Y-104586826D01*
X87495000Y-104455174D01*
X87460925Y-104328007D01*
X87428012Y-104271000D01*
X88322231Y-104271000D01*
X88311757Y-104204873D01*
X88311757Y-104204870D01*
X88246095Y-104002782D01*
X88149620Y-103813442D01*
X88024727Y-103641540D01*
X88024723Y-103641535D01*
X87874464Y-103491276D01*
X87874459Y-103491272D01*
X87702558Y-103366379D01*
X87692954Y-103361486D01*
X87642157Y-103313512D01*
X87625361Y-103245692D01*
X87647897Y-103179556D01*
X87692954Y-103140514D01*
X87702558Y-103135620D01*
X87874459Y-103010727D01*
X87874464Y-103010723D01*
X88024723Y-102860464D01*
X88024727Y-102860459D01*
X88149620Y-102688557D01*
X88246095Y-102499217D01*
X88311757Y-102297129D01*
X88311757Y-102297126D01*
X88322231Y-102231000D01*
X87428012Y-102231000D01*
X87460925Y-102173993D01*
X87495000Y-102046826D01*
X87495000Y-101915174D01*
X87460925Y-101788007D01*
X87428012Y-101731000D01*
X88322231Y-101731000D01*
X88311757Y-101664873D01*
X88311757Y-101664870D01*
X88246095Y-101462782D01*
X88149620Y-101273442D01*
X88024727Y-101101540D01*
X88024723Y-101101535D01*
X87874464Y-100951276D01*
X87874459Y-100951272D01*
X87702558Y-100826379D01*
X87692954Y-100821486D01*
X87642157Y-100773512D01*
X87625361Y-100705692D01*
X87647897Y-100639556D01*
X87692954Y-100600514D01*
X87702558Y-100595620D01*
X87874459Y-100470727D01*
X87874464Y-100470723D01*
X88024723Y-100320464D01*
X88024727Y-100320459D01*
X88149620Y-100148557D01*
X88246095Y-99959217D01*
X88311757Y-99757129D01*
X88311757Y-99757126D01*
X88322231Y-99691000D01*
X87428012Y-99691000D01*
X87460925Y-99633993D01*
X87495000Y-99506826D01*
X87495000Y-99375174D01*
X87460925Y-99248007D01*
X87428012Y-99191000D01*
X88322231Y-99191000D01*
X88311757Y-99124873D01*
X88311757Y-99124870D01*
X88246095Y-98922782D01*
X88149620Y-98733442D01*
X88024727Y-98561540D01*
X88024723Y-98561535D01*
X87874464Y-98411276D01*
X87874459Y-98411272D01*
X87702558Y-98286379D01*
X87692954Y-98281486D01*
X87642157Y-98233512D01*
X87625361Y-98165692D01*
X87647897Y-98099556D01*
X87692954Y-98060514D01*
X87702558Y-98055620D01*
X87874459Y-97930727D01*
X87874464Y-97930723D01*
X88024723Y-97780464D01*
X88024727Y-97780459D01*
X88149620Y-97608557D01*
X88246095Y-97419217D01*
X88311757Y-97217129D01*
X88311757Y-97217126D01*
X88322231Y-97151000D01*
X87428012Y-97151000D01*
X87460925Y-97093993D01*
X87495000Y-96966826D01*
X87495000Y-96835174D01*
X87460925Y-96708007D01*
X87428012Y-96651000D01*
X88322231Y-96651000D01*
X88311757Y-96584873D01*
X88311757Y-96584870D01*
X88246095Y-96382782D01*
X88149620Y-96193442D01*
X88024727Y-96021540D01*
X88024723Y-96021535D01*
X87874464Y-95871276D01*
X87874459Y-95871272D01*
X87702557Y-95746379D01*
X87513215Y-95649903D01*
X87311124Y-95584241D01*
X87245000Y-95573768D01*
X87245000Y-96467988D01*
X87187993Y-96435075D01*
X87060826Y-96401000D01*
X86929174Y-96401000D01*
X86802007Y-96435075D01*
X86745000Y-96467988D01*
X86745000Y-95573768D01*
X86744999Y-95573768D01*
X86678875Y-95584241D01*
X86476784Y-95649903D01*
X86287442Y-95746379D01*
X86115540Y-95871272D01*
X86115535Y-95871276D01*
X85965276Y-96021535D01*
X85965272Y-96021540D01*
X85840379Y-96193442D01*
X85832485Y-96208935D01*
X85784510Y-96259731D01*
X85716689Y-96276526D01*
X85650554Y-96253988D01*
X85607103Y-96199273D01*
X85598000Y-96152640D01*
X85598000Y-95247000D01*
X85617685Y-95179961D01*
X85670489Y-95134206D01*
X85722000Y-95123000D01*
X88776000Y-95123000D01*
X88843039Y-95142685D01*
G37*
%TD.AperFunction*%
%TA.AperFunction,Conductor*%
G36*
X87245000Y-137107988D02*
G01*
X87187993Y-137075075D01*
X87060826Y-137041000D01*
X86929174Y-137041000D01*
X86802007Y-137075075D01*
X86745000Y-137107988D01*
X86745000Y-135434012D01*
X86802007Y-135466925D01*
X86929174Y-135501000D01*
X87060826Y-135501000D01*
X87187993Y-135466925D01*
X87245000Y-135434012D01*
X87245000Y-137107988D01*
G37*
%TD.AperFunction*%
%TA.AperFunction,Conductor*%
G36*
X87245000Y-134567988D02*
G01*
X87187993Y-134535075D01*
X87060826Y-134501000D01*
X86929174Y-134501000D01*
X86802007Y-134535075D01*
X86745000Y-134567988D01*
X86745000Y-132894012D01*
X86802007Y-132926925D01*
X86929174Y-132961000D01*
X87060826Y-132961000D01*
X87187993Y-132926925D01*
X87245000Y-132894012D01*
X87245000Y-134567988D01*
G37*
%TD.AperFunction*%
%TA.AperFunction,Conductor*%
G36*
X87245000Y-132027988D02*
G01*
X87187993Y-131995075D01*
X87060826Y-131961000D01*
X86929174Y-131961000D01*
X86802007Y-131995075D01*
X86745000Y-132027988D01*
X86745000Y-130354012D01*
X86802007Y-130386925D01*
X86929174Y-130421000D01*
X87060826Y-130421000D01*
X87187993Y-130386925D01*
X87245000Y-130354012D01*
X87245000Y-132027988D01*
G37*
%TD.AperFunction*%
%TA.AperFunction,Conductor*%
G36*
X87245000Y-129487988D02*
G01*
X87187993Y-129455075D01*
X87060826Y-129421000D01*
X86929174Y-129421000D01*
X86802007Y-129455075D01*
X86745000Y-129487988D01*
X86745000Y-127814012D01*
X86802007Y-127846925D01*
X86929174Y-127881000D01*
X87060826Y-127881000D01*
X87187993Y-127846925D01*
X87245000Y-127814012D01*
X87245000Y-129487988D01*
G37*
%TD.AperFunction*%
%TA.AperFunction,Conductor*%
G36*
X87245000Y-126947988D02*
G01*
X87187993Y-126915075D01*
X87060826Y-126881000D01*
X86929174Y-126881000D01*
X86802007Y-126915075D01*
X86745000Y-126947988D01*
X86745000Y-125274012D01*
X86802007Y-125306925D01*
X86929174Y-125341000D01*
X87060826Y-125341000D01*
X87187993Y-125306925D01*
X87245000Y-125274012D01*
X87245000Y-126947988D01*
G37*
%TD.AperFunction*%
%TA.AperFunction,Conductor*%
G36*
X87245000Y-124407988D02*
G01*
X87187993Y-124375075D01*
X87060826Y-124341000D01*
X86929174Y-124341000D01*
X86802007Y-124375075D01*
X86745000Y-124407988D01*
X86745000Y-122734012D01*
X86802007Y-122766925D01*
X86929174Y-122801000D01*
X87060826Y-122801000D01*
X87187993Y-122766925D01*
X87245000Y-122734012D01*
X87245000Y-124407988D01*
G37*
%TD.AperFunction*%
%TA.AperFunction,Conductor*%
G36*
X87245000Y-121867988D02*
G01*
X87187993Y-121835075D01*
X87060826Y-121801000D01*
X86929174Y-121801000D01*
X86802007Y-121835075D01*
X86745000Y-121867988D01*
X86745000Y-120194012D01*
X86802007Y-120226925D01*
X86929174Y-120261000D01*
X87060826Y-120261000D01*
X87187993Y-120226925D01*
X87245000Y-120194012D01*
X87245000Y-121867988D01*
G37*
%TD.AperFunction*%
%TA.AperFunction,Conductor*%
G36*
X87245000Y-119327988D02*
G01*
X87187993Y-119295075D01*
X87060826Y-119261000D01*
X86929174Y-119261000D01*
X86802007Y-119295075D01*
X86745000Y-119327988D01*
X86745000Y-117654012D01*
X86802007Y-117686925D01*
X86929174Y-117721000D01*
X87060826Y-117721000D01*
X87187993Y-117686925D01*
X87245000Y-117654012D01*
X87245000Y-119327988D01*
G37*
%TD.AperFunction*%
%TA.AperFunction,Conductor*%
G36*
X87245000Y-116787988D02*
G01*
X87187993Y-116755075D01*
X87060826Y-116721000D01*
X86929174Y-116721000D01*
X86802007Y-116755075D01*
X86745000Y-116787988D01*
X86745000Y-115114012D01*
X86802007Y-115146925D01*
X86929174Y-115181000D01*
X87060826Y-115181000D01*
X87187993Y-115146925D01*
X87245000Y-115114012D01*
X87245000Y-116787988D01*
G37*
%TD.AperFunction*%
%TA.AperFunction,Conductor*%
G36*
X87245000Y-114247988D02*
G01*
X87187993Y-114215075D01*
X87060826Y-114181000D01*
X86929174Y-114181000D01*
X86802007Y-114215075D01*
X86745000Y-114247988D01*
X86745000Y-112574012D01*
X86802007Y-112606925D01*
X86929174Y-112641000D01*
X87060826Y-112641000D01*
X87187993Y-112606925D01*
X87245000Y-112574012D01*
X87245000Y-114247988D01*
G37*
%TD.AperFunction*%
%TA.AperFunction,Conductor*%
G36*
X87245000Y-111707988D02*
G01*
X87187993Y-111675075D01*
X87060826Y-111641000D01*
X86929174Y-111641000D01*
X86802007Y-111675075D01*
X86745000Y-111707988D01*
X86745000Y-110034012D01*
X86802007Y-110066925D01*
X86929174Y-110101000D01*
X87060826Y-110101000D01*
X87187993Y-110066925D01*
X87245000Y-110034012D01*
X87245000Y-111707988D01*
G37*
%TD.AperFunction*%
%TA.AperFunction,Conductor*%
G36*
X87245000Y-109167988D02*
G01*
X87187993Y-109135075D01*
X87060826Y-109101000D01*
X86929174Y-109101000D01*
X86802007Y-109135075D01*
X86745000Y-109167988D01*
X86745000Y-107494012D01*
X86802007Y-107526925D01*
X86929174Y-107561000D01*
X87060826Y-107561000D01*
X87187993Y-107526925D01*
X87245000Y-107494012D01*
X87245000Y-109167988D01*
G37*
%TD.AperFunction*%
%TA.AperFunction,Conductor*%
G36*
X87245000Y-106627988D02*
G01*
X87187993Y-106595075D01*
X87060826Y-106561000D01*
X86929174Y-106561000D01*
X86802007Y-106595075D01*
X86745000Y-106627988D01*
X86745000Y-104954012D01*
X86802007Y-104986925D01*
X86929174Y-105021000D01*
X87060826Y-105021000D01*
X87187993Y-104986925D01*
X87245000Y-104954012D01*
X87245000Y-106627988D01*
G37*
%TD.AperFunction*%
%TA.AperFunction,Conductor*%
G36*
X87245000Y-104087988D02*
G01*
X87187993Y-104055075D01*
X87060826Y-104021000D01*
X86929174Y-104021000D01*
X86802007Y-104055075D01*
X86745000Y-104087988D01*
X86745000Y-102414012D01*
X86802007Y-102446925D01*
X86929174Y-102481000D01*
X87060826Y-102481000D01*
X87187993Y-102446925D01*
X87245000Y-102414012D01*
X87245000Y-104087988D01*
G37*
%TD.AperFunction*%
%TA.AperFunction,Conductor*%
G36*
X87245000Y-101547988D02*
G01*
X87187993Y-101515075D01*
X87060826Y-101481000D01*
X86929174Y-101481000D01*
X86802007Y-101515075D01*
X86745000Y-101547988D01*
X86745000Y-99874012D01*
X86802007Y-99906925D01*
X86929174Y-99941000D01*
X87060826Y-99941000D01*
X87187993Y-99906925D01*
X87245000Y-99874012D01*
X87245000Y-101547988D01*
G37*
%TD.AperFunction*%
%TA.AperFunction,Conductor*%
G36*
X87245000Y-99007988D02*
G01*
X87187993Y-98975075D01*
X87060826Y-98941000D01*
X86929174Y-98941000D01*
X86802007Y-98975075D01*
X86745000Y-99007988D01*
X86745000Y-97334012D01*
X86802007Y-97366925D01*
X86929174Y-97401000D01*
X87060826Y-97401000D01*
X87187993Y-97366925D01*
X87245000Y-97334012D01*
X87245000Y-99007988D01*
G37*
%TD.AperFunction*%
%TD*%
%TA.AperFunction,Conductor*%
%TO.N,GND*%
G36*
X92456000Y-45212000D02*
G01*
X90678000Y-45212000D01*
X90678000Y-44704000D01*
X92456000Y-44704000D01*
X92456000Y-45212000D01*
G37*
%TD.AperFunction*%
%TD*%
%TA.AperFunction,Conductor*%
%TO.N,GND*%
G36*
X189427039Y-130880485D02*
G01*
X189472794Y-130933289D01*
X189484000Y-130984800D01*
X189484000Y-142116000D01*
X189464315Y-142183039D01*
X189411511Y-142228794D01*
X189360000Y-142240000D01*
X76835000Y-142240000D01*
X76835000Y-139649200D01*
X85598000Y-139664946D01*
X85598000Y-139700000D01*
X88900000Y-139700000D01*
X88900000Y-139670879D01*
X101555063Y-139693620D01*
X101622065Y-139713425D01*
X101667725Y-139766311D01*
X101677544Y-139835488D01*
X101665323Y-139873915D01*
X101614444Y-139973768D01*
X101551209Y-140168382D01*
X101519200Y-140370482D01*
X101519200Y-140575117D01*
X101551209Y-140777217D01*
X101614444Y-140971831D01*
X101707341Y-141154150D01*
X101707347Y-141154159D01*
X101739723Y-141198721D01*
X101739724Y-141198722D01*
X102419200Y-140519246D01*
X102419200Y-140525461D01*
X102446459Y-140627194D01*
X102499120Y-140718406D01*
X102573594Y-140792880D01*
X102664806Y-140845541D01*
X102766539Y-140872800D01*
X102772753Y-140872800D01*
X102093276Y-141552274D01*
X102137850Y-141584659D01*
X102320168Y-141677555D01*
X102514782Y-141740790D01*
X102716883Y-141772800D01*
X102921517Y-141772800D01*
X103123617Y-141740790D01*
X103318231Y-141677555D01*
X103500549Y-141584659D01*
X103545121Y-141552274D01*
X102865647Y-140872800D01*
X102871861Y-140872800D01*
X102973594Y-140845541D01*
X103064806Y-140792880D01*
X103139280Y-140718406D01*
X103191941Y-140627194D01*
X103219200Y-140525461D01*
X103219200Y-140519247D01*
X103898674Y-141198721D01*
X103931059Y-141154149D01*
X104023955Y-140971831D01*
X104087190Y-140777217D01*
X104119200Y-140575117D01*
X104119200Y-140370482D01*
X104087190Y-140168382D01*
X104023955Y-139973768D01*
X103975394Y-139878463D01*
X103962498Y-139809794D01*
X103988774Y-139745053D01*
X104045881Y-139704796D01*
X104086097Y-139698168D01*
X105105200Y-139700000D01*
X155448000Y-139700000D01*
X155448000Y-136560482D01*
X155926000Y-136560482D01*
X155926000Y-136765117D01*
X155958009Y-136967217D01*
X156021244Y-137161831D01*
X156114141Y-137344150D01*
X156114147Y-137344159D01*
X156146523Y-137388721D01*
X156146524Y-137388722D01*
X156826000Y-136709246D01*
X156826000Y-136715461D01*
X156853259Y-136817194D01*
X156905920Y-136908406D01*
X156980394Y-136982880D01*
X157071606Y-137035541D01*
X157173339Y-137062800D01*
X157179553Y-137062800D01*
X156500076Y-137742274D01*
X156544650Y-137774659D01*
X156726968Y-137867555D01*
X156921582Y-137930790D01*
X157123683Y-137962800D01*
X157328317Y-137962800D01*
X157530417Y-137930790D01*
X157725031Y-137867555D01*
X157863596Y-137796953D01*
X157907349Y-137774659D01*
X157951921Y-137742274D01*
X157951922Y-137742274D01*
X157905436Y-137695788D01*
X157272447Y-137062800D01*
X157278661Y-137062800D01*
X157380394Y-137035541D01*
X157471606Y-136982880D01*
X157546080Y-136908406D01*
X157598741Y-136817194D01*
X157626000Y-136715461D01*
X157626000Y-136709247D01*
X158305474Y-137388721D01*
X158337859Y-137344149D01*
X158430755Y-137161831D01*
X158493990Y-136967217D01*
X158510820Y-136860955D01*
X160035800Y-136860955D01*
X160035800Y-137458800D01*
X161020114Y-137458800D01*
X161015720Y-137463194D01*
X160963059Y-137554406D01*
X160935800Y-137656139D01*
X160935800Y-137761461D01*
X160963059Y-137863194D01*
X161015720Y-137954406D01*
X161020114Y-137958800D01*
X160035800Y-137958800D01*
X160035800Y-138556644D01*
X160042201Y-138616172D01*
X160042203Y-138616179D01*
X160092445Y-138750886D01*
X160092449Y-138750893D01*
X160178609Y-138865987D01*
X160178612Y-138865990D01*
X160293706Y-138952150D01*
X160293713Y-138952154D01*
X160428420Y-139002396D01*
X160428427Y-139002398D01*
X160487955Y-139008799D01*
X160487972Y-139008800D01*
X161085800Y-139008800D01*
X161085800Y-138024486D01*
X161090194Y-138028880D01*
X161181406Y-138081541D01*
X161283139Y-138108800D01*
X161388461Y-138108800D01*
X161490194Y-138081541D01*
X161581406Y-138028880D01*
X161585800Y-138024486D01*
X161585800Y-139008800D01*
X162183628Y-139008800D01*
X162183644Y-139008799D01*
X162243172Y-139002398D01*
X162243179Y-139002396D01*
X162377886Y-138952154D01*
X162377893Y-138952150D01*
X162492987Y-138865990D01*
X162492990Y-138865987D01*
X162579150Y-138750893D01*
X162579154Y-138750886D01*
X162629396Y-138616179D01*
X162629398Y-138616172D01*
X162635799Y-138556644D01*
X162635800Y-138556627D01*
X162635800Y-137958800D01*
X161651486Y-137958800D01*
X161655880Y-137954406D01*
X161708541Y-137863194D01*
X161724562Y-137803403D01*
X162915299Y-137803403D01*
X162952210Y-137988961D01*
X162952213Y-137988971D01*
X163024614Y-138163765D01*
X163024616Y-138163768D01*
X163129727Y-138321078D01*
X163129733Y-138321086D01*
X163263513Y-138454866D01*
X163263521Y-138454872D01*
X163420831Y-138559983D01*
X163420834Y-138559985D01*
X163595628Y-138632386D01*
X163595633Y-138632388D01*
X163595637Y-138632388D01*
X163595638Y-138632389D01*
X163781196Y-138669300D01*
X163781199Y-138669300D01*
X163970403Y-138669300D01*
X164095242Y-138644467D01*
X164155967Y-138632388D01*
X164330767Y-138559984D01*
X164488083Y-138454869D01*
X164621869Y-138321083D01*
X164726984Y-138163767D01*
X164799388Y-137988967D01*
X164806263Y-137954406D01*
X164817574Y-137897545D01*
X164817574Y-137897544D01*
X164836299Y-137803405D01*
X164836300Y-137803403D01*
X164836300Y-137619667D01*
X164836300Y-137614199D01*
X164817448Y-137519425D01*
X164817438Y-137519372D01*
X164805389Y-137458800D01*
X165139191Y-137458800D01*
X166100114Y-137458800D01*
X166095720Y-137463194D01*
X166043059Y-137554406D01*
X166015800Y-137656139D01*
X166015800Y-137761461D01*
X166043059Y-137863194D01*
X166095720Y-137954406D01*
X166100114Y-137958800D01*
X165139191Y-137958800D01*
X165147809Y-138013213D01*
X165211044Y-138207829D01*
X165303940Y-138390149D01*
X165424217Y-138555694D01*
X165424217Y-138555695D01*
X165568904Y-138700382D01*
X165734450Y-138820659D01*
X165916768Y-138913554D01*
X166111378Y-138976788D01*
X166165800Y-138985407D01*
X166165800Y-138024486D01*
X166170194Y-138028880D01*
X166261406Y-138081541D01*
X166363139Y-138108800D01*
X166468461Y-138108800D01*
X166570194Y-138081541D01*
X166661406Y-138028880D01*
X166665800Y-138024486D01*
X166665800Y-138985406D01*
X166720221Y-138976788D01*
X166914831Y-138913554D01*
X167097149Y-138820659D01*
X167262694Y-138700382D01*
X167262695Y-138700382D01*
X167407382Y-138555695D01*
X167407382Y-138555694D01*
X167527659Y-138390149D01*
X167620555Y-138207829D01*
X167683790Y-138013213D01*
X167692409Y-137958800D01*
X166731486Y-137958800D01*
X166735880Y-137954406D01*
X166788541Y-137863194D01*
X166804562Y-137803403D01*
X167995299Y-137803403D01*
X168032210Y-137988961D01*
X168032213Y-137988971D01*
X168104614Y-138163765D01*
X168104616Y-138163768D01*
X168209727Y-138321078D01*
X168209733Y-138321086D01*
X168343513Y-138454866D01*
X168343521Y-138454872D01*
X168500831Y-138559983D01*
X168500834Y-138559985D01*
X168675628Y-138632386D01*
X168675633Y-138632388D01*
X168675637Y-138632388D01*
X168675638Y-138632389D01*
X168861196Y-138669300D01*
X168861199Y-138669300D01*
X169050403Y-138669300D01*
X169175242Y-138644467D01*
X169235967Y-138632388D01*
X169410767Y-138559984D01*
X169568083Y-138454869D01*
X169701869Y-138321083D01*
X169806984Y-138163767D01*
X169879388Y-137988967D01*
X169886263Y-137954406D01*
X169897574Y-137897545D01*
X169897574Y-137897544D01*
X169916299Y-137803405D01*
X169916300Y-137803403D01*
X169916300Y-137619667D01*
X169916300Y-137614199D01*
X169897448Y-137519425D01*
X169897438Y-137519372D01*
X169885389Y-137458800D01*
X170219191Y-137458800D01*
X171180114Y-137458800D01*
X171175720Y-137463194D01*
X171123059Y-137554406D01*
X171095800Y-137656139D01*
X171095800Y-137761461D01*
X171123059Y-137863194D01*
X171175720Y-137954406D01*
X171180114Y-137958800D01*
X170219191Y-137958800D01*
X170227809Y-138013213D01*
X170291044Y-138207829D01*
X170383940Y-138390149D01*
X170504217Y-138555694D01*
X170504217Y-138555695D01*
X170648904Y-138700382D01*
X170814450Y-138820659D01*
X170996768Y-138913554D01*
X171191378Y-138976788D01*
X171245800Y-138985407D01*
X171245800Y-138024486D01*
X171250194Y-138028880D01*
X171341406Y-138081541D01*
X171443139Y-138108800D01*
X171548461Y-138108800D01*
X171650194Y-138081541D01*
X171741406Y-138028880D01*
X171745800Y-138024486D01*
X171745800Y-138985406D01*
X171800221Y-138976788D01*
X171994831Y-138913554D01*
X172177149Y-138820659D01*
X172342694Y-138700382D01*
X172342695Y-138700382D01*
X172487382Y-138555695D01*
X172487382Y-138555694D01*
X172607659Y-138390149D01*
X172700555Y-138207829D01*
X172763790Y-138013213D01*
X172772409Y-137958800D01*
X171811486Y-137958800D01*
X171815880Y-137954406D01*
X171868541Y-137863194D01*
X171884562Y-137803403D01*
X173075299Y-137803403D01*
X173112210Y-137988961D01*
X173112213Y-137988971D01*
X173184614Y-138163765D01*
X173184616Y-138163768D01*
X173289727Y-138321078D01*
X173289733Y-138321086D01*
X173423513Y-138454866D01*
X173423521Y-138454872D01*
X173580831Y-138559983D01*
X173580834Y-138559985D01*
X173755628Y-138632386D01*
X173755633Y-138632388D01*
X173755637Y-138632388D01*
X173755638Y-138632389D01*
X173941196Y-138669300D01*
X173941199Y-138669300D01*
X174130403Y-138669300D01*
X174255242Y-138644467D01*
X174315967Y-138632388D01*
X174490767Y-138559984D01*
X174648083Y-138454869D01*
X174781869Y-138321083D01*
X174886984Y-138163767D01*
X174959388Y-137988967D01*
X174966263Y-137954406D01*
X174977574Y-137897545D01*
X174977574Y-137897544D01*
X174996299Y-137803405D01*
X174996300Y-137803403D01*
X174996300Y-137614196D01*
X174996299Y-137614194D01*
X174977574Y-137520054D01*
X174965389Y-137458800D01*
X175299191Y-137458800D01*
X176260114Y-137458800D01*
X176255720Y-137463194D01*
X176203059Y-137554406D01*
X176175800Y-137656139D01*
X176175800Y-137761461D01*
X176203059Y-137863194D01*
X176255720Y-137954406D01*
X176260114Y-137958800D01*
X175299191Y-137958800D01*
X175307809Y-138013213D01*
X175371044Y-138207829D01*
X175463940Y-138390149D01*
X175584217Y-138555694D01*
X175584217Y-138555695D01*
X175728904Y-138700382D01*
X175894450Y-138820659D01*
X176076768Y-138913554D01*
X176271378Y-138976788D01*
X176325800Y-138985407D01*
X176325800Y-138024486D01*
X176330194Y-138028880D01*
X176421406Y-138081541D01*
X176523139Y-138108800D01*
X176628461Y-138108800D01*
X176730194Y-138081541D01*
X176821406Y-138028880D01*
X176825800Y-138024486D01*
X176825800Y-138985406D01*
X176880221Y-138976788D01*
X177074831Y-138913554D01*
X177257149Y-138820659D01*
X177422694Y-138700382D01*
X177422695Y-138700382D01*
X177567382Y-138555695D01*
X177567382Y-138555694D01*
X177687659Y-138390149D01*
X177780555Y-138207829D01*
X177843790Y-138013213D01*
X177852409Y-137958800D01*
X176891486Y-137958800D01*
X176895880Y-137954406D01*
X176948541Y-137863194D01*
X176975800Y-137761461D01*
X176975800Y-137656139D01*
X176948541Y-137554406D01*
X176895880Y-137463194D01*
X176891486Y-137458800D01*
X177852409Y-137458800D01*
X177843790Y-137404386D01*
X177780555Y-137209770D01*
X177687659Y-137027450D01*
X177573861Y-136870821D01*
X177573860Y-136870820D01*
X177567385Y-136861907D01*
X177507471Y-136801993D01*
X185341976Y-136801993D01*
X185341976Y-137022154D01*
X185366675Y-137209770D01*
X185370712Y-137240431D01*
X185396336Y-137336059D01*
X185427694Y-137453090D01*
X185511941Y-137656483D01*
X185511949Y-137656499D01*
X185622025Y-137847155D01*
X185756049Y-138021820D01*
X185756055Y-138021827D01*
X185911722Y-138177494D01*
X185911729Y-138177500D01*
X186086394Y-138311524D01*
X186277050Y-138421600D01*
X186277066Y-138421608D01*
X186386797Y-138467059D01*
X186480460Y-138505856D01*
X186693119Y-138562838D01*
X186856826Y-138584390D01*
X186911395Y-138591574D01*
X186911396Y-138591574D01*
X187131557Y-138591574D01*
X187175211Y-138585826D01*
X187349833Y-138562838D01*
X187562492Y-138505856D01*
X187729949Y-138436493D01*
X187765885Y-138421608D01*
X187765888Y-138421606D01*
X187765894Y-138421604D01*
X187956558Y-138311524D01*
X188131224Y-138177499D01*
X188286901Y-138021822D01*
X188420926Y-137847156D01*
X188531006Y-137656492D01*
X188537620Y-137640526D01*
X188573291Y-137554406D01*
X188615258Y-137453090D01*
X188672240Y-137240431D01*
X188700976Y-137022154D01*
X188700976Y-136801994D01*
X188700900Y-136801420D01*
X188682651Y-136662799D01*
X188672240Y-136583717D01*
X188615258Y-136371058D01*
X188570416Y-136262800D01*
X188531010Y-136167664D01*
X188531002Y-136167648D01*
X188420926Y-135976992D01*
X188286902Y-135802327D01*
X188286896Y-135802320D01*
X188131229Y-135646653D01*
X188131222Y-135646647D01*
X187956557Y-135512623D01*
X187765901Y-135402547D01*
X187765885Y-135402539D01*
X187562492Y-135318292D01*
X187478372Y-135295752D01*
X187349833Y-135261310D01*
X187349832Y-135261309D01*
X187349829Y-135261309D01*
X187131557Y-135232574D01*
X187131556Y-135232574D01*
X186911396Y-135232574D01*
X186911395Y-135232574D01*
X186693122Y-135261309D01*
X186480459Y-135318292D01*
X186277066Y-135402539D01*
X186277050Y-135402547D01*
X186086394Y-135512623D01*
X185911729Y-135646647D01*
X185911722Y-135646653D01*
X185756055Y-135802320D01*
X185756049Y-135802327D01*
X185622025Y-135976992D01*
X185511949Y-136167648D01*
X185511941Y-136167664D01*
X185427694Y-136371057D01*
X185370711Y-136583720D01*
X185341976Y-136801993D01*
X177507471Y-136801993D01*
X177422695Y-136717217D01*
X177257149Y-136596940D01*
X177074829Y-136504044D01*
X176880213Y-136440809D01*
X176825800Y-136432190D01*
X176825800Y-137393114D01*
X176821406Y-137388720D01*
X176730194Y-137336059D01*
X176628461Y-137308800D01*
X176523139Y-137308800D01*
X176421406Y-137336059D01*
X176330194Y-137388720D01*
X176325800Y-137393114D01*
X176325800Y-136432190D01*
X176271386Y-136440809D01*
X176076770Y-136504044D01*
X175894450Y-136596940D01*
X175728905Y-136717217D01*
X175728904Y-136717217D01*
X175584217Y-136861904D01*
X175584217Y-136861905D01*
X175463940Y-137027450D01*
X175371044Y-137209770D01*
X175307809Y-137404386D01*
X175299191Y-137458800D01*
X174965389Y-137458800D01*
X174959389Y-137428638D01*
X174959388Y-137428637D01*
X174959388Y-137428633D01*
X174949345Y-137404386D01*
X174886985Y-137253834D01*
X174886983Y-137253831D01*
X174781872Y-137096521D01*
X174781866Y-137096513D01*
X174648086Y-136962733D01*
X174648078Y-136962727D01*
X174490768Y-136857616D01*
X174490765Y-136857614D01*
X174315971Y-136785213D01*
X174315961Y-136785210D01*
X174130403Y-136748300D01*
X174130401Y-136748300D01*
X173941199Y-136748300D01*
X173941197Y-136748300D01*
X173755638Y-136785210D01*
X173755628Y-136785213D01*
X173580834Y-136857614D01*
X173580831Y-136857616D01*
X173423521Y-136962727D01*
X173423513Y-136962733D01*
X173289733Y-137096513D01*
X173289727Y-137096521D01*
X173184616Y-137253831D01*
X173184614Y-137253834D01*
X173112213Y-137428628D01*
X173112210Y-137428638D01*
X173075300Y-137614196D01*
X173075300Y-137614199D01*
X173075300Y-137803401D01*
X173075300Y-137803403D01*
X173075299Y-137803403D01*
X171884562Y-137803403D01*
X171895800Y-137761461D01*
X171895800Y-137656139D01*
X171868541Y-137554406D01*
X171815880Y-137463194D01*
X171811486Y-137458800D01*
X172772409Y-137458800D01*
X172763790Y-137404386D01*
X172700555Y-137209770D01*
X172607659Y-137027450D01*
X172487382Y-136861905D01*
X172487382Y-136861904D01*
X172342695Y-136717217D01*
X172177149Y-136596940D01*
X171994829Y-136504044D01*
X171800213Y-136440809D01*
X171745800Y-136432190D01*
X171745800Y-137393114D01*
X171741406Y-137388720D01*
X171650194Y-137336059D01*
X171548461Y-137308800D01*
X171443139Y-137308800D01*
X171341406Y-137336059D01*
X171250194Y-137388720D01*
X171245800Y-137393114D01*
X171245800Y-136432190D01*
X171191386Y-136440809D01*
X170996770Y-136504044D01*
X170814450Y-136596940D01*
X170648905Y-136717217D01*
X170648904Y-136717217D01*
X170504217Y-136861904D01*
X170504217Y-136861905D01*
X170383940Y-137027450D01*
X170291044Y-137209770D01*
X170227809Y-137404386D01*
X170219191Y-137458800D01*
X169885389Y-137458800D01*
X169879389Y-137428638D01*
X169879388Y-137428637D01*
X169879388Y-137428633D01*
X169869345Y-137404386D01*
X169806985Y-137253834D01*
X169806983Y-137253831D01*
X169701872Y-137096521D01*
X169701866Y-137096513D01*
X169568086Y-136962733D01*
X169568078Y-136962727D01*
X169410768Y-136857616D01*
X169410765Y-136857614D01*
X169235971Y-136785213D01*
X169235961Y-136785210D01*
X169050403Y-136748300D01*
X169050401Y-136748300D01*
X168861199Y-136748300D01*
X168861197Y-136748300D01*
X168675638Y-136785210D01*
X168675628Y-136785213D01*
X168500834Y-136857614D01*
X168500831Y-136857616D01*
X168343521Y-136962727D01*
X168343513Y-136962733D01*
X168209733Y-137096513D01*
X168209727Y-137096521D01*
X168104616Y-137253831D01*
X168104614Y-137253834D01*
X168032213Y-137428628D01*
X168032210Y-137428638D01*
X167995300Y-137614196D01*
X167995300Y-137614199D01*
X167995300Y-137803401D01*
X167995300Y-137803403D01*
X167995299Y-137803403D01*
X166804562Y-137803403D01*
X166815800Y-137761461D01*
X166815800Y-137656139D01*
X166788541Y-137554406D01*
X166735880Y-137463194D01*
X166731486Y-137458800D01*
X167692409Y-137458800D01*
X167683790Y-137404386D01*
X167620555Y-137209770D01*
X167527659Y-137027450D01*
X167407382Y-136861905D01*
X167407382Y-136861904D01*
X167262695Y-136717217D01*
X167097149Y-136596940D01*
X166914829Y-136504044D01*
X166720213Y-136440809D01*
X166665800Y-136432190D01*
X166665800Y-137393114D01*
X166661406Y-137388720D01*
X166570194Y-137336059D01*
X166468461Y-137308800D01*
X166363139Y-137308800D01*
X166261406Y-137336059D01*
X166170194Y-137388720D01*
X166165800Y-137393114D01*
X166165800Y-136432190D01*
X166111386Y-136440809D01*
X165916770Y-136504044D01*
X165734450Y-136596940D01*
X165568905Y-136717217D01*
X165568904Y-136717217D01*
X165424217Y-136861904D01*
X165424217Y-136861905D01*
X165303940Y-137027450D01*
X165211044Y-137209770D01*
X165147809Y-137404386D01*
X165139191Y-137458800D01*
X164805389Y-137458800D01*
X164799389Y-137428638D01*
X164799388Y-137428637D01*
X164799388Y-137428633D01*
X164789345Y-137404386D01*
X164726985Y-137253834D01*
X164726983Y-137253831D01*
X164621872Y-137096521D01*
X164621866Y-137096513D01*
X164488086Y-136962733D01*
X164488078Y-136962727D01*
X164330768Y-136857616D01*
X164330765Y-136857614D01*
X164155971Y-136785213D01*
X164155961Y-136785210D01*
X163970403Y-136748300D01*
X163970401Y-136748300D01*
X163781199Y-136748300D01*
X163781197Y-136748300D01*
X163595638Y-136785210D01*
X163595628Y-136785213D01*
X163420834Y-136857614D01*
X163420831Y-136857616D01*
X163263521Y-136962727D01*
X163263513Y-136962733D01*
X163129733Y-137096513D01*
X163129727Y-137096521D01*
X163024616Y-137253831D01*
X163024614Y-137253834D01*
X162952213Y-137428628D01*
X162952210Y-137428638D01*
X162915300Y-137614196D01*
X162915300Y-137614199D01*
X162915300Y-137803401D01*
X162915300Y-137803403D01*
X162915299Y-137803403D01*
X161724562Y-137803403D01*
X161735800Y-137761461D01*
X161735800Y-137656139D01*
X161708541Y-137554406D01*
X161655880Y-137463194D01*
X161651486Y-137458800D01*
X162635800Y-137458800D01*
X162635800Y-136860972D01*
X162635799Y-136860955D01*
X162629398Y-136801427D01*
X162629396Y-136801420D01*
X162579154Y-136666713D01*
X162579150Y-136666706D01*
X162492990Y-136551612D01*
X162492987Y-136551609D01*
X162377893Y-136465449D01*
X162377886Y-136465445D01*
X162243179Y-136415203D01*
X162243172Y-136415201D01*
X162183644Y-136408800D01*
X161585800Y-136408800D01*
X161585800Y-137393114D01*
X161581406Y-137388720D01*
X161490194Y-137336059D01*
X161388461Y-137308800D01*
X161283139Y-137308800D01*
X161181406Y-137336059D01*
X161090194Y-137388720D01*
X161085800Y-137393114D01*
X161085800Y-136408800D01*
X160487955Y-136408800D01*
X160428427Y-136415201D01*
X160428420Y-136415203D01*
X160293713Y-136465445D01*
X160293706Y-136465449D01*
X160178612Y-136551609D01*
X160178609Y-136551612D01*
X160092449Y-136666706D01*
X160092445Y-136666713D01*
X160042203Y-136801420D01*
X160042201Y-136801427D01*
X160035800Y-136860955D01*
X158510820Y-136860955D01*
X158514416Y-136838253D01*
X158514416Y-136838252D01*
X158526000Y-136765116D01*
X158526000Y-136560482D01*
X158493990Y-136358382D01*
X158430755Y-136163768D01*
X158337859Y-135981450D01*
X158305474Y-135936877D01*
X158305474Y-135936876D01*
X157626000Y-136616351D01*
X157626000Y-136610139D01*
X157598741Y-136508406D01*
X157546080Y-136417194D01*
X157471606Y-136342720D01*
X157380394Y-136290059D01*
X157278661Y-136262800D01*
X157272446Y-136262800D01*
X157951922Y-135583324D01*
X157951921Y-135583323D01*
X157907359Y-135550947D01*
X157907350Y-135550941D01*
X157725031Y-135458044D01*
X157530417Y-135394809D01*
X157328317Y-135362800D01*
X157123683Y-135362800D01*
X156921582Y-135394809D01*
X156726968Y-135458044D01*
X156544644Y-135550943D01*
X156500077Y-135583323D01*
X156500077Y-135583324D01*
X157179554Y-136262800D01*
X157173339Y-136262800D01*
X157071606Y-136290059D01*
X156980394Y-136342720D01*
X156905920Y-136417194D01*
X156853259Y-136508406D01*
X156826000Y-136610139D01*
X156826000Y-136616353D01*
X156146524Y-135936877D01*
X156146523Y-135936877D01*
X156114143Y-135981444D01*
X156021244Y-136163768D01*
X155958009Y-136358382D01*
X155926000Y-136560482D01*
X155448000Y-136560482D01*
X155448000Y-133220364D01*
X155467685Y-133153325D01*
X155520489Y-133107570D01*
X155572361Y-133096365D01*
X172655534Y-133146610D01*
X172719999Y-133146800D01*
X172720000Y-133146800D01*
X172720000Y-131340400D01*
X172739685Y-131273361D01*
X172792489Y-131227606D01*
X172844000Y-131216400D01*
X180630235Y-131216400D01*
X180697274Y-131236085D01*
X180743029Y-131288889D01*
X180752973Y-131358047D01*
X180748166Y-131378718D01*
X180697869Y-131533514D01*
X180666476Y-131731723D01*
X180666476Y-131932424D01*
X180697869Y-132130633D01*
X180759888Y-132321506D01*
X180850998Y-132500320D01*
X180879898Y-132540096D01*
X180879898Y-132540097D01*
X181458513Y-131961482D01*
X181475551Y-132025067D01*
X181541377Y-132139081D01*
X181634469Y-132232173D01*
X181748483Y-132297999D01*
X181812066Y-132315036D01*
X181233451Y-132893650D01*
X181273230Y-132922552D01*
X181452043Y-133013661D01*
X181642916Y-133075680D01*
X181841126Y-133107074D01*
X182041826Y-133107074D01*
X182240035Y-133075680D01*
X182430908Y-133013661D01*
X182609722Y-132922551D01*
X182649498Y-132893650D01*
X182070884Y-132315036D01*
X182134469Y-132297999D01*
X182248483Y-132232173D01*
X182341575Y-132139081D01*
X182407401Y-132025067D01*
X182424438Y-131961482D01*
X183003052Y-132540096D01*
X183031953Y-132500321D01*
X183100991Y-132364826D01*
X183148965Y-132314030D01*
X183216786Y-132297235D01*
X183282921Y-132319772D01*
X183321961Y-132364826D01*
X183390998Y-132500320D01*
X183419898Y-132540096D01*
X183419898Y-132540097D01*
X183998513Y-131961482D01*
X184015551Y-132025067D01*
X184081377Y-132139081D01*
X184174469Y-132232173D01*
X184288483Y-132297999D01*
X184352066Y-132315036D01*
X183773451Y-132893650D01*
X183813230Y-132922552D01*
X183992043Y-133013661D01*
X184182916Y-133075680D01*
X184381126Y-133107074D01*
X184581826Y-133107074D01*
X184780035Y-133075680D01*
X184970908Y-133013661D01*
X185149722Y-132922551D01*
X185189498Y-132893650D01*
X184610884Y-132315036D01*
X184674469Y-132297999D01*
X184788483Y-132232173D01*
X184881575Y-132139081D01*
X184947401Y-132025067D01*
X184964438Y-131961482D01*
X185543052Y-132540096D01*
X185571953Y-132500320D01*
X185663063Y-132321506D01*
X185725082Y-132130633D01*
X185756476Y-131932424D01*
X185756476Y-131731723D01*
X185725082Y-131533514D01*
X185663063Y-131342641D01*
X185571953Y-131163827D01*
X185494837Y-131057686D01*
X185471357Y-130991879D01*
X185487182Y-130923825D01*
X185537288Y-130875130D01*
X185595155Y-130860800D01*
X189360000Y-130860800D01*
X189427039Y-130880485D01*
G37*
%TD.AperFunction*%
%TD*%
%TA.AperFunction,Conductor*%
%TO.N,GND*%
G36*
X92442699Y-48643311D02*
G01*
X92257733Y-48777697D01*
X92096073Y-48939357D01*
X91961687Y-49124323D01*
X91857893Y-49328029D01*
X91787241Y-49545471D01*
X91772967Y-49635600D01*
X92760728Y-49635600D01*
X92738958Y-49673308D01*
X92701476Y-49813191D01*
X92701476Y-49958009D01*
X92738958Y-50097892D01*
X92760728Y-50135600D01*
X91772967Y-50135600D01*
X91787241Y-50225728D01*
X91857893Y-50443170D01*
X91961687Y-50646876D01*
X92096073Y-50831842D01*
X92106550Y-50842319D01*
X92140035Y-50903642D01*
X92135051Y-50973334D01*
X92093179Y-51029267D01*
X92027715Y-51053684D01*
X92018869Y-51054000D01*
X90830400Y-51054000D01*
X90830400Y-48615600D01*
X92497086Y-48615600D01*
X92442699Y-48643311D01*
G37*
%TD.AperFunction*%
%TA.AperFunction,Conductor*%
G36*
X97434400Y-48768000D02*
G01*
X97434400Y-50930000D01*
X97414715Y-50997039D01*
X97361911Y-51042794D01*
X97310400Y-51054000D01*
X94484083Y-51054000D01*
X94417044Y-51034315D01*
X94371289Y-50981511D01*
X94361345Y-50912353D01*
X94390370Y-50848797D01*
X94396402Y-50842319D01*
X94406878Y-50831842D01*
X94541264Y-50646876D01*
X94645058Y-50443170D01*
X94715710Y-50225728D01*
X94729985Y-50135600D01*
X93742224Y-50135600D01*
X93763994Y-50097892D01*
X93801476Y-49958009D01*
X93801476Y-49813191D01*
X93763994Y-49673308D01*
X93742224Y-49635600D01*
X94729985Y-49635600D01*
X94715710Y-49545471D01*
X94645058Y-49328029D01*
X94541264Y-49124323D01*
X94406878Y-48939357D01*
X94245218Y-48777697D01*
X94060252Y-48643311D01*
X94005866Y-48615600D01*
X97434400Y-48615600D01*
X97434400Y-48768000D01*
G37*
%TD.AperFunction*%
%TD*%
%TA.AperFunction,Conductor*%
%TO.N,+5V*%
G36*
X136600060Y-123148743D02*
G01*
X136667054Y-123168578D01*
X136712690Y-123221484D01*
X136722479Y-123290665D01*
X136700099Y-123345628D01*
X136606942Y-123473847D01*
X136514044Y-123656168D01*
X136450809Y-123850782D01*
X136418800Y-124052882D01*
X136418800Y-124257517D01*
X136450809Y-124459617D01*
X136514044Y-124654231D01*
X136606941Y-124836550D01*
X136606947Y-124836559D01*
X136639323Y-124881121D01*
X136639324Y-124881122D01*
X137318800Y-124201646D01*
X137318800Y-124207861D01*
X137346059Y-124309594D01*
X137398720Y-124400806D01*
X137473194Y-124475280D01*
X137564406Y-124527941D01*
X137666139Y-124555200D01*
X137672353Y-124555200D01*
X136992876Y-125234674D01*
X137037450Y-125267059D01*
X137219768Y-125359955D01*
X137414382Y-125423190D01*
X137616483Y-125455200D01*
X137821117Y-125455200D01*
X138023217Y-125423190D01*
X138217831Y-125359955D01*
X138400149Y-125267059D01*
X138444721Y-125234674D01*
X137765247Y-124555200D01*
X137771461Y-124555200D01*
X137873194Y-124527941D01*
X137964406Y-124475280D01*
X138038880Y-124400806D01*
X138091541Y-124309594D01*
X138118800Y-124207861D01*
X138118800Y-124201647D01*
X138798274Y-124881121D01*
X138830659Y-124836549D01*
X138923555Y-124654231D01*
X138986790Y-124459617D01*
X139018800Y-124257517D01*
X139018800Y-124052882D01*
X138986790Y-123850782D01*
X138923555Y-123656168D01*
X138830657Y-123473847D01*
X138741144Y-123350642D01*
X138717664Y-123284836D01*
X138733489Y-123216782D01*
X138783595Y-123168087D01*
X138841732Y-123153758D01*
X154917877Y-123189723D01*
X154984873Y-123209558D01*
X155030509Y-123262464D01*
X155041600Y-123313723D01*
X155041600Y-126012400D01*
X155021915Y-126079439D01*
X154969111Y-126125194D01*
X154917600Y-126136400D01*
X154053047Y-126136400D01*
X153411647Y-125495000D01*
X153417861Y-125495000D01*
X153519594Y-125467741D01*
X153610806Y-125415080D01*
X153685280Y-125340606D01*
X153737941Y-125249394D01*
X153765200Y-125147661D01*
X153765200Y-125141447D01*
X154444674Y-125820921D01*
X154477059Y-125776349D01*
X154569955Y-125594031D01*
X154633190Y-125399417D01*
X154665200Y-125197317D01*
X154665200Y-124992682D01*
X154633190Y-124790582D01*
X154569955Y-124595968D01*
X154477059Y-124413650D01*
X154444674Y-124369077D01*
X154444674Y-124369076D01*
X153765200Y-125048551D01*
X153765200Y-125042339D01*
X153737941Y-124940606D01*
X153685280Y-124849394D01*
X153610806Y-124774920D01*
X153519594Y-124722259D01*
X153417861Y-124695000D01*
X153411646Y-124695000D01*
X154091122Y-124015524D01*
X154091121Y-124015523D01*
X154046559Y-123983147D01*
X154046550Y-123983141D01*
X153864231Y-123890244D01*
X153669617Y-123827009D01*
X153467517Y-123795000D01*
X153262883Y-123795000D01*
X153060782Y-123827009D01*
X152866168Y-123890244D01*
X152683844Y-123983143D01*
X152639277Y-124015523D01*
X152639277Y-124015524D01*
X153318754Y-124695000D01*
X153312539Y-124695000D01*
X153210806Y-124722259D01*
X153119594Y-124774920D01*
X153045120Y-124849394D01*
X152992459Y-124940606D01*
X152965200Y-125042339D01*
X152965200Y-125048553D01*
X152285724Y-124369077D01*
X152285723Y-124369077D01*
X152253343Y-124413644D01*
X152160444Y-124595968D01*
X152097209Y-124790582D01*
X152065200Y-124992682D01*
X152065200Y-125197317D01*
X152097209Y-125399417D01*
X152160444Y-125594031D01*
X152253341Y-125776350D01*
X152253347Y-125776359D01*
X152285723Y-125820921D01*
X152285724Y-125820922D01*
X152965200Y-125141446D01*
X152965200Y-125147661D01*
X152992459Y-125249394D01*
X153045120Y-125340606D01*
X153119594Y-125415080D01*
X153210806Y-125467741D01*
X153312539Y-125495000D01*
X153318753Y-125495000D01*
X152677352Y-126136400D01*
X151055847Y-126136400D01*
X150414447Y-125495000D01*
X150420661Y-125495000D01*
X150522394Y-125467741D01*
X150613606Y-125415080D01*
X150688080Y-125340606D01*
X150740741Y-125249394D01*
X150768000Y-125147661D01*
X150768000Y-125141448D01*
X151447474Y-125820922D01*
X151447474Y-125820921D01*
X151479859Y-125776349D01*
X151572755Y-125594031D01*
X151635990Y-125399417D01*
X151668000Y-125197317D01*
X151668000Y-124992682D01*
X151635990Y-124790582D01*
X151572755Y-124595968D01*
X151479859Y-124413650D01*
X151447474Y-124369077D01*
X151447474Y-124369076D01*
X150768000Y-125048551D01*
X150768000Y-125042339D01*
X150740741Y-124940606D01*
X150688080Y-124849394D01*
X150613606Y-124774920D01*
X150522394Y-124722259D01*
X150420661Y-124695000D01*
X150414446Y-124695000D01*
X151093922Y-124015524D01*
X151093921Y-124015523D01*
X151049359Y-123983147D01*
X151049350Y-123983141D01*
X150867031Y-123890244D01*
X150672417Y-123827009D01*
X150470317Y-123795000D01*
X150265683Y-123795000D01*
X150063582Y-123827009D01*
X149868968Y-123890244D01*
X149686644Y-123983143D01*
X149642077Y-124015523D01*
X149642077Y-124015524D01*
X150321554Y-124695000D01*
X150315339Y-124695000D01*
X150213606Y-124722259D01*
X150122394Y-124774920D01*
X150047920Y-124849394D01*
X149995259Y-124940606D01*
X149968000Y-125042339D01*
X149968000Y-125048553D01*
X149288524Y-124369077D01*
X149288523Y-124369077D01*
X149256143Y-124413644D01*
X149163244Y-124595968D01*
X149100009Y-124790582D01*
X149068000Y-124992682D01*
X149068000Y-125197317D01*
X149100009Y-125399417D01*
X149163244Y-125594031D01*
X149256141Y-125776350D01*
X149256147Y-125776359D01*
X149288523Y-125820921D01*
X149288524Y-125820922D01*
X149968000Y-125141446D01*
X149968000Y-125147661D01*
X149995259Y-125249394D01*
X150047920Y-125340606D01*
X150122394Y-125415080D01*
X150213606Y-125467741D01*
X150315339Y-125495000D01*
X150321553Y-125495000D01*
X149680152Y-126136400D01*
X148109447Y-126136400D01*
X147468047Y-125495000D01*
X147474261Y-125495000D01*
X147575994Y-125467741D01*
X147667206Y-125415080D01*
X147741680Y-125340606D01*
X147794341Y-125249394D01*
X147821600Y-125147661D01*
X147821600Y-125141447D01*
X148501074Y-125820921D01*
X148533459Y-125776349D01*
X148626355Y-125594031D01*
X148689590Y-125399417D01*
X148721600Y-125197317D01*
X148721600Y-124992682D01*
X148689590Y-124790582D01*
X148626355Y-124595968D01*
X148533459Y-124413650D01*
X148501074Y-124369077D01*
X148501074Y-124369076D01*
X147821600Y-125048551D01*
X147821600Y-125042339D01*
X147794341Y-124940606D01*
X147741680Y-124849394D01*
X147667206Y-124774920D01*
X147575994Y-124722259D01*
X147474261Y-124695000D01*
X147468046Y-124695000D01*
X148147522Y-124015524D01*
X148147521Y-124015523D01*
X148102959Y-123983147D01*
X148102950Y-123983141D01*
X147920631Y-123890244D01*
X147726017Y-123827009D01*
X147523917Y-123795000D01*
X147319283Y-123795000D01*
X147117182Y-123827009D01*
X146922568Y-123890244D01*
X146740244Y-123983143D01*
X146695677Y-124015523D01*
X146695677Y-124015524D01*
X147375154Y-124695000D01*
X147368939Y-124695000D01*
X147267206Y-124722259D01*
X147175994Y-124774920D01*
X147101520Y-124849394D01*
X147048859Y-124940606D01*
X147021600Y-125042339D01*
X147021600Y-125048553D01*
X146342124Y-124369077D01*
X146342123Y-124369077D01*
X146309743Y-124413644D01*
X146216844Y-124595968D01*
X146153609Y-124790582D01*
X146121600Y-124992682D01*
X146121600Y-125197317D01*
X146153609Y-125399417D01*
X146216844Y-125594031D01*
X146309741Y-125776350D01*
X146309747Y-125776359D01*
X146342123Y-125820921D01*
X146342124Y-125820922D01*
X147021600Y-125141446D01*
X147021600Y-125147661D01*
X147048859Y-125249394D01*
X147101520Y-125340606D01*
X147175994Y-125415080D01*
X147267206Y-125467741D01*
X147368939Y-125495000D01*
X147375153Y-125495000D01*
X146733752Y-126136400D01*
X133248400Y-126136400D01*
X124841696Y-135635212D01*
X124840986Y-135636000D01*
X120650000Y-135636000D01*
X132297131Y-123178632D01*
X132357293Y-123143108D01*
X132387977Y-123139320D01*
X136600060Y-123148743D01*
G37*
%TD.AperFunction*%
%TD*%
%TA.AperFunction,Conductor*%
%TO.N,GND*%
G36*
X76860400Y-58426086D02*
G01*
X76691120Y-58328354D01*
X76691102Y-58328345D01*
X76485218Y-58243063D01*
X76269963Y-58185387D01*
X76187600Y-58174542D01*
X76187600Y-59307817D01*
X76169191Y-59297189D01*
X76016591Y-59256300D01*
X75858609Y-59256300D01*
X75706009Y-59297189D01*
X75687600Y-59307817D01*
X75687600Y-58174542D01*
X75687599Y-58174542D01*
X75605236Y-58185387D01*
X75389981Y-58243063D01*
X75184097Y-58328345D01*
X75184079Y-58328354D01*
X74991108Y-58439764D01*
X74991104Y-58439766D01*
X74814306Y-58575430D01*
X74656730Y-58733006D01*
X74521066Y-58909804D01*
X74521064Y-58909808D01*
X74409654Y-59102779D01*
X74409645Y-59102797D01*
X74324364Y-59308679D01*
X74266687Y-59523932D01*
X74255844Y-59606299D01*
X74255845Y-59606300D01*
X75389118Y-59606300D01*
X75378489Y-59624709D01*
X75337600Y-59777309D01*
X75337600Y-59935291D01*
X75378489Y-60087891D01*
X75389118Y-60106300D01*
X74255844Y-60106300D01*
X74266687Y-60188667D01*
X74324364Y-60403920D01*
X74409645Y-60609802D01*
X74409654Y-60609820D01*
X74521064Y-60802791D01*
X74521066Y-60802795D01*
X74656730Y-60979593D01*
X74656738Y-60979602D01*
X74814298Y-61137162D01*
X74814306Y-61137169D01*
X74991104Y-61272833D01*
X74991108Y-61272835D01*
X75184079Y-61384245D01*
X75184097Y-61384254D01*
X75389979Y-61469535D01*
X75605232Y-61527212D01*
X75687599Y-61538055D01*
X75687600Y-61538055D01*
X75687600Y-60404782D01*
X75706009Y-60415411D01*
X75858609Y-60456300D01*
X76016591Y-60456300D01*
X76169191Y-60415411D01*
X76187600Y-60404782D01*
X76187600Y-61538055D01*
X76269967Y-61527212D01*
X76485220Y-61469535D01*
X76691102Y-61384254D01*
X76691120Y-61384245D01*
X76860400Y-61286512D01*
X76860400Y-64363600D01*
X77470000Y-64359117D01*
X77470000Y-66057118D01*
X77450315Y-66124157D01*
X77397511Y-66169912D01*
X77328353Y-66179856D01*
X77264797Y-66150831D01*
X77247625Y-66132605D01*
X77167669Y-66028406D01*
X77167662Y-66028398D01*
X77010102Y-65870838D01*
X77010093Y-65870830D01*
X76833295Y-65735166D01*
X76833291Y-65735164D01*
X76640320Y-65623754D01*
X76640302Y-65623745D01*
X76434418Y-65538463D01*
X76219163Y-65480787D01*
X76136800Y-65469942D01*
X76136800Y-66603217D01*
X76118391Y-66592589D01*
X75965791Y-66551700D01*
X75807809Y-66551700D01*
X75655209Y-66592589D01*
X75636800Y-66603217D01*
X75636800Y-65469942D01*
X75636799Y-65469942D01*
X75554436Y-65480787D01*
X75339181Y-65538463D01*
X75133297Y-65623745D01*
X75133279Y-65623754D01*
X74940308Y-65735164D01*
X74940304Y-65735166D01*
X74763506Y-65870830D01*
X74605930Y-66028406D01*
X74470266Y-66205204D01*
X74470264Y-66205208D01*
X74358854Y-66398179D01*
X74358845Y-66398197D01*
X74273564Y-66604079D01*
X74215887Y-66819332D01*
X74205044Y-66901699D01*
X74205045Y-66901700D01*
X75338318Y-66901700D01*
X75327689Y-66920109D01*
X75286800Y-67072709D01*
X75286800Y-67230691D01*
X75327689Y-67383291D01*
X75338318Y-67401700D01*
X74205044Y-67401700D01*
X74215887Y-67484067D01*
X74273564Y-67699320D01*
X74358845Y-67905202D01*
X74358854Y-67905220D01*
X74470264Y-68098191D01*
X74470266Y-68098195D01*
X74605930Y-68274993D01*
X74605938Y-68275002D01*
X74763498Y-68432562D01*
X74763506Y-68432569D01*
X74940304Y-68568233D01*
X74940308Y-68568235D01*
X75133279Y-68679645D01*
X75133297Y-68679654D01*
X75339179Y-68764935D01*
X75554432Y-68822612D01*
X75636799Y-68833455D01*
X75636800Y-68833455D01*
X75636800Y-67700182D01*
X75655209Y-67710811D01*
X75807809Y-67751700D01*
X75965791Y-67751700D01*
X76118391Y-67710811D01*
X76136800Y-67700182D01*
X76136800Y-68833455D01*
X76219167Y-68822612D01*
X76434420Y-68764935D01*
X76640302Y-68679654D01*
X76640320Y-68679645D01*
X76833291Y-68568235D01*
X76833295Y-68568233D01*
X77010093Y-68432569D01*
X77010102Y-68432562D01*
X77167661Y-68275002D01*
X77247624Y-68170794D01*
X77304052Y-68129592D01*
X77373798Y-68125437D01*
X77434719Y-68159650D01*
X77467471Y-68221367D01*
X77470000Y-68246281D01*
X77470000Y-73392118D01*
X77450315Y-73459157D01*
X77397511Y-73504912D01*
X77328353Y-73514856D01*
X77264797Y-73485831D01*
X77247625Y-73467605D01*
X77167669Y-73363406D01*
X77167662Y-73363398D01*
X77010102Y-73205838D01*
X77010093Y-73205830D01*
X76833295Y-73070166D01*
X76833291Y-73070164D01*
X76640320Y-72958754D01*
X76640302Y-72958745D01*
X76434418Y-72873463D01*
X76219163Y-72815787D01*
X76136800Y-72804942D01*
X76136800Y-73938217D01*
X76118391Y-73927589D01*
X75965791Y-73886700D01*
X75807809Y-73886700D01*
X75655209Y-73927589D01*
X75636800Y-73938217D01*
X75636800Y-72804942D01*
X75636799Y-72804942D01*
X75554436Y-72815787D01*
X75339181Y-72873463D01*
X75133297Y-72958745D01*
X75133279Y-72958754D01*
X74940308Y-73070164D01*
X74940304Y-73070166D01*
X74763506Y-73205830D01*
X74605930Y-73363406D01*
X74470266Y-73540204D01*
X74470264Y-73540208D01*
X74358854Y-73733179D01*
X74358845Y-73733197D01*
X74273564Y-73939079D01*
X74215887Y-74154332D01*
X74205044Y-74236699D01*
X74205045Y-74236700D01*
X75338318Y-74236700D01*
X75327689Y-74255109D01*
X75286800Y-74407709D01*
X75286800Y-74565691D01*
X75327689Y-74718291D01*
X75338318Y-74736700D01*
X74205044Y-74736700D01*
X74215887Y-74819067D01*
X74273564Y-75034320D01*
X74358845Y-75240202D01*
X74358854Y-75240220D01*
X74470264Y-75433191D01*
X74470266Y-75433195D01*
X74605930Y-75609993D01*
X74605938Y-75610002D01*
X74763498Y-75767562D01*
X74763506Y-75767569D01*
X74940304Y-75903233D01*
X74940308Y-75903235D01*
X75133279Y-76014645D01*
X75133297Y-76014654D01*
X75339179Y-76099935D01*
X75554432Y-76157612D01*
X75636799Y-76168455D01*
X75636800Y-76168455D01*
X75636800Y-75035182D01*
X75655209Y-75045811D01*
X75807809Y-75086700D01*
X75965791Y-75086700D01*
X76118391Y-75045811D01*
X76136800Y-75035182D01*
X76136800Y-76168455D01*
X76219167Y-76157612D01*
X76434420Y-76099935D01*
X76640302Y-76014654D01*
X76640320Y-76014645D01*
X76833291Y-75903235D01*
X76833295Y-75903233D01*
X77010093Y-75767569D01*
X77010102Y-75767562D01*
X77167661Y-75610002D01*
X77247624Y-75505794D01*
X77304052Y-75464592D01*
X77373798Y-75460437D01*
X77434719Y-75494650D01*
X77467471Y-75556367D01*
X77470000Y-75581281D01*
X77470000Y-80727118D01*
X77450315Y-80794157D01*
X77397511Y-80839912D01*
X77328353Y-80849856D01*
X77264797Y-80820831D01*
X77247625Y-80802605D01*
X77167669Y-80698406D01*
X77167662Y-80698398D01*
X77010102Y-80540838D01*
X77010093Y-80540830D01*
X76833295Y-80405166D01*
X76833291Y-80405164D01*
X76640320Y-80293754D01*
X76640302Y-80293745D01*
X76434418Y-80208463D01*
X76219163Y-80150787D01*
X76136800Y-80139942D01*
X76136800Y-81273217D01*
X76118391Y-81262589D01*
X75965791Y-81221700D01*
X75807809Y-81221700D01*
X75655209Y-81262589D01*
X75636800Y-81273217D01*
X75636800Y-80139942D01*
X75636799Y-80139942D01*
X75554436Y-80150787D01*
X75339181Y-80208463D01*
X75133297Y-80293745D01*
X75133279Y-80293754D01*
X74940308Y-80405164D01*
X74940304Y-80405166D01*
X74763506Y-80540830D01*
X74605930Y-80698406D01*
X74470266Y-80875204D01*
X74470264Y-80875208D01*
X74358854Y-81068179D01*
X74358845Y-81068197D01*
X74273564Y-81274079D01*
X74215887Y-81489332D01*
X74205044Y-81571699D01*
X74205045Y-81571700D01*
X75338318Y-81571700D01*
X75327689Y-81590109D01*
X75286800Y-81742709D01*
X75286800Y-81900691D01*
X75327689Y-82053291D01*
X75338318Y-82071700D01*
X74205044Y-82071700D01*
X74215887Y-82154067D01*
X74273564Y-82369320D01*
X74358845Y-82575202D01*
X74358854Y-82575220D01*
X74470264Y-82768191D01*
X74470266Y-82768195D01*
X74605930Y-82944993D01*
X74605938Y-82945002D01*
X74763498Y-83102562D01*
X74763506Y-83102569D01*
X74940304Y-83238233D01*
X74940308Y-83238235D01*
X75133279Y-83349645D01*
X75133297Y-83349654D01*
X75339179Y-83434935D01*
X75554432Y-83492612D01*
X75636799Y-83503455D01*
X75636800Y-83503455D01*
X75636800Y-82370182D01*
X75655209Y-82380811D01*
X75807809Y-82421700D01*
X75965791Y-82421700D01*
X76118391Y-82380811D01*
X76136800Y-82370182D01*
X76136800Y-83503455D01*
X76219167Y-83492612D01*
X76434420Y-83434935D01*
X76640302Y-83349654D01*
X76640320Y-83349645D01*
X76833291Y-83238235D01*
X76833295Y-83238233D01*
X77010093Y-83102569D01*
X77010102Y-83102562D01*
X77167661Y-82945002D01*
X77247624Y-82840794D01*
X77304052Y-82799592D01*
X77373798Y-82795437D01*
X77434719Y-82829650D01*
X77467471Y-82891367D01*
X77470000Y-82916281D01*
X77470000Y-88047574D01*
X77450315Y-88114613D01*
X77397511Y-88160368D01*
X77328353Y-88170312D01*
X77264797Y-88141287D01*
X77258319Y-88135255D01*
X77111702Y-87988638D01*
X77111693Y-87988630D01*
X76934895Y-87852966D01*
X76934891Y-87852964D01*
X76741920Y-87741554D01*
X76741902Y-87741545D01*
X76536018Y-87656263D01*
X76320763Y-87598587D01*
X76238400Y-87587742D01*
X76238400Y-88721017D01*
X76219991Y-88710389D01*
X76067391Y-88669500D01*
X75909409Y-88669500D01*
X75756809Y-88710389D01*
X75738400Y-88721017D01*
X75738400Y-87587742D01*
X75738399Y-87587742D01*
X75656036Y-87598587D01*
X75440781Y-87656263D01*
X75234897Y-87741545D01*
X75234879Y-87741554D01*
X75041908Y-87852964D01*
X75041904Y-87852966D01*
X74865106Y-87988630D01*
X74707530Y-88146206D01*
X74571866Y-88323004D01*
X74571864Y-88323008D01*
X74460454Y-88515979D01*
X74460445Y-88515997D01*
X74375164Y-88721879D01*
X74317487Y-88937132D01*
X74306644Y-89019499D01*
X74306645Y-89019500D01*
X75439918Y-89019500D01*
X75429289Y-89037909D01*
X75388400Y-89190509D01*
X75388400Y-89348491D01*
X75429289Y-89501091D01*
X75439918Y-89519500D01*
X74306644Y-89519500D01*
X74317487Y-89601867D01*
X74375164Y-89817120D01*
X74460445Y-90023002D01*
X74460454Y-90023020D01*
X74571864Y-90215991D01*
X74571866Y-90215995D01*
X74707530Y-90392793D01*
X74707538Y-90392802D01*
X74865098Y-90550362D01*
X74865106Y-90550369D01*
X75041904Y-90686033D01*
X75041908Y-90686035D01*
X75234879Y-90797445D01*
X75234897Y-90797454D01*
X75440779Y-90882735D01*
X75656032Y-90940412D01*
X75738399Y-90951255D01*
X75738400Y-90951255D01*
X75738400Y-89817982D01*
X75756809Y-89828611D01*
X75909409Y-89869500D01*
X76067391Y-89869500D01*
X76219991Y-89828611D01*
X76238400Y-89817982D01*
X76238400Y-90951255D01*
X76320767Y-90940412D01*
X76536020Y-90882735D01*
X76741902Y-90797454D01*
X76741920Y-90797445D01*
X76934891Y-90686035D01*
X76934895Y-90686033D01*
X77111693Y-90550369D01*
X77111702Y-90550362D01*
X77258319Y-90403745D01*
X77319642Y-90370260D01*
X77389334Y-90375244D01*
X77445267Y-90417116D01*
X77469684Y-90482580D01*
X77470000Y-90491426D01*
X77470000Y-93345000D01*
X77470000Y-93726000D01*
X77470000Y-139650341D01*
X76835000Y-139649200D01*
X76835000Y-142240000D01*
X73276000Y-142240000D01*
X73208961Y-142220315D01*
X73163206Y-142167511D01*
X73152000Y-142116000D01*
X73152000Y-57023000D01*
X76860400Y-56957557D01*
X76860400Y-58426086D01*
G37*
%TD.AperFunction*%
%TD*%
%TA.AperFunction,Conductor*%
%TO.N,+5V*%
G36*
X95402400Y-91440116D02*
G01*
X95402400Y-96529546D01*
X95424402Y-96569840D01*
X95427233Y-96597110D01*
X95402400Y-99974447D01*
X95402400Y-100076035D01*
X95503995Y-111759425D01*
X95504000Y-111760503D01*
X95504000Y-134213600D01*
X102008064Y-134177466D01*
X102075208Y-134196777D01*
X102121255Y-134249326D01*
X102131583Y-134318428D01*
X102102912Y-134382144D01*
X102093471Y-134390856D01*
X102093277Y-134393324D01*
X102772754Y-135072800D01*
X102766539Y-135072800D01*
X102664806Y-135100059D01*
X102573594Y-135152720D01*
X102499120Y-135227194D01*
X102446459Y-135318406D01*
X102419200Y-135420139D01*
X102419200Y-135426353D01*
X101739724Y-134746877D01*
X101739723Y-134746877D01*
X101707343Y-134791444D01*
X101614444Y-134973768D01*
X101551209Y-135168382D01*
X101519200Y-135370482D01*
X101519200Y-135575117D01*
X101551209Y-135777217D01*
X101614444Y-135971831D01*
X101707341Y-136154150D01*
X101707347Y-136154159D01*
X101739723Y-136198721D01*
X101739724Y-136198722D01*
X102419200Y-135519246D01*
X102419200Y-135525461D01*
X102446459Y-135627194D01*
X102499120Y-135718406D01*
X102573594Y-135792880D01*
X102664806Y-135845541D01*
X102766539Y-135872800D01*
X102772753Y-135872800D01*
X102093276Y-136552274D01*
X102137850Y-136584659D01*
X102320168Y-136677555D01*
X102514782Y-136740790D01*
X102716883Y-136772800D01*
X102921517Y-136772800D01*
X103123617Y-136740790D01*
X103318231Y-136677555D01*
X103500549Y-136584659D01*
X103545121Y-136552274D01*
X102865647Y-135872800D01*
X102871861Y-135872800D01*
X102973594Y-135845541D01*
X103064806Y-135792880D01*
X103139280Y-135718406D01*
X103191941Y-135627194D01*
X103219200Y-135525461D01*
X103219200Y-135519248D01*
X103898674Y-136198722D01*
X103898674Y-136198721D01*
X103931059Y-136154149D01*
X104023955Y-135971831D01*
X104087190Y-135777217D01*
X104119200Y-135575117D01*
X104119200Y-135370482D01*
X104087190Y-135168382D01*
X104023955Y-134973768D01*
X103931059Y-134791450D01*
X103898674Y-134746877D01*
X103898674Y-134746876D01*
X103219200Y-135426351D01*
X103219200Y-135420139D01*
X103191941Y-135318406D01*
X103139280Y-135227194D01*
X103064806Y-135152720D01*
X102973594Y-135100059D01*
X102871861Y-135072800D01*
X102865646Y-135072800D01*
X103545122Y-134393324D01*
X103545121Y-134393323D01*
X103544464Y-134392845D01*
X103501798Y-134337515D01*
X103495819Y-134267902D01*
X103528424Y-134206107D01*
X103589263Y-134171750D01*
X103616654Y-134168529D01*
X104523313Y-134163492D01*
X104590459Y-134182804D01*
X104636506Y-134235353D01*
X104648000Y-134287490D01*
X104648000Y-135636000D01*
X124840985Y-135636000D01*
X124840246Y-135636821D01*
X122083859Y-138643790D01*
X122024048Y-138679907D01*
X121992452Y-138684000D01*
X90751200Y-138684000D01*
X90684161Y-138664315D01*
X90638406Y-138611511D01*
X90627200Y-138560000D01*
X90627200Y-91440000D01*
X95402400Y-91440000D01*
X95402400Y-91440116D01*
G37*
%TD.AperFunction*%
%TD*%
%TA.AperFunction,Conductor*%
%TO.N,+9V*%
G36*
X187191839Y-49854485D02*
G01*
X187237594Y-49907289D01*
X187248800Y-49958800D01*
X187248800Y-54130400D01*
X187229115Y-54197439D01*
X187176311Y-54243194D01*
X187124800Y-54254400D01*
X185716739Y-54254400D01*
X185649700Y-54234715D01*
X185603945Y-54181911D01*
X185594001Y-54112753D01*
X185611201Y-54065303D01*
X185690830Y-53936204D01*
X185690835Y-53936193D01*
X185745981Y-53769771D01*
X185756475Y-53667060D01*
X185756476Y-53667047D01*
X185756476Y-53342074D01*
X184914488Y-53342074D01*
X184947401Y-53285067D01*
X184981476Y-53157900D01*
X184981476Y-53026248D01*
X184947401Y-52899081D01*
X184914488Y-52842074D01*
X185756475Y-52842074D01*
X185756475Y-52517102D01*
X185756474Y-52517087D01*
X185745981Y-52414377D01*
X185745981Y-52414375D01*
X185690835Y-52247954D01*
X185690830Y-52247943D01*
X185598795Y-52098733D01*
X185598792Y-52098729D01*
X185474820Y-51974757D01*
X185474816Y-51974754D01*
X185325606Y-51882719D01*
X185325595Y-51882714D01*
X185159173Y-51827568D01*
X185056462Y-51817074D01*
X184731476Y-51817074D01*
X184731476Y-52659062D01*
X184674469Y-52626149D01*
X184547302Y-52592074D01*
X184415650Y-52592074D01*
X184288483Y-52626149D01*
X184231476Y-52659062D01*
X184231476Y-51817074D01*
X184150000Y-51817074D01*
X184150000Y-51155600D01*
X185470800Y-49834800D01*
X185547000Y-49834800D01*
X187124800Y-49834800D01*
X187191839Y-49854485D01*
G37*
%TD.AperFunction*%
%TD*%
%TA.AperFunction,Conductor*%
%TO.N,GND*%
G36*
X92456000Y-44704000D02*
G01*
X77470000Y-44704000D01*
X77470000Y-44801117D01*
X76860400Y-44805600D01*
X76860400Y-47899207D01*
X76722865Y-47881100D01*
X76722858Y-47881100D01*
X76460094Y-47881100D01*
X76460086Y-47881100D01*
X76228524Y-47911587D01*
X76199578Y-47915398D01*
X75945768Y-47983406D01*
X75945766Y-47983406D01*
X75945758Y-47983409D01*
X75703009Y-48083959D01*
X75702998Y-48083964D01*
X75475441Y-48215346D01*
X75266982Y-48375301D01*
X75266975Y-48375307D01*
X75081183Y-48561099D01*
X75081177Y-48561106D01*
X74921222Y-48769565D01*
X74789840Y-48997122D01*
X74789835Y-48997133D01*
X74689285Y-49239882D01*
X74689282Y-49239893D01*
X74621274Y-49493703D01*
X74586976Y-49754210D01*
X74586976Y-50016989D01*
X74613652Y-50219605D01*
X74621274Y-50277498D01*
X74689282Y-50531308D01*
X74689283Y-50531311D01*
X74689285Y-50531317D01*
X74789835Y-50774066D01*
X74789840Y-50774077D01*
X74868838Y-50910903D01*
X74921219Y-51001630D01*
X74921221Y-51001633D01*
X74921222Y-51001634D01*
X75081177Y-51210093D01*
X75081183Y-51210100D01*
X75266975Y-51395892D01*
X75266982Y-51395898D01*
X75389446Y-51489867D01*
X75475446Y-51555857D01*
X75621699Y-51640296D01*
X75702998Y-51687235D01*
X75703003Y-51687237D01*
X75703006Y-51687239D01*
X75945768Y-51787794D01*
X76199578Y-51855802D01*
X76460094Y-51890100D01*
X76460101Y-51890100D01*
X76722851Y-51890100D01*
X76722858Y-51890100D01*
X76860400Y-51871992D01*
X76860400Y-56957557D01*
X73152000Y-57023000D01*
X73152000Y-43811674D01*
X73171685Y-43744635D01*
X73224489Y-43698880D01*
X73275671Y-43687674D01*
X92456000Y-43637200D01*
X92456000Y-44704000D01*
G37*
%TD.AperFunction*%
%TD*%
M02*
