%TF.GenerationSoftware,KiCad,Pcbnew,9.0.0*%
%TF.CreationDate,2025-03-11T15:52:01-04:00*%
%TF.ProjectId,BidenCard,42696465-6e43-4617-9264-2e6b69636164,rev?*%
%TF.SameCoordinates,Original*%
%TF.FileFunction,Drillmap*%
%TF.FilePolarity,Positive*%
%FSLAX45Y45*%
G04 Gerber Fmt 4.5, Leading zero omitted, Abs format (unit mm)*
G04 Created by KiCad (PCBNEW 9.0.0) date 2025-03-11 15:52:01*
%MOMM*%
%LPD*%
G01*
G04 APERTURE LIST*
%ADD10C,0.050000*%
%ADD11C,0.200000*%
%ADD12C,0.285000*%
%ADD13C,0.350000*%
G04 APERTURE END LIST*
D10*
X7262648Y-4243207D02*
X18977648Y-4243207D01*
X18977648Y-14243207D01*
X7262648Y-14243207D01*
X7262648Y-4243207D01*
D11*
D12*
X18559648Y-4658707D02*
X18844648Y-4943707D01*
X18844648Y-4658707D02*
X18559648Y-4943707D01*
X18559648Y-13548707D02*
X18844648Y-13833707D01*
X18844648Y-13548707D02*
X18559648Y-13833707D01*
D13*
X7834148Y-4988560D02*
G75*
G02*
X7484148Y-4988560I-175000J0D01*
G01*
X7484148Y-4988560D02*
G75*
G02*
X7834148Y-4988560I175000J0D01*
G01*
D11*
X7520924Y-14557191D02*
X7520924Y-14357191D01*
X7520924Y-14357191D02*
X7568543Y-14357191D01*
X7568543Y-14357191D02*
X7597115Y-14366715D01*
X7597115Y-14366715D02*
X7616162Y-14385763D01*
X7616162Y-14385763D02*
X7625686Y-14404810D01*
X7625686Y-14404810D02*
X7635210Y-14442905D01*
X7635210Y-14442905D02*
X7635210Y-14471477D01*
X7635210Y-14471477D02*
X7625686Y-14509572D01*
X7625686Y-14509572D02*
X7616162Y-14528620D01*
X7616162Y-14528620D02*
X7597115Y-14547667D01*
X7597115Y-14547667D02*
X7568543Y-14557191D01*
X7568543Y-14557191D02*
X7520924Y-14557191D01*
X7720924Y-14557191D02*
X7720924Y-14423858D01*
X7720924Y-14461953D02*
X7730448Y-14442905D01*
X7730448Y-14442905D02*
X7739972Y-14433382D01*
X7739972Y-14433382D02*
X7759020Y-14423858D01*
X7759020Y-14423858D02*
X7778067Y-14423858D01*
X7844734Y-14557191D02*
X7844734Y-14423858D01*
X7844734Y-14357191D02*
X7835210Y-14366715D01*
X7835210Y-14366715D02*
X7844734Y-14376239D01*
X7844734Y-14376239D02*
X7854258Y-14366715D01*
X7854258Y-14366715D02*
X7844734Y-14357191D01*
X7844734Y-14357191D02*
X7844734Y-14376239D01*
X7968543Y-14557191D02*
X7949496Y-14547667D01*
X7949496Y-14547667D02*
X7939972Y-14528620D01*
X7939972Y-14528620D02*
X7939972Y-14357191D01*
X8073305Y-14557191D02*
X8054258Y-14547667D01*
X8054258Y-14547667D02*
X8044734Y-14528620D01*
X8044734Y-14528620D02*
X8044734Y-14357191D01*
X8301877Y-14557191D02*
X8301877Y-14357191D01*
X8301877Y-14357191D02*
X8368543Y-14500048D01*
X8368543Y-14500048D02*
X8435210Y-14357191D01*
X8435210Y-14357191D02*
X8435210Y-14557191D01*
X8616163Y-14557191D02*
X8616163Y-14452429D01*
X8616163Y-14452429D02*
X8606639Y-14433382D01*
X8606639Y-14433382D02*
X8587591Y-14423858D01*
X8587591Y-14423858D02*
X8549496Y-14423858D01*
X8549496Y-14423858D02*
X8530448Y-14433382D01*
X8616163Y-14547667D02*
X8597115Y-14557191D01*
X8597115Y-14557191D02*
X8549496Y-14557191D01*
X8549496Y-14557191D02*
X8530448Y-14547667D01*
X8530448Y-14547667D02*
X8520924Y-14528620D01*
X8520924Y-14528620D02*
X8520924Y-14509572D01*
X8520924Y-14509572D02*
X8530448Y-14490524D01*
X8530448Y-14490524D02*
X8549496Y-14481001D01*
X8549496Y-14481001D02*
X8597115Y-14481001D01*
X8597115Y-14481001D02*
X8616163Y-14471477D01*
X8711401Y-14423858D02*
X8711401Y-14623858D01*
X8711401Y-14433382D02*
X8730448Y-14423858D01*
X8730448Y-14423858D02*
X8768544Y-14423858D01*
X8768544Y-14423858D02*
X8787591Y-14433382D01*
X8787591Y-14433382D02*
X8797115Y-14442905D01*
X8797115Y-14442905D02*
X8806639Y-14461953D01*
X8806639Y-14461953D02*
X8806639Y-14519096D01*
X8806639Y-14519096D02*
X8797115Y-14538143D01*
X8797115Y-14538143D02*
X8787591Y-14547667D01*
X8787591Y-14547667D02*
X8768544Y-14557191D01*
X8768544Y-14557191D02*
X8730448Y-14557191D01*
X8730448Y-14557191D02*
X8711401Y-14547667D01*
X8892353Y-14538143D02*
X8901877Y-14547667D01*
X8901877Y-14547667D02*
X8892353Y-14557191D01*
X8892353Y-14557191D02*
X8882829Y-14547667D01*
X8882829Y-14547667D02*
X8892353Y-14538143D01*
X8892353Y-14538143D02*
X8892353Y-14557191D01*
X8892353Y-14433382D02*
X8901877Y-14442905D01*
X8901877Y-14442905D02*
X8892353Y-14452429D01*
X8892353Y-14452429D02*
X8882829Y-14442905D01*
X8882829Y-14442905D02*
X8892353Y-14433382D01*
X8892353Y-14433382D02*
X8892353Y-14452429D01*
X7060148Y-14785707D02*
X7260148Y-14985707D01*
X7260148Y-14785707D02*
X7060148Y-14985707D01*
X7511401Y-14796239D02*
X7520924Y-14786715D01*
X7520924Y-14786715D02*
X7539972Y-14777191D01*
X7539972Y-14777191D02*
X7587591Y-14777191D01*
X7587591Y-14777191D02*
X7606639Y-14786715D01*
X7606639Y-14786715D02*
X7616162Y-14796239D01*
X7616162Y-14796239D02*
X7625686Y-14815286D01*
X7625686Y-14815286D02*
X7625686Y-14834334D01*
X7625686Y-14834334D02*
X7616162Y-14862905D01*
X7616162Y-14862905D02*
X7501877Y-14977191D01*
X7501877Y-14977191D02*
X7625686Y-14977191D01*
X7711401Y-14958143D02*
X7720924Y-14967667D01*
X7720924Y-14967667D02*
X7711401Y-14977191D01*
X7711401Y-14977191D02*
X7701877Y-14967667D01*
X7701877Y-14967667D02*
X7711401Y-14958143D01*
X7711401Y-14958143D02*
X7711401Y-14977191D01*
X7835210Y-14862905D02*
X7816162Y-14853382D01*
X7816162Y-14853382D02*
X7806639Y-14843858D01*
X7806639Y-14843858D02*
X7797115Y-14824810D01*
X7797115Y-14824810D02*
X7797115Y-14815286D01*
X7797115Y-14815286D02*
X7806639Y-14796239D01*
X7806639Y-14796239D02*
X7816162Y-14786715D01*
X7816162Y-14786715D02*
X7835210Y-14777191D01*
X7835210Y-14777191D02*
X7873305Y-14777191D01*
X7873305Y-14777191D02*
X7892353Y-14786715D01*
X7892353Y-14786715D02*
X7901877Y-14796239D01*
X7901877Y-14796239D02*
X7911401Y-14815286D01*
X7911401Y-14815286D02*
X7911401Y-14824810D01*
X7911401Y-14824810D02*
X7901877Y-14843858D01*
X7901877Y-14843858D02*
X7892353Y-14853382D01*
X7892353Y-14853382D02*
X7873305Y-14862905D01*
X7873305Y-14862905D02*
X7835210Y-14862905D01*
X7835210Y-14862905D02*
X7816162Y-14872429D01*
X7816162Y-14872429D02*
X7806639Y-14881953D01*
X7806639Y-14881953D02*
X7797115Y-14901001D01*
X7797115Y-14901001D02*
X7797115Y-14939096D01*
X7797115Y-14939096D02*
X7806639Y-14958143D01*
X7806639Y-14958143D02*
X7816162Y-14967667D01*
X7816162Y-14967667D02*
X7835210Y-14977191D01*
X7835210Y-14977191D02*
X7873305Y-14977191D01*
X7873305Y-14977191D02*
X7892353Y-14967667D01*
X7892353Y-14967667D02*
X7901877Y-14958143D01*
X7901877Y-14958143D02*
X7911401Y-14939096D01*
X7911401Y-14939096D02*
X7911401Y-14901001D01*
X7911401Y-14901001D02*
X7901877Y-14881953D01*
X7901877Y-14881953D02*
X7892353Y-14872429D01*
X7892353Y-14872429D02*
X7873305Y-14862905D01*
X8092353Y-14777191D02*
X7997115Y-14777191D01*
X7997115Y-14777191D02*
X7987591Y-14872429D01*
X7987591Y-14872429D02*
X7997115Y-14862905D01*
X7997115Y-14862905D02*
X8016162Y-14853382D01*
X8016162Y-14853382D02*
X8063782Y-14853382D01*
X8063782Y-14853382D02*
X8082829Y-14862905D01*
X8082829Y-14862905D02*
X8092353Y-14872429D01*
X8092353Y-14872429D02*
X8101877Y-14891477D01*
X8101877Y-14891477D02*
X8101877Y-14939096D01*
X8101877Y-14939096D02*
X8092353Y-14958143D01*
X8092353Y-14958143D02*
X8082829Y-14967667D01*
X8082829Y-14967667D02*
X8063782Y-14977191D01*
X8063782Y-14977191D02*
X8016162Y-14977191D01*
X8016162Y-14977191D02*
X7997115Y-14967667D01*
X7997115Y-14967667D02*
X7987591Y-14958143D01*
X8225686Y-14777191D02*
X8244734Y-14777191D01*
X8244734Y-14777191D02*
X8263782Y-14786715D01*
X8263782Y-14786715D02*
X8273305Y-14796239D01*
X8273305Y-14796239D02*
X8282829Y-14815286D01*
X8282829Y-14815286D02*
X8292353Y-14853382D01*
X8292353Y-14853382D02*
X8292353Y-14901001D01*
X8292353Y-14901001D02*
X8282829Y-14939096D01*
X8282829Y-14939096D02*
X8273305Y-14958143D01*
X8273305Y-14958143D02*
X8263782Y-14967667D01*
X8263782Y-14967667D02*
X8244734Y-14977191D01*
X8244734Y-14977191D02*
X8225686Y-14977191D01*
X8225686Y-14977191D02*
X8206639Y-14967667D01*
X8206639Y-14967667D02*
X8197115Y-14958143D01*
X8197115Y-14958143D02*
X8187591Y-14939096D01*
X8187591Y-14939096D02*
X8178067Y-14901001D01*
X8178067Y-14901001D02*
X8178067Y-14853382D01*
X8178067Y-14853382D02*
X8187591Y-14815286D01*
X8187591Y-14815286D02*
X8197115Y-14796239D01*
X8197115Y-14796239D02*
X8206639Y-14786715D01*
X8206639Y-14786715D02*
X8225686Y-14777191D01*
X8378067Y-14977191D02*
X8378067Y-14843858D01*
X8378067Y-14862905D02*
X8387591Y-14853382D01*
X8387591Y-14853382D02*
X8406639Y-14843858D01*
X8406639Y-14843858D02*
X8435210Y-14843858D01*
X8435210Y-14843858D02*
X8454258Y-14853382D01*
X8454258Y-14853382D02*
X8463782Y-14872429D01*
X8463782Y-14872429D02*
X8463782Y-14977191D01*
X8463782Y-14872429D02*
X8473305Y-14853382D01*
X8473305Y-14853382D02*
X8492353Y-14843858D01*
X8492353Y-14843858D02*
X8520924Y-14843858D01*
X8520924Y-14843858D02*
X8539972Y-14853382D01*
X8539972Y-14853382D02*
X8549496Y-14872429D01*
X8549496Y-14872429D02*
X8549496Y-14977191D01*
X8644734Y-14977191D02*
X8644734Y-14843858D01*
X8644734Y-14862905D02*
X8654258Y-14853382D01*
X8654258Y-14853382D02*
X8673305Y-14843858D01*
X8673305Y-14843858D02*
X8701877Y-14843858D01*
X8701877Y-14843858D02*
X8720925Y-14853382D01*
X8720925Y-14853382D02*
X8730448Y-14872429D01*
X8730448Y-14872429D02*
X8730448Y-14977191D01*
X8730448Y-14872429D02*
X8739972Y-14853382D01*
X8739972Y-14853382D02*
X8759020Y-14843858D01*
X8759020Y-14843858D02*
X8787591Y-14843858D01*
X8787591Y-14843858D02*
X8806639Y-14853382D01*
X8806639Y-14853382D02*
X8816163Y-14872429D01*
X8816163Y-14872429D02*
X8816163Y-14977191D01*
X9206639Y-14767667D02*
X9035210Y-15024810D01*
X9463782Y-14777191D02*
X9482829Y-14777191D01*
X9482829Y-14777191D02*
X9501877Y-14786715D01*
X9501877Y-14786715D02*
X9511401Y-14796239D01*
X9511401Y-14796239D02*
X9520925Y-14815286D01*
X9520925Y-14815286D02*
X9530448Y-14853382D01*
X9530448Y-14853382D02*
X9530448Y-14901001D01*
X9530448Y-14901001D02*
X9520925Y-14939096D01*
X9520925Y-14939096D02*
X9511401Y-14958143D01*
X9511401Y-14958143D02*
X9501877Y-14967667D01*
X9501877Y-14967667D02*
X9482829Y-14977191D01*
X9482829Y-14977191D02*
X9463782Y-14977191D01*
X9463782Y-14977191D02*
X9444734Y-14967667D01*
X9444734Y-14967667D02*
X9435210Y-14958143D01*
X9435210Y-14958143D02*
X9425687Y-14939096D01*
X9425687Y-14939096D02*
X9416163Y-14901001D01*
X9416163Y-14901001D02*
X9416163Y-14853382D01*
X9416163Y-14853382D02*
X9425687Y-14815286D01*
X9425687Y-14815286D02*
X9435210Y-14796239D01*
X9435210Y-14796239D02*
X9444734Y-14786715D01*
X9444734Y-14786715D02*
X9463782Y-14777191D01*
X9616163Y-14958143D02*
X9625687Y-14967667D01*
X9625687Y-14967667D02*
X9616163Y-14977191D01*
X9616163Y-14977191D02*
X9606639Y-14967667D01*
X9606639Y-14967667D02*
X9616163Y-14958143D01*
X9616163Y-14958143D02*
X9616163Y-14977191D01*
X9816163Y-14977191D02*
X9701877Y-14977191D01*
X9759020Y-14977191D02*
X9759020Y-14777191D01*
X9759020Y-14777191D02*
X9739972Y-14805763D01*
X9739972Y-14805763D02*
X9720925Y-14824810D01*
X9720925Y-14824810D02*
X9701877Y-14834334D01*
X10006639Y-14977191D02*
X9892353Y-14977191D01*
X9949496Y-14977191D02*
X9949496Y-14777191D01*
X9949496Y-14777191D02*
X9930448Y-14805763D01*
X9930448Y-14805763D02*
X9911401Y-14824810D01*
X9911401Y-14824810D02*
X9892353Y-14834334D01*
X10082829Y-14796239D02*
X10092353Y-14786715D01*
X10092353Y-14786715D02*
X10111401Y-14777191D01*
X10111401Y-14777191D02*
X10159020Y-14777191D01*
X10159020Y-14777191D02*
X10178068Y-14786715D01*
X10178068Y-14786715D02*
X10187591Y-14796239D01*
X10187591Y-14796239D02*
X10197115Y-14815286D01*
X10197115Y-14815286D02*
X10197115Y-14834334D01*
X10197115Y-14834334D02*
X10187591Y-14862905D01*
X10187591Y-14862905D02*
X10073306Y-14977191D01*
X10073306Y-14977191D02*
X10197115Y-14977191D01*
X10273306Y-14796239D02*
X10282829Y-14786715D01*
X10282829Y-14786715D02*
X10301877Y-14777191D01*
X10301877Y-14777191D02*
X10349496Y-14777191D01*
X10349496Y-14777191D02*
X10368544Y-14786715D01*
X10368544Y-14786715D02*
X10378068Y-14796239D01*
X10378068Y-14796239D02*
X10387591Y-14815286D01*
X10387591Y-14815286D02*
X10387591Y-14834334D01*
X10387591Y-14834334D02*
X10378068Y-14862905D01*
X10378068Y-14862905D02*
X10263782Y-14977191D01*
X10263782Y-14977191D02*
X10387591Y-14977191D01*
X10463782Y-14777191D02*
X10463782Y-14815286D01*
X10539972Y-14777191D02*
X10539972Y-14815286D01*
X10835211Y-15053382D02*
X10825687Y-15043858D01*
X10825687Y-15043858D02*
X10806639Y-15015286D01*
X10806639Y-15015286D02*
X10797115Y-14996239D01*
X10797115Y-14996239D02*
X10787591Y-14967667D01*
X10787591Y-14967667D02*
X10778068Y-14920048D01*
X10778068Y-14920048D02*
X10778068Y-14881953D01*
X10778068Y-14881953D02*
X10787591Y-14834334D01*
X10787591Y-14834334D02*
X10797115Y-14805763D01*
X10797115Y-14805763D02*
X10806639Y-14786715D01*
X10806639Y-14786715D02*
X10825687Y-14758143D01*
X10825687Y-14758143D02*
X10835211Y-14748620D01*
X10901877Y-14796239D02*
X10911401Y-14786715D01*
X10911401Y-14786715D02*
X10930449Y-14777191D01*
X10930449Y-14777191D02*
X10978068Y-14777191D01*
X10978068Y-14777191D02*
X10997115Y-14786715D01*
X10997115Y-14786715D02*
X11006639Y-14796239D01*
X11006639Y-14796239D02*
X11016163Y-14815286D01*
X11016163Y-14815286D02*
X11016163Y-14834334D01*
X11016163Y-14834334D02*
X11006639Y-14862905D01*
X11006639Y-14862905D02*
X10892353Y-14977191D01*
X10892353Y-14977191D02*
X11016163Y-14977191D01*
X11254258Y-14977191D02*
X11254258Y-14777191D01*
X11339972Y-14977191D02*
X11339972Y-14872429D01*
X11339972Y-14872429D02*
X11330449Y-14853382D01*
X11330449Y-14853382D02*
X11311401Y-14843858D01*
X11311401Y-14843858D02*
X11282829Y-14843858D01*
X11282829Y-14843858D02*
X11263782Y-14853382D01*
X11263782Y-14853382D02*
X11254258Y-14862905D01*
X11463782Y-14977191D02*
X11444734Y-14967667D01*
X11444734Y-14967667D02*
X11435210Y-14958143D01*
X11435210Y-14958143D02*
X11425687Y-14939096D01*
X11425687Y-14939096D02*
X11425687Y-14881953D01*
X11425687Y-14881953D02*
X11435210Y-14862905D01*
X11435210Y-14862905D02*
X11444734Y-14853382D01*
X11444734Y-14853382D02*
X11463782Y-14843858D01*
X11463782Y-14843858D02*
X11492353Y-14843858D01*
X11492353Y-14843858D02*
X11511401Y-14853382D01*
X11511401Y-14853382D02*
X11520925Y-14862905D01*
X11520925Y-14862905D02*
X11530449Y-14881953D01*
X11530449Y-14881953D02*
X11530449Y-14939096D01*
X11530449Y-14939096D02*
X11520925Y-14958143D01*
X11520925Y-14958143D02*
X11511401Y-14967667D01*
X11511401Y-14967667D02*
X11492353Y-14977191D01*
X11492353Y-14977191D02*
X11463782Y-14977191D01*
X11644734Y-14977191D02*
X11625687Y-14967667D01*
X11625687Y-14967667D02*
X11616163Y-14948620D01*
X11616163Y-14948620D02*
X11616163Y-14777191D01*
X11797115Y-14967667D02*
X11778068Y-14977191D01*
X11778068Y-14977191D02*
X11739972Y-14977191D01*
X11739972Y-14977191D02*
X11720925Y-14967667D01*
X11720925Y-14967667D02*
X11711401Y-14948620D01*
X11711401Y-14948620D02*
X11711401Y-14872429D01*
X11711401Y-14872429D02*
X11720925Y-14853382D01*
X11720925Y-14853382D02*
X11739972Y-14843858D01*
X11739972Y-14843858D02*
X11778068Y-14843858D01*
X11778068Y-14843858D02*
X11797115Y-14853382D01*
X11797115Y-14853382D02*
X11806639Y-14872429D01*
X11806639Y-14872429D02*
X11806639Y-14891477D01*
X11806639Y-14891477D02*
X11711401Y-14910524D01*
X11882830Y-14967667D02*
X11901877Y-14977191D01*
X11901877Y-14977191D02*
X11939972Y-14977191D01*
X11939972Y-14977191D02*
X11959020Y-14967667D01*
X11959020Y-14967667D02*
X11968544Y-14948620D01*
X11968544Y-14948620D02*
X11968544Y-14939096D01*
X11968544Y-14939096D02*
X11959020Y-14920048D01*
X11959020Y-14920048D02*
X11939972Y-14910524D01*
X11939972Y-14910524D02*
X11911401Y-14910524D01*
X11911401Y-14910524D02*
X11892353Y-14901001D01*
X11892353Y-14901001D02*
X11882830Y-14881953D01*
X11882830Y-14881953D02*
X11882830Y-14872429D01*
X11882830Y-14872429D02*
X11892353Y-14853382D01*
X11892353Y-14853382D02*
X11911401Y-14843858D01*
X11911401Y-14843858D02*
X11939972Y-14843858D01*
X11939972Y-14843858D02*
X11959020Y-14853382D01*
X12035211Y-15053382D02*
X12044734Y-15043858D01*
X12044734Y-15043858D02*
X12063782Y-15015286D01*
X12063782Y-15015286D02*
X12073306Y-14996239D01*
X12073306Y-14996239D02*
X12082830Y-14967667D01*
X12082830Y-14967667D02*
X12092353Y-14920048D01*
X12092353Y-14920048D02*
X12092353Y-14881953D01*
X12092353Y-14881953D02*
X12082830Y-14834334D01*
X12082830Y-14834334D02*
X12073306Y-14805763D01*
X12073306Y-14805763D02*
X12063782Y-14786715D01*
X12063782Y-14786715D02*
X12044734Y-14758143D01*
X12044734Y-14758143D02*
X12035211Y-14748620D01*
X12397115Y-15053382D02*
X12387591Y-15043858D01*
X12387591Y-15043858D02*
X12368544Y-15015286D01*
X12368544Y-15015286D02*
X12359020Y-14996239D01*
X12359020Y-14996239D02*
X12349496Y-14967667D01*
X12349496Y-14967667D02*
X12339972Y-14920048D01*
X12339972Y-14920048D02*
X12339972Y-14881953D01*
X12339972Y-14881953D02*
X12349496Y-14834334D01*
X12349496Y-14834334D02*
X12359020Y-14805763D01*
X12359020Y-14805763D02*
X12368544Y-14786715D01*
X12368544Y-14786715D02*
X12387591Y-14758143D01*
X12387591Y-14758143D02*
X12397115Y-14748620D01*
X12473306Y-14843858D02*
X12473306Y-14977191D01*
X12473306Y-14862905D02*
X12482830Y-14853382D01*
X12482830Y-14853382D02*
X12501877Y-14843858D01*
X12501877Y-14843858D02*
X12530449Y-14843858D01*
X12530449Y-14843858D02*
X12549496Y-14853382D01*
X12549496Y-14853382D02*
X12559020Y-14872429D01*
X12559020Y-14872429D02*
X12559020Y-14977191D01*
X12682830Y-14977191D02*
X12663782Y-14967667D01*
X12663782Y-14967667D02*
X12654258Y-14958143D01*
X12654258Y-14958143D02*
X12644734Y-14939096D01*
X12644734Y-14939096D02*
X12644734Y-14881953D01*
X12644734Y-14881953D02*
X12654258Y-14862905D01*
X12654258Y-14862905D02*
X12663782Y-14853382D01*
X12663782Y-14853382D02*
X12682830Y-14843858D01*
X12682830Y-14843858D02*
X12711401Y-14843858D01*
X12711401Y-14843858D02*
X12730449Y-14853382D01*
X12730449Y-14853382D02*
X12739972Y-14862905D01*
X12739972Y-14862905D02*
X12749496Y-14881953D01*
X12749496Y-14881953D02*
X12749496Y-14939096D01*
X12749496Y-14939096D02*
X12739972Y-14958143D01*
X12739972Y-14958143D02*
X12730449Y-14967667D01*
X12730449Y-14967667D02*
X12711401Y-14977191D01*
X12711401Y-14977191D02*
X12682830Y-14977191D01*
X12806639Y-14843858D02*
X12882830Y-14843858D01*
X12835211Y-14777191D02*
X12835211Y-14948620D01*
X12835211Y-14948620D02*
X12844734Y-14967667D01*
X12844734Y-14967667D02*
X12863782Y-14977191D01*
X12863782Y-14977191D02*
X12882830Y-14977191D01*
X13101877Y-14843858D02*
X13101877Y-15043858D01*
X13101877Y-14853382D02*
X13120925Y-14843858D01*
X13120925Y-14843858D02*
X13159020Y-14843858D01*
X13159020Y-14843858D02*
X13178068Y-14853382D01*
X13178068Y-14853382D02*
X13187592Y-14862905D01*
X13187592Y-14862905D02*
X13197115Y-14881953D01*
X13197115Y-14881953D02*
X13197115Y-14939096D01*
X13197115Y-14939096D02*
X13187592Y-14958143D01*
X13187592Y-14958143D02*
X13178068Y-14967667D01*
X13178068Y-14967667D02*
X13159020Y-14977191D01*
X13159020Y-14977191D02*
X13120925Y-14977191D01*
X13120925Y-14977191D02*
X13101877Y-14967667D01*
X13311401Y-14977191D02*
X13292353Y-14967667D01*
X13292353Y-14967667D02*
X13282830Y-14948620D01*
X13282830Y-14948620D02*
X13282830Y-14777191D01*
X13473306Y-14977191D02*
X13473306Y-14872429D01*
X13473306Y-14872429D02*
X13463782Y-14853382D01*
X13463782Y-14853382D02*
X13444734Y-14843858D01*
X13444734Y-14843858D02*
X13406639Y-14843858D01*
X13406639Y-14843858D02*
X13387592Y-14853382D01*
X13473306Y-14967667D02*
X13454258Y-14977191D01*
X13454258Y-14977191D02*
X13406639Y-14977191D01*
X13406639Y-14977191D02*
X13387592Y-14967667D01*
X13387592Y-14967667D02*
X13378068Y-14948620D01*
X13378068Y-14948620D02*
X13378068Y-14929572D01*
X13378068Y-14929572D02*
X13387592Y-14910524D01*
X13387592Y-14910524D02*
X13406639Y-14901001D01*
X13406639Y-14901001D02*
X13454258Y-14901001D01*
X13454258Y-14901001D02*
X13473306Y-14891477D01*
X13539973Y-14843858D02*
X13616163Y-14843858D01*
X13568544Y-14777191D02*
X13568544Y-14948620D01*
X13568544Y-14948620D02*
X13578068Y-14967667D01*
X13578068Y-14967667D02*
X13597115Y-14977191D01*
X13597115Y-14977191D02*
X13616163Y-14977191D01*
X13759020Y-14967667D02*
X13739973Y-14977191D01*
X13739973Y-14977191D02*
X13701877Y-14977191D01*
X13701877Y-14977191D02*
X13682830Y-14967667D01*
X13682830Y-14967667D02*
X13673306Y-14948620D01*
X13673306Y-14948620D02*
X13673306Y-14872429D01*
X13673306Y-14872429D02*
X13682830Y-14853382D01*
X13682830Y-14853382D02*
X13701877Y-14843858D01*
X13701877Y-14843858D02*
X13739973Y-14843858D01*
X13739973Y-14843858D02*
X13759020Y-14853382D01*
X13759020Y-14853382D02*
X13768544Y-14872429D01*
X13768544Y-14872429D02*
X13768544Y-14891477D01*
X13768544Y-14891477D02*
X13673306Y-14910524D01*
X13939973Y-14977191D02*
X13939973Y-14777191D01*
X13939973Y-14967667D02*
X13920925Y-14977191D01*
X13920925Y-14977191D02*
X13882830Y-14977191D01*
X13882830Y-14977191D02*
X13863782Y-14967667D01*
X13863782Y-14967667D02*
X13854258Y-14958143D01*
X13854258Y-14958143D02*
X13844734Y-14939096D01*
X13844734Y-14939096D02*
X13844734Y-14881953D01*
X13844734Y-14881953D02*
X13854258Y-14862905D01*
X13854258Y-14862905D02*
X13863782Y-14853382D01*
X13863782Y-14853382D02*
X13882830Y-14843858D01*
X13882830Y-14843858D02*
X13920925Y-14843858D01*
X13920925Y-14843858D02*
X13939973Y-14853382D01*
X14016163Y-15053382D02*
X14025687Y-15043858D01*
X14025687Y-15043858D02*
X14044734Y-15015286D01*
X14044734Y-15015286D02*
X14054258Y-14996239D01*
X14054258Y-14996239D02*
X14063782Y-14967667D01*
X14063782Y-14967667D02*
X14073306Y-14920048D01*
X14073306Y-14920048D02*
X14073306Y-14881953D01*
X14073306Y-14881953D02*
X14063782Y-14834334D01*
X14063782Y-14834334D02*
X14054258Y-14805763D01*
X14054258Y-14805763D02*
X14044734Y-14786715D01*
X14044734Y-14786715D02*
X14025687Y-14758143D01*
X14025687Y-14758143D02*
X14016163Y-14748620D01*
X7260148Y-15205707D02*
G75*
G02*
X7060148Y-15205707I-100000J0D01*
G01*
X7060148Y-15205707D02*
G75*
G02*
X7260148Y-15205707I100000J0D01*
G01*
X7501877Y-15097191D02*
X7625686Y-15097191D01*
X7625686Y-15097191D02*
X7559020Y-15173382D01*
X7559020Y-15173382D02*
X7587591Y-15173382D01*
X7587591Y-15173382D02*
X7606639Y-15182905D01*
X7606639Y-15182905D02*
X7616162Y-15192429D01*
X7616162Y-15192429D02*
X7625686Y-15211477D01*
X7625686Y-15211477D02*
X7625686Y-15259096D01*
X7625686Y-15259096D02*
X7616162Y-15278143D01*
X7616162Y-15278143D02*
X7606639Y-15287667D01*
X7606639Y-15287667D02*
X7587591Y-15297191D01*
X7587591Y-15297191D02*
X7530448Y-15297191D01*
X7530448Y-15297191D02*
X7511401Y-15287667D01*
X7511401Y-15287667D02*
X7501877Y-15278143D01*
X7711401Y-15278143D02*
X7720924Y-15287667D01*
X7720924Y-15287667D02*
X7711401Y-15297191D01*
X7711401Y-15297191D02*
X7701877Y-15287667D01*
X7701877Y-15287667D02*
X7711401Y-15278143D01*
X7711401Y-15278143D02*
X7711401Y-15297191D01*
X7901877Y-15097191D02*
X7806639Y-15097191D01*
X7806639Y-15097191D02*
X7797115Y-15192429D01*
X7797115Y-15192429D02*
X7806639Y-15182905D01*
X7806639Y-15182905D02*
X7825686Y-15173382D01*
X7825686Y-15173382D02*
X7873305Y-15173382D01*
X7873305Y-15173382D02*
X7892353Y-15182905D01*
X7892353Y-15182905D02*
X7901877Y-15192429D01*
X7901877Y-15192429D02*
X7911401Y-15211477D01*
X7911401Y-15211477D02*
X7911401Y-15259096D01*
X7911401Y-15259096D02*
X7901877Y-15278143D01*
X7901877Y-15278143D02*
X7892353Y-15287667D01*
X7892353Y-15287667D02*
X7873305Y-15297191D01*
X7873305Y-15297191D02*
X7825686Y-15297191D01*
X7825686Y-15297191D02*
X7806639Y-15287667D01*
X7806639Y-15287667D02*
X7797115Y-15278143D01*
X8035210Y-15097191D02*
X8054258Y-15097191D01*
X8054258Y-15097191D02*
X8073305Y-15106715D01*
X8073305Y-15106715D02*
X8082829Y-15116239D01*
X8082829Y-15116239D02*
X8092353Y-15135286D01*
X8092353Y-15135286D02*
X8101877Y-15173382D01*
X8101877Y-15173382D02*
X8101877Y-15221001D01*
X8101877Y-15221001D02*
X8092353Y-15259096D01*
X8092353Y-15259096D02*
X8082829Y-15278143D01*
X8082829Y-15278143D02*
X8073305Y-15287667D01*
X8073305Y-15287667D02*
X8054258Y-15297191D01*
X8054258Y-15297191D02*
X8035210Y-15297191D01*
X8035210Y-15297191D02*
X8016162Y-15287667D01*
X8016162Y-15287667D02*
X8006639Y-15278143D01*
X8006639Y-15278143D02*
X7997115Y-15259096D01*
X7997115Y-15259096D02*
X7987591Y-15221001D01*
X7987591Y-15221001D02*
X7987591Y-15173382D01*
X7987591Y-15173382D02*
X7997115Y-15135286D01*
X7997115Y-15135286D02*
X8006639Y-15116239D01*
X8006639Y-15116239D02*
X8016162Y-15106715D01*
X8016162Y-15106715D02*
X8035210Y-15097191D01*
X8225686Y-15097191D02*
X8244734Y-15097191D01*
X8244734Y-15097191D02*
X8263782Y-15106715D01*
X8263782Y-15106715D02*
X8273305Y-15116239D01*
X8273305Y-15116239D02*
X8282829Y-15135286D01*
X8282829Y-15135286D02*
X8292353Y-15173382D01*
X8292353Y-15173382D02*
X8292353Y-15221001D01*
X8292353Y-15221001D02*
X8282829Y-15259096D01*
X8282829Y-15259096D02*
X8273305Y-15278143D01*
X8273305Y-15278143D02*
X8263782Y-15287667D01*
X8263782Y-15287667D02*
X8244734Y-15297191D01*
X8244734Y-15297191D02*
X8225686Y-15297191D01*
X8225686Y-15297191D02*
X8206639Y-15287667D01*
X8206639Y-15287667D02*
X8197115Y-15278143D01*
X8197115Y-15278143D02*
X8187591Y-15259096D01*
X8187591Y-15259096D02*
X8178067Y-15221001D01*
X8178067Y-15221001D02*
X8178067Y-15173382D01*
X8178067Y-15173382D02*
X8187591Y-15135286D01*
X8187591Y-15135286D02*
X8197115Y-15116239D01*
X8197115Y-15116239D02*
X8206639Y-15106715D01*
X8206639Y-15106715D02*
X8225686Y-15097191D01*
X8378067Y-15297191D02*
X8378067Y-15163858D01*
X8378067Y-15182905D02*
X8387591Y-15173382D01*
X8387591Y-15173382D02*
X8406639Y-15163858D01*
X8406639Y-15163858D02*
X8435210Y-15163858D01*
X8435210Y-15163858D02*
X8454258Y-15173382D01*
X8454258Y-15173382D02*
X8463782Y-15192429D01*
X8463782Y-15192429D02*
X8463782Y-15297191D01*
X8463782Y-15192429D02*
X8473305Y-15173382D01*
X8473305Y-15173382D02*
X8492353Y-15163858D01*
X8492353Y-15163858D02*
X8520924Y-15163858D01*
X8520924Y-15163858D02*
X8539972Y-15173382D01*
X8539972Y-15173382D02*
X8549496Y-15192429D01*
X8549496Y-15192429D02*
X8549496Y-15297191D01*
X8644734Y-15297191D02*
X8644734Y-15163858D01*
X8644734Y-15182905D02*
X8654258Y-15173382D01*
X8654258Y-15173382D02*
X8673305Y-15163858D01*
X8673305Y-15163858D02*
X8701877Y-15163858D01*
X8701877Y-15163858D02*
X8720925Y-15173382D01*
X8720925Y-15173382D02*
X8730448Y-15192429D01*
X8730448Y-15192429D02*
X8730448Y-15297191D01*
X8730448Y-15192429D02*
X8739972Y-15173382D01*
X8739972Y-15173382D02*
X8759020Y-15163858D01*
X8759020Y-15163858D02*
X8787591Y-15163858D01*
X8787591Y-15163858D02*
X8806639Y-15173382D01*
X8806639Y-15173382D02*
X8816163Y-15192429D01*
X8816163Y-15192429D02*
X8816163Y-15297191D01*
X9206639Y-15087667D02*
X9035210Y-15344810D01*
X9463782Y-15097191D02*
X9482829Y-15097191D01*
X9482829Y-15097191D02*
X9501877Y-15106715D01*
X9501877Y-15106715D02*
X9511401Y-15116239D01*
X9511401Y-15116239D02*
X9520925Y-15135286D01*
X9520925Y-15135286D02*
X9530448Y-15173382D01*
X9530448Y-15173382D02*
X9530448Y-15221001D01*
X9530448Y-15221001D02*
X9520925Y-15259096D01*
X9520925Y-15259096D02*
X9511401Y-15278143D01*
X9511401Y-15278143D02*
X9501877Y-15287667D01*
X9501877Y-15287667D02*
X9482829Y-15297191D01*
X9482829Y-15297191D02*
X9463782Y-15297191D01*
X9463782Y-15297191D02*
X9444734Y-15287667D01*
X9444734Y-15287667D02*
X9435210Y-15278143D01*
X9435210Y-15278143D02*
X9425687Y-15259096D01*
X9425687Y-15259096D02*
X9416163Y-15221001D01*
X9416163Y-15221001D02*
X9416163Y-15173382D01*
X9416163Y-15173382D02*
X9425687Y-15135286D01*
X9425687Y-15135286D02*
X9435210Y-15116239D01*
X9435210Y-15116239D02*
X9444734Y-15106715D01*
X9444734Y-15106715D02*
X9463782Y-15097191D01*
X9616163Y-15278143D02*
X9625687Y-15287667D01*
X9625687Y-15287667D02*
X9616163Y-15297191D01*
X9616163Y-15297191D02*
X9606639Y-15287667D01*
X9606639Y-15287667D02*
X9616163Y-15278143D01*
X9616163Y-15278143D02*
X9616163Y-15297191D01*
X9816163Y-15297191D02*
X9701877Y-15297191D01*
X9759020Y-15297191D02*
X9759020Y-15097191D01*
X9759020Y-15097191D02*
X9739972Y-15125763D01*
X9739972Y-15125763D02*
X9720925Y-15144810D01*
X9720925Y-15144810D02*
X9701877Y-15154334D01*
X9882829Y-15097191D02*
X10006639Y-15097191D01*
X10006639Y-15097191D02*
X9939972Y-15173382D01*
X9939972Y-15173382D02*
X9968544Y-15173382D01*
X9968544Y-15173382D02*
X9987591Y-15182905D01*
X9987591Y-15182905D02*
X9997115Y-15192429D01*
X9997115Y-15192429D02*
X10006639Y-15211477D01*
X10006639Y-15211477D02*
X10006639Y-15259096D01*
X10006639Y-15259096D02*
X9997115Y-15278143D01*
X9997115Y-15278143D02*
X9987591Y-15287667D01*
X9987591Y-15287667D02*
X9968544Y-15297191D01*
X9968544Y-15297191D02*
X9911401Y-15297191D01*
X9911401Y-15297191D02*
X9892353Y-15287667D01*
X9892353Y-15287667D02*
X9882829Y-15278143D01*
X10073306Y-15097191D02*
X10206639Y-15097191D01*
X10206639Y-15097191D02*
X10120925Y-15297191D01*
X10311401Y-15182905D02*
X10292353Y-15173382D01*
X10292353Y-15173382D02*
X10282829Y-15163858D01*
X10282829Y-15163858D02*
X10273306Y-15144810D01*
X10273306Y-15144810D02*
X10273306Y-15135286D01*
X10273306Y-15135286D02*
X10282829Y-15116239D01*
X10282829Y-15116239D02*
X10292353Y-15106715D01*
X10292353Y-15106715D02*
X10311401Y-15097191D01*
X10311401Y-15097191D02*
X10349496Y-15097191D01*
X10349496Y-15097191D02*
X10368544Y-15106715D01*
X10368544Y-15106715D02*
X10378068Y-15116239D01*
X10378068Y-15116239D02*
X10387591Y-15135286D01*
X10387591Y-15135286D02*
X10387591Y-15144810D01*
X10387591Y-15144810D02*
X10378068Y-15163858D01*
X10378068Y-15163858D02*
X10368544Y-15173382D01*
X10368544Y-15173382D02*
X10349496Y-15182905D01*
X10349496Y-15182905D02*
X10311401Y-15182905D01*
X10311401Y-15182905D02*
X10292353Y-15192429D01*
X10292353Y-15192429D02*
X10282829Y-15201953D01*
X10282829Y-15201953D02*
X10273306Y-15221001D01*
X10273306Y-15221001D02*
X10273306Y-15259096D01*
X10273306Y-15259096D02*
X10282829Y-15278143D01*
X10282829Y-15278143D02*
X10292353Y-15287667D01*
X10292353Y-15287667D02*
X10311401Y-15297191D01*
X10311401Y-15297191D02*
X10349496Y-15297191D01*
X10349496Y-15297191D02*
X10368544Y-15287667D01*
X10368544Y-15287667D02*
X10378068Y-15278143D01*
X10378068Y-15278143D02*
X10387591Y-15259096D01*
X10387591Y-15259096D02*
X10387591Y-15221001D01*
X10387591Y-15221001D02*
X10378068Y-15201953D01*
X10378068Y-15201953D02*
X10368544Y-15192429D01*
X10368544Y-15192429D02*
X10349496Y-15182905D01*
X10463782Y-15097191D02*
X10463782Y-15135286D01*
X10539972Y-15097191D02*
X10539972Y-15135286D01*
X10835211Y-15373382D02*
X10825687Y-15363858D01*
X10825687Y-15363858D02*
X10806639Y-15335286D01*
X10806639Y-15335286D02*
X10797115Y-15316239D01*
X10797115Y-15316239D02*
X10787591Y-15287667D01*
X10787591Y-15287667D02*
X10778068Y-15240048D01*
X10778068Y-15240048D02*
X10778068Y-15201953D01*
X10778068Y-15201953D02*
X10787591Y-15154334D01*
X10787591Y-15154334D02*
X10797115Y-15125763D01*
X10797115Y-15125763D02*
X10806639Y-15106715D01*
X10806639Y-15106715D02*
X10825687Y-15078143D01*
X10825687Y-15078143D02*
X10835211Y-15068620D01*
X11016163Y-15297191D02*
X10901877Y-15297191D01*
X10959020Y-15297191D02*
X10959020Y-15097191D01*
X10959020Y-15097191D02*
X10939972Y-15125763D01*
X10939972Y-15125763D02*
X10920925Y-15144810D01*
X10920925Y-15144810D02*
X10901877Y-15154334D01*
X11254258Y-15297191D02*
X11254258Y-15097191D01*
X11339972Y-15297191D02*
X11339972Y-15192429D01*
X11339972Y-15192429D02*
X11330449Y-15173382D01*
X11330449Y-15173382D02*
X11311401Y-15163858D01*
X11311401Y-15163858D02*
X11282829Y-15163858D01*
X11282829Y-15163858D02*
X11263782Y-15173382D01*
X11263782Y-15173382D02*
X11254258Y-15182905D01*
X11463782Y-15297191D02*
X11444734Y-15287667D01*
X11444734Y-15287667D02*
X11435210Y-15278143D01*
X11435210Y-15278143D02*
X11425687Y-15259096D01*
X11425687Y-15259096D02*
X11425687Y-15201953D01*
X11425687Y-15201953D02*
X11435210Y-15182905D01*
X11435210Y-15182905D02*
X11444734Y-15173382D01*
X11444734Y-15173382D02*
X11463782Y-15163858D01*
X11463782Y-15163858D02*
X11492353Y-15163858D01*
X11492353Y-15163858D02*
X11511401Y-15173382D01*
X11511401Y-15173382D02*
X11520925Y-15182905D01*
X11520925Y-15182905D02*
X11530449Y-15201953D01*
X11530449Y-15201953D02*
X11530449Y-15259096D01*
X11530449Y-15259096D02*
X11520925Y-15278143D01*
X11520925Y-15278143D02*
X11511401Y-15287667D01*
X11511401Y-15287667D02*
X11492353Y-15297191D01*
X11492353Y-15297191D02*
X11463782Y-15297191D01*
X11644734Y-15297191D02*
X11625687Y-15287667D01*
X11625687Y-15287667D02*
X11616163Y-15268620D01*
X11616163Y-15268620D02*
X11616163Y-15097191D01*
X11797115Y-15287667D02*
X11778068Y-15297191D01*
X11778068Y-15297191D02*
X11739972Y-15297191D01*
X11739972Y-15297191D02*
X11720925Y-15287667D01*
X11720925Y-15287667D02*
X11711401Y-15268620D01*
X11711401Y-15268620D02*
X11711401Y-15192429D01*
X11711401Y-15192429D02*
X11720925Y-15173382D01*
X11720925Y-15173382D02*
X11739972Y-15163858D01*
X11739972Y-15163858D02*
X11778068Y-15163858D01*
X11778068Y-15163858D02*
X11797115Y-15173382D01*
X11797115Y-15173382D02*
X11806639Y-15192429D01*
X11806639Y-15192429D02*
X11806639Y-15211477D01*
X11806639Y-15211477D02*
X11711401Y-15230524D01*
X11873306Y-15373382D02*
X11882830Y-15363858D01*
X11882830Y-15363858D02*
X11901877Y-15335286D01*
X11901877Y-15335286D02*
X11911401Y-15316239D01*
X11911401Y-15316239D02*
X11920925Y-15287667D01*
X11920925Y-15287667D02*
X11930449Y-15240048D01*
X11930449Y-15240048D02*
X11930449Y-15201953D01*
X11930449Y-15201953D02*
X11920925Y-15154334D01*
X11920925Y-15154334D02*
X11911401Y-15125763D01*
X11911401Y-15125763D02*
X11901877Y-15106715D01*
X11901877Y-15106715D02*
X11882830Y-15078143D01*
X11882830Y-15078143D02*
X11873306Y-15068620D01*
X12235211Y-15373382D02*
X12225687Y-15363858D01*
X12225687Y-15363858D02*
X12206639Y-15335286D01*
X12206639Y-15335286D02*
X12197115Y-15316239D01*
X12197115Y-15316239D02*
X12187591Y-15287667D01*
X12187591Y-15287667D02*
X12178068Y-15240048D01*
X12178068Y-15240048D02*
X12178068Y-15201953D01*
X12178068Y-15201953D02*
X12187591Y-15154334D01*
X12187591Y-15154334D02*
X12197115Y-15125763D01*
X12197115Y-15125763D02*
X12206639Y-15106715D01*
X12206639Y-15106715D02*
X12225687Y-15078143D01*
X12225687Y-15078143D02*
X12235211Y-15068620D01*
X12311401Y-15163858D02*
X12311401Y-15297191D01*
X12311401Y-15182905D02*
X12320925Y-15173382D01*
X12320925Y-15173382D02*
X12339972Y-15163858D01*
X12339972Y-15163858D02*
X12368544Y-15163858D01*
X12368544Y-15163858D02*
X12387591Y-15173382D01*
X12387591Y-15173382D02*
X12397115Y-15192429D01*
X12397115Y-15192429D02*
X12397115Y-15297191D01*
X12520925Y-15297191D02*
X12501877Y-15287667D01*
X12501877Y-15287667D02*
X12492353Y-15278143D01*
X12492353Y-15278143D02*
X12482830Y-15259096D01*
X12482830Y-15259096D02*
X12482830Y-15201953D01*
X12482830Y-15201953D02*
X12492353Y-15182905D01*
X12492353Y-15182905D02*
X12501877Y-15173382D01*
X12501877Y-15173382D02*
X12520925Y-15163858D01*
X12520925Y-15163858D02*
X12549496Y-15163858D01*
X12549496Y-15163858D02*
X12568544Y-15173382D01*
X12568544Y-15173382D02*
X12578068Y-15182905D01*
X12578068Y-15182905D02*
X12587591Y-15201953D01*
X12587591Y-15201953D02*
X12587591Y-15259096D01*
X12587591Y-15259096D02*
X12578068Y-15278143D01*
X12578068Y-15278143D02*
X12568544Y-15287667D01*
X12568544Y-15287667D02*
X12549496Y-15297191D01*
X12549496Y-15297191D02*
X12520925Y-15297191D01*
X12644734Y-15163858D02*
X12720925Y-15163858D01*
X12673306Y-15097191D02*
X12673306Y-15268620D01*
X12673306Y-15268620D02*
X12682830Y-15287667D01*
X12682830Y-15287667D02*
X12701877Y-15297191D01*
X12701877Y-15297191D02*
X12720925Y-15297191D01*
X12939972Y-15163858D02*
X12939972Y-15363858D01*
X12939972Y-15173382D02*
X12959020Y-15163858D01*
X12959020Y-15163858D02*
X12997115Y-15163858D01*
X12997115Y-15163858D02*
X13016163Y-15173382D01*
X13016163Y-15173382D02*
X13025687Y-15182905D01*
X13025687Y-15182905D02*
X13035211Y-15201953D01*
X13035211Y-15201953D02*
X13035211Y-15259096D01*
X13035211Y-15259096D02*
X13025687Y-15278143D01*
X13025687Y-15278143D02*
X13016163Y-15287667D01*
X13016163Y-15287667D02*
X12997115Y-15297191D01*
X12997115Y-15297191D02*
X12959020Y-15297191D01*
X12959020Y-15297191D02*
X12939972Y-15287667D01*
X13149496Y-15297191D02*
X13130449Y-15287667D01*
X13130449Y-15287667D02*
X13120925Y-15268620D01*
X13120925Y-15268620D02*
X13120925Y-15097191D01*
X13311401Y-15297191D02*
X13311401Y-15192429D01*
X13311401Y-15192429D02*
X13301877Y-15173382D01*
X13301877Y-15173382D02*
X13282830Y-15163858D01*
X13282830Y-15163858D02*
X13244734Y-15163858D01*
X13244734Y-15163858D02*
X13225687Y-15173382D01*
X13311401Y-15287667D02*
X13292353Y-15297191D01*
X13292353Y-15297191D02*
X13244734Y-15297191D01*
X13244734Y-15297191D02*
X13225687Y-15287667D01*
X13225687Y-15287667D02*
X13216163Y-15268620D01*
X13216163Y-15268620D02*
X13216163Y-15249572D01*
X13216163Y-15249572D02*
X13225687Y-15230524D01*
X13225687Y-15230524D02*
X13244734Y-15221001D01*
X13244734Y-15221001D02*
X13292353Y-15221001D01*
X13292353Y-15221001D02*
X13311401Y-15211477D01*
X13378068Y-15163858D02*
X13454258Y-15163858D01*
X13406639Y-15097191D02*
X13406639Y-15268620D01*
X13406639Y-15268620D02*
X13416163Y-15287667D01*
X13416163Y-15287667D02*
X13435211Y-15297191D01*
X13435211Y-15297191D02*
X13454258Y-15297191D01*
X13597115Y-15287667D02*
X13578068Y-15297191D01*
X13578068Y-15297191D02*
X13539972Y-15297191D01*
X13539972Y-15297191D02*
X13520925Y-15287667D01*
X13520925Y-15287667D02*
X13511401Y-15268620D01*
X13511401Y-15268620D02*
X13511401Y-15192429D01*
X13511401Y-15192429D02*
X13520925Y-15173382D01*
X13520925Y-15173382D02*
X13539972Y-15163858D01*
X13539972Y-15163858D02*
X13578068Y-15163858D01*
X13578068Y-15163858D02*
X13597115Y-15173382D01*
X13597115Y-15173382D02*
X13606639Y-15192429D01*
X13606639Y-15192429D02*
X13606639Y-15211477D01*
X13606639Y-15211477D02*
X13511401Y-15230524D01*
X13778068Y-15297191D02*
X13778068Y-15097191D01*
X13778068Y-15287667D02*
X13759020Y-15297191D01*
X13759020Y-15297191D02*
X13720925Y-15297191D01*
X13720925Y-15297191D02*
X13701877Y-15287667D01*
X13701877Y-15287667D02*
X13692353Y-15278143D01*
X13692353Y-15278143D02*
X13682830Y-15259096D01*
X13682830Y-15259096D02*
X13682830Y-15201953D01*
X13682830Y-15201953D02*
X13692353Y-15182905D01*
X13692353Y-15182905D02*
X13701877Y-15173382D01*
X13701877Y-15173382D02*
X13720925Y-15163858D01*
X13720925Y-15163858D02*
X13759020Y-15163858D01*
X13759020Y-15163858D02*
X13778068Y-15173382D01*
X13854258Y-15373382D02*
X13863782Y-15363858D01*
X13863782Y-15363858D02*
X13882830Y-15335286D01*
X13882830Y-15335286D02*
X13892353Y-15316239D01*
X13892353Y-15316239D02*
X13901877Y-15287667D01*
X13901877Y-15287667D02*
X13911401Y-15240048D01*
X13911401Y-15240048D02*
X13911401Y-15201953D01*
X13911401Y-15201953D02*
X13901877Y-15154334D01*
X13901877Y-15154334D02*
X13892353Y-15125763D01*
X13892353Y-15125763D02*
X13882830Y-15106715D01*
X13882830Y-15106715D02*
X13863782Y-15078143D01*
X13863782Y-15078143D02*
X13854258Y-15068620D01*
M02*
